<svg xmlns="http://www.w3.org/2000/svg" xmlns:xlink="http://www.w3.org/1999/xlink" width="219.33" height="128" viewBox="0 0 329 192"><defs><path id="l5gsa" d="M1078.599 4117.146c-41.036-25.999-2.526-72.345-63.446-82.272-47.866-7.8-84.505 35.224-84.505 35.224s-21.357 24.763-68.095 32.225c-71.18 11.364-69.738 99.675 7.384 117.661 77.121 17.987 56.601-11.241 165.718-3.747 109.118 7.494 82.624-73.948 42.944-99.091zm46.695-41.566c-1.838-1.58-3.945-4.374-10.685-2.314-.524.16-1.031.372-1.536.586-.594.251-2.434.257-4.319-1.24-2.996-2.378-4.167-4.173-8.272-4.228-4.774-.065-5.525 5.887-9.236 7.411-2.361.97-8.593 1.934-9.882 2.363l46.615.215s-1.665-1.915-2.685-2.793z"/><path id="l5gsc" d="M1089.255 4149.055l-.477-1.364-.476 1.364c-.401 1.149-1.355 2.119-2.646 2.693 1.29.574 2.245 1.543 2.646 2.694l.476 1.363.477-1.363c.4-1.151 1.354-2.12 2.645-2.694-1.291-.574-2.245-1.544-2.645-2.693z"/><path id="l5gsd" d="M860.514 4118.565l-.477-1.364-.475 1.364c-.402 1.149-1.356 2.119-2.646 2.693 1.29.574 2.244 1.543 2.646 2.694l.475 1.363.477-1.363c.4-1.151 1.354-2.12 2.646-2.694-1.292-.574-2.245-1.544-2.646-2.693z"/><path id="l5gse" d="M1018.744 4048.96l-.799-2.287-.798 2.287c-.673 1.928-2.27 3.555-4.435 4.517 2.164.961 3.762 2.587 4.435 4.515l.798 2.287.8-2.287c.672-1.928 2.27-3.554 4.435-4.515-2.165-.962-3.763-2.589-4.436-4.517z"/><path id="l5gsf" d="M800.667 4192.09h327.252"/><path id="l5gsg" d="M830.244 4176.257c-2.389 0-12.215-2.1-13.013-11.791-.407-4.95.933-8.271 2.23-11.482 1.552-3.844 3.017-7.474 1.785-13.748-.535-2.725-1.223-4.988-1.829-6.985-2.006-6.608-3.112-10.25 5.444-17.27.058-.043 4.821-3.64 4.891-8.342.072-5.026 6.83-10.545 12.91-10.545 1.554 0 2.996.349 4.287 1.036 2.418 1.287 3.885 2.894 4.484 4.91.99 3.323-.269 7.699-4.343 15.104-4.067 7.39-1.944 9.927-.07 12.167.598.715 1.163 1.39 1.472 2.178.146.372.313.747.484 1.13 1.245 2.787 2.793 6.255-2.265 13.159-2.875 3.923-2.315 8.249-1.772 12.432.508 3.922 1.034 7.978-1.322 11.606-.055.073-4.418 5.592-13.31 6.439z"/><path id="l5gsh" d="M842.661 4096.344c1.438 0 2.86.309 4.171 1.007 6.892 3.67 5.504 9.74.038 19.673-5.465 9.93.171 11.445 1.39 14.556 1.216 3.112 3.907 6.329-1.75 14.05-5.66 7.723 1.686 16.676-3.103 24.05 0 0-4.236 5.48-13.125 6.326a.332.332 0 0 1-.038.002c-.852 0-11.907-1.155-12.764-11.562-.874-10.613 6.324-13.488 4.011-25.257-2.312-11.77-7.454-15.002 3.53-24.015 0 0 4.91-3.645 4.98-8.531.07-4.736 6.541-10.3 12.66-10.3zm0-.5c-6.197 0-13.085 5.647-13.16 10.79-.067 4.577-4.733 8.104-4.779 8.139-8.705 7.142-7.582 10.84-5.544 17.55.604 1.992 1.29 4.249 1.823 6.962 1.218 6.2-.235 9.797-1.772 13.605-1.307 3.239-2.66 6.589-2.247 11.597.814 9.88 10.827 12.02 13.262 12.02h.023l.063-.003c9-.856 13.294-6.288 13.473-6.518 2.43-3.74 1.898-7.841 1.383-11.808-.56-4.324-1.089-8.41 1.726-12.251 5.145-7.022 3.563-10.563 2.293-13.41-.17-.38-.336-.75-.48-1.118-.324-.826-.902-1.517-1.514-2.248-1.82-2.178-3.887-4.646.097-11.886 4.111-7.47 5.375-11.901 4.366-15.296-.62-2.084-2.127-3.74-4.607-5.06-1.327-.707-2.809-1.065-4.406-1.065z"/><path id="l5gsi" d="M1018.595 4192.34a5.183 5.183 0 0 1-5.177-5.175v-106.442a5.183 5.183 0 0 1 5.177-5.176h48.932a5.182 5.182 0 0 1 5.175 5.176v106.442a5.182 5.182 0 0 1-5.175 5.176z"/><path id="l5gsj" d="M1067.526 4075.797a4.925 4.925 0 0 1 4.926 4.926v106.442a4.925 4.925 0 0 1-4.926 4.926h-48.932a4.925 4.925 0 0 1-4.925-4.926v-106.442a4.925 4.925 0 0 1 4.925-4.926h48.932zm0-.5h-48.932a5.431 5.431 0 0 0-5.425 5.426v106.442a5.431 5.431 0 0 0 5.425 5.426h48.932a5.432 5.432 0 0 0 5.426-5.426v-106.442a5.432 5.432 0 0 0-5.426-5.426z"/><path id="l5gsk" d="M860.09 4178.554c-.941 0-4.73-7.595-5.627-16.464-.007-.07-.158-1.697.656-2.597.347-.382.81-.577 1.379-.577.498 0 1.08.153 1.739.455-.455-2.306-2.012-11.636 1.517-16.046 1.217-1.52 2.918-2.291 5.06-2.291.4 0 .824.028 1.256.082 2.243.28 3.395.808 4.567 2.094 1.447 1.587 2.732 4.428.635 8.95-1.091 2.354-2.133 4.27-3.051 5.962-2.21 4.069-3.543 6.524-2.424 9.496 1.694 4.5 1.023 5.823-5.518 10.873l-.068.05z"/><path id="l5gsl" d="M864.813 4141.283c.388 0 .797.026 1.226.08 2.057.257 3.23.715 4.413 2.015 1.603 1.76 2.485 4.596.592 8.676-3.784 8.162-7.108 11.33-5.482 15.652 1.627 4.321 1.078 5.557-5.436 10.586a.059.059 0 0 1-.037.012c-.594 0-4.46-7.173-5.378-16.24 0 0-.289-2.898 1.787-2.898.53 0 1.211.187 2.088.66 0 0-4.163-18.543 6.227-18.543zm0-.5c-2.22 0-3.988.803-5.255 2.385-3.392 4.238-2.186 12.871-1.654 15.791-.516-.197-.98-.293-1.405-.293-.634 0-1.175.227-1.566.66-.889.98-.726 2.715-.72 2.788.842 8.312 4.561 16.69 5.876 16.69h.171l.171-.117c6.6-5.093 7.332-6.553 5.6-11.158-1.078-2.865.16-5.146 2.41-9.288.92-1.694 1.964-3.614 3.059-5.976 2.268-4.89.548-7.878-.677-9.224-1.363-1.495-2.763-1.93-4.721-2.174a10.316 10.316 0 0 0-1.288-.084z"/><path id="l5gsm" d="M976.162 4206.712l.228-1.1.866-3.95-1.889-.37.64-3.257.837.164 1.223-6.114h-95.81a5.235 5.235 0 0 1-5.23-5.23v-134.942a5.235 5.235 0 0 1 5.23-5.23h105.496a5.234 5.234 0 0 1 5.228 5.23v46.8c.328.016.657.04.978.063.36.027.711.052 1.044.065l.167.003c1.422 0 2.037-.708 2.688-1.46.611-.703 1.242-1.431 2.521-1.431.088 0 .178.003.272.01 1.546.118 2.987 1.314 3.424 2.846.415 1.455-.133 2.865-1.504 3.869a1.24 1.24 0 0 1-.118.073l-.06 6.58.26.02-.012.25c-.41 5.578-5.622 6.525-5.673 6.534-.387.044-.74.062-1.077.062a8.1 8.1 0 0 1-1.02-.062l-.004.45c.162.06.278.107.34.134.732.01 1.367.209 1.966.592.245.038.512.129.76.25l6.961 3.43-4.325 6.895.02 22.593-.15.066s-.256.114-.716.29l.384 1.53 10.811 18.779-2.829 24.695 1.15.064-.184 3.315-1.924-.108-.033.988 5.27 1.637a2.26 2.26 0 0 1 1.603 2.12l-.078 1.142-11.67-.796.076-1.12.337-4.221-.81-.044-.343.114.027-.132-1.029-.057.185-3.316 1.035.058 1.11-23.802-9.83-13.924v29.099a5.234 5.234 0 0 1-5.228 5.229h-2.189l-1.748 7.48.616.123-.639 3.258-2.11-.415-.134.778 4.998 2.338a2.256 2.256 0 0 1 1.301 2.317l-.232 1.123z"/><path id="l5gsn" d="M987.753 4046.934a4.979 4.979 0 0 1 4.979 4.979v47.04c.774.027 1.557.112 2.262.138.06.003.118.004.176.004 2.937 0 2.768-2.892 5.209-2.891.082 0 .166.002.254.009 2.76.209 4.9 3.986 1.79 6.263-.065.048-.146.083-.218.126l-.063 6.86c0 .02-.003.038-.003.058.167.06.253.062.253.062-.4 5.448-5.466 6.307-5.466 6.307a9.48 9.48 0 0 1-1.038.059c-.452 0-.873-.035-1.265-.102l-.007.908.003.01c.336.113.534.205.534.205l.076-.001c.67 0 1.27.209 1.809.554.267.058.53.139.784.264l6.714 3.308-4.217 6.72.019 22.503s-.506.226-1.376.528l.51.02.392 1.56 10.796 18.773-2.85 24.876 1.166.065-.157 2.816-1.93-.108-.047 1.433 5.45 1.694a2 2 0 0 1 1.429 1.888l-.06.869-11.172-.762.06-.87.356-4.474-1.065-.06-.032.012v-.013l-1.063-.06.156-2.815 1.039.057 1.126-24.14-7.895-11.182-2.204-3.122-.052-.073-.183.008v29.619a4.979 4.979 0 0 1-4.98 4.979h-2.386l-1.851 7.927.624.123-.543 2.768-2.116-.416-.21 1.218 5.17 2.418a2 2 0 0 1 1.159 2.064l-.177.854-10.965-2.273.177-.854.92-4.197-1.894-.371.543-2.767.837.164 1.332-6.658h-96.116a4.979 4.979 0 0 1-4.98-4.98v-134.942a4.979 4.979 0 0 1 4.98-4.98h105.497zm0-.5H882.256a5.485 5.485 0 0 0-5.48 5.479v134.943a5.485 5.485 0 0 0 5.48 5.479h95.507l-1.115 5.572-.35-.07-.49-.095-.095.49-.543 2.768-.097.49.492.096 1.392.274-.811 3.697-.178.859-.102.49.49.1 10.964 2.275.49.1.1-.488.178-.855c.127-1.143-.44-2.152-1.435-2.618l-4.825-2.257.058-.336 1.613.316.49.096.097-.491.543-2.767.097-.49-.492-.097-.115-.023 1.644-7.036h1.99a5.485 5.485 0 0 0 5.479-5.48v-28.311l1.53 2.168 7.796 11.042-1.094 23.466-.534-.03-.5-.027-.028.499-.156 2.815-.028.5.499.027.57.032-.011.227.626-.192.464.025-.316 3.963-.06.876-.034.499.499.034 11.172.762.499.034.034-.5.059-.868c-.03-1.15-.73-2.073-1.778-2.4l-5.087-1.581.018-.541 1.419.08.499.028.028-.5.157-2.816.028-.5-.5-.027-.636-.035 2.789-24.35.019-.164-.082-.142-10.761-18.711-.312-1.248c.327-.13.51-.211.523-.216l.295-.133v-.324l-.02-22.36 4.142-6.595.295-.47-.497-.245-6.715-3.31c-.24-.118-.5-.21-.811-.283a3.792 3.792 0 0 0-1.977-.585l-.135-.055c.25.024.508.035.768.035.352 0 .72-.021 1.093-.063.083-.013 5.486-.994 5.91-6.766l.038-.526-.283-.006.056-6.196.018-.012c1.459-1.068 2.04-2.577 1.595-4.137-.464-1.63-1.998-2.903-3.645-3.028-.1-.008-.197-.01-.291-.01-1.393-.001-2.093.806-2.71 1.517-.64.737-1.191 1.374-2.5 1.374a4.19 4.19 0 0 1-.156-.003c-.33-.012-.676-.038-1.031-.064a57.702 57.702 0 0 0-.75-.051v-46.564a5.485 5.485 0 0 0-5.48-5.48z"/><path id="l5gso" d="M830.282 4176.006c-.45.043-11.928-.948-12.802-11.561-.874-10.612 6.323-13.487 4.011-25.256-2.312-11.77-7.454-15.002 3.53-24.015 0 0 4.908-3.646 4.98-8.531.086-5.85 9.94-12.962 16.831-9.292s5.503 9.74.038 19.673c-5.465 9.93.172 11.446 1.39 14.556 1.216 3.112 3.907 6.329-1.75 14.05-5.66 7.723 1.686 16.676-3.103 24.05 0 0-4.236 5.48-13.125 6.326z"/><path id="l5gsp" d="M987.753 4191.835H882.256a4.98 4.98 0 0 1-4.98-4.979v-134.943c0-2.75 2.23-4.978 4.98-4.978h105.497a4.978 4.978 0 0 1 4.979 4.978v134.943a4.979 4.979 0 0 1-4.98 4.979z"/><path id="l5gsq" d="M984.624 4175.736H885.6a4.238 4.238 0 0 1-4.239-4.238v-113.842a4.238 4.238 0 0 1 4.239-4.237h99.024a4.236 4.236 0 0 1 4.237 4.237v113.842a4.237 4.237 0 0 1-4.237 4.238z"/><path id="l5gsr" d="M939.653 4184.104a4.649 4.649 0 1 1-9.297-.002 4.649 4.649 0 0 1 9.297.002z"/><path id="l5gss" d="M1022.606 4120.37a3.362 3.362 0 1 0 5.115-4.363 3.362 3.362 0 0 0-5.116 4.363z"/><path id="l5gst" d="M995.313 4120.464l13.698 8.029 15.106-8.971"/><path id="l5gsu" d="M1004.536 4121.094l-4.353 6.937-5.943-4.292a3.486 3.486 0 0 1 3.582-5.954z"/><path id="l5gsv" d="M1067.526 4192.09h-48.932a4.925 4.925 0 0 1-4.925-4.925v-106.442a4.925 4.925 0 0 1 4.925-4.926h48.932a4.925 4.925 0 0 1 4.926 4.926v106.442a4.925 4.925 0 0 1-4.926 4.926z"/><path id="l5gsw" d="M1065.31 4176.163h-44.576a4.273 4.273 0 0 1-4.274-4.273v-88.34a4.274 4.274 0 0 1 4.274-4.275h44.577a4.275 4.275 0 0 1 4.274 4.275v88.34a4.274 4.274 0 0 1-4.275 4.273z"/><path id="l5gsx" d="M1053.429 4083.269h-21.088a3.51 3.51 0 0 1-3.511-3.511v-2.144h28.11v2.144a3.511 3.511 0 0 1-3.511 3.51z"/><path id="l5gsy" d="M1047.66 4184.441a4.6 4.6 0 1 1-9.201 0 4.6 4.6 0 0 1 9.201 0z"/><path id="l5gsz" d="M860.126 4178.292c-.448.347-4.475-6.948-5.414-16.228 0 0-.454-4.561 3.875-2.239 0 0-4.479-19.952 7.452-18.462 2.058.257 3.23.715 4.413 2.015 1.604 1.759 2.486 4.597.594 8.677-3.785 8.161-7.109 11.329-5.483 15.651 1.626 4.321 1.078 5.558-5.437 10.586z"/><path id="l5gsA" d="M976.937 4125.05h-83.968a2.122 2.122 0 0 1-2.122-2.121v-50.296c0-1.173.95-2.122 2.122-2.122h83.968c1.173 0 2.123.949 2.123 2.122v50.296c0 1.172-.95 2.122-2.123 2.122z"/><path id="l5gsB" d="M914.273 4160.5h-21.305a2.122 2.122 0 0 1-2.122-2.122v-21.306c0-1.172.95-2.122 2.122-2.122h21.305c1.172 0 2.122.95 2.122 2.123v21.304c0 1.173-.95 2.123-2.122 2.123z"/><path id="l5gsC" d="M945.606 4160.5H924.3a2.122 2.122 0 0 1-2.123-2.123v-21.304c0-1.173.95-2.123 2.123-2.123h21.305c1.172 0 2.122.95 2.122 2.123v21.304c0 1.173-.95 2.123-2.122 2.123z"/><path id="l5gsD" d="M976.937 4160.5h-21.305a2.122 2.122 0 0 1-2.122-2.123v-21.304c0-1.173.95-2.123 2.122-2.123h21.305c1.173 0 2.123.95 2.123 2.122v21.305c0 1.173-.95 2.123-2.123 2.123z"/><path id="l5gsE" d="M896.106 4145.249h15.03"/><path id="l5gsF" d="M896.106 4150.956h7.516"/><path id="l5gsG" d="M927.438 4145.249h15.576"/><path id="l5gsH" d="M927.438 4150.956h7.516"/><path id="l5gsI" d="M958.77 4145.249h15.03"/><path id="l5gsJ" d="M958.77 4150.956h7.515"/><path id="l5gsK" d="M1062.441 4161.088h-38.762a1.944 1.944 0 0 1-1.945-1.945v-30.781c0-1.074.87-1.945 1.945-1.945h38.762c1.075 0 1.945.87 1.945 1.945v30.78c0 1.076-.87 1.946-1.945 1.946z"/><path id="l5gsL" d="M1062.441 4120.768h-38.762a1.945 1.945 0 0 1-1.945-1.945v-5.4c0-1.073.87-1.944 1.945-1.944h38.762c1.075 0 1.945.87 1.945 1.945v5.399c0 1.074-.87 1.945-1.945 1.945z"/><path id="l5gsM" d="M1062.441 4105.83h-38.762a1.945 1.945 0 0 1-1.945-1.946v-5.399c0-1.074.87-1.945 1.945-1.945h38.762c1.075 0 1.945.871 1.945 1.945v5.4c0 1.073-.87 1.944-1.945 1.944z"/><path id="l5gsN" d="M999.473 4150.865l1.51 6.015-18.2.787.47-7.442z"/><path id="l5gsO" d="M991.21 4154.815l11.855 16.792-1.257 26.97 5.935-1.918 2.917-25.462-10.796-18.771z"/><path id="l5gsP" d="M992.967 4157.302l3.984-.38-1.78 3.502z"/><path id="l5gsQ" d="M982.858 4156.628l-.735 16.462-5.589 27.934 6.38 1.31 6.652-28.488 1.644-19.031z"/><path id="l5gsR" d="M1006.927 4197.741l-3.93-.269-.448 5.626 11.172.763a1.998 1.998 0 0 0-1.428-1.888l-5.452-1.694z"/><path id="l5gsS" d="M1002.549 4203.099l11.172.763-.06.869-11.172-.762z"/><path id="l5gsT" d="M981.7 4200.95l-3.857-.799-1.209 5.513 10.964 2.272a1.997 1.997 0 0 0-1.157-2.063l-5.17-2.419z"/><path id="l5gsU" d="M976.634 4205.664l10.965 2.272-.177.854-10.965-2.272z"/><path id="l5gsV" d="M1008.976 4196.139l-8.074-.45-.156 2.816 8.074.449z"/><path id="l5gsW" d="M984.139 4199.885l-7.936-1.557-.543 2.768 7.936 1.557z"/><path id="l5gsX" d="M987.346 4117.915c-2.707 1.986-4.106 7.171-4.563 12.435l-1.517 20.669c9.838 3.532 19.072-.703 19.072-.703l-.02-25.665c.037-2.423-1.694-7.763-5.164-7.682 0 0-3.944-1.889-7.808.946z"/><path id="l5gsY" d="M989.499 4118.87l5.103-.025.077-11.059-5.103.024z"/><path id="l5gsZ" d="M995.814 4115.674a6.27 6.27 0 0 0 6.327-6.211l.072-7.793-12.539-.116-.072 7.793a6.27 6.27 0 0 0 6.212 6.327z"/><path id="l5gsaa" d="M989.685 4107.277l1.787.052a.772.772 0 0 0 .784-.899c-.212-1.296-.442-3.517.403-3.768 1.2-.358 7.555 1.43 9.765-.187 3.11-2.277.97-6.053-1.791-6.262-2.761-.21-2.416 3-5.638 2.877-3.224-.122-8.093-1.456-6.146 7.128z"/><path id="l5gsab" d="M1002.392 4109.582s-.561 0-1.673-1.041c-1.083-1.013-3.835-1.09-5.596.461-1.76 1.551-2.978-3.36-2.978-3.36l-.93 1.526s.426 2.377-1.792 2.414c0 0 .454 7.089 7.503 6.307 0 0 5.067-.859 5.466-6.307z"/><path id="l5gsac" d="M987.472 4107.594a1.969 1.969 0 1 0 3.939.036 1.969 1.969 0 1 0-3.94-.036z"/><path id="l5gsad" d="M989.499 4116.727l4.195 3.07.908-3.093z"/><path id="l5gsae" d="M993.694 4119.797l-4.195 1.46v-4.53z"/><path id="l5gsaf" d="M993.694 4119.797l2.088 1.048-1.18-4.142z"/><path id="l5gsag" d="M1017.91 4124.922a3.597 3.597 0 1 0 5.474-4.667 3.597 3.597 0 0 0-5.474 4.667z"/><path id="l5gsah" d="M988.704 4125.023l14.658 8.591 16.165-9.6"/><path id="l5gsai" d="M998.574 4125.697l-4.658 7.422-6.36-4.594a3.73 3.73 0 0 1 3.833-6.369z"/><path id="l5gsaj" d="M898.8 4085.692v26.201c0 2 1.623 3.616 3.623 3.616H939.1c2 0 3.622-1.616 3.622-3.616v-26.2c0-2-1.622-3.617-3.622-3.617h-36.678c-2 0-3.622 1.616-3.622 3.616z"/><path id="l5gsak" d="M903.665 4095.031c0 4.59 3.72 8.308 8.308 8.308a8.306 8.306 0 0 0 8.307-8.308 8.308 8.308 0 1 0-16.615 0z"/><path id="l5gsal" d="M898.8 4109.27v2.623c0 2 1.623 3.616 3.623 3.616H939.1c2 0 3.622-1.616 3.622-3.616v-2.623l-13.082-13.08-8.88 8.885-8.885-8.885z"/><path id="l5gsam" d="M1028.438 4135.135v17.235a2.38 2.38 0 0 0 2.382 2.379h24.129a2.38 2.38 0 0 0 2.382-2.38v-17.234a2.381 2.381 0 0 0-2.382-2.38h-24.129a2.38 2.38 0 0 0-2.382 2.38z"/><path id="l5gsan" d="M1031.638 4141.278a5.465 5.465 0 1 0 10.929.001 5.465 5.465 0 0 0-10.93 0z"/><path id="l5gsao" d="M1028.438 4150.645v1.725a2.38 2.38 0 0 0 2.382 2.38h24.129a2.381 2.381 0 0 0 2.382-2.38v-1.724l-8.605-8.606-5.843 5.845-5.844-5.845z"/><path id="l5gsap" d="M949.19 4089.864h13.698"/><path id="l5gsaq" d="M949.19 4099.42h22.835"/><path id="l5gsar" d="M949.19 4108.682h22.835"/><path id="l5gsas" d="M832.611 4192.24a.482.482 0 0 0 .336-.57c-7.222-32.24 3.82-76.904 3.932-77.35a.483.483 0 0 0-.937-.236c-.113.45-11.209 45.336-3.937 77.797.058.26.316.423.577.366l.03-.008z"/><path id="l5gsat" d="M832.658 4134.178a.484.484 0 0 0 .3-.676c-.028-.056-2.77-5.705-3.98-10.566a.484.484 0 0 0-.937.233c1.234 4.962 4.021 10.699 4.05 10.757a.481.481 0 0 0 .567.252z"/><path id="l5gsau" d="M831.135 4147.439a.477.477 0 0 0 .185-.103c2.36-2.086 8.336-6.068 8.397-6.108a.483.483 0 1 0-.535-.805c-.248.165-6.093 4.06-8.502 6.19a.482.482 0 0 0 .455.825z"/><path id="l5gsav" d="M861.29 4191.277a.44.44 0 0 0 .342-.519c-2.75-13.41 1.205-35.999 1.71-36.989a.426.426 0 0 0-.109-.6.45.45 0 0 0-.62.111c-.815 1.136-4.509 24.646-1.841 37.655a.439.439 0 0 0 .518.342z"/><linearGradient id="l5gsb" x1="877.55" x2="1087.18" y1="4247.06" y2="4037.42" gradientUnits="userSpaceOnUse"><stop offset="0" stop-color="#0694ea"/><stop offset=".01" stop-color="#0694ea"/><stop offset="1" stop-color="#9dc137"/><stop offset="1" stop-color="#9dc137"/></linearGradient></defs><g><g opacity=".4" transform="translate(-800 -4034)"><g opacity=".4"><use fill="url(#l5gsb)" xlink:href="#l5gsa"/></g></g><g transform="translate(-800 -4034)"><use fill="#fff" xlink:href="#l5gsc"/></g><g transform="translate(-800 -4034)"><use fill="#fff" xlink:href="#l5gsd"/></g><g transform="translate(-800 -4034)"><use fill="#fff" xlink:href="#l5gse"/></g><g transform="translate(-800 -4034)"><use fill="#fff" fill-opacity="0" stroke="#001c34" stroke-linecap="round" stroke-linejoin="round" stroke-miterlimit="50" stroke-width=".53" xlink:href="#l5gsf"/></g><g transform="translate(-800 -4034)"><use fill="#fff" xlink:href="#l5gsg"/></g><g transform="translate(-800 -4034)"><use fill="#fff" xlink:href="#l5gsh"/></g><g transform="translate(-800 -4034)"><use fill="#fff" xlink:href="#l5gsi"/></g><g transform="translate(-800 -4034)"><use fill="#fff" xlink:href="#l5gsj"/></g><g transform="translate(-800 -4034)"><use fill="#fff" xlink:href="#l5gsk"/></g><g transform="translate(-800 -4034)"><use fill="#fff" xlink:href="#l5gsl"/></g><g transform="translate(-800 -4034)"><use fill="#fff" xlink:href="#l5gsm"/></g><g transform="translate(-800 -4034)"><use fill="#fff" xlink:href="#l5gsn"/></g><g transform="translate(-800 -4034)"><use fill="#64b9ff" xlink:href="#l5gso"/></g><g transform="translate(-800 -4034)"><use fill="#a0c437" xlink:href="#l5gsp"/></g><g transform="translate(-800 -4034)"><use fill="#fff" fill-opacity="0" stroke="#fff" stroke-miterlimit="50" xlink:href="#l5gsp"/></g><g transform="translate(-800 -4034)"><use fill="#fff" xlink:href="#l5gsq"/></g><g transform="translate(-800 -4034)"><use fill="#fff" fill-opacity="0" stroke="#8396ce" stroke-miterlimit="50" xlink:href="#l5gsr"/></g><g transform="translate(-800 -4034)"><use fill="#ffc09c" xlink:href="#l5gss"/></g><g transform="translate(-800 -4034)"><use fill="#fff" fill-opacity="0" stroke="#ffc09c" stroke-linejoin="round" stroke-miterlimit="50" stroke-width="3.69" xlink:href="#l5gst"/></g><g transform="translate(-800 -4034)"><use fill="#ff627c" xlink:href="#l5gsu"/></g><g transform="translate(-800 -4034)"><use fill="#0697ed" xlink:href="#l5gsv"/></g><g transform="translate(-800 -4034)"><use fill="#fff" xlink:href="#l5gsw"/></g><g transform="translate(-800 -4034)"><use fill="#c8cfee" xlink:href="#l5gsx"/></g><g transform="translate(-800 -4034)"><use fill="#fff" fill-opacity="0" stroke="#8396ce" stroke-miterlimit="50" xlink:href="#l5gsy"/></g><g transform="translate(-800 -4034)"><use fill="#5cc4f7" xlink:href="#l5gsz"/></g><g transform="translate(-800 -4034)"><use fill="#eceeff" xlink:href="#l5gsA"/></g><g transform="translate(-800 -4034)"><use fill="#c8cfee" xlink:href="#l5gsB"/></g><g transform="translate(-800 -4034)"><use fill="#c8cfee" xlink:href="#l5gsC"/></g><g transform="translate(-800 -4034)"><use fill="#6bf" xlink:href="#l5gsD"/></g><g transform="translate(-800 -4034)"><use fill="#fff" fill-opacity="0" stroke="#fff" stroke-linecap="round" stroke-linejoin="round" stroke-miterlimit="50" stroke-width="1.32" xlink:href="#l5gsE"/></g><g transform="translate(-800 -4034)"><use fill="#fff" fill-opacity="0" stroke="#fff" stroke-linecap="round" stroke-linejoin="round" stroke-miterlimit="50" stroke-width="1.32" xlink:href="#l5gsF"/></g><g transform="translate(-800 -4034)"><use fill="#fff" fill-opacity="0" stroke="#fff" stroke-linecap="round" stroke-linejoin="round" stroke-miterlimit="50" stroke-width="1.32" xlink:href="#l5gsG"/></g><g transform="translate(-800 -4034)"><use fill="#fff" fill-opacity="0" stroke="#fff" stroke-linecap="round" stroke-linejoin="round" stroke-miterlimit="50" stroke-width="1.32" xlink:href="#l5gsH"/></g><g transform="translate(-800 -4034)"><use fill="#fff" fill-opacity="0" stroke="#fff" stroke-linecap="round" stroke-linejoin="round" stroke-miterlimit="50" stroke-width="1.32" xlink:href="#l5gsI"/></g><g transform="translate(-800 -4034)"><use fill="#fff" fill-opacity="0" stroke="#fff" stroke-linecap="round" stroke-linejoin="round" stroke-miterlimit="50" stroke-width="1.32" xlink:href="#l5gsJ"/></g><g transform="translate(-800 -4034)"><use fill="#eceeff" xlink:href="#l5gsK"/></g><g transform="translate(-800 -4034)"><use fill="#6bf" xlink:href="#l5gsL"/></g><g transform="translate(-800 -4034)"><use fill="#c8cfee" xlink:href="#l5gsM"/></g><g transform="translate(-800 -4034)"><use fill="#323d5d" xlink:href="#l5gsN"/></g><g transform="translate(-800 -4034)"><use fill="#323d5d" xlink:href="#l5gsO"/></g><g opacity=".44" transform="translate(-800 -4034)"><g opacity=".44"><use fill="#ccc" xlink:href="#l5gsP"/></g></g><g transform="translate(-800 -4034)"><use fill="#323d5d" xlink:href="#l5gsQ"/></g><g transform="translate(-800 -4034)"><use fill="#102a39" xlink:href="#l5gsR"/></g><g transform="translate(-800 -4034)"><use fill="#c8cfee" xlink:href="#l5gsS"/></g><g transform="translate(-800 -4034)"><use fill="#102a39" xlink:href="#l5gsT"/></g><g transform="translate(-800 -4034)"><use fill="#c8cfee" xlink:href="#l5gsU"/></g><g transform="translate(-800 -4034)"><use fill="#495979" xlink:href="#l5gsV"/></g><g transform="translate(-800 -4034)"><use fill="#495979" xlink:href="#l5gsW"/></g><g transform="translate(-800 -4034)"><use fill="#ff7587" xlink:href="#l5gsX"/></g><g transform="translate(-800 -4034)"><use fill="#ffb68d" xlink:href="#l5gsY"/></g><g transform="translate(-800 -4034)"><use fill="#ffc09c" xlink:href="#l5gsZ"/></g><g transform="translate(-800 -4034)"><use fill="#192338" xlink:href="#l5gsaa"/></g><g transform="translate(-800 -4034)"><use fill="#192338" xlink:href="#l5gsab"/></g><g transform="translate(-800 -4034)"><use fill="#ffc09c" xlink:href="#l5gsac"/></g><g transform="translate(-800 -4034)"><use fill="#ffb68d" xlink:href="#l5gsad"/></g><g transform="translate(-800 -4034)"><use fill="#ff93a6" xlink:href="#l5gsae"/></g><g transform="translate(-800 -4034)"><use fill="#ff93a6" xlink:href="#l5gsaf"/></g><g transform="translate(-800 -4034)"><use fill="#ffc09c" xlink:href="#l5gsag"/></g><g transform="translate(-800 -4034)"><use fill="#fff" fill-opacity="0" stroke="#ffc09c" stroke-linejoin="round" stroke-miterlimit="50" stroke-width="3.94" xlink:href="#l5gsah"/></g><g transform="translate(-800 -4034)"><use fill="#ff93a6" xlink:href="#l5gsai"/></g><g transform="translate(-800 -4034)"><use fill="#6bf" xlink:href="#l5gsaj"/></g><g transform="translate(-800 -4034)"><use fill="#6d35ff" xlink:href="#l5gsak"/></g><g transform="translate(-800 -4034)"><use fill="#fff" xlink:href="#l5gsal"/></g><g transform="translate(-800 -4034)"><use fill="#6bf" xlink:href="#l5gsam"/></g><g transform="translate(-800 -4034)"><use fill="#6d35ff" xlink:href="#l5gsan"/></g><g transform="translate(-800 -4034)"><use fill="#fff" xlink:href="#l5gsao"/></g><g transform="translate(-800 -4034)"><use fill="#fff" fill-opacity="0" stroke="#fff" stroke-linecap="round" stroke-linejoin="round" stroke-miterlimit="50" stroke-width="1.91" xlink:href="#l5gsap"/></g><g transform="translate(-800 -4034)"><use fill="#fff" fill-opacity="0" stroke="#fff" stroke-linecap="round" stroke-linejoin="round" stroke-miterlimit="50" stroke-width="1.91" xlink:href="#l5gsaq"/></g><g transform="translate(-800 -4034)"><use fill="#fff" fill-opacity="0" stroke="#fff" stroke-linecap="round" stroke-linejoin="round" stroke-miterlimit="50" stroke-width="1.91" xlink:href="#l5gsar"/></g><g transform="translate(-800 -4034)"><use fill="#008ddc" xlink:href="#l5gsas"/></g><g transform="translate(-800 -4034)"><use fill="#008ddc" xlink:href="#l5gsat"/></g><g transform="translate(-800 -4034)"><use fill="#008ddc" xlink:href="#l5gsau"/></g><g transform="translate(-800 -4034)"><use fill="#14b1ef" xlink:href="#l5gsav"/></g></g></svg>