<svg xmlns="http://www.w3.org/2000/svg" xmlns:xlink="http://www.w3.org/1999/xlink" width="61.33" height="61.33" viewBox="0 0 92 92"><defs><path id="e9vfb" d="M289.953 4619.387h-41.596c-13.643 0-24.702-11.06-24.702-24.702v-41.596c0-13.642 11.059-24.702 24.702-24.702h41.596c13.643 0 24.702 11.06 24.702 24.702v41.596c0 13.643-11.06 24.702-24.702 24.702z"/><path id="e9vfc" d="M260.92 4553.027c.765 8.797-3.773 10.161-3.773 10.161.737-3.056-.129-5.988-1.552-7.734-1.399-1.719-3.346-2.276-3.346-2.276s4.289 5.307-2.091 16.834c-3.367 6.088.456 12.285.456 12.285-3.034-2.276-5.459 0-5.459 0 4.094 2.88 1.212 10.31 6.066 16.983 2.822 3.88 5.953 6.068 9.165 7.351-5.053-3.21-8.407-8.856-8.407-15.287 0-9.995 8.102-18.097 18.097-18.097 9.993 0 18.095 8.102 18.095 18.097 0 6.673-3.611 12.499-8.984 15.636 7.223-2.614 10.649-8.09 11.917-11.643 5.307-14.861-1.365-21.382-1.365-21.382 1.214 3.185-.607 7.279-.607 7.279.305-7.128-6.065-10.766-2.977-21.988 1.263-4.595-1.419-7.128-1.419-7.128.758 3.034-1.063 3.943-3.533 8.037-2.469 4.094-1.188 8.341-1.188 8.341-4.268-4.549-2.407-11.071-1.164-14.862 1.243-3.79-.485-6.217-.485-6.217.758 4.396-5.763 10.766-10.25 3.336-4.489-7.43 1.155-12.284 1.155-12.284-7.121.153-8.813 9.237-8.351 14.558z"/><path id="e9vfe" d="M288.171 4591.344c0-9.994-8.102-18.096-18.096-18.096-9.995 0-18.096 8.102-18.096 18.096 0 6.43 3.354 12.077 8.407 15.287a18.024 18.024 0 0 0 9.69 2.809c3.321 0 6.434-.896 9.11-2.458 5.374-3.138 8.985-8.966 8.985-15.638z"/><path id="e9vfa" d="M260.92 4552.892c.765 8.796-3.773 10.161-3.773 10.161.737-3.058-.129-5.989-1.552-7.735-1.399-1.718-3.346-2.276-3.346-2.276s4.289 5.308-2.091 16.835c-3.367 6.088.456 12.282.456 12.282-3.034-2.274-5.459 0-5.459 0 4.094 2.883 1.212 10.313 6.066 16.986 2.822 3.879 5.953 6.067 9.165 7.351-5.053-3.21-8.407-8.856-8.407-15.287 0-9.995 8.102-18.098 18.097-18.098 9.993 0 18.095 8.103 18.095 18.098 0 6.672-3.611 12.499-8.984 15.636 7.223-2.614 10.649-8.093 11.917-11.643 5.307-14.861-1.365-21.382-1.365-21.382 1.214 3.185-.607 7.279-.607 7.279.305-7.128-6.065-10.766-2.977-21.989 1.263-4.594-1.419-7.128-1.419-7.128.758 3.034-1.063 3.943-3.533 8.038-2.469 4.093-1.188 8.341-1.188 8.341-4.268-4.55-2.407-11.071-1.164-14.863 1.243-3.79-.485-6.216-.485-6.216.758 4.396-5.763 10.766-10.25 3.336-4.489-7.431 1.155-12.285 1.155-12.285-7.121.154-8.813 9.237-8.351 14.559z"/><path id="e9vfi" d="M289.436 4579.43c1.213 3.185-.607 7.279-.607 7.279.303-7.127-6.066-10.767-2.978-21.989 1.264-4.595-1.419-7.127-1.419-7.127.757 3.033-1.062 3.943-3.532 8.037-2.47 4.095-1.19 8.341-1.19 8.341-4.266-4.55-2.406-11.07-1.163-14.862 1.244-3.791-.485-6.217-.485-6.217.758 4.398-5.762 10.767-10.25 3.336-4.487-7.431 1.157-12.283 1.157-12.283-7.122.151-8.814 9.236-8.352 14.558.764 8.795-3.773 10.16-3.773 10.16.738-3.057-.13-5.988-1.552-7.734-1.398-1.718-3.345-2.275-3.345-2.275s4.287 5.308-2.092 16.833c-3.369 6.088.456 12.284.456 12.284-3.033-2.275-5.46 0-5.46 0 4.095 2.881 1.213 10.312 6.066 16.984 2.823 3.881 5.953 6.067 9.166 7.351-5.053-3.21-8.408-8.856-8.408-15.287 0-9.994 8.102-18.096 18.097-18.096 9.994 0 18.096 8.102 18.096 18.096 0 6.672-3.611 12.5-8.985 15.638 7.223-2.615 10.649-8.094 11.918-11.645 5.307-14.861-1.365-21.382-1.365-21.382z"/><path id="e9vfl" d="M251.343 4588.793c-1.175 3.084.588 7.05.588 7.05-.294-6.903 5.874-10.427 2.884-21.295-1.224-4.449 1.375-6.902 1.375-6.902-.734 2.937 1.028 3.818 3.419 7.784 2.392 3.965 1.153 8.077 1.153 8.077 4.131-4.406 2.33-10.721 1.126-14.392-1.204-3.672.469-6.021.469-6.021-.733 4.259 5.581 10.427 9.927 3.231 4.345-7.197-1.12-11.896-1.12-11.896 6.897.147 8.535 8.945 8.087 14.098-.739 8.518 3.655 9.84 3.655 9.84-.715-2.961.126-5.8 1.502-7.49 1.355-1.664 3.24-2.203 3.24-2.203s-4.152 5.14 2.025 16.301c3.263 5.896-.441 11.896-.441 11.896 2.938-2.203 5.288 0 5.288 0-3.966 2.79-1.175 9.986-5.875 16.447-2.733 3.758-5.764 5.883-8.876 7.127 4.894-3.109-23.411-2.699-18.207.34-6.995-2.533-10.312-7.842-11.541-11.281-5.139-14.392 1.322-20.711 1.322-20.711z"/><path id="e9vfn" d="M261.644 4604.646a15.693 15.693 0 0 1-7.315-13.302c0-8.682 7.065-15.744 15.747-15.744 8.682 0 15.745 7.062 15.745 15.744 0 5.576-2.996 10.791-7.818 13.607a15.726 15.726 0 0 1-7.927 2.14c-2.998 0-5.912-.846-8.432-2.445zm-8.377-13.302c0 5.784 2.921 11.092 7.809 14.198a16.766 16.766 0 0 0 9 2.609 16.77 16.77 0 0 0 8.461-2.285c5.148-3.004 8.346-8.569 8.346-14.522 0-9.268-7.54-16.807-16.807-16.807-9.268 0-16.809 7.539-16.809 16.807z"/><path id="e9vfp" d="M269.941 4578.16l-.316.004h-.068l-.036.003-.072.004-.144.009a13.094 13.094 0 0 0-6.034 1.827 13.134 13.134 0 0 0-3.729 3.339 12.828 12.828 0 0 0-2.127 4.29 12.678 12.678 0 0 0-.422 4.401c.099 1.409.451 2.697.914 3.818a12.212 12.212 0 0 0 1.649 2.84c.6.774 1.211 1.365 1.734 1.823.271.217.506.422.729.573.221.156.401.296.562.39l.482.303-.458-.337c-.295-.22-.715-.566-1.209-1.044a12.708 12.708 0 0 1-1.565-1.903 11.928 11.928 0 0 1-1.39-2.845 11.658 11.658 0 0 1-.6-3.645 11.757 11.757 0 0 1 .677-4.025 11.496 11.496 0 0 1 2.181-3.701 11.422 11.422 0 0 1 3.456-2.673 11.046 11.046 0 0 1 4.146-1.146c.178-.02.341-.018.51-.027.155-.009.361-.004.55-.002h.144l.073.002h.036c-.052.002-.005 0-.012.002h.016l.262.018.259.016.257.029c.686.077 1.354.217 1.988.411a10.813 10.813 0 0 1 3.367 1.732 10.809 10.809 0 0 1 2.322 2.42 10.416 10.416 0 0 1 1.782 4.571c.047.291.056.557.081.785l.007.29.006.127c0 .038.003.077 0 .128l-.004.567 1.829-.045 1.83-.048-.034-.566c-.003-.043-.007-.102-.014-.167l-.02-.196a25.873 25.873 0 0 1-.048-.451c-.051-.305-.094-.657-.184-1.042a13.805 13.805 0 0 0-.869-2.703 13.747 13.747 0 0 0-5.073-5.977 13.439 13.439 0 0 0-4.34-1.845 13.426 13.426 0 0 0-2.454-.323l-.314-.014z"/><path id="e9vfr" d="M271.175 4589.709c.525.354.87.954.87 1.635 0 .138-.013.273-.04.404 1.98-1.22 6.404-4.094 6.404-4.094s-4.97 1.374-7.234 2.055z"/><path id="e9vft" d="M268.102 4591.344a1.971 1.971 0 1 0 3.903.404 1.968 1.968 0 0 0-.83-2.039 1.973 1.973 0 0 0-3.073 1.635z"/><path id="e9vfv" d="M272.054 4596.816h.443c.189 0 .333-.049.433-.149.101-.099.151-.243.151-.43 0-.127-.036-.221-.106-.287-.072-.067-.176-.101-.312-.101h-.439zm.81-1.612c.327 0 .582.083.765.248.185.167.277.397.277.693 0 .18-.029.351-.092.514a1.279 1.279 0 0 1-.262.428 1.114 1.114 0 0 1-.442.287 2.03 2.03 0 0 1-.643.087h-.532l-.208 1.201h-.8l.606-3.458zm3.769 0l-.117.674h-1.362l-.115.643h1.283l-.122.674h-1.279l-.137.792h1.405l-.113.675h-2.213l.607-3.458zm2.728 0l-.12.674h-1.36l-.115.643h1.283l-.122.674h-1.278l-.14.792h1.405l-.113.675h-2.213l.609-3.458zm.875 2.783h.289c.374 0 .669-.115.886-.349.219-.233.327-.549.327-.946 0-.268-.07-.471-.212-.609-.142-.137-.354-.205-.636-.205h-.28zm.53-2.783c.404 0 .706.027.907.081.2.052.37.142.503.266.135.126.237.278.304.456.068.178.102.379.102.604 0 .314-.059.609-.174.887-.115.277-.28.509-.489.699a1.636 1.636 0 0 1-.639.359c-.243.069-.616.106-1.119.106h-.846l.607-3.458zm-12.034.264c.248-.219.582-.327 1.001-.327.167 0 .341.015.517.043.178.029.359.071.541.128l-.128.733a2.26 2.26 0 0 0-.467-.194 1.656 1.656 0 0 0-.447-.063c-.201 0-.356.034-.469.104a.321.321 0 0 0-.167.288c0 .079.025.14.074.185.048.046.149.088.305.129l.329.09c.275.077.478.189.607.336.129.144.192.334.192.564 0 .377-.129.677-.384.905-.257.228-.602.34-1.033.34a3.047 3.047 0 0 1-1.186-.248l.126-.753c.185.119.363.208.539.266.174.059.345.088.517.088.182 0 .331-.04.446-.124a.38.38 0 0 0 .174-.32.258.258 0 0 0-.079-.199c-.05-.047-.165-.095-.338-.144l-.327-.09c-.242-.066-.422-.172-.539-.314-.118-.144-.176-.331-.176-.559 0-.359.124-.648.372-.864z"/><linearGradient id="e9vfd" x1="269.15" x2="269.15" y1="4608.33" y2="4538.47" gradientUnits="userSpaceOnUse"><stop offset="0" stop-color="#ff7543"/><stop offset=".61" stop-color="#ffd01f"/><stop offset="1" stop-color="#fff900"/></linearGradient><linearGradient id="e9vff" x1="269.15" x2="269.15" y1="4608.33" y2="4538.47" gradientUnits="userSpaceOnUse"><stop offset="0" stop-color="#ff7543"/><stop offset=".61" stop-color="#ffd01f"/><stop offset="1" stop-color="#fff900"/></linearGradient><linearGradient id="e9vfg" x1="245.15" x2="293.15" y1="4572.59" y2="4572.59" gradientUnits="userSpaceOnUse"><stop offset="0" stop-color="#0694ea"/><stop offset=".01" stop-color="#0694ea"/><stop offset="1" stop-color="#9dc137"/><stop offset="1" stop-color="#9dc137"/></linearGradient><linearGradient id="e9vfj" x1="244.85" x2="292.85" y1="4578.2" y2="4578.2" gradientUnits="userSpaceOnUse"><stop offset="0" stop-color="#0694ea"/><stop offset=".01" stop-color="#0694ea"/><stop offset="1" stop-color="#9dc137"/><stop offset="1" stop-color="#9dc137"/></linearGradient><linearGradient id="e9vfm" x1="248.04" x2="294.52" y1="4587.61" y2="4587.61" gradientUnits="userSpaceOnUse"><stop offset="0" stop-color="#0694ea"/><stop offset=".01" stop-color="#0694ea"/><stop offset="1" stop-color="#9dc137"/><stop offset="1" stop-color="#9dc137"/></linearGradient><linearGradient id="e9vfo" x1="253.27" x2="286.88" y1="4591.34" y2="4591.34" gradientUnits="userSpaceOnUse"><stop offset="0" stop-color="#0694ea"/><stop offset=".01" stop-color="#0694ea"/><stop offset="1" stop-color="#9dc137"/><stop offset="1" stop-color="#9dc137"/></linearGradient><linearGradient id="e9vfq" x1="256.95" x2="283.6" y1="4589.97" y2="4589.97" gradientUnits="userSpaceOnUse"><stop offset="0" stop-color="#0694ea"/><stop offset=".01" stop-color="#0694ea"/><stop offset="1" stop-color="#9dc137"/><stop offset="1" stop-color="#9dc137"/></linearGradient><linearGradient id="e9vfs" x1="271.18" x2="278.41" y1="4589.7" y2="4589.7" gradientUnits="userSpaceOnUse"><stop offset="0" stop-color="#0694ea"/><stop offset=".01" stop-color="#0694ea"/><stop offset="1" stop-color="#9dc137"/><stop offset="1" stop-color="#9dc137"/></linearGradient><linearGradient id="e9vfu" x1="268.1" x2="272.05" y1="4591.34" y2="4591.34" gradientUnits="userSpaceOnUse"><stop offset="0" stop-color="#0694ea"/><stop offset=".01" stop-color="#0694ea"/><stop offset="1" stop-color="#9dc137"/><stop offset="1" stop-color="#9dc137"/></linearGradient><linearGradient id="e9vfw" x1="268.02" x2="282.58" y1="4596.94" y2="4596.94" gradientUnits="userSpaceOnUse"><stop offset="0" stop-color="#0694ea"/><stop offset=".01" stop-color="#0694ea"/><stop offset="1" stop-color="#9dc137"/><stop offset="1" stop-color="#9dc137"/></linearGradient><clipPath id="e9vfh"><use xlink:href="#e9vfa"/></clipPath><clipPath id="e9vfk"><use xlink:href="#e9vfa"/></clipPath></defs><g><g transform="translate(-223 -4528)"><use fill="#fff" xlink:href="#e9vfb"/></g><g transform="translate(-223 -4528)"><use fill="url(#e9vfd)" xlink:href="#e9vfc"/></g><g transform="translate(-223 -4528)"><use fill="#fff" xlink:href="#e9vfe"/></g><g transform="translate(-223 -4528)"><use fill="url(#e9vff)" xlink:href="#e9vfc"/></g><g transform="translate(-223 -4528)"><use fill="#fff" xlink:href="#e9vfe"/></g><g transform="translate(-223 -4528)"><use fill="url(#e9vfg)" xlink:href="#e9vfa"/></g><g transform="translate(-223 -4528)"/><g clip-path="url(#e9vfh)" transform="translate(-223 -4528)"><g><use fill="url(#e9vfj)" xlink:href="#e9vfi"/></g></g><g transform="translate(-223 -4528)"/><g clip-path="url(#e9vfk)" transform="translate(-223 -4528)"><g><use fill="url(#e9vfm)" xlink:href="#e9vfl"/></g></g><g transform="translate(-223 -4528)"><use fill="url(#e9vfo)" xlink:href="#e9vfn"/></g><g transform="translate(-223 -4528)"><use fill="url(#e9vfq)" xlink:href="#e9vfp"/></g><g transform="translate(-223 -4528)"><use fill="url(#e9vfs)" xlink:href="#e9vfr"/></g><g transform="translate(-223 -4528)"><use fill="url(#e9vfu)" xlink:href="#e9vft"/></g><g transform="translate(-223 -4528)"><use fill="url(#e9vfw)" xlink:href="#e9vfv"/></g></g></svg>