<svg xmlns="http://www.w3.org/2000/svg" xmlns:xlink="http://www.w3.org/1999/xlink" width="218.67" height="166" viewBox="0 0 328 249"><defs><path id="6waqa" d="M282.66 4817.23a6.361 6.361 0 0 1-6.354-6.353 6.36 6.36 0 0 1 6.353-6.353h42.435c2.77-9.105 11.337-15.652 21.043-15.652.251 0 .503.004.755.013v-68.06c0-8.775 7.14-15.913 15.914-15.913h1.223c3.043-6.224 10.601-11.35 22.524-15.263 4.375-1.437 9.216-2.663 14.456-3.666a56.24 56.24 0 0 1-13.856-16.66c-1.004 1.016-1.786 1.572-2.53 1.97l-6.507 3.472-2.47-6.95c-1.302-3.66-.57-7.869.355-13.197 1.114-6.41 2.5-14.379.185-21.755-3.124-9.962 1.037-24.612 10.355-36.456 7.281-9.253 18.16-15.569 32.334-18.77l.228-.053c2.148-.487 6.732-1.525 12.85-1.905v-.078l3.442-.059a72.714 72.714 0 0 1 12.89.95c1.193.196 2.406.427 3.605.688.89.193 1.78.4 2.663.627 3.432.886 7.705 1.99 12.202 3.86 6.235 2.592 11.378 6.05 15.724 10.568 13.85 14.4 14.422 33.471 13.531 43.556a67.339 67.339 0 0 1-.2 1.953c-.08.654-.13 1.34-.156 2.038-.063 1.82.062 3.777.383 5.985.127.883.287 1.802.49 2.814.372 1.875.812 3.69 1.23 5.387.761 3.094 1.417 5.762 1.52 8.185l.003.104c.064 1.775-.176 3.314-.733 4.702l-3.046 7.595-6.602-4.832c-.17-.124-.374-.288-.593-.47l-.109-.094a27.563 27.563 0 0 1-.574-.512l-.09-.084a38.18 38.18 0 0 1-.635-.603c-.288-.28-.528-.518-.776-.768l-.116-.118-.285.567c-.235.47-.47.936-.716 1.395-.133.249-.272.497-.412.746l-.108.19c-.246.44-.492.87-.745 1.297a62.93 62.93 0 0 1-1.375 2.184 59.937 59.937 0 0 1-2.121 2.989c-.305.402-.619.797-.935 1.19l-.13.161c-.173.217-.347.434-.525.648-.339.405-.689.803-1.04 1.2l-.2.23c-.146.166-.292.332-.44.494-.41.448-.833.886-1.259 1.32l-.157.163c-.114.12-.228.24-.345.358a56.018 56.018 0 0 1-1.852 1.763l-.222.197a60.365 60.365 0 0 1-1.702 1.473c-.145.12-.29.236-.435.35.338.064.676.128 1.008.194.442.088.882.18 1.323.275 0 0 1.228.256 1.518.321a266.456 266.456 0 0 0 2.775.647c.453.113.903.23 1.353.348 0 0 1.085.277 1.334.345.481.13.952.265 1.422.401 0 0 .997.283 1.191.341a96.63 96.63 0 0 1 2.447.767 87.46 87.46 0 0 1 2.561.882l.451.163a84.26 84.26 0 0 1 2.223.857l.386.16c.714.293 1.39.581 2.032.871l.121.053c.672.305 1.307.611 1.923.92l.38.19c.592.302 1.162.607 1.706.911l.223.128a44.08 44.08 0 0 1 1.573.94l.17.103c.5.32.973.64 1.43.962l.3.213c.446.322.871.644 1.272.964l.153.126c.435.356.793.665 1.132.972l.136.122c.386.355.726.692 1.05 1.03l.21.22c.323.346.623.684.9 1.02l.113.143c.273.34.517.662.744.983l.113.157c.245.355.465.7.67 1.044l.126.221c.182.317.348.625.498.93h1.224c8.775 0 15.914 7.138 15.914 15.913v68.091c.26.015.522.037.79.063.19.02.368.044.546.071l.153.023c.467.06.937.126 1.4.217.217.043.431.093.647.147l.161.04c.398.093.804.192 1.204.311.24.071.471.15.701.228l.127.043c.382.13.761.266 1.134.417a22.836 22.836 0 0 1 2.636 1.277c.334.19.666.393.994.604.241.154.486.312.726.48.318.222.634.463.947.708l.125.097c.177.137.354.276.525.42.321.271.625.555.93.841l.124.116c.146.135.291.27.43.411.345.35.671.716.991 1.087.164.18.262.288.355.401.43.523.836 1.066 1.212 1.62.082.12.161.248.24.378.311.487.575.911.818 1.35.095.172.183.348.27.526l.077.157c.193.38.382.76.553 1.15.091.208.174.42.256.633l.058.148c.147.376.29.756.417 1.143.055.165.105.333.155.501h44.531a6.36 6.36 0 0 1 6.353 6.352 6.361 6.361 0 0 1-6.353 6.354z"/><path id="6waqb" d="M447.72 4579.946a69.226 69.226 0 0 1 5.958 1.25c3.465.895 7.526 1.952 11.733 3.702 4.88 2.03 9.958 4.992 14.545 9.763 13.05 13.57 13.355 31.913 12.568 40.821-.059.67-.124 1.29-.19 1.846-.093.778-.15 1.557-.177 2.333-.078 2.241.105 4.462.417 6.608.147 1.02.325 2.017.52 2.995.39 1.955.842 3.824 1.265 5.54.73 2.97 1.333 5.422 1.422 7.497v.012c.051 1.24-.08 2.345-.482 3.344l-1.368 3.411-2.047-1.498-.918-.672a7.702 7.702 0 0 1-.486-.394 16.236 16.236 0 0 1-.584-.525 38.048 38.048 0 0 1-.56-.532l-.057-.055a51.843 51.843 0 0 1-.807-.804c-.24-.242-.487-.495-.745-.764l-.063-.065a99.111 99.111 0 0 1-.774-.818l-.11-.117c-.277-.296-.56-.6-.847-.914l-.135-.148a145.12 145.12 0 0 1-.9-.995c-.279.76-.578 1.51-.89 2.252-.103.243-.216.481-.322.722-.218.498-.439.996-.672 1.486-.137.285-.282.566-.423.848-.22.437-.439.875-.67 1.306-.159.297-.325.588-.489.881-.229.408-.46.814-.7 1.216a60.843 60.843 0 0 1-1.286 2.041c-.19.287-.382.573-.577.856a52.57 52.57 0 0 1-.805 1.13c-.199.273-.4.547-.605.816-.286.376-.579.746-.876 1.114-.204.254-.406.51-.616.761-.318.382-.646.754-.976 1.126-.199.226-.394.455-.598.677-.384.42-.78.83-1.179 1.236-.158.162-.31.33-.472.49a51.059 51.059 0 0 1-1.734 1.654c-.085.077-.174.15-.259.225-.508.456-1.023.906-1.548 1.342-.208.173-.424.337-.635.507-.41.331-.822.66-1.243.978-.25.188-.505.37-.757.552-.394.287-.789.572-1.192.85-.272.185-.549.366-.826.55-.393.257-.788.512-1.188.761-.289.18-.58.354-.874.528-.204.121-.403.25-.609.37l1.17.143-.005.02c.384.055.758.115 1.138.172.461.07.924.136 1.381.21.53.083 1.053.173 1.576.26.447.077.897.15 1.34.23.52.092 1.033.19 1.546.288.434.082.871.162 1.3.248.515.102 1.02.211 1.528.318.415.088.833.173 1.242.264.512.113 1.012.233 1.516.352.393.091.791.181 1.18.277.518.127 1.024.261 1.534.394.358.092.722.182 1.075.278.555.15 1.096.308 1.64.465.293.085.595.166.885.253a91.411 91.411 0 0 1 2.432.76c.83.273 1.62.55 2.39.828.147.053.295.106.44.16.731.268 1.436.54 2.114.813.13.053.255.106.383.157a62.51 62.51 0 0 1 2.021.87 54.715 54.715 0 0 1 2.156 1.04c.552.28 1.082.562 1.587.846l.275.158c.477.273.935.546 1.371.82.048.03.1.06.146.09.456.29.885.581 1.298.871l.267.19c.397.286.776.573 1.134.86l.183.151c.33.27.643.54.94.808l.133.12a21.208 21.208 0 0 1 1.06 1.052c.265.286.518.57.75.851.036.044.07.09.105.132.213.264.412.527.597.79.032.044.066.09.097.135a14.293 14.293 0 0 1 1.074 1.838l.046.101c.12.257.228.512.324.764l.054.135c.098.265.183.527.258.786.007.024.017.048.023.072h3.613c6.844 0 12.413 5.568 12.413 12.413v71.67c.057-.007.116-.009.174-.015.08-.009.16-.013.24-.02a18.764 18.764 0 0 1 1.734-.089c.61 0 1.211.034 1.805.092.198.02.39.055.585.081.394.051.787.103 1.173.18.228.043.45.103.675.157.344.08.688.164 1.025.263.233.07.462.151.691.23.32.107.635.22.946.346a18.647 18.647 0 0 1 2.216 1.073c.285.162.563.333.84.51.203.13.408.261.607.4.273.191.537.394.8.6.185.144.372.285.551.435.27.228.524.468.78.71.156.147.317.288.468.441.29.294.563.604.833.916.1.117.208.225.306.343.358.436.697.89 1.015 1.356.082.122.153.252.232.375.23.353.453.711.657 1.08.103.187.193.383.29.574.162.318.322.637.466.965.094.217.176.438.262.66.124.315.245.633.351.957.078.234.145.472.212.71.092.323.178.648.253.98.055.244.104.491.15.74.03.16.072.316.096.478h47.301a2.855 2.855 0 0 1 0 5.707h-306.68a2.853 2.853 0 1 1 0-5.707h45.214c1.38-8.849 9.031-15.652 18.263-15.652 1.466 0 2.886.19 4.255.514v-72.06c0-6.845 5.57-12.413 12.414-12.413h3.615c1.34-4.76 6.466-10.594 21.223-15.438 6.242-2.048 13.47-3.649 21.314-4.763l-.005-.026 1.194-.148c-9.906-5.692-17.777-14.539-22.216-25.172-2.799 3.816-4.05 4.856-4.957 5.34l-2.922 1.56-1.109-3.122c-.994-2.796-.33-6.608.507-11.434 1.178-6.776 2.643-15.208.075-23.395-2.75-8.768 1.265-22.438 9.766-33.243 6.77-8.604 16.983-14.5 30.354-17.52l.236-.054c2.473-.56 8.118-1.836 15.571-1.952v-.003a69.131 69.131 0 0 1 12.266.904zm-12.377-7.903l-6.89.108v.308c-4.744.493-8.286 1.296-10.118 1.711l-.24.054c-14.97 3.383-26.515 10.12-34.305 20.02-10 12.71-14.398 28.65-10.943 39.666 2.06 6.566.81 13.756-.292 20.1-.976 5.612-1.816 10.452-.207 14.978l1.11 3.121 2.721 7.658 7.17-3.827 2.775-1.48a59.766 59.766 0 0 0 7.543 9.535c-2.88.702-5.62 1.48-8.205 2.33-11.656 3.824-19.523 8.891-23.482 15.104-10.323.435-18.587 8.97-18.587 19.396v64.697c-9.208 1.02-17.179 7.091-20.745 15.501H282.66c-5.434 0-9.853 4.421-9.853 9.854 0 5.433 4.42 9.853 9.853 9.853h306.681c5.433 0 9.853-4.42 9.853-9.853s-4.42-9.854-9.853-9.854h-42.073a9.01 9.01 0 0 0-.135-.32 25.062 25.062 0 0 0-.64-1.339l-.06-.118c-.109-.223-.22-.444-.34-.66a24.717 24.717 0 0 0-.879-1.457c-.126-.21-.238-.389-.356-.563a25.68 25.68 0 0 0-1.39-1.859c-.15-.18-.289-.336-.43-.49a25.344 25.344 0 0 0-1.138-1.245 16.6 16.6 0 0 0-.547-.523l-.097-.09c-.288-.272-.646-.61-1.07-.969a19.68 19.68 0 0 0-.646-.516l-.113-.088a25.865 25.865 0 0 0-1.098-.819c-.27-.189-.543-.367-.818-.542a24.198 24.198 0 0 0-2.076-1.203c-.39-.203-.802-.4-1.222-.59a26.187 26.187 0 0 0-.942-.406 24.945 24.945 0 0 0-1.303-.479l-.097-.033a21.842 21.842 0 0 0-.854-.279 25 25 0 0 0-1.422-.369l-.142-.035a19.74 19.74 0 0 0-.79-.178l-.056-.01v-65.018c0-10.428-8.264-18.962-18.587-19.396a21.55 21.55 0 0 0-.462-.697 23.291 23.291 0 0 0-.984-1.314l-.15-.19a25.132 25.132 0 0 0-1.319-1.474 26.626 26.626 0 0 0-1.349-1.309l.034.031a31.891 31.891 0 0 0-1.239-1.068l-.215-.176a35.014 35.014 0 0 0-1.438-1.092l-.298-.212a39.868 39.868 0 0 0-1.605-1.079 14.151 14.151 0 0 0-.212-.13 43.658 43.658 0 0 0-1.588-.95l-.073-.043-.245-.139a51.64 51.64 0 0 0-1.837-.982l-.315-.158-.09-.046a59.104 59.104 0 0 0-2.039-.974l-.145-.064a67.21 67.21 0 0 0-2.107-.904l-.126-.052-.308-.126a79.468 79.468 0 0 0-2.307-.89l-.34-.123-.136-.048a89.181 89.181 0 0 0-2.589-.897l-.068-.022-.066-.02a98.48 98.48 0 0 0-2.48-.775c-.213-.064-.43-.125-.65-.187l-.302-.085-.169-.049a56.765 56.765 0 0 0-2.369-.652l-.35-.09-.278-.073c-.447-.116-.893-.233-1.347-.344l-.112-.028c.406-.416.812-.839 1.21-1.272.172-.189.34-.38.506-.57l.172-.197c.373-.42.745-.845 1.107-1.279.197-.235.394-.48.591-.726l.111-.139a52.924 52.924 0 0 0 1.675-2.184 58.188 58.188 0 0 0 3.02-4.559l.244-.415.767.562 2.047 1.498 7.275 5.324 3.356-8.367 1.368-3.41c.736-1.835 1.058-3.82.985-6.065v-.047l-.007-.148c-.118-2.773-.813-5.598-1.618-8.87-.408-1.66-.837-3.429-1.197-5.238a49.587 49.587 0 0 1-.458-2.629c-.29-2-.404-3.755-.348-5.364.021-.599.065-1.186.132-1.746.074-.619.146-1.31.211-2.058.944-10.678.315-30.89-14.494-46.29-4.686-4.873-10.215-8.593-16.903-11.375-4.72-1.963-9.129-3.1-12.67-4.016a73.493 73.493 0 0 0-2.795-.658 76.141 76.141 0 0 0-17.291-1.717z"/><path id="6waqc" d="M511.275 4808.024h24.958c-1.3-5.689-6.402-9.946-12.479-9.946-6.077 0-11.179 4.257-12.479 9.946z"/><path id="6waqd" d="M511.275 4808.025h24.958c-1.3-5.69-6.402-9.946-12.479-9.946-6.077 0-11.179 4.256-12.479 9.946zm28.132 5.706h-31.305a2.853 2.853 0 0 1-2.853-2.855c0-10.204 8.301-18.504 18.505-18.504 10.204 0 18.506 8.3 18.506 18.504a2.853 2.853 0 0 1-2.853 2.854z"/><path id="6waqe" d="M333.658 4808.024h24.958c-1.3-5.689-6.402-9.946-12.479-9.946-6.077 0-11.179 4.257-12.479 9.946z"/><path id="6waqf" d="M333.658 4808.025h24.958c-1.3-5.69-6.4-9.946-12.479-9.946-6.077 0-11.179 4.257-12.479 9.946zm28.132 5.706h-31.305a2.853 2.853 0 0 1-2.853-2.855c0-10.204 8.301-18.504 18.505-18.504 10.205 0 18.506 8.3 18.506 18.504a2.853 2.853 0 0 1-2.853 2.854z"/><path id="6waqg" d="M368.874 4711.266h134.251c0-12.169-30.053-22.034-67.124-22.034-37.074 0-67.127 9.865-67.127 22.034z"/><path id="6waqi" d="M372.601 4708.412h126.797c-2.136-3.558-8.094-7.15-16.823-10.016-12.399-4.07-28.94-6.31-46.575-6.31-17.636 0-34.177 2.24-46.576 6.31-8.729 2.866-14.687 6.458-16.823 10.016zm133.377 5.706H366.021v-2.853c0-5.106 3.752-12.424 21.624-18.29 12.958-4.254 30.131-6.596 48.355-6.596 18.224 0 35.396 2.342 48.354 6.595 17.872 5.867 21.624 13.185 21.624 18.291z"/><path id="6waqj" d="M509.193 4711.266H362.806a9.56 9.56 0 0 0-9.56 9.56v80.492c0 5.279 4.28 9.559 9.56 9.559h146.387c5.28 0 9.56-4.28 9.56-9.56v-80.491a9.56 9.56 0 0 0-9.56-9.56z"/><path id="6waqk" d="M459.698 4690.645c-7.37-.912-15.355-1.414-23.698-1.414s-16.328.503-23.697 1.415c1.242 6.821 11.377 12.142 23.697 12.142 12.32 0 22.455-5.32 23.698-12.142z"/><path id="6waql" d="M416.499 4693.045c3.149 3.988 10.941 6.89 19.501 6.89s16.352-2.902 19.501-6.89a194.232 194.232 0 0 0-19.501-.96c-6.665 0-13.207.323-19.501.96zM436 4705.64c-13.829 0-24.976-6.091-26.505-14.483l-.541-2.972 2.997-.371c7.69-.953 15.781-1.436 24.049-1.436 8.269 0 16.36.483 24.048 1.436l2.998.37-.542 2.973c-1.529 8.392-12.675 14.483-26.504 14.483z"/><path id="6waqm" d="M485.213 4642.871c0-27.18-22.034-49.213-49.213-49.213-27.18 0-49.213 22.033-49.213 49.213 0 27.181 22.033 49.214 49.213 49.214s49.213-22.033 49.213-49.214z"/><path id="6waqn" d="M436 4596.511c-25.563 0-46.36 20.797-46.36 46.36s20.797 46.36 46.36 46.36 46.36-20.797 46.36-46.36-20.797-46.36-46.36-46.36zm0 98.426c-28.709 0-52.066-23.355-52.066-52.065 0-28.71 23.357-52.068 52.066-52.068 28.71 0 52.066 23.359 52.066 52.068 0 28.71-23.356 52.065-52.066 52.065z"/><path id="6waqo" d="M420.803 4651.135a3.571 3.571 0 0 0-3.572-3.572 3.571 3.571 0 1 0 0 7.144 3.572 3.572 0 0 0 3.572-3.572z"/><path id="6waqp" d="M457.06 4651.134a3.57 3.57 0 0 0-3.572-3.571 3.57 3.57 0 1 0 0 7.143 3.571 3.571 0 0 0 3.572-3.572z"/><path id="6waqq" d="M450.227 4757.433c0-8.178-6.629-14.807-14.806-14.807-8.178 0-14.806 6.629-14.806 14.807 0 8.177 6.628 14.807 14.806 14.807 8.177 0 14.806-6.63 14.806-14.807z"/><path id="6waqr" d="M435.421 4745.48c-6.591 0-11.953 5.362-11.953 11.953 0 6.59 5.362 11.953 11.953 11.953 6.591 0 11.953-5.362 11.953-11.953 0-6.591-5.362-11.953-11.953-11.953zm0 29.612c-9.737 0-17.659-7.922-17.659-17.66 0-9.736 7.922-17.658 17.659-17.658 9.737 0 17.659 7.922 17.659 17.659 0 9.737-7.922 17.659-17.659 17.659z"/><path id="6waqs" d="M509.193 4711.266l-3.945 79.034c0 5.28-4.28 9.56-9.56 9.56 0 0-138.162 11.017-132.882 11.017h146.387c5.28 0 9.56-4.28 9.56-9.56v-80.491a9.56 9.56 0 0 0-9.56-9.56z"/><path id="6waqt" d="M362.807 4714.118a6.714 6.714 0 0 0-6.707 6.707v80.493a6.715 6.715 0 0 0 6.707 6.706h146.387a6.715 6.715 0 0 0 6.707-6.706v-80.493a6.714 6.714 0 0 0-6.707-6.706zm146.386 99.612H362.806c-6.845 0-12.414-5.567-12.414-12.412v-80.493c0-6.844 5.57-12.412 12.414-12.412h146.387c6.845 0 12.414 5.568 12.414 12.413v80.491c0 6.846-5.569 12.414-12.414 12.414z"/><path id="6waqu" d="M427.204 4683.29a49.025 49.025 0 0 1-20.357-4.4c7.97 6.462 18.116 10.341 29.153 10.341 25.563 0 46.36-20.796 46.36-46.359 0-11.037-3.88-21.184-10.342-29.154a49.012 49.012 0 0 1 4.399 20.357c0 27.18-22.033 49.214-49.213 49.214z"/><path id="6waqv" d="M589.34 4813.73H282.66a2.853 2.853 0 1 1 0-5.706h306.68a2.852 2.852 0 1 1 0 5.706z"/><path id="6waqw" d="M420.274 4583.834c-12.773 2.885-22.379 8.416-28.739 16.503-8.577 10.897-11.509 23.541-9.286 30.624 4.537 14.467-2.529 29.347-.617 34.727 2.36-1.26 10.002-13.285 12.203-16.928 3.534-5.854.757-9.243 3.194-13.114 4.351-6.91 6.5-11.259 24.886-12.052 12.58-.543 19.89-13.512 20.273-12.943 5.069 7.512-1.719 20.764 5.281 16.925a68.806 68.806 0 0 1 22.501-7.654c4.307 6.536 5.747 12.103 6.248 16.059.521 4.112.097 7.071 1.851 11.098 1.801 4.142 12.305 15.851 14.581 17.517 1.665-4.149-4.583-15.597-3.149-27.606.736-6.169 1.991-26.219-11.602-40.351-7.983-8.302-17.522-10.766-24.935-12.68a65.621 65.621 0 0 0-16.428-2.072c-7.917 0-13.822 1.396-16.262 1.947z"/><path id="6waqy" d="M443.673 4674.218c-2.025 0-3.748-.44-5.124-1.31-1.281-.81-2.605-2.174-3.128-2.74-.524.567-1.851 1.934-3.127 2.74-1.376.87-3.1 1.31-5.124 1.31-1.221 0-2.22-.165-2.708-.264-.13-.026-3.186-.662-4.768-2.541a3.335 3.335 0 0 1-.732-1.492 2.976 2.976 0 0 1 .247-1.753.664.664 0 0 1 1.26.204c.02.172.082.415.266.596.098.096.243.194.639.26.197.032.405.049.619.049.845 0 1.518-.26 1.524-.262.915-.36 1.297-.762 1.78-1.273.423-.444.9-.947 1.76-1.44 1.499-.858 3.047-1.038 4.08-1.038.508 0 1.017.042 1.476.122a8.28 8.28 0 0 1 2.808 1.045 8.285 8.285 0 0 1 2.809-1.045c.458-.08.968-.122 1.474-.122 1.035 0 2.583.18 4.08 1.038.86.493 1.339.996 1.76 1.44.485.51.867.914 1.78 1.273.008.003.68.262 1.526.262.213 0 .42-.017.619-.05.396-.065.54-.163.639-.26.184-.18.246-.423.265-.595a.663.663 0 0 1 1.26-.204c.262.57.348 1.178.246 1.759a3.34 3.34 0 0 1-.73 1.486c-1.582 1.879-4.64 2.515-4.77 2.54-.486.1-1.486.265-2.706.265z"/><path id="6waqz" d="M436.537 4584.74c-7.352 0-12.988 1.277-15.394 1.823l-.24.055c-12.06 2.724-21.187 7.933-27.126 15.483-6.097 7.749-11.255 20.198-8.806 28.007 2.982 9.507 1.318 19.085.102 26.078-.066.378-.132.759-.196 1.137a195.436 195.436 0 0 0 6.515-10.038c1.535-2.541 1.57-4.351 1.61-6.446.04-2.01.084-4.285 1.613-6.714l.399-.634c4.77-7.61 8.366-11.954 26.777-12.747 8.674-.375 14.762-7.887 17.054-10.715 1.097-1.355 1.823-2.25 3.31-2.25.963 0 1.86.477 2.399 1.276 2.93 4.343 2.642 9.829 2.432 13.835-.028.54-.061 1.166-.077 1.745a71.442 71.442 0 0 1 22.622-7.532l1.813-.282 1.009 1.532c3.705 5.624 5.958 11.434 6.696 17.27.163 1.288.237 2.43.309 3.536.159 2.452.284 4.387 1.326 6.78.902 2.074 4.816 6.913 8.279 10.82l-.145-.591c-1.344-5.463-3.017-12.26-2.15-19.515.368-3.08.804-9.302-.407-16.37-1.498-8.747-5.003-16.037-10.417-21.666-7.424-7.72-16.39-10.035-23.593-11.896a62.905 62.905 0 0 0-15.714-1.981zm-56.484 85.025l-1.11-3.121c-.993-2.796-.33-6.608.508-11.435 1.178-6.775 2.643-15.208.076-23.394-2.751-8.77 1.265-22.44 9.765-33.243 6.77-8.605 16.983-14.5 30.355-17.521l.235-.054c2.593-.586 8.664-1.963 16.655-1.963 5.818 0 11.585.727 17.14 2.163 7.485 1.932 17.735 4.58 26.28 13.464 14.029 14.588 13.329 34.699 12.377 42.667-.743 6.225.79 12.464 2.025 17.477 1.168 4.749 2.012 8.18.94 10.853l-1.368 3.41-2.965-2.17c-2.5-1.83-13.433-13.9-15.514-18.681-1.44-3.307-1.617-6.043-1.788-8.688-.066-1.021-.135-2.076-.276-3.19-.561-4.434-2.18-8.896-4.816-13.285a65.662 65.662 0 0 0-19.731 7.023c-1.287.706-2.358 1.036-3.37 1.036-1.131 0-2.167-.436-2.917-1.226-1.562-1.646-1.432-4.14-1.266-7.296.106-2.03.229-4.36-.095-6.493-3.6 4.04-10.082 9.954-19.155 10.346-7.795.337-12.906 1.342-16.088 3.168-2.763 1.585-4.164 3.818-6.102 6.909l-.405.644c-.653 1.038-.701 2.012-.735 3.785-.045 2.294-.105 5.433-2.431 9.285a223.743 223.743 0 0 1-6.13 9.496c-4.414 6.439-6.055 7.879-7.172 8.474z"/><path id="6waqA" d="M523.755 4798.078c-.732 0-1.45.062-2.148.18v3.06c0 2.468-.724 4.771-1.972 6.706h16.599c-1.3-5.689-6.402-9.946-12.48-9.946z"/><path id="6waqB" d="M523.755 4792.372c-.726 0-1.443.041-2.148.123v5.763c.699-.118 1.416-.18 2.148-.18 6.077 0 11.179 4.257 12.479 9.946h5.807c-1.376-8.854-9.052-15.652-18.286-15.652z"/><path id="6waqC" d="M461.689 4693.774c-3.136 7.012-13.344 11.866-25.69 11.866-.182 0-.365 0-.547-.003v2.775h63.947c-2.137-3.558-8.095-7.15-16.824-10.017-6.084-1.997-13.167-3.554-20.886-4.62z"/><path id="6waqD" d="M463.042 4688.205l-.538 2.952a11.38 11.38 0 0 1-.816 2.617c7.72 1.068 14.802 2.624 20.887 4.622 8.73 2.866 14.687 6.458 16.823 10.016h6.183c-1.34-4.76-6.47-10.594-21.227-15.437-6.243-2.05-13.466-3.656-21.312-4.77z"/><path id="6waqE" d="M509.051 4714.118h-73.599v25.655c9.724.016 17.628 7.932 17.628 17.66 0 9.727-7.904 17.642-17.628 17.66v29.611c31.04-2.516 60.236-4.844 60.236-4.844 5.28 0 9.561-4.28 9.561-9.56z"/><path id="6waqF" d="M451.237 4692.664a51.907 51.907 0 0 1-15.785 2.271v4.996c.182.003.365.004.548.004 8.56 0 16.352-2.903 19.501-6.89a180.12 180.12 0 0 0-4.264-.38z"/><path id="6waqG" d="M461.877 4688.041a51.827 51.827 0 0 1-10.64 4.623c1.433.11 2.855.237 4.264.38-3.15 3.988-10.941 6.891-19.501 6.891-.183 0-.366-.001-.548-.004v5.707c.183.002.365.003.548.003 12.345 0 22.553-4.855 25.689-11.867a11.38 11.38 0 0 0 .816-2.617l.538-2.952.003-.019z"/><path id="6waqH" d="M441.193 4616.097c.323 2.134.201 4.462.094 6.493-.165 3.157-.296 5.65 1.266 7.296.75.79 1.787 1.226 2.918 1.226h.001c1.011 0 2.082-.33 3.37-1.036a65.694 65.694 0 0 1 19.73-7.023c2.636 4.39 4.255 8.851 4.816 13.286.141 1.114.21 2.168.275 3.19.142 2.191.29 4.447 1.155 7.037-4.85 18.533-20.232 32.806-39.366 36.034v-12.397c.543.584 1.841 1.911 3.097 2.705 1.375.87 3.1 1.31 5.123 1.31 1.221 0 2.22-.166 2.708-.264.13-.027 3.187-.662 4.77-2.54.586-.7.717-1.414.73-1.488a2.976 2.976 0 0 0-.247-1.758.662.662 0 0 0-1.26.204c-.02.172-.082.414-.266.594-.098.097-.243.196-.639.261a3.871 3.871 0 0 1-.619.05 4.656 4.656 0 0 1-1.524-.263c-.914-.358-1.297-.762-1.78-1.272-.422-.445-.9-.948-1.76-1.44-1.499-.859-3.047-1.039-4.08-1.039-.508 0-1.017.042-1.476.122a8.28 8.28 0 0 0-2.777 1.028v-45c2.37-1.753 4.29-3.687 5.741-5.316zm12.295 38.61a3.572 3.572 0 1 0 0-7.145 3.572 3.572 0 0 0 0 7.144z"/><path id="6waqI" d="M480.561 4655.679c-5.57 19.354-23.439 33.553-44.56 33.553H435.76l-.044-.001H435.62l-.046-.001h-.025l-.068-.001h-.028v5.706a51.907 51.907 0 0 0 15.785-2.271 51.827 51.827 0 0 0 10.64-4.623c10.544-6.064 18.776-15.715 23.02-27.273a132.29 132.29 0 0 1-4.336-5.09z"/><path id="6waqJ" d="M453.488 4647.563a3.571 3.571 0 1 0-.001 7.142 3.571 3.571 0 0 0 0-7.142z"/><path id="6waqK" d="M435.452 4745.48v23.906c6.577-.017 11.922-5.373 11.922-11.954 0-6.58-5.345-11.935-11.922-11.952z"/><path id="6waqL" d="M435.452 4739.773v5.706c6.577.017 11.922 5.372 11.922 11.953 0 6.58-5.345 11.937-11.922 11.953v5.706c9.723-.016 17.628-7.93 17.628-17.659 0-9.727-7.905-17.643-17.628-17.659z"/><path id="6waqM" d="M509.193 4714.118h-.143l-3.802 76.182a9.56 9.56 0 0 1-9.56 9.56s-29.198 2.328-60.236 4.844v3.32h73.741a6.715 6.715 0 0 0 6.707-6.707v-80.492a6.715 6.715 0 0 0-6.707-6.707z"/><path id="6waqN" d="M509.193 4708.412h-73.741v5.706h73.741a6.715 6.715 0 0 1 6.707 6.707v80.492a6.714 6.714 0 0 1-6.707 6.707h10.441a12.336 12.336 0 0 0 1.973-6.707v-80.492c0-6.845-5.569-12.413-12.414-12.413z"/><path id="6waqO" d="M474.818 4646.567c-4.85 18.532-20.231 32.805-39.366 36.033v6.628h.029l.067.001h.025l.046.001H435.718l.043.001H436c21.123 0 38.99-14.198 44.56-33.553-2.333-2.894-4.334-5.682-5.108-7.462a20.377 20.377 0 0 1-.634-1.649z"/><path id="6waqP" d="M589.34 4808.024H435.454v5.706H589.34a2.853 2.853 0 1 0 0-5.706z"/><path id="6waqQ" d="M439.704 4665.264c-.506 0-1.016.042-1.475.122a8.326 8.326 0 0 0-2.777 1.026v3.79c.544.585 1.84 1.913 3.097 2.707 1.375.869 3.099 1.309 5.124 1.309 1.22 0 2.22-.165 2.707-.264.13-.026 3.187-.662 4.769-2.541a3.34 3.34 0 0 0 .73-1.486 2.98 2.98 0 0 0-.246-1.76.662.662 0 0 0-1.26.204c-.02.173-.081.416-.265.597-.098.096-.244.194-.64.26a3.89 3.89 0 0 1-.618.049 4.658 4.658 0 0 1-1.525-.262c-.914-.358-1.296-.762-1.781-1.272-.421-.445-.9-.95-1.76-1.441-1.498-.858-3.045-1.038-4.08-1.038z"/><path id="6waqR" d="M436.537 4579.033c-.366 0-.727.003-1.085.01v5.706a62.905 62.905 0 0 1 16.799 1.971c7.203 1.862 16.169 4.177 23.592 11.896 5.415 5.63 8.92 12.92 10.418 21.666 1.21 7.068.775 13.29.407 16.37-.275 2.305-.295 4.564-.15 6.748.313 4.693 1.383 9.04 2.3 12.768l.145.591c-3.463-3.908-7.377-8.747-8.28-10.82-1.041-2.393-1.166-4.329-1.325-6.78-.072-1.106-.146-2.249-.31-3.536-.737-5.835-2.99-11.647-6.695-17.27l-1.01-1.533-1.812.282a71.474 71.474 0 0 0-22.623 7.533c.017-.58.05-1.206.078-1.746.21-4.005.498-9.492-2.432-13.835a2.892 2.892 0 0 0-2.4-1.275c-1.487 0-2.212.895-3.31 2.25-.744.918-1.888 2.33-3.392 3.831v7.554c2.369-1.754 4.289-3.688 5.74-5.317.324 2.134.202 4.463.096 6.494-.166 3.156-.297 5.65 1.265 7.296.75.79 1.787 1.225 2.918 1.225 1.012 0 2.083-.33 3.37-1.036a65.664 65.664 0 0 1 19.73-7.022c2.638 4.388 4.256 8.85 4.817 13.286.14 1.113.209 2.168.276 3.188.142 2.193.288 4.448 1.154 7.04.178.533.388 1.082.634 1.65.774 1.778 2.774 4.566 5.109 7.461a132.272 132.272 0 0 0 4.337 5.088c2.64 2.951 5.052 5.387 6.068 6.131l2.965 2.17 1.368-3.41c1.072-2.673.228-6.104-.94-10.854-1.234-5.012-2.77-11.25-2.025-17.475.95-7.97 1.65-28.08-12.378-42.668-8.544-8.885-18.794-11.532-26.278-13.465a68.63 68.63 0 0 0-17.141-2.163z"/><linearGradient id="6waqh" x1="368.87" x2="503.13" y1="4700.25" y2="4700.25" gradientUnits="userSpaceOnUse"><stop offset="0" stop-color="#0693e9"/><stop offset=".01" stop-color="#0693e9"/><stop offset="1" stop-color="#9cc037"/><stop offset="1" stop-color="#9cc037"/></linearGradient><linearGradient id="6waqx" x1="381.3" x2="492.93" y1="4623.79" y2="4623.79" gradientUnits="userSpaceOnUse"><stop offset="0" stop-color="#0693e9"/><stop offset=".01" stop-color="#0693e9"/><stop offset="1" stop-color="#9cc037"/><stop offset="1" stop-color="#9cc037"/></linearGradient></defs><g><g transform="translate(-272 -4572)"><use fill="#fff" xlink:href="#6waqa"/></g><g transform="translate(-272 -4572)"><use fill="#fff" xlink:href="#6waqb"/></g><g transform="translate(-272 -4572)"><use fill="#fce1d1" xlink:href="#6waqc"/></g><g transform="translate(-272 -4572)"><use fill="#1d1d1b" xlink:href="#6waqd"/></g><g transform="translate(-272 -4572)"><use fill="#fce1d1" xlink:href="#6waqe"/></g><g transform="translate(-272 -4572)"><use fill="#1d1d1b" xlink:href="#6waqf"/></g><g transform="translate(-272 -4572)"><use fill="url(#6waqh)" xlink:href="#6waqg"/></g><g transform="translate(-272 -4572)"><use fill="#1d1d1b" xlink:href="#6waqi"/></g><g transform="translate(-272 -4572)"><use fill="#fff" xlink:href="#6waqj"/></g><g transform="translate(-272 -4572)"><use fill="#fce1d1" xlink:href="#6waqk"/></g><g transform="translate(-272 -4572)"><use fill="#1d1d1b" xlink:href="#6waql"/></g><g transform="translate(-272 -4572)"><use fill="#fff" xlink:href="#6waqm"/></g><g transform="translate(-272 -4572)"><use fill="#1d1d1b" xlink:href="#6waqn"/></g><g transform="translate(-272 -4572)"><use fill="#1d1d1b" xlink:href="#6waqo"/></g><g transform="translate(-272 -4572)"><use fill="#1d1d1b" xlink:href="#6waqp"/></g><g transform="translate(-272 -4572)"><use fill="#c3e6fa" xlink:href="#6waqq"/></g><g transform="translate(-272 -4572)"><use fill="#1d1d1b" xlink:href="#6waqr"/></g><g transform="translate(-272 -4572)"><use fill="#d2dce2" xlink:href="#6waqs"/></g><g transform="translate(-272 -4572)"><use fill="#1d1d1b" xlink:href="#6waqt"/></g><g transform="translate(-272 -4572)"><use fill="#fce1d1" xlink:href="#6waqu"/></g><g transform="translate(-272 -4572)"><use fill="#1d1d1b" xlink:href="#6waqv"/></g><g transform="translate(-272 -4572)"><use fill="url(#6waqx)" xlink:href="#6waqw"/></g><g transform="translate(-272 -4572)"><use fill="#202020" xlink:href="#6waqy"/></g><g transform="translate(-272 -4572)"><use fill="#1d1d1b" xlink:href="#6waqz"/></g><g transform="translate(-272 -4572)"><use fill="#f6b298" xlink:href="#6waqA"/></g><g transform="translate(-272 -4572)"><use fill="#1f140d" xlink:href="#6waqB"/></g><g transform="translate(-272 -4572)"><use fill="#5788a5" xlink:href="#6waqC"/></g><g transform="translate(-272 -4572)"><use fill="#1f140d" xlink:href="#6waqD"/></g><g transform="translate(-272 -4572)"><use fill="#e1dcec" xlink:href="#6waqE"/></g><g transform="translate(-272 -4572)"><use fill="#f6b298" xlink:href="#6waqF"/></g><g transform="translate(-272 -4572)"><use fill="#1f140d" xlink:href="#6waqG"/></g><g transform="translate(-272 -4572)"><use fill="#fde2c4" xlink:href="#6waqH"/></g><g transform="translate(-272 -4572)"><use fill="#1f140d" xlink:href="#6waqI"/></g><g transform="translate(-272 -4572)"><use fill="#1f140d" xlink:href="#6waqJ"/></g><g transform="translate(-272 -4572)"><use fill="#a4c1d2" xlink:href="#6waqK"/></g><g transform="translate(-272 -4572)"><use fill="#1f140d" xlink:href="#6waqL"/></g><g transform="translate(-272 -4572)"><use fill="#bec2b0" xlink:href="#6waqM"/></g><g transform="translate(-272 -4572)"><use fill="#1f140d" xlink:href="#6waqN"/></g><g transform="translate(-272 -4572)"><use fill="#f6b298" xlink:href="#6waqO"/></g><g transform="translate(-272 -4572)"><use fill="#1f140d" xlink:href="#6waqP"/></g><g transform="translate(-272 -4572)"><use fill="#231c19" xlink:href="#6waqQ"/></g><g transform="translate(-272 -4572)"><use fill="#1f140d" xlink:href="#6waqR"/></g></g></svg>