<svg xmlns="http://www.w3.org/2000/svg" xmlns:xlink="http://www.w3.org/1999/xlink" width="80" height="78.67" viewBox="0 0 120 118"><defs><path id="wgy1a" d="M1119.635 2506.466l4.882 9.655 5.99-6.222-9.73-3.518z"/><path id="wgy1c" d="M1113.041 2474.246a6.067 6.067 0 0 0-6.07 6.068v2.521a6.07 6.07 0 0 0 6.07 6.07h2.725v-14.659z"/><path id="wgy1e" d="M1204.872 2452.361c.289 2.374.027 5.205-.885 7.898h4.865v56.305c.439.364.977 1.109 1.179 1.503h6.719v-61.521a4.194 4.194 0 0 0-4.187-4.185z"/><path id="wgy1g" d="M1157.617 2518.956l3.423 6.073c57.463 0 53.305.017 53.893-.032 1.668 0 4.976-1.61 4.976-6.041z"/><path id="wgy1i" d="M1166.582 2466.432c1.258.396 2.881 5.624.704 10.172 6.218-.803 11.285-4.733 13.778-10.172.397-.127.785-.267 1.169-.414 9.594-2.315 16.506-8.739 16.506-16.321 0-9.53-10.903-17.256-24.351-17.256-25.715 0-35.226 25.324-7.806 33.991z"/><path id="wgy1k" d="M1131.91 2509.899l5.989 6.222 4.882-9.655-1.141-.085z"/><path id="wgy1m" d="M1145.086 2474.246v14.659h2.726a6.07 6.07 0 0 0 6.07-6.07v-2.521a6.067 6.067 0 0 0-6.07-6.068z"/><path id="wgy1o" d="M1123.937 2518.287c-.962-.144-.542.225-7.003-11.174-.97-1.71 1.619-3.18 2.588-1.468 1.602 2.83 3.679 6.473 4.99 8.784l5.506-5.215c1.425-1.353 3.476.802 2.048 2.157-7.46 7.068-7.181 7.058-8.13 6.916z"/><path id="wgy1p" d="M1130.727 2511.371c-1.425-1.354.621-3.513 2.048-2.157 1.832 1.74 3.665 3.478 5.504 5.218l4.934-8.7c.97-1.71 3.558-.244 2.587 1.47-6.357 11.206-5.96 10.938-6.942 11.085-.94.138-.667.175-8.13-6.916z"/><path id="wgy1q" d="M1103.38 2536.077c0 2.088 3.16 2.09 3.16 0 0-2.088-3.16-2.09-3.16 0z"/><path id="wgy1r" d="M1214.004 2532.286c0 2.087 3.16 2.09 3.16 0 0-2.088-3.16-2.09-3.16 0z"/><path id="wgy1s" d="M1214.886 2518.392v-61.28a2.676 2.676 0 0 0-2.673-2.674h-6.31c-1.948 0-1.952-2.95 0-2.95h6.31a5.629 5.629 0 0 1 5.623 5.624v61.28c0 1.948-2.95 1.952-2.95 0z"/><path id="wgy1t" d="M1208.62 2518.763v-58.058h-3.852c-1.949 0-1.953-2.95 0-2.95h4.906c1.045 0 1.896.85 1.896 1.894v59.114c0 1.95-2.95 1.952-2.95 0zm1.054-58.058h.007z"/><path id="wgy1u" d="M1112.446 2532.493v-10.105c0-1.95 2.95-1.953 2.95 0v10.105c0 1.948-2.95 1.952-2.95 0z"/><path id="wgy1v" d="M1148.099 2532.504v-10.116c0-1.95 2.95-1.952 2.95 0v10.116c0 1.949-2.95 1.952-2.95 0z"/><path id="wgy1w" d="M1109.106 2540.073c-1.774-.807-.55-3.497 1.223-2.685 15.517 7.066 33.82 6.148 48.772-3.192 1.654-1.032 3.22 1.47 1.563 2.503-15.81 9.874-35.156 10.842-51.558 3.374z"/><path id="wgy1x" d="M1101.867 2526.904c-2.173-1.778 2.223-20.339 19.299-23.449a1.479 1.479 0 0 1 1.676 1.02c5.512 4.54 12.531 4.243 18.163-.68a1.48 1.48 0 0 1 1.495-.267c.756.287 18.537 7.223 19.652 22.125a1.47 1.47 0 0 1-.535 1.251c-17.382 14.258-42.458 14.185-59.75 0zm2.478-1.792c16.025 12.672 38.752 12.684 54.79.003-1.343-10.888-13.606-17.034-16.885-18.49-6.513 5.634-15.863 5.085-21.553-.063-10.122 2.318-15.489 10.983-16.352 18.55z"/><path id="wgy1y" d="M1209.291 2533.613h-41.667c-1.949 0-1.952-2.95 0-2.95h41.667a1.474 1.474 0 1 1 0 2.95z"/><path id="wgy1z" d="M1214.011 2526.505h-51.917c-1.949 0-1.952-2.951 0-2.951h51.917a4.016 4.016 0 0 0 3.949-3.317h-39.901a4.6 4.6 0 0 1-3.444 1.568c-4.998 0-6.726.398-8.458-1.568h-7.222c-1.949 0-1.953-2.95 0-2.95 8.468 0 8.674-.244 9.244.734.626 1.078 1.196.834 6.436.834 1.535 0 1.258-1.568 2.699-1.568h42.181c3.06 0 1.562 9.218-5.484 9.218z"/><path id="wgy1A" d="M1164.426 2478.161c-1.026-1.416 1.11-2.306.873-6.327-.168-2.87-.742-4.046-.966-4.282-1.647-.528-6.984-2.718-9.95-4.683-1.627-1.079.008-3.538 1.63-2.46 2.592 1.718 7.871 3.906 9.283 4.353 2.961.936 3.38 7.454 2.598 10.575 5.267-1.45 9.31-5.102 11.457-9.783.342-.749.89-.762 2.1-1.217.055-.02.113-.039.172-.053 10.123-2.443 16.923-9.04 16.923-16.418 0-9.593-11.285-17.397-25.157-17.397-10.219 0-19.355 4.242-23.274 10.806-1.002 1.678-3.532.16-2.534-1.51 4.441-7.44 14.571-12.247 25.808-12.247 15.5 0 28.108 9.128 28.108 20.348 0 8.744-7.668 16.477-19.092 19.265-.217.08-.433.16-.652.237-3.146 6.336-9.1 10.51-15.943 11.391a1.479 1.479 0 0 1-1.384-.598z"/><path id="wgy1B" d="M1147.993 2474.267v-5.936c0-8-6.945-14.506-15.482-14.506h-4.074c-8.536 0-15.481 6.507-15.481 14.506v5.753c0 1.959-2.966 1.962-2.966 0v-5.753c0-9.634 8.275-17.472 18.447-17.472h4.074c10.173 0 18.448 7.838 18.448 17.472v5.936c0 1.96-2.966 1.962-2.966 0z"/><path id="wgy1C" d="M1120.391 2476.5c-2.679.857-2.755 2.89-4.367 2.495-3.118-.77-3.12-19.367 14.35-19.367 8.19 0 13.254 3.683 15.478 11.261.8 2.726 1.08 8.064-1.76 7.73a1.803 1.803 0 0 1-.744-.273c-4.863 1.598-10.085 2.148-14.847.215-2.613-1.06-5.319-2.953-8.11-2.062zm22.615-4.777c-1.828-6.228-5.843-9.128-12.633-9.128-3.912 0-6.86.941-9.013 2.877-2.334 2.1-3.943 5.42-3.86 9.144 8.348-5.364 10.273 6.244 25.896.575a10.187 10.187 0 0 0-.39-3.468z"/><path id="wgy1D" d="M1127.166 2503.088c-1.883-.54-1.07-3.391.816-2.852 7.19 2.058 14.73-4.238 15.632-14.27.173-1.933 3.131-1.7 2.954.266-1.084 12.057-10.525 19.398-19.402 16.856z"/><path id="wgy1E" d="M1116.557 2493.04c-.849-1.885-2.006-3.981-2.18-6.852-.12-1.95 2.84-2.148 2.96-.179.264 4.327 3.598 6.684 1.182 7.772a1.483 1.483 0 0 1-1.962-.741z"/><path id="wgy1F" d="M1127.576 2486.063h-3.408c-1.96 0-1.962-2.968 0-2.968h3.408c1.96 0 1.962 2.968 0 2.968z"/><path id="wgy1G" d="M1138.287 2486.063h-3.408c-1.96 0-1.961-2.968 0-2.968h3.409c1.96 0 1.961 2.968 0 2.968z"/><path id="wgy1H" d="M1147.72 2490.366h-2.629a1.483 1.483 0 0 1-1.483-1.484v-14.616c0-.819.664-1.483 1.483-1.483h2.63c4.202 0 7.623 3.421 7.623 7.624v2.336c0 4.203-3.42 7.623-7.624 7.623zm-1.146-2.966h1.146a4.662 4.662 0 0 0 4.657-4.657v-2.336a4.661 4.661 0 0 0-4.657-4.657h-1.146z"/><path id="wgy1I" d="M1115.857 2490.366h-2.63c-4.203 0-7.623-3.42-7.623-7.623v-2.336c0-4.203 3.42-7.624 7.624-7.624h2.629c.82 0 1.483.664 1.483 1.484v14.616c0 .819-.663 1.483-1.483 1.483zm-2.63-14.616a4.663 4.663 0 0 0-4.657 4.657v2.336a4.662 4.662 0 0 0 4.658 4.657h1.146v-11.65z"/><path id="wgy1J" d="M1124.628 2499.136h-4.02c-9.876 0-12.807-11.735-9.127-11.735.819 0 1.483.663 1.483 1.482 0 4.086 3.358 7.287 7.644 7.287h4.02c1.96 0 1.962 2.966 0 2.966z"/><path id="wgy1K" d="M1126.285 2493.268h-1.853c-3.583 0-3.682 5.847 0 5.847 1.56 0 4.58.458 4.58-3.118a2.732 2.732 0 0 0-2.727-2.73z"/><path id="wgy1L" d="M1134.946 2478.774l-5.038-5.038c-1.385-1.385.709-3.486 2.097-2.098l5.039 5.038c1.384 1.385-.71 3.487-2.098 2.098z"/><path id="wgy1M" d="M1171.222 2455.637c0-6.558 4.713-5.94 4.713-9.518 0-3.148-3.067-2.914-4.103-1.967-.557.508-.776 1.236-.793 1.998h-4.423c.074-7.743 11.16-7.871 13.278-2.784 1.207 2.918.17 5.27-1.854 7.276-1.982 1.956-2.843 2.274-2.913 4.995zm4.324 3.752c1.292 3.146-3.512 4.487-4.59 1.846-1.276-3.088 3.47-4.572 4.59-1.846z"/><path id="wgy1N" d="M1200.945 2484.269h-17.85c-1.965 0-1.968-2.975 0-2.975h17.85c1.965 0 1.968 2.975 0 2.975z"/><path id="wgy1O" d="M1198.713 2492.201c-1.965 0-1.968-2.975 0-2.975h2.231c1.966 0 1.968 2.975 0 2.975zm-9.669 0c-1.965 0-1.968-2.975 0-2.975h2.232c1.965 0 1.968 2.975 0 2.975zm-9.669 0c-1.965 0-1.968-2.975 0-2.975h2.232c1.965 0 1.968 2.975 0 2.975zm-9.668 0c-1.966 0-1.968-2.975 0-2.975h2.231c1.965 0 1.968 2.975 0 2.975z"/><path id="wgy1P" d="M1200.945 2500.136h-8.181c-1.966 0-1.968-2.976 0-2.976h8.18c1.966 0 1.969 2.976 0 2.976z"/><path id="wgy1Q" d="M1184.954 2500.136h-24.668c-1.965 0-1.968-2.976 0-2.976h24.668a1.488 1.488 0 1 1 0 2.976z"/><path id="wgy1R" d="M1200.945 2508.07h-23.428c-1.967 0-1.969-2.977 0-2.977h23.427c1.966 0 1.969 2.976 0 2.976z"/><path id="wgy1S" d="M1169.335 2508.07h-9.049c-1.966 0-1.968-2.977 0-2.977h9.049c1.965 0 1.968 2.976 0 2.976z"/><linearGradient id="wgy1b" x1="1120.88" x2="1126.99" y1="2512.49" y2="2506.38" gradientUnits="userSpaceOnUse"><stop offset="0" stop-color="#0693e9"/><stop offset=".01" stop-color="#0693e9"/><stop offset="1" stop-color="#9cc037"/><stop offset="1" stop-color="#9cc037"/></linearGradient><linearGradient id="wgy1d" x1="1108.17" x2="1118.12" y1="2486.55" y2="2476.6" gradientUnits="userSpaceOnUse"><stop offset="0" stop-color="#0693e9"/><stop offset=".01" stop-color="#0693e9"/><stop offset="1" stop-color="#9cc037"/><stop offset="1" stop-color="#9cc037"/></linearGradient><linearGradient id="wgy1f" x1="1193.99" x2="1228.98" y1="2502.03" y2="2467.05" gradientUnits="userSpaceOnUse"><stop offset="0" stop-color="#0693e9"/><stop offset=".01" stop-color="#0693e9"/><stop offset="1" stop-color="#9cc037"/><stop offset="1" stop-color="#9cc037"/></linearGradient><linearGradient id="wgy1h" x1="1172.57" x2="1205.04" y1="2536.56" y2="2504.09" gradientUnits="userSpaceOnUse"><stop offset="0" stop-color="#0693e9"/><stop offset=".01" stop-color="#0693e9"/><stop offset="1" stop-color="#9cc037"/><stop offset="1" stop-color="#9cc037"/></linearGradient><linearGradient id="wgy1j" x1="1157.36" x2="1189.29" y1="2466.68" y2="2434.75" gradientUnits="userSpaceOnUse"><stop offset="0" stop-color="#0693e9"/><stop offset=".01" stop-color="#0693e9"/><stop offset="1" stop-color="#9cc037"/><stop offset="1" stop-color="#9cc037"/></linearGradient><linearGradient id="wgy1l" x1="1134.85" x2="1142.11" y1="2513.07" y2="2505.8" gradientUnits="userSpaceOnUse"><stop offset="0" stop-color="#0693e9"/><stop offset=".01" stop-color="#0693e9"/><stop offset="1" stop-color="#9cc037"/><stop offset="1" stop-color="#9cc037"/></linearGradient><linearGradient id="wgy1n" x1="1142.73" x2="1152.68" y1="2486.55" y2="2476.6" gradientUnits="userSpaceOnUse"><stop offset="0" stop-color="#0693e9"/><stop offset=".01" stop-color="#0693e9"/><stop offset="1" stop-color="#9cc037"/><stop offset="1" stop-color="#9cc037"/></linearGradient></defs><g><g transform="translate(-1101 -2427)"><use fill="url(#wgy1b)" xlink:href="#wgy1a"/></g><g transform="translate(-1101 -2427)"><use fill="url(#wgy1d)" xlink:href="#wgy1c"/></g><g transform="translate(-1101 -2427)"><use fill="url(#wgy1f)" xlink:href="#wgy1e"/></g><g transform="translate(-1101 -2427)"><use fill="url(#wgy1h)" xlink:href="#wgy1g"/></g><g transform="translate(-1101 -2427)"><use fill="url(#wgy1j)" xlink:href="#wgy1i"/></g><g transform="translate(-1101 -2427)"><use fill="url(#wgy1l)" xlink:href="#wgy1k"/></g><g transform="translate(-1101 -2427)"><use fill="url(#wgy1n)" xlink:href="#wgy1m"/></g><g transform="translate(-1101 -2427)"><use fill="#263357" xlink:href="#wgy1o"/></g><g transform="translate(-1101 -2427)"><use fill="#263357" xlink:href="#wgy1p"/></g><g transform="translate(-1101 -2427)"><use fill="#263357" xlink:href="#wgy1q"/></g><g transform="translate(-1101 -2427)"><use fill="#263357" xlink:href="#wgy1r"/></g><g transform="translate(-1101 -2427)"><use fill="#263357" xlink:href="#wgy1s"/></g><g transform="translate(-1101 -2427)"><use fill="#263357" xlink:href="#wgy1t"/></g><g transform="translate(-1101 -2427)"><use fill="#263357" xlink:href="#wgy1u"/></g><g transform="translate(-1101 -2427)"><use fill="#263357" xlink:href="#wgy1v"/></g><g transform="translate(-1101 -2427)"><use fill="#263357" xlink:href="#wgy1w"/></g><g transform="translate(-1101 -2427)"><use fill="#263357" xlink:href="#wgy1x"/></g><g transform="translate(-1101 -2427)"><use fill="#263357" xlink:href="#wgy1y"/></g><g transform="translate(-1101 -2427)"><use fill="#263357" xlink:href="#wgy1z"/></g><g transform="translate(-1101 -2427)"><use fill="#263357" xlink:href="#wgy1A"/></g><g transform="translate(-1101 -2427)"><use fill="#263357" xlink:href="#wgy1B"/></g><g transform="translate(-1101 -2427)"><use fill="#263357" xlink:href="#wgy1C"/></g><g transform="translate(-1101 -2427)"><use fill="#263357" xlink:href="#wgy1D"/></g><g transform="translate(-1101 -2427)"><use fill="#263357" xlink:href="#wgy1E"/></g><g transform="translate(-1101 -2427)"><use fill="#263357" xlink:href="#wgy1F"/></g><g transform="translate(-1101 -2427)"><use fill="#263357" xlink:href="#wgy1G"/></g><g transform="translate(-1101 -2427)"><use fill="#263357" xlink:href="#wgy1H"/></g><g transform="translate(-1101 -2427)"><use fill="#263357" xlink:href="#wgy1I"/></g><g transform="translate(-1101 -2427)"><use fill="#263357" xlink:href="#wgy1J"/></g><g transform="translate(-1101 -2427)"><use fill="#263357" xlink:href="#wgy1K"/></g><g transform="translate(-1101 -2427)"><use fill="#263357" xlink:href="#wgy1L"/></g><g transform="translate(-1101 -2427)"><use fill="#fff" xlink:href="#wgy1M"/></g><g transform="translate(-1101 -2427)"><use fill="#263357" xlink:href="#wgy1N"/></g><g transform="translate(-1101 -2427)"><use fill="#263357" xlink:href="#wgy1O"/></g><g transform="translate(-1101 -2427)"><use fill="#263357" xlink:href="#wgy1P"/></g><g transform="translate(-1101 -2427)"><use fill="#263357" xlink:href="#wgy1Q"/></g><g transform="translate(-1101 -2427)"><use fill="#263357" xlink:href="#wgy1R"/></g><g transform="translate(-1101 -2427)"><use fill="#263357" xlink:href="#wgy1S"/></g></g></svg>