<svg xmlns="http://www.w3.org/2000/svg" xmlns:xlink="http://www.w3.org/1999/xlink" width="219.33" height="128" viewBox="0 0 329 192"><defs><path id="hg7ba" d="M914.312 4939.098s-21.358 24.763-68.097 32.225c-71.18 11.364-69.736 99.675 7.384 117.661 77.121 17.987 56.601-11.241 165.719-3.747s82.624-73.948 42.943-99.09c-41.035-26-2.525-72.346-63.445-82.273-47.867-7.8-84.504 35.224-84.504 35.224z"/><path id="hg7bc" d="M784.33 5061.09h327.253"/><path id="hg7bd" d="M819.907 5045.257c-2.389 0-12.215-2.098-13.013-11.791-.408-4.95.933-8.271 2.23-11.482 1.551-3.844 3.016-7.474 1.784-13.748-.535-2.725-1.222-4.988-1.829-6.985-2.006-6.608-3.11-10.25 5.445-17.27.057-.043 4.821-3.64 4.89-8.342.073-5.026 6.83-10.545 12.91-10.545 1.555 0 2.997.349 4.288 1.036 2.418 1.287 3.885 2.894 4.484 4.91.99 3.323-.269 7.699-4.344 15.104-4.067 7.39-1.944 9.928-.07 12.167.6.716 1.164 1.39 1.472 2.178.147.372.314.747.484 1.13 1.246 2.786 2.795 6.254-2.266 13.159-2.874 3.923-2.313 8.249-1.77 12.43.508 3.924 1.034 7.98-1.323 11.608-.056.073-4.418 5.592-13.31 6.439z"/><path id="hg7be" d="M832.324 4965.344c1.438 0 2.858.308 4.171 1.007 6.891 3.67 5.503 9.74.038 19.673-5.465 9.93.171 11.445 1.39 14.556 1.216 3.112 3.907 6.329-1.752 14.05-5.659 7.723 1.688 16.676-3.102 24.05 0 0-4.236 5.48-13.124 6.326a.332.332 0 0 1-.038.002c-.85 0-11.907-1.154-12.764-11.562-.874-10.613 6.323-13.488 4.011-25.257-2.312-11.77-7.455-15.002 3.528-24.015 0 0 4.911-3.645 4.982-8.531.07-4.736 6.541-10.3 12.66-10.3zm0-.5c-6.197 0-13.085 5.648-13.16 10.79-.067 4.587-4.733 8.104-4.779 8.139-8.706 7.142-7.583 10.84-5.544 17.55.604 1.992 1.29 4.249 1.822 6.962 1.218 6.2-.234 9.797-1.77 13.605-1.309 3.239-2.66 6.589-2.249 11.597.814 9.88 10.828 12.02 13.263 12.02h.023l.062-.003c9-.856 13.295-6.288 13.473-6.52 2.43-3.738 1.9-7.84 1.384-11.806-.56-4.324-1.089-8.41 1.725-12.252 5.146-7.021 3.564-10.562 2.293-13.408-.17-.38-.335-.75-.48-1.12-.323-.825-.9-1.516-1.513-2.247-1.822-2.178-3.887-4.646.096-11.886 4.112-7.47 5.376-11.901 4.366-15.296-.62-2.084-2.127-3.74-4.607-5.06-1.327-.707-2.809-1.065-4.405-1.065z"/><path id="hg7bf" d="M822.274 5061.24a.483.483 0 0 0 .336-.57c-7.222-32.24 3.82-76.904 3.932-77.35a.482.482 0 1 0-.937-.235c-.113.45-11.209 45.335-3.937 77.796.057.26.316.423.577.366l.03-.008z"/><path id="hg7bg" d="M822.32 5003.178a.484.484 0 0 0 .301-.676c-.028-.056-2.77-5.705-3.98-10.566a.483.483 0 1 0-.938.233c1.235 4.962 4.021 10.699 4.05 10.757a.482.482 0 0 0 .567.252z"/><path id="hg7bh" d="M820.797 5016.439a.488.488 0 0 0 .186-.103c2.359-2.086 8.336-6.068 8.396-6.108a.481.481 0 0 0 .135-.67.48.48 0 0 0-.67-.134c-.247.163-6.092 4.058-8.501 6.19a.482.482 0 0 0 .454.824z"/><path id="hg7bi" d="M849.753 5047.554c-.941 0-4.73-7.594-5.628-16.464-.007-.07-.158-1.697.656-2.597.347-.382.812-.577 1.38-.577.497 0 1.08.154 1.738.455-.454-2.305-2.011-11.637 1.519-16.046 1.216-1.52 2.918-2.291 5.059-2.291.4 0 .824.028 1.256.082 2.243.28 3.395.808 4.567 2.094 1.447 1.588 2.73 4.43.635 8.95-1.092 2.355-2.133 4.272-3.052 5.963-2.21 4.068-3.542 6.523-2.423 9.495 1.693 4.5 1.023 5.823-5.52 10.873l-.066.05z"/><path id="hg7bj" d="M854.476 5010.284c.388 0 .796.025 1.226.08 2.057.256 3.228.714 4.413 2.014 1.602 1.76 2.485 4.596.592 8.677-3.784 8.161-7.109 11.33-5.482 15.651 1.626 4.321 1.077 5.557-5.436 10.586a.062.062 0 0 1-.038.012c-.593 0-4.46-7.172-5.378-16.24 0 0-.288-2.898 1.788-2.898.528 0 1.21.187 2.087.66 0 0-4.16-18.54 6.228-18.542zm.001-.5c-2.22 0-3.988.802-5.255 2.384-3.392 4.238-2.187 12.871-1.655 15.791-.517-.196-.982-.293-1.406-.293-.632 0-1.173.228-1.564.66-.89.98-.727 2.715-.72 2.788.842 8.312 4.56 16.69 5.875 16.69h.17l.172-.117c6.6-5.093 7.331-6.553 5.6-11.158-1.078-2.865.16-5.146 2.41-9.287.92-1.695 1.963-3.615 3.059-5.977 2.267-4.89.548-7.878-.678-9.224-1.362-1.495-2.763-1.93-4.721-2.174a10.279 10.279 0 0 0-1.286-.083z"/><path id="hg7bk" d="M850.953 5060.277a.44.44 0 0 0 .342-.519c-2.75-13.41 1.204-35.999 1.71-36.989a.426.426 0 0 0-.109-.6.45.45 0 0 0-.62.111c-.815 1.136-4.509 24.646-1.842 37.655a.44.44 0 0 0 .52.342z"/><path id="hg7bl" d="M901.112 5051.654c-1.437 0-7.347-1.263-7.826-7.093-.244-2.962.556-4.944 1.331-6.862.915-2.267 1.78-4.408 1.054-8.103-.318-1.613-.725-2.954-1.083-4.136-1.205-3.965-1.868-6.149 3.264-10.36.037-.028 2.824-2.134 2.865-4.874.044-3.03 4.108-6.359 7.764-6.359.941 0 1.813.211 2.594.627 1.461.777 2.348 1.75 2.712 2.974.596 2.002-.154 4.623-2.588 9.044-2.38 4.327-1.144 5.804-.053 7.11.362.43.702.837.891 1.32.087.22.185.441.286.667.75 1.678 1.683 3.765-1.357 7.911-1.68 2.296-1.35 4.844-1.032 7.307.305 2.346.62 4.772-.8 6.956-.117.153-2.654 3.362-7.976 3.87z"/><path id="hg7bm" d="M908.482 5004.117c.854 0 1.696.183 2.476.598 4.09 2.177 3.266 5.782.022 11.677-3.243 5.895.102 6.794.824 8.641.723 1.847 2.321 3.756-1.039 8.34-3.358 4.584 1.002 9.898-1.84 14.274 0 0-2.515 3.254-7.79 3.756l-.024.001c-.506 0-7.067-.685-7.576-6.863-.519-6.299 3.753-8.006 2.381-14.992-1.372-6.987-4.425-8.905 2.094-14.255 0 0 2.914-2.163 2.957-5.064.041-2.81 3.882-6.113 7.515-6.113zm0-.5c-3.774 0-7.969 3.457-8.015 6.605-.038 2.614-2.728 4.651-2.756 4.67-5.279 4.332-4.557 6.707-3.363 10.641.358 1.177.763 2.512 1.077 4.112.711 3.621-.139 5.73-1.04 7.96-.786 1.946-1.597 3.956-1.348 6.977.567 6.891 8 7.322 8.074 7.322h.023l.047-.003c5.43-.516 8.03-3.807 8.14-3.948 1.492-2.295 1.172-4.768.861-7.158-.327-2.526-.637-4.91.987-7.127 3.124-4.263 2.16-6.425 1.382-8.162-.099-.222-.196-.44-.28-.656-.205-.52-.559-.943-.933-1.39-1.04-1.242-2.217-2.65.081-6.827 2.468-4.487 3.224-7.162 2.607-9.235-.384-1.293-1.312-2.314-2.833-3.125a5.712 5.712 0 0 0-2.71-.656z"/><path id="hg7bn" d="M902.517 5061.04a.287.287 0 0 0 .2-.339c-4.287-19.137 2.267-45.648 2.333-45.914a.286.286 0 1 0-.555-.14c-.068.267-6.654 26.911-2.337 46.18a.286.286 0 0 0 .34.217l.019-.005z"/><path id="hg7bo" d="M902.545 5026.574a.286.286 0 0 0 .178-.4c-.017-.035-1.645-3.387-2.363-6.273a.287.287 0 0 0-.556.14c.733 2.944 2.387 6.35 2.403 6.384a.287.287 0 0 0 .338.15z"/><path id="hg7bp" d="M901.64 5034.446a.28.28 0 0 0 .11-.06c1.4-1.24 4.949-3.603 4.985-3.627a.286.286 0 0 0 .08-.397.285.285 0 0 0-.398-.08c-.147.098-3.617 2.41-5.047 3.674a.287.287 0 0 0 .27.49z"/><path id="hg7bq" d="M940.568 5014.734a.807.807 0 0 1-.806-.805c0-4.433.483-8.857 1.433-13.148a60.073 60.073 0 0 1 6.358-16.57.806.806 0 0 1 1.098-.307.81.81 0 0 1 .306 1.098 58.43 58.43 0 0 0-6.189 16.128 59.17 59.17 0 0 0-1.394 12.8.807.807 0 0 1-.806.804z"/><path id="hg7br" d="M948.255 4984.175a.433.433 0 0 1 .375.644 58.861 58.861 0 0 0-6.228 16.23 59.633 59.633 0 0 0-1.403 12.88.43.43 0 0 1-.861 0c0-4.407.479-8.804 1.424-13.067a59.701 59.701 0 0 1 6.318-16.467.43.43 0 0 1 .375-.22zm0-.75c-.425 0-.82.23-1.028.6a60.46 60.46 0 0 0-6.398 16.675 61.276 61.276 0 0 0-1.441 13.23 1.182 1.182 0 0 0 2.361 0c0-4.292.466-8.57 1.386-12.718a58.096 58.096 0 0 1 6.147-16.025 1.174 1.174 0 0 0-.447-1.61 1.182 1.182 0 0 0-.58-.152z"/><path id="hg7bs" d="M942.536 5029.995a.803.803 0 0 1-.777-.6 60.785 60.785 0 0 1-1.142-5.272.81.81 0 0 1 .66-.929l.138-.01c.392 0 .725.28.791.668a59.108 59.108 0 0 0 1.11 5.132.801.801 0 0 1-.574.984.825.825 0 0 1-.206.027z"/><path id="hg7bt" d="M941.415 5023.558c.203 0 .386.149.422.358.294 1.735.67 3.472 1.116 5.164a.43.43 0 1 1-.832.22 60.406 60.406 0 0 1-1.134-5.24.43.43 0 0 1 .428-.502zm0-.75a1.181 1.181 0 0 0-1.167 1.378 60.85 60.85 0 0 0 1.147 5.306 1.181 1.181 0 0 0 2.283-.603 58.22 58.22 0 0 1-1.102-5.098 1.177 1.177 0 0 0-1.161-.983z"/><path id="hg7bu" d="M977.033 5072.736a1.727 1.727 0 0 1-1.725-1.725c0-.95.774-1.724 1.725-1.724h46.454c.951 0 1.725.773 1.725 1.724 0 .952-.774 1.725-1.725 1.725z"/><path id="hg7bv" d="M1023.487 5069.662a1.35 1.35 0 1 1 0 2.7h-46.454a1.35 1.35 0 1 1 0-2.7h46.454zm0-.75h-46.454c-1.158 0-2.1.941-2.1 2.1 0 1.157.942 2.1 2.1 2.1h46.454c1.158 0 2.1-.943 2.1-2.1 0-1.159-.942-2.1-2.1-2.1z"/><path id="hg7bw" d="M1042.373 5074.745a1.727 1.727 0 0 1-1.725-1.725c0-.95.774-1.723 1.725-1.723h24.662c.951 0 1.725.773 1.725 1.723 0 .952-.774 1.725-1.725 1.725z"/><path id="hg7bx" d="M1067.035 5071.672a1.35 1.35 0 1 1 0 2.698h-24.662a1.35 1.35 0 1 1 0-2.698h24.662zm0-.75h-24.662c-1.157 0-2.1.94-2.1 2.099 0 1.158.943 2.099 2.1 2.099h24.662c1.158 0 2.1-.941 2.1-2.1a2.101 2.101 0 0 0-2.1-2.098z"/><path id="hg7by" d="M1055.666 5071.912a32.87 32.87 0 0 0-1.796-.077l-.211.003c-.417.01-.643.04-.897.073-.462.06-1.04.136-2.927.136-.954 0-1.412-.455-1.627-.837-.638-1.13.007-3.014.563-3.937.267-.436.608-.686 1.02-.746l-.07-.434-.877.134-.066-.358c-.071-.168-.175-.395-.587-2.529-.202-1.044-.43-2.219-.671-3.483-.427.49-.818.942-1.162 1.347-.677.782-1.162 1.378-1.444 1.774l-.294.411-.752-.974-.533.558c.126.217.199.45.21.678.07 1.412 1.209 5.091 2.417 6.194.643.586.876 1.03.734 1.395-.057.148-.227.397-.72.397-.608 0-1.5-.362-2.142-.665-1.78-.839-2.605-2.337-3.207-3.43-.25-.457-.467-.852-.688-1.08-.289-.299-.463-.445-.658-.609-.358-.3-.803-.674-2.082-2.067-.645-.702-.618-1.347-.483-1.765.402-1.233 2.225-2.03 3.281-2.244.135-.028.267-.043.393-.043.33 0 .612.097.846.288l.397-.503-.55-.71.162-.226c.595-.839 1.172-1.84 1.784-2.902.543-.94 1.104-1.915 1.73-2.865l.416.052-.312-.207c.283-.427.57-.87.856-1.313l.153-.235a111.88 111.88 0 0 1-.605-3.684 20.17 20.17 0 0 1-.686.887 58.929 58.929 0 0 1-1.365 1.698c-.185.221-.375.437-.563.653l-.147.166a59.965 59.965 0 0 1-2.082 2.26c-.443.454-.896.898-1.355 1.338l-.24.232c-.187.18-.372.358-.563.534-.532.49-1.076.962-1.626 1.431 0 0-.505.442-.628.545-.724.6-1.495 1.205-2.29 1.796l-.148.117-.475.346-.002-.009c-9.603 6.946-20.943 10.614-32.835 10.614-30.937 0-56.107-25.17-56.107-56.108 0-30.938 25.17-56.109 56.107-56.109 2.502 0 5.063.176 7.617.525l.247.032-.002-.104c-.03-1.234-.081-3.522 7.047-6.527.13-.054.266-.109.404-.164l-.003-.004.429-.19c8.717-3.37 9.867-3.527 12.158-3.839l.67-.094c.087-.013.17-.018.253-.02.19-.027.338-.049.494-.049h5.113a20.378 20.378 0 0 1-.134-1.872 21.97 21.97 0 0 1-.011-.625c-1.494-1.14-2.7-2.807-3.502-4.842a1.623 1.623 0 0 1-1.176-.903 3.746 3.746 0 0 1-.04-3.163c.059-.133.135-.255.214-.375 0-.067.016-.35.016-.35-.587-5.06 1.572-7.763 3.436-8.55-.2-.378-.255-.85-.167-1.414l.183-1.189.525 1.083c0 .002.046.095.125.24.122-.338.325-.68.606-1.027l.762-.933-.097 1.201c-.001.004-.015.19-.021.475.833-.669 1.958-.969 2.662-1.005.092-.005.207-.008.344-.008.337 0 8.324.058 11.506 5.207 3.225 5.214.074 8.718.04 8.754l-.116.126c-1.445 4.946-4.396 7.92-8.375 8.434.033.273.073.518.12.735l5.91.001c.055 0 .109.004.162.01.077-.002.165-.005.252-.005a3.39 3.39 0 0 1 2.963 1.737l.076.111a98.825 98.825 0 0 1 6.13 10.362l.226.445-.891.171.259.503c2.776 5.42 4.317 8.893 4.582 10.322a3.782 3.782 0 0 1-.916 3.211c-1.03 1.162-2.201 1.936-4.566 1.936a15.38 15.38 0 0 1-1.916-.133 39.49 39.49 0 0 1-1.244-.175c.435 7.336.68 13.328.684 13.388l.006.163c.04 1.193.099 3.356.083 6.067 1.71 3.124 14.594 27.052 13.157 36.58-.32 2.128-1.434 4.392-3.13 7.354-2.057 3.575-5.148 7.811-9.446 12.952.446 6.838.738 12.548.74 12.605l.018.34-1.438.22.095 1.427c.245.053.465.158.642.305 1.049.87 4.43 2.551 6.179 2.804 1.119.161 1.74.551 1.703 1.07-.042.591-.862.891-2.434.891-1.497 0-2.778-.076-3.81-.135zm-3.162-37.52c.158 1.4.32 3.037.484 4.886 2.094-3.894 3.33-6.83 3.586-8.533.17-1.126-.257-3.125-1.269-5.952a57.864 57.864 0 0 1-.408 1.886l-.077.343c-.043.193-.086.385-.135.575a56.362 56.362 0 0 1-.793 2.863l-.027.095a55.68 55.68 0 0 1-1.004 2.932c-.056.15-.293.744-.293.744zm-.23-63.897c1.34-.142 2.323-.42 2.93-.83-.372-.805-.95-1.715-1.663-2.837-.541-.854-1.132-1.785-1.75-2.855.162 1.997.324 4.182.483 6.522zm-32.805-9.288l.356.128.308.12c.363.137.72.28 1.076.424.445.178.89.357 1.328.548.3.13.595.265.892.402l.432.198c.344.157.686.314 1.025.48.305.148.603.303.9.46l.558.287c.28.144.564.29.84.44.334.184.66.375.989.567 0 0 .998.574 1.178.681-.44-3.59-.955-7.365-1.473-10.768-1.227.495-3.1 1.14-6.997 2.481l-.756.26-.966-1.342c-.564.207-1.106.411-1.6.61-.96.385-1.796.76-2.456 1.1a79.734 79.734 0 0 0 4.366 2.924z"/><path id="hg7bz" d="M1038.412 4924.504c-.13 0-.236.001-.323.006-.741.038-2.332.462-3.04 1.574-.05-.778.006-1.448.006-1.448-.635.78-.737 1.422-.62 1.922-.432-.57-.74-1.209-.74-1.209-.127.822.108 1.278.42 1.544-1.898.444-4.296 3.061-3.684 8.375-.005.15-.021.298-.017.448-.086.136-.18.268-.247.42a3.37 3.37 0 0 0 .036 2.846c.225.47.66.698 1.109.72.79 2.103 2.006 3.831 3.606 5 0 .261.003.528.012.802.019.73.076 1.495.186 2.255h-1.48l.002.001h-4.063c-.131 0-.257.021-.381.043-.104.007-.204.007-.312.023-2.758.398-3.247.24-12.746 3.912l.013.018c-.283.113-.57.226-.832.335-6.905 2.911-6.844 5.063-6.82 6.173.005.162.014.344.056.548-.078-.012-.158-.018-.237-.029-.021-.004-.041-.008-.062-.01v.002a56.153 56.153 0 0 0-7.992-.58c-30.78 0-55.732 24.953-55.732 55.734 0 30.781 24.952 55.733 55.732 55.733a55.476 55.476 0 0 0 33.088-10.889l.002.01c.05-.037.098-.078.147-.115a56.149 56.149 0 0 0 2.275-1.785c.212-.175.414-.362.624-.54a54.401 54.401 0 0 0 1.613-1.422c.27-.25.532-.506.798-.76.456-.438.906-.879 1.348-1.33a59.336 59.336 0 0 0 2.068-2.244c.235-.27.473-.54.704-.814a57.76 57.76 0 0 0 1.356-1.686c.164-.212.336-.419.498-.634.248-.327.483-.664.723-.998.227 1.597.479 3.2.762 4.737-.364.562-.732 1.132-1.092 1.676l-.103.154c-1.327 2.016-2.385 4.177-3.522 5.777l.559.723-.858 1.085-.044-.062a.933.933 0 0 0-.818-.436c-.102 0-.208.013-.318.035-1.528.31-4.118 1.731-2.596 3.388 1.983 2.16 1.904 1.811 2.733 2.67.828.856 1.368 3.291 3.786 4.431.907.428 1.588.628 1.982.628.56 0 .534-.407-.268-1.139-1.323-1.208-2.465-4.976-2.54-6.45a1.165 1.165 0 0 0-.211-.594l-.1-.146 1.039-1.093.71.921c.3-.422.8-1.033 1.465-1.799.477-.562 1.046-1.215 1.67-1.93.297 1.552.575 2.988.817 4.237.534 2.764.537 2.257.588 2.533l.886-.135.2 1.245-.075-.01a1.241 1.241 0 0 0-.168-.013c-.4 0-.68.221-.897.578-.805 1.335-1.51 4.205.742 4.205 2.93 0 2.62-.178 3.814-.208.07-.002.144-.003.22-.003 1.207 0 3.09.211 5.606.211 2.674 0 2.576-.94.677-1.214-1.774-.257-5.228-1.944-6.365-2.887a1.147 1.147 0 0 0-.58-.244l-.175-.025-.14-2.07 1.444-.222s-.294-5.767-.75-12.75c3.425-4.089 7.053-8.754 9.506-13.012 1.61-2.816 2.764-5.097 3.083-7.224 1.379-9.144-10.616-31.793-13.162-36.43.024-3.664-.09-6.308-.09-6.308h.002s-.254-6.218-.712-13.848a44.96 44.96 0 0 0 1.694.247 15.3 15.3 0 0 0 1.869.13c2.172 0 3.269-.664 4.287-1.81a3.403 3.403 0 0 0 .826-2.894c-.302-1.628-2.3-5.829-4.547-10.22l-.487-.947.892-.172c-2.996-5.889-6.164-10.392-6.2-10.46a3.008 3.008 0 0 0-2.868-1.536c-.06-.005-.118-.015-.18-.015h-6.198c-.022-.088-.05-.163-.068-.257a8.7 8.7 0 0 1-.174-1.185c4.522-.403 7.303-3.92 8.568-8.723.016.083.048.152.059.24 0 0 3.027-3.27-.085-8.302-2.727-4.41-9.237-5.029-11.19-5.029zm-18.145 32.965c4.688-1.614 6.654-2.287 7.91-2.825a383.77 383.77 0 0 1 1.642 12.04c-.197-.123-.387-.253-.584-.374-.315-.19-.637-.368-.954-.553-.425-.247-.846-.498-1.277-.734-.378-.207-.764-.4-1.147-.599-.377-.195-.752-.393-1.134-.58-.41-.2-.826-.388-1.241-.579-.365-.167-.727-.336-1.094-.495a60.695 60.695 0 0 0-1.317-.544c-.355-.142-.71-.285-1.07-.422-.243-.09-.484-.189-.73-.279a83.181 83.181 0 0 1-4.874-3.287c.722-.413 1.756-.895 3.02-1.402a56.732 56.732 0 0 1 1.88-.712zm31.658 13.435a451.032 451.032 0 0 0-.655-8.64c1.867 3.52 3.659 5.747 4.394 7.52-.773.673-2.177.991-3.74 1.12zm.796 69.643a231.51 231.51 0 0 0-.6-6.207l.097-.245c.096-.247.198-.49.29-.739.358-.959.693-1.929.998-2.912.01-.03.018-.064.027-.095a54.97 54.97 0 0 0 .789-2.844c.076-.3.139-.607.21-.91.163-.698.315-1.398.45-2.105.07-.36.134-.726.196-1.09l.003-.018c1.27 3.301 1.984 5.96 1.765 7.418-.317 2.107-1.981 5.695-4.225 9.747zm-16.897-116.126c.78-.427 1.639-.63 2.227-.66.097-.005.218-.007.36-.007.348 0 8.537.06 11.828 5.384 3.373 5.454.032 9.17-.002 9.206l-.058.061c-1.452 4.894-4.363 7.897-8.286 8.561l.007.043h.854l.75.001h3.996c.058 0 .115.004.193.013a3.772 3.772 0 0 1 3.493 1.893l.075.111a98.99 98.99 0 0 1 6.154 10.404l.452.89-.887.17.03.057c2.83 5.532 4.34 8.942 4.616 10.428a4.147 4.147 0 0 1-1.003 3.525c-1.3 1.465-2.704 2.063-4.847 2.063a15.93 15.93 0 0 1-1.963-.136 40.789 40.789 0 0 1-.796-.108c.419 7.128.655 12.875.657 12.934l.03.781h-.005c.032 1.026.078 2.98.065 5.368 2.664 4.87 14.574 27.308 13.152 36.731-.327 2.186-1.457 4.485-3.174 7.487-2.052 3.562-5.125 7.781-9.388 12.89.44 6.774.728 12.404.73 12.46l.036.677-.671.103-.762.116.055.825c.194.072.37.173.524.3.994.825 4.33 2.481 5.992 2.721 1.834.265 2.057 1.035 2.025 1.47-.09 1.238-2.136 1.238-2.808 1.238-1.508 0-2.795-.075-3.83-.135a33.359 33.359 0 0 0-1.775-.076c-.07 0-.137.001-.202.003-.395.01-.598.036-.856.07-.474.061-1.064.138-2.977.138-1.135 0-1.688-.559-1.953-1.028-.721-1.276-.055-3.279.569-4.314a2.29 2.29 0 0 1 .39-.489l-.284.033-.141-.657c-.078-.17-.194-.488-.592-2.554-.163-.833-.34-1.748-.527-2.727l-.66.767c-.662.765-1.14 1.352-1.42 1.744l-.586.823-.617-.8-.176-.229-.052.054c.079.192.123.391.133.59.067 1.325 1.17 4.908 2.296 5.934.485.443 1.1 1.113.83 1.808-.074.19-.326.635-1.068.635-.545 0-1.32-.236-2.301-.699-1.893-.892-2.75-2.452-3.377-3.59-.228-.416-.443-.807-.63-1a6.94 6.94 0 0 0-.63-.583c-.366-.307-.822-.69-2.115-2.099-.767-.835-.73-1.62-.563-2.134.452-1.395 2.378-2.258 3.562-2.497.16-.033.318-.05.467-.05.277 0 .533.057.76.166l.008-.008-.201-.26-.34-.439.323-.453c.585-.823 1.157-1.817 1.763-2.868.546-.948 1.112-1.927 1.748-2.894l.057-.086.043-.064c.262-.394.525-.802.79-1.21l.136-.209a105.27 105.27 0 0 1-.447-2.68l-.153.192a51.325 51.325 0 0 1-1.375 1.71c-.19.226-.386.45-.582.673l-.131.151a57.136 57.136 0 0 1-2.095 2.273 60.02 60.02 0 0 1-1.367 1.35l-.211.203c-.198.19-.395.381-.597.566-.466.43-.97.874-1.635 1.442-.085.072-.17.146-.253.22-.125.11-.251.22-.38.328a58.31 58.31 0 0 1-2.305 1.808l-.05.04c-.032.025-.064.051-.097.075l-.887.646-.003-.012c-9.58 6.803-20.843 10.393-32.647 10.393-31.145 0-56.482-25.338-56.482-56.483 0-31.145 25.337-56.484 56.482-56.484 2.383 0 4.814.158 7.242.471v-.008l.246.035c.067-1.87 1.163-3.959 7.232-6.524l-.022-.03.906-.35c8.76-3.387 9.924-3.546 12.244-3.864l.665-.09c.099-.016.194-.022.289-.026l.043-.003c.135-.023.292-.046.468-.046H1034.27a19.87 19.87 0 0 1-.09-1.48 17.772 17.772 0 0 1-.011-.456c-1.436-1.143-2.603-2.758-3.403-4.709a1.99 1.99 0 0 1-1.24-1.059 4.12 4.12 0 0 1-.044-3.478c.057-.129.123-.24.185-.339l.006-.108.005-.088c-.53-4.756 1.224-7.725 3.33-8.789-.1-.336-.136-.754-.056-1.27l.368-2.373.839 1.73c.09-.139.194-.283.313-.429l1.518-1.863zm-16.166 33.487l-.637-.885c-.513.19-.943.355-1.323.508-.696.28-1.324.553-1.867.81a78.235 78.235 0 0 0 3.77 2.506c.134.05.265.101.397.153l.27.103c.363.138.723.282 1.084.428.446.18.892.36 1.334.551.31.134.618.276.926.418l.182.084.22.1c.348.16.695.32 1.038.486.302.148.6.302.898.458l.25.131.324.165c.28.145.563.29.84.441.347.19.688.39 1.029.59l.265.154.229.132a385.879 385.879 0 0 0-1.31-9.546c-1.25.481-3.137 1.131-6.642 2.338l-.424.145-.526.182zm32.962 12.168c1.019-.137 1.673-.348 2.094-.56-.361-.71-.875-1.519-1.49-2.489-.298-.469-.61-.96-.933-1.486.112 1.435.22 2.95.329 4.535zm.267 64.366c.117 1.052.237 2.238.359 3.546 1.717-3.3 2.733-5.8 2.957-7.299.099-.65.003-1.939-.813-4.482-.04.181-.083.367-.127.557l-.074.326c-.045.201-.09.4-.14.598a56.258 56.258 0 0 1-.805 2.903l-.021.075a55.755 55.755 0 0 1-1.011 2.952c-.057.155-.12.31-.181.463l-.114.286z"/><path id="hg7bA" d="M940.568 5014.36a.43.43 0 0 1-.43-.43c0-4.409.48-8.805 1.423-13.068a59.697 59.697 0 0 1 6.32-16.469.43.43 0 0 1 .75.424 58.848 58.848 0 0 0-6.229 16.231A59.591 59.591 0 0 0 941 5013.93a.43.43 0 0 1-.43.43z"/><path id="hg7bB" d="M942.536 5029.62a.433.433 0 0 1-.416-.32 60.134 60.134 0 0 1-1.133-5.24.432.432 0 0 1 .85-.144c.294 1.734.67 3.472 1.116 5.163a.43.43 0 0 1-.417.541z"/><path id="hg7bC" d="M1055.995 5013.93c0 30.78-24.952 55.732-55.733 55.732-30.78 0-55.733-24.952-55.733-55.732 0-30.781 24.952-55.733 55.733-55.733 30.781 0 55.733 24.952 55.733 55.733z"/><path id="hg7bD" d="M1050.574 5013.926c0 16.638-8.07 31.384-20.509 40.542a50.043 50.043 0 0 1-12.173 6.595 48.507 48.507 0 0 1-6.047 1.839 50.07 50.07 0 0 1-11.58 1.343 50.27 50.27 0 0 1-14.95-2.255c-20.49-6.364-35.369-25.477-35.369-48.064a50.093 50.093 0 0 1 5.012-21.906 50.507 50.507 0 0 1 17.451-19.996 48.466 48.466 0 0 1 5.473-3.165 49.74 49.74 0 0 1 13.127-4.394 50.621 50.621 0 0 1 9.255-.85c27.786 0 50.31 22.527 50.31 50.31z"/><path id="hg7bE" d="M1049.263 5013.927c0 16.203-7.861 30.564-19.975 39.483a48.672 48.672 0 0 1-11.855 6.423 46.937 46.937 0 0 1-5.89 1.79 48.652 48.652 0 0 1-11.278 1.31 49.01 49.01 0 0 1-14.56-2.195c-19.956-6.2-34.446-24.813-34.446-46.811a48.76 48.76 0 0 1 4.882-21.335 49.168 49.168 0 0 1 22.324-22.558 48.524 48.524 0 0 1 12.785-4.28 49.355 49.355 0 0 1 9.015-.825c27.06 0 48.998 21.937 48.998 48.998z"/><path id="hg7bF" d="M1011.543 5061.624a48.713 48.713 0 0 1-11.278 1.309c-5.072 0-9.961-.767-14.559-2.196l-29.565-68.145a49.168 49.168 0 0 1 16.995-19.476z"/><path id="hg7bG" d="M1029.288 5053.41a48.724 48.724 0 0 1-11.855 6.423l-38.968-89.799a48.5 48.5 0 0 1 12.785-4.279z"/><path id="hg7bH" d="M1055.995 5013.927c0 18.39-8.91 34.705-22.644 44.856l-24.796-97.602a9.783 9.783 0 0 1-.3-2.408c26.991 3.866 47.74 27.086 47.74 55.154z"/><path id="hg7bI" d="M977.033 5072.36h46.454a1.35 1.35 0 1 0 0-2.698h-46.454a1.35 1.35 0 1 0 0 2.698z"/><path id="hg7bJ" d="M1042.373 5074.37h24.662a1.35 1.35 0 0 0 0-2.699h-24.662a1.349 1.349 0 0 0 0 2.7z"/><path id="hg7bK" d="M1050.51 5068.635l-1.147-7.141 3.21-.97.512 7.567z"/><path id="hg7bL" d="M1053.207 5067.326c.214.03.418.11.58.244 1.137.943 4.591 2.63 6.364 2.886 1.901.274 1.997 1.215-.676 1.215-2.674 0-4.635-.239-5.827-.208-1.192.03-.882.208-3.813.208-2.251 0-1.547-2.869-.742-4.203.246-.407.575-.637 1.064-.568z"/><path id="hg7bM" d="M1040.17 5061.977l4.483-5.675 2.887 1.71-5.227 5.493z"/><path id="hg7bN" d="M1042.958 5063.078c.122.18.201.382.212.593.074 1.474 1.216 5.243 2.539 6.451 1.364 1.246.484 1.55-1.714.512-2.418-1.14-2.959-3.576-3.787-4.433-.828-.857-.75-.509-2.732-2.669-1.522-1.657 1.068-3.079 2.595-3.388.465-.094.858-.006 1.137.4z"/><path id="hg7bO" d="M1038.188 4941.57s-.877 5.847.82 8.536c1.696 2.691 1.94 3.1 1.94 3.1z"/><path id="hg7bP" d="M1042.498 4955.82a3.062 3.062 0 0 1-1.55.421 3.023 3.023 0 0 1-2.608-1.48c-.035-.044-.336-.55-1.904-3.03-1.102-1.749-1.454-4.134-1.506-6.226a25.416 25.416 0 0 1 .25-4.39 3.034 3.034 0 0 1 3.462-2.549 3.03 3.03 0 0 1 2.556 3.452c-.13.878-.198 1.885-.198 2.85 0 .981.068 1.92.232 2.635.086.413.198.75.344.981 1.732 2.746 1.982 3.168 1.982 3.168a3.038 3.038 0 0 1-1.06 4.167z"/><path id="hg7bQ" d="M1031.27 4989.286c.639-8.723-2.298-30.393-3.804-39.02a2.144 2.144 0 0 1 2.11-2.505h17.924c.963 0 1.816.645 2.066 1.585 2.05 7.825 3.358 39.94 3.358 39.94z"/><path id="hg7bR" d="M1060.889 4971.11c-.302-1.627-2.3-5.829-4.546-10.22a428.086 428.086 0 0 0-6.277-11.743 2.573 2.573 0 0 0-4.502 2.487 445.147 445.147 0 0 1 5.536 10.315c1.929 3.711 3.807 6.01 4.564 7.834-1.4 1.22-4.842 1.298-7.597 1.134-.753-.088-3.672-.295-5.615 1.49-.76.696-1.646 1.954-1.555 3.984.06 1.38.263 1.95 1.494 2.548.497.242 1.17.31 1.722.242 1.41-.172 1.533-.94 1.547-2.595.009-1.16.605-2.352.605-2.355 0 0 4.159 1.02 7.64 1.453 3.483.435 4.882-.244 6.157-1.68a3.404 3.404 0 0 0 .827-2.894z"/><path id="hg7bS" d="M1031.274 4989.286c-1.696 9.256.94 14.091.94 14.091h20.519c.496-7.046.189-14.091.189-14.091z"/><path id="hg7bU" d="M1056.343 4960.89l-2.522.509-2.721.55a445.147 445.147 0 0 0-5.536-10.314 2.572 2.572 0 0 1 4.502-2.487 428.086 428.086 0 0 1 6.277 11.743z"/><path id="hg7bV" d="M1031.959 4949.775a2.569 2.569 0 0 0-3.115-1.877c-6.209 1.524-10.522 2.937-13.528 4.193-6.904 2.911-6.843 5.063-6.818 6.173.033 1.256.278 3.685 15.177 9.115.011.427-.472 2.134-.769 2.682-.676 1.25.028 2.447.769 3.66.253.411.823.913 1.55.913.914 0 2.05-1.157 2.207-2.123.564-3.472.466-5.514.295-5.922l-.003-.006-.004-.012c-.016-.035-.039-.066-.055-.1-.057-.116-.114-.232-.187-.339-.045-.065-.1-.122-.151-.182-.055-.068-.105-.138-.169-.2a2.545 2.545 0 0 0-.321-.264c-.019-.014-.035-.03-.055-.044a2.617 2.617 0 0 0-.563-.286c-5.042-2.074-9.754-5.43-11.822-6.918.722-.413 1.755-.895 3.021-1.403 3.194-1.283 7.869-2.763 12.656-3.943a2.581 2.581 0 0 0 1.885-3.117z"/><path id="hg7bW" d="M1056.747 4959.771l-3.452.664-2.712.516h-.01l-2.29.438c-2.953-5.794-3.659-7.12-3.77-9.099-.12-2.24.482-3.35 1.936-4.15a3.014 3.014 0 0 1 4.1 1.17c.034.068 3.202 4.572 6.198 10.461z"/><path id="hg7bX" d="M1046.975 4995.087c-1.705.94-3.108 3.135-2.945 5.047.027.439.146.87.363 1.256a347.772 347.772 0 0 1 1.901 3.496c5.581 10.374 11.22 22.137 10.651 25.916-.318 2.118-1.998 5.733-4.262 9.815-.068.127-.138.258-.223.388-2.145 3.857-4.788 8.101-7.285 11.863l-.103.155c-1.326 2.016-2.384 4.177-3.521 5.776l3.056 3.962c.302-.422.801-1.033 1.464-1.801 1.524-1.789 3.892-4.425 6.474-7.463 3.712-4.366 7.844-9.558 10.546-14.249 1.612-2.816 2.764-5.097 3.083-7.225 1.395-9.245-10.891-32.311-13.25-36.591-.555-1.006-1.469-1.391-2.501-1.391-1.113 0-2.363.448-3.448 1.046z"/><path id="hg7bZ" d="M1052.545 5053.497c-2.582 3.038-4.95 5.674-6.474 7.464a2426.29 2426.29 0 0 1-.757-6.74 63.705 63.705 0 0 1-.138-1.353c2.496-3.763 5.14-8.007 7.284-11.864.094 3.814.103 8.273.085 12.493z"/><path id="hg7baa" d="M1034.122 4997.001a4.322 4.322 0 0 0-2.223 5.699c2.92 6.655 11.226 24.429 12.052 30.723.482 3.762 1.13 11.326 2.318 17.775.834 4.502 1.671 8.886 2.291 12.071.533 2.763.535 2.257.587 2.533l5.189-.792s-1.101-21.61-2.35-31.824c-1.06-8.662-8.333-31.933-9.461-34.498-.644-1.473-3.237-2.165-5.532-2.165-1.113 0-2.155.163-2.871.478z"/><path id="hg7bac" d="M1030.074 4952.893c-4.787 1.18-9.462 2.66-12.656 3.942l-2.102-4.743c3.006-1.257 7.32-2.67 13.528-4.193a2.57 2.57 0 0 1 3.115 1.877 2.581 2.581 0 0 1-1.885 3.117z"/><path id="hg7bad" d="M1028.882 4947.825c1.648-.237 2.836.542 3.277 2.146.444 1.604-.666 2.865-2.101 3.708-1.766 1.037-2.36 1.232-9.791 3.791l-4.131-5.732c9.499-3.672 9.988-3.515 12.746-3.913z"/><path id="hg7bae" d="M1041.232 4947.503c-.138.008-.275.008-.413.008a9.61 9.61 0 0 1-5.89-2.006 25.522 25.522 0 0 1 .25-4.391 3.035 3.035 0 0 1 3.462-2.548 3.031 3.031 0 0 1 2.557 3.453c-.13.878-.198 1.884-.198 2.849 0 .982.068 1.92.232 2.635z"/><path id="hg7baf" d="M1049.847 4936.692c-1.215 5.575-4.33 9.668-9.67 9.668-5.338 0-8.71-4.039-9.666-9.668-.894-5.264 4.354-10.424 9.693-10.424 5.339 0 10.779 5.207 9.643 10.424z"/><path id="hg7bag" d="M1050.572 5065.832l-.024-.153c-1.465-9.056-3.677-22.741-4.798-31.346-.818-6.267-8.573-24.898-11.49-31.549a.842.842 0 0 1-.05-.149c-.009-.026-.016-.052-.026-.077-.473-1.283-1.912-6.042-.544-13.513l.423.077c-1.348 7.363.061 12.03.525 13.285.013.036.024.074.035.112.01.03.015.061.03.091 2.926 6.666 10.7 25.35 11.523 31.667 1.121 8.599 3.333 22.28 4.796 31.333l.025.153z"/><path id="hg7bah" d="M1043.617 4947.76c0 1.302-.517 3.497-3.943 3.497-2.496 0-5.63-1.06-6.785-3.065l-.25-.431z"/><path id="hg7bai" d="M1033.637 4947.76c.915 1.593 3.659 2.634 6.036 2.634 2.378 0 3.08-1.18 3.08-2.634z"/><path id="hg7baj" d="M1046.655 4974.77c0-.027.13-1.489-1.379-3.626l1.408-.835c1.786 2.648 1.608 4.568 1.608 4.693z"/><path id="hg7bak" d="M1045.541 4970.334c.809-.375 1.88-.2 2.393.391.513.59.274 1.374-.535 1.749-.808.375-1.879.2-2.392-.391-.514-.591-.275-1.374.534-1.749z"/><path id="hg7bal" d="M1049.6 4929.533c-2.904-4.7-10.106-5.095-11.511-5.022-.741.037-2.332.461-3.04 1.573-.048-.778.006-1.448.006-1.448-.635.78-.737 1.422-.62 1.922-.432-.57-.74-1.21-.74-1.21-.127.823.109 1.28.42 1.545-1.965.46-4.478 3.241-3.617 8.945.376 2.486 5.979.584 7.57-1.908 1.065 1.707 3.18 2.068 3.18 2.068-.744-.737-1.376-1.837-1.881-2.939 2.985 1.828 6.979 3.795 7.435 5.011 0 0 .862-1.95.216-3.192 0 0 2.369.59 2.668 2.957 0 0 3.027-3.27-.085-8.302z"/><path id="hg7bam" d="M1044.558 5003.76l-2.366-14.643.426-.068 2.366 14.643z"/><path id="hg7ban" d="M1044.325 5000.98l-.066-.426c.008-.002.908-.15 1.398-.83.288-.394.384-.901.286-1.505l-1.499-9.278.426-.068 1.5 9.277c.115.723-.008 1.339-.366 1.832-.6.822-1.636.99-1.679.997z"/><path id="hg7bao" d="M1030.167 4936.136a3.37 3.37 0 0 0 .036 2.847c.486 1.014 1.961.958 2.421-.07l1.252-2.788c.461-1.026-.478-2.165-1.559-1.854a3.376 3.376 0 0 0-2.15 1.865z"/><path id="hg7bap" d="M999.068 4990.315a1.003 1.003 0 1 0 0 2.01c12.495 0 22.661 10.164 22.661 22.66 0 12.495-10.166 22.662-22.66 22.662-12.497 0-22.662-10.166-22.662-22.662a22.604 22.604 0 0 1 12.245-20.133 1.002 1.002 0 1 0-.924-1.782c-8.222 4.263-13.33 12.66-13.33 21.915 0 13.603 11.066 24.67 24.67 24.67 13.604 0 24.67-11.067 24.67-24.67 0-13.604-11.066-24.67-24.67-24.67z"/><path id="hg7baq" d="M1008.74 5002.276a15.828 15.828 0 0 0-9.672-3.26c-8.806 0-15.97 7.163-15.97 15.97 0 8.805 7.164 15.97 15.97 15.97 4.266 0 8.275-1.662 11.292-4.679a1.004 1.004 0 0 0-1.42-1.42 13.868 13.868 0 0 1-9.872 4.09c-7.699 0-13.962-6.263-13.962-13.962s6.263-13.96 13.962-13.96c6.174 0 11.688 4.134 13.408 10.057a1.005 1.005 0 0 0 1.929-.561 16.084 16.084 0 0 0-5.666-8.245z"/><path id="hg7bar" d="M1010.84 5011.946a1.004 1.004 0 1 0-1.42 1.421l3.778 3.776a1.003 1.003 0 0 0 1.42 0l3.778-3.776a1.004 1.004 0 1 0-1.42-1.421l-3.068 3.067z"/><path id="hg7bas" d="M1010.84 5011.946a1.004 1.004 0 1 0-1.42 1.421l3.778 3.776a1.003 1.003 0 0 0 1.42 0l3.778-3.776a1.004 1.004 0 1 0-1.42-1.421l-3.068 3.067-3.067-3.067z"/><linearGradient id="hg7bb" x1="794.25" x2="1096.76" y1="4998.93" y2="4998.93" gradientUnits="userSpaceOnUse"><stop offset="0" stop-color="#0694ea"/><stop offset=".01" stop-color="#0694ea"/><stop offset="1" stop-color="#9dc137"/><stop offset="1" stop-color="#9dc137"/></linearGradient><linearGradient id="hg7bT" x1="1030.7" x2="1053.02" y1="4996.33" y2="4996.33" gradientUnits="userSpaceOnUse"><stop offset="0" stop-color="#343a44"/><stop offset="1" stop-color="#142138"/></linearGradient><linearGradient id="hg7bY" x1="1041.55" x2="1066.28" y1="5028.4" y2="5028.4" gradientUnits="userSpaceOnUse"><stop offset="0" stop-color="#343a44"/><stop offset="1" stop-color="#142138"/></linearGradient><linearGradient id="hg7bab" x1="1031.53" x2="1054.34" y1="5031.16" y2="5031.16" gradientUnits="userSpaceOnUse"><stop offset="0" stop-color="#343a44"/><stop offset="1" stop-color="#142138"/></linearGradient></defs><g><g opacity=".4" transform="translate(-783 -4903)"><g opacity=".4"><use fill="url(#hg7bb)" xlink:href="#hg7ba"/></g></g><g transform="translate(-783 -4903)"><use fill="#fff" fill-opacity="0" stroke="#001c34" stroke-linecap="round" stroke-linejoin="round" stroke-miterlimit="50" stroke-width=".53" xlink:href="#hg7bc"/></g><g transform="translate(-783 -4903)"><use fill="#64b9ff" xlink:href="#hg7bd"/></g><g transform="translate(-783 -4903)"><use fill="#fff" xlink:href="#hg7be"/></g><g transform="translate(-783 -4903)"><use fill="#008ddc" xlink:href="#hg7bf"/></g><g transform="translate(-783 -4903)"><use fill="#008ddc" xlink:href="#hg7bg"/></g><g transform="translate(-783 -4903)"><use fill="#008ddc" xlink:href="#hg7bh"/></g><g transform="translate(-783 -4903)"><use fill="#00cbdb" xlink:href="#hg7bi"/></g><g transform="translate(-783 -4903)"><use fill="#fff" xlink:href="#hg7bj"/></g><g transform="translate(-783 -4903)"><use fill="#07a4a8" xlink:href="#hg7bk"/></g><g transform="translate(-783 -4903)"><use fill="#64b9ff" xlink:href="#hg7bl"/></g><g transform="translate(-783 -4903)"><use fill="#fff" xlink:href="#hg7bm"/></g><g transform="translate(-783 -4903)"><use fill="#008ddc" xlink:href="#hg7bn"/></g><g transform="translate(-783 -4903)"><use fill="#008ddc" xlink:href="#hg7bo"/></g><g transform="translate(-783 -4903)"><use fill="#008ddc" xlink:href="#hg7bp"/></g><g transform="translate(-783 -4903)"><use fill="#fff" xlink:href="#hg7bq"/></g><g transform="translate(-783 -4903)"><use fill="#fff" xlink:href="#hg7br"/></g><g transform="translate(-783 -4903)"><use fill="#fff" xlink:href="#hg7bs"/></g><g transform="translate(-783 -4903)"><use fill="#fff" xlink:href="#hg7bt"/></g><g transform="translate(-783 -4903)"><use fill="#fff" xlink:href="#hg7bu"/></g><g transform="translate(-783 -4903)"><use fill="#fff" xlink:href="#hg7bv"/></g><g transform="translate(-783 -4903)"><use fill="#fff" xlink:href="#hg7bw"/></g><g transform="translate(-783 -4903)"><use fill="#fff" xlink:href="#hg7bx"/></g><g transform="translate(-783 -4903)"><use fill="#fff" xlink:href="#hg7by"/></g><g transform="translate(-783 -4903)"><use fill="#fff" xlink:href="#hg7bz"/></g><g transform="translate(-783 -4903)"><use fill="#fff" xlink:href="#hg7bA"/></g><g transform="translate(-783 -4903)"><use fill="#fff" xlink:href="#hg7bB"/></g><g transform="translate(-783 -4903)"><use fill="#0697ed" xlink:href="#hg7bC"/></g><g transform="translate(-783 -4903)"><use fill="#b5b5b5" xlink:href="#hg7bD"/></g><g transform="translate(-783 -4903)"><use fill="#dceff9" xlink:href="#hg7bE"/></g><g transform="translate(-783 -4903)"><use fill="#fff" xlink:href="#hg7bF"/></g><g transform="translate(-783 -4903)"><use fill="#fff" xlink:href="#hg7bG"/></g><g transform="translate(-783 -4903)"><g><use fill="#c8cdce" xlink:href="#hg7bH"/></g></g><g transform="translate(-783 -4903)"><use fill="#e2e2e2" xlink:href="#hg7bI"/></g><g transform="translate(-783 -4903)"><use fill="#e2e2e2" xlink:href="#hg7bJ"/></g><g transform="translate(-783 -4903)"><use fill="#d6ddea" xlink:href="#hg7bK"/></g><g transform="translate(-783 -4903)"><use fill="#ed9558" xlink:href="#hg7bL"/></g><g transform="translate(-783 -4903)"><use fill="#d6ddea" xlink:href="#hg7bM"/></g><g transform="translate(-783 -4903)"><use fill="#ed9558" xlink:href="#hg7bN"/></g><g transform="translate(-783 -4903)"><use fill="#ed8c62" xlink:href="#hg7bO"/></g><g transform="translate(-783 -4903)"><use fill="#ffaf84" xlink:href="#hg7bP"/></g><g transform="translate(-783 -4903)"><use fill="#ff5b00" xlink:href="#hg7bQ"/></g><g transform="translate(-783 -4903)"><use fill="#ffaf84" xlink:href="#hg7bR"/></g><g transform="translate(-783 -4903)"><use fill="url(#hg7bT)" xlink:href="#hg7bS"/></g><g transform="translate(-783 -4903)"><use fill="#ed8c62" xlink:href="#hg7bU"/></g><g transform="translate(-783 -4903)"><use fill="#ffaf84" xlink:href="#hg7bV"/></g><g transform="translate(-783 -4903)"><use fill="#ff5b00" xlink:href="#hg7bW"/></g><g transform="translate(-783 -4903)"><use fill="url(#hg7bY)" xlink:href="#hg7bX"/></g><g transform="translate(-783 -4903)"><use fill="#010202" xlink:href="#hg7bZ"/></g><g transform="translate(-783 -4903)"><use fill="url(#hg7bab)" xlink:href="#hg7baa"/></g><g transform="translate(-783 -4903)"><use fill="#ed8c62" xlink:href="#hg7bac"/></g><g transform="translate(-783 -4903)"><use fill="#fc6c24" xlink:href="#hg7bad"/></g><g transform="translate(-783 -4903)"><use fill="#ed8c62" xlink:href="#hg7bae"/></g><g transform="translate(-783 -4903)"><use fill="#ffaf84" xlink:href="#hg7baf"/></g><g transform="translate(-783 -4903)"><use fill="#658bc1" xlink:href="#hg7bag"/></g><g transform="translate(-783 -4903)"><use fill="#db4c05" xlink:href="#hg7bah"/></g><g transform="translate(-783 -4903)"><use fill="#ffaf84" xlink:href="#hg7bai"/></g><g transform="translate(-783 -4903)"><use fill="#82aace" xlink:href="#hg7baj"/></g><g transform="translate(-783 -4903)"><use fill="#4e7caf" xlink:href="#hg7bak"/></g><g transform="translate(-783 -4903)"><use fill="#424344" xlink:href="#hg7bal"/></g><g transform="translate(-783 -4903)"><use fill="#658bc1" xlink:href="#hg7bam"/></g><g transform="translate(-783 -4903)"><use fill="#658bc1" xlink:href="#hg7ban"/></g><g transform="translate(-783 -4903)"><use fill="#ffaf84" xlink:href="#hg7bao"/></g><g transform="translate(-783 -4903)"><use fill="#0697ed" xlink:href="#hg7bap"/></g><g transform="translate(-783 -4903)"><use fill="#fff" fill-opacity="0" stroke="#0697ed" stroke-miterlimit="50" stroke-width="2" xlink:href="#hg7bap"/></g><g transform="translate(-783 -4903)"><use fill="#0697ed" xlink:href="#hg7baq"/></g><g transform="translate(-783 -4903)"><use fill="#fff" fill-opacity="0" stroke="#0697ed" stroke-miterlimit="50" stroke-width="2" xlink:href="#hg7baq"/></g><g transform="translate(-783 -4903)"><use fill="#0697ed" xlink:href="#hg7bar"/></g><g transform="translate(-783 -4903)"><use fill="#fff" fill-opacity="0" stroke="#0697ed" stroke-miterlimit="50" stroke-width="2" xlink:href="#hg7bas"/></g></g></svg>