<svg xmlns="http://www.w3.org/2000/svg" xmlns:xlink="http://www.w3.org/1999/xlink" width="219.33" height="128" viewBox="0 0 329 192"><defs><path id="u0kpa" d="M361.192 4938.098s-21.357 24.763-68.095 32.225c-71.18 11.364-69.738 99.675 7.383 117.661 77.121 17.987 56.602-11.241 165.719-3.747 109.118 7.494 82.624-73.948 42.943-99.09-41.035-26-2.525-72.346-63.445-82.273-47.866-7.8-84.505 35.224-84.505 35.224z"/><path id="u0kpc" d="M231.21 5060.09h327.253"/><path id="u0kpd" d="M266.788 5044.257c-2.389 0-12.215-2.098-13.013-11.791-.408-4.95.933-8.271 2.23-11.483 1.552-3.843 3.017-7.473 1.785-13.747-.536-2.725-1.223-4.988-1.829-6.984-2.007-6.61-3.112-10.25 5.444-17.271.058-.043 4.821-3.64 4.89-8.342.073-5.026 6.83-10.545 12.91-10.545 1.555 0 2.998.349 4.29 1.036 2.416 1.287 3.883 2.894 4.483 4.91.99 3.323-.27 7.699-4.345 15.104-4.067 7.39-1.943 9.928-.07 12.167.6.716 1.164 1.39 1.473 2.178.145.372.313.747.484 1.13 1.245 2.786 2.794 6.254-2.266 13.159-2.875 3.923-2.314 8.249-1.772 12.432.51 3.922 1.035 7.978-1.322 11.606-.055.073-4.417 5.592-13.31 6.439z"/><path id="u0kpe" d="M279.205 4964.344c1.44 0 2.86.308 4.171 1.007 6.891 3.67 5.503 9.74.038 19.673-5.465 9.93.171 11.445 1.39 14.556 1.216 3.112 3.907 6.329-1.752 14.05-5.658 7.723 1.688 16.676-3.1 24.05 0 0-4.238 5.48-13.126 6.326a.332.332 0 0 1-.038.002c-.85 0-11.907-1.154-12.764-11.562-.874-10.613 6.323-13.488 4.011-25.257-2.312-11.77-7.455-15.002 3.53-24.015 0 0 4.91-3.645 4.98-8.531.07-4.736 6.541-10.3 12.66-10.3zm0-.5c-6.197 0-13.085 5.648-13.16 10.79-.067 4.577-4.733 8.104-4.779 8.139-8.705 7.142-7.582 10.84-5.544 17.55.604 1.992 1.29 4.249 1.822 6.962 1.22 6.2-.234 9.797-1.77 13.605-1.308 3.239-2.66 6.589-2.248 11.597.814 9.88 10.827 12.02 13.262 12.02h.024l.061-.003c9.001-.856 13.295-6.288 13.473-6.52 2.431-3.738 1.9-7.84 1.384-11.806-.56-4.324-1.089-8.41 1.725-12.252 5.146-7.021 3.564-10.562 2.293-13.408-.169-.38-.335-.75-.48-1.12-.322-.825-.9-1.516-1.513-2.247-1.822-2.178-3.887-4.646.097-11.886 4.111-7.47 5.375-11.901 4.366-15.296-.62-2.084-2.127-3.74-4.607-5.06-1.327-.707-2.81-1.065-4.406-1.065z"/><path id="u0kpf" d="M269.155 5060.24a.482.482 0 0 0 .336-.57c-7.222-32.24 3.82-76.904 3.932-77.35a.483.483 0 0 0-.937-.236c-.113.45-11.209 45.336-3.937 77.797.058.26.316.423.577.366l.03-.008z"/><path id="u0kpg" d="M269.202 5002.178a.484.484 0 0 0 .3-.676c-.028-.056-2.77-5.705-3.98-10.566a.484.484 0 0 0-.938.233c1.235 4.962 4.022 10.699 4.05 10.757a.483.483 0 0 0 .568.252z"/><path id="u0kph" d="M267.678 5015.439a.477.477 0 0 0 .185-.103c2.36-2.086 8.337-6.068 8.397-6.108a.482.482 0 1 0-.535-.805c-.247.165-6.092 4.06-8.502 6.19a.483.483 0 0 0 .455.825z"/><path id="u0kpi" d="M296.634 5046.554c-.942 0-4.73-7.594-5.627-16.464-.007-.07-.16-1.697.656-2.597.347-.382.81-.577 1.38-.577.497 0 1.08.154 1.738.455-.455-2.305-2.012-11.637 1.518-16.046 1.216-1.52 2.918-2.291 5.059-2.291.4 0 .823.028 1.256.082 2.243.28 3.395.808 4.567 2.094 1.447 1.587 2.732 4.429.635 8.95-1.091 2.354-2.133 4.27-3.051 5.962-2.21 4.069-3.543 6.524-2.424 9.496 1.694 4.5 1.023 5.823-5.518 10.873l-.067.05z"/><path id="u0kpj" d="M301.357 5009.284c.388 0 .796.025 1.226.08 2.057.256 3.23.714 4.413 2.014 1.603 1.76 2.485 4.596.593 8.677-3.785 8.161-7.109 11.33-5.483 15.651 1.627 4.321 1.078 5.557-5.436 10.586a.06.06 0 0 1-.037.012c-.594 0-4.46-7.172-5.378-16.24 0 0-.288-2.898 1.787-2.898.528 0 1.21.187 2.088.66 0 0-4.16-18.54 6.227-18.542zm.001-.5c-2.22 0-3.988.802-5.254 2.384-3.393 4.238-2.188 12.871-1.656 15.791-.516-.196-.98-.293-1.406-.293-.633 0-1.174.228-1.565.66-.888.98-.727 2.715-.72 2.788.842 8.312 4.56 16.69 5.876 16.69h.171l.171-.117c6.6-5.093 7.332-6.553 5.6-11.158-1.079-2.865.16-5.146 2.41-9.287.92-1.695 1.962-3.615 3.058-5.977 2.268-4.89.55-7.878-.678-9.224-1.362-1.495-2.762-1.93-4.72-2.174a10.306 10.306 0 0 0-1.287-.083z"/><path id="u0kpk" d="M297.834 5059.277a.44.44 0 0 0 .342-.519c-2.75-13.41 1.205-35.999 1.709-36.989a.425.425 0 0 0-.108-.6.448.448 0 0 0-.619.111c-.816 1.136-4.51 24.646-1.842 37.655a.439.439 0 0 0 .518.342z"/><path id="u0kpl" d="M337.978 5047.597c-1.96 0-10.017-1.721-10.671-9.67-.334-4.052.763-6.77 1.824-9.397 1.264-3.131 2.458-6.09 1.455-11.198-.437-2.223-.998-4.07-1.492-5.7-1.645-5.414-2.55-8.396 4.46-14.15.049-.035 3.92-2.96 3.976-6.776.06-4.125 5.6-8.655 10.587-8.655 1.276 0 2.461.287 3.522.852 1.985 1.056 3.19 2.378 3.684 4.036.812 2.726-.217 6.31-3.551 12.368-3.305 6.007-1.582 8.066-.062 9.883.492.588.956 1.142 1.21 1.792.118.303.254.608.394.92 1.021 2.287 2.291 5.13-1.856 10.79-2.335 3.188-1.879 6.71-1.437 10.118.416 3.21.847 6.53-1.087 9.506-.047.062-3.622 4.587-10.902 5.279z"/><path id="u0kpm" d="M348.116 4982.3c1.175 0 2.334.253 3.405.823 5.627 2.996 4.494 7.954.032 16.063-4.462 8.109.14 9.345 1.134 11.886.993 2.54 3.19 5.167-1.43 11.472-4.62 6.306 1.38 13.615-2.532 19.636 0 0-3.46 4.475-10.716 5.166h-.032c-.694 0-9.722-.941-10.422-9.44-.713-8.664 5.163-11.011 3.275-20.622-1.887-9.61-6.086-12.25 2.882-19.608 0 0 4.008-2.977 4.067-6.966.056-3.866 5.341-8.41 10.337-8.41zm0-.5c-5.104 0-10.775 4.66-10.837 8.903-.054 3.69-3.828 6.543-3.866 6.572-7.158 5.874-6.18 9.094-4.559 14.43.492 1.624 1.052 3.464 1.486 5.676.99 5.035-.19 7.96-1.44 11.056-1.073 2.655-2.18 5.4-1.843 9.51.67 8.139 8.915 9.9 10.92 9.9h.024l.055-.003c7.388-.703 10.918-5.168 11.064-5.357 2.008-3.088 1.571-6.455 1.15-9.71-.456-3.512-.886-6.83 1.39-9.937 4.234-5.777 2.93-8.695 1.882-11.04-.137-.31-.272-.61-.39-.91-.269-.688-.746-1.258-1.25-1.86-1.47-1.756-3.134-3.746.09-9.603 3.368-6.123 4.403-9.762 3.571-12.56-.514-1.726-1.759-3.095-3.806-4.185-1.098-.584-2.323-.881-3.64-.881z"/><path id="u0kpn" d="M339.91 5060.6a.395.395 0 0 0 .275-.464c-5.897-26.324 3.118-62.792 3.21-63.157a.395.395 0 0 0-.765-.192c-.093.367-9.152 37.016-3.215 63.52a.394.394 0 0 0 .471.3l.024-.006z"/><path id="u0kpo" d="M339.949 5013.192a.395.395 0 0 0 .245-.552c-.023-.046-2.262-4.658-3.25-8.627a.394.394 0 1 0-.766.191c1.009 4.051 3.284 8.735 3.307 8.782a.393.393 0 0 0 .464.206z"/><path id="u0kpp" d="M338.705 5024.02a.395.395 0 0 0 .15-.083c1.928-1.704 6.808-4.955 6.857-4.987a.395.395 0 0 0-.437-.657c-.202.134-4.974 3.314-6.942 5.054a.395.395 0 0 0 .372.674z"/><path id="u0kpq" d="M417.795 5054.589c-.04 0-4.058-.232-4.365-3.957-.135-1.636.305-2.726.731-3.78.49-1.215.954-2.363.566-4.336-.17-.87-.39-1.596-.585-2.236-.647-2.128-1.036-3.414 1.81-5.75.024-.017 1.493-1.13 1.514-2.56.025-1.7 2.292-3.567 4.332-3.567.53 0 1.022.119 1.463.354.821.437 1.322.988 1.53 1.685.332 1.119-.079 2.568-1.416 4.999-1.256 2.28-.61 3.052-.042 3.733.202.24.394.47.503.75.046.117.1.235.153.356.42.939.941 2.107-.749 4.413-.886 1.209-.718 2.509-.539 3.885.168 1.295.341 2.635-.453 3.857-.07.092-1.477 1.873-4.417 2.153z"/><path id="u0kpr" d="M421.799 5028.652c.464 0 .922.1 1.345.325 2.222 1.183 1.774 3.141.012 6.343-1.762 3.203.055 3.691.448 4.694.392 1.003 1.26 2.04-.565 4.531-1.824 2.49.545 5.376-1 7.753 0 0-1.365 1.768-4.231 2.041h-.013c-.274 0-3.84-.373-4.115-3.728-.282-3.422 2.038-4.35 1.293-8.145-.745-3.794-2.403-4.836 1.138-7.742 0 0 1.583-1.176 1.606-2.75.022-1.527 2.109-3.322 4.082-3.322zm0-.5c-2.2 0-4.555 1.961-4.582 3.813-.02 1.304-1.391 2.347-1.405 2.358-2.994 2.456-2.562 3.878-1.91 6.03.193.633.412 1.352.58 2.21.374 1.901-.076 3.015-.552 4.194-.437 1.082-.888 2.2-.75 3.895.326 3.94 4.573 4.187 4.615 4.187h.024l.037-.003c3.046-.289 4.518-2.153 4.579-2.232.867-1.333.688-2.718.514-4.057-.171-1.326-.334-2.578.494-3.708 1.775-2.422 1.197-3.716.775-4.662-.052-.117-.104-.23-.148-.345-.125-.318-.338-.573-.544-.819-.543-.649-1.105-1.32.068-3.452 1.005-1.825 1.874-3.718 1.435-5.19-.227-.765-.767-1.365-1.65-1.835a3.314 3.314 0 0 0-1.58-.384z"/><path id="u0kps" d="M418.558 5059.572a.154.154 0 0 0 .108-.184c-2.328-10.394 1.232-24.795 1.268-24.939a.155.155 0 0 0-.113-.189.155.155 0 0 0-.189.113c-.036.144-3.614 14.617-1.269 25.084a.156.156 0 0 0 .186.118l.01-.003z"/><path id="u0kpt" d="M418.573 5040.852a.155.155 0 0 0 .097-.218c-.009-.018-.893-1.84-1.284-3.407a.156.156 0 0 0-.302.076c.4 1.6 1.297 3.449 1.306 3.468a.155.155 0 0 0 .183.08z"/><path id="u0kpu" d="M418.082 5045.128a.186.186 0 0 0 .06-.033c.761-.673 2.688-1.957 2.707-1.97a.156.156 0 0 0 .044-.216.155.155 0 0 0-.216-.043c-.08.053-1.965 1.308-2.741 1.995a.155.155 0 0 0-.014.22c.041.047.104.063.16.047z"/><path id="u0kpv" d="M488.997 4955.846v8.27l11.482-.794c.551 1.439 1.788 1.9 3.603 1.9l6 .136c1.214-3.298 1.17-6.644 1.02-10.34h-3.92l.044-1.74h-.003c-.166.028-3.747.589-4.025.66-1.059.269-1.944 1.012-2.475 2.006l-.262.589z"/><path id="u0kpw" d="M509.502 4957.253a1.373 1.373 0 0 1-1.398-1.348l-.004-.253a1.374 1.374 0 0 1 1.348-1.398l2.777-.05a1.283 1.283 0 0 1 1.306 1.26l.01.519a1.198 1.198 0 0 1-1.177 1.219z"/><path id="u0kpx" d="M509.179 4960.255a1.373 1.373 0 0 1-1.418-1.348l-.005-.253a1.373 1.373 0 0 1 1.328-1.397l3.503-.116a1.28 1.28 0 0 1 1.324 1.259l.01.518a1.198 1.198 0 0 1-1.158 1.218z"/><path id="u0kpy" d="M508.92 4963.16a1.373 1.373 0 0 1-1.399-1.35l-.005-.253a1.377 1.377 0 0 1 1.35-1.397l2.777-.05a1.28 1.28 0 0 1 1.305 1.26l.01.52a1.198 1.198 0 0 1-1.176 1.218z"/><path id="u0kpz" d="M509.072 4965.565c-.583.011-1.064-.489-1.075-1.116l-.004-.209c-.011-.627.452-1.144 1.035-1.154l2.133-.039c.544-.009.994.457 1.004 1.043l.008.43c.009.546-.394.996-.902 1.006z"/><path id="u0kpA" d="M497.985 4960.16l2.837-.03c4.286.461 5.03-3.477 5.03-3.477l.473-.083a.786.786 0 0 1 .644.183l1.076.93a1.848 1.848 0 0 0 2.621-.204l.186-.219a.88.88 0 0 0-.095-1.234l-1.155-1.009-1.719-1.5a.96.96 0 0 0-.657-.24h-.004c-.166.028-3.746.59-4.025.66-1.059.27-1.943 1.013-2.475 2.006l-.26.59-11.465-.687v4.321z"/><path id="u0kpB" d="M476.773 4956.6l-12.954-18.922a5.684 5.684 0 0 0-7.908-1.474l-.095.065a5.683 5.683 0 0 0-1.472 7.895l12.964 18.938a5.685 5.685 0 0 0 7.903 1.467l.095-.065a5.686 5.686 0 0 0 1.467-7.904z"/><path id="u0kpC" d="M472.154 4965.716l28.326-2.395-.451-6.6-27.99-2.487a5.684 5.684 0 0 0-5.627 5.74l.002.115a5.684 5.684 0 0 0 5.74 5.627z"/><path id="u0kpD" d="M455.816 4936.269l.095-.065a5.684 5.684 0 0 1 7.908 1.474l8.392 12.258-9.68 6.187-8.187-11.958a5.684 5.684 0 0 1 1.472-7.896z"/><path id="u0kpE" d="M441.177 5008.32a140.556 140.556 0 0 1-2.868 7.396v.008c-.274.657-.55 1.312-.838 1.968a179.058 179.058 0 0 1-6.688 13.757 7.323 7.323 0 0 1-5.544 3.782 4.339 4.339 0 0 1-.648.068 4.424 4.424 0 0 1-.71-.006 7.3 7.3 0 0 1-2.402-.558l-.114-.053c-3.203-1.35-5.025-4.774-4.34-8.175.276-1.388.58-2.768.908-4.125.138-.557.267-1.106.412-1.648 0-.007 0-.015.008-.022a97.958 97.958 0 0 1 2.799-9.083c.213-.618.442-1.236.678-1.853.015-.053.038-.106.06-.16h.009a89.332 89.332 0 0 1 2.707-6.359z"/><path id="u0kpF" d="M376.789 5025.613c-.316 3.895.468 8.803.468 8.803l46.393.871a6.765 6.765 0 0 0 7.332-6.145l.013-.14c.345-3.917-2.278-8.975-16.8-8.216-14.477.758-8.618 4.458-37.406 4.827z"/><path id="u0kpG" d="M475.89 5024.7l-.084.092c-2.341 2.57-6.177 3.15-9.158 1.365a107.267 107.267 0 0 1-11.424-7.862 94.553 94.553 0 0 1-7.961-7.047l10.302-13.933a143.12 143.12 0 0 1 6.459 5.568 136.47 136.47 0 0 1 3.585 3.37c2.798 2.7 5.559 5.567 8.288 8.58a7.335 7.335 0 0 1-.007 9.867z"/><path id="u0kpH" d="M449.344 4987.959a9.616 9.616 0 0 1-.58 2.601l-3.248 8.639-2.19 5.812-1.15 3.065-2.997 7.969h-.007l2.24-5.964 1.153-3.065 2.189-5.811 3.248-8.64a9.602 9.602 0 0 0 .58-2.601 9.509 9.509 0 0 0-.008-1.547 9.455 9.455 0 0 0-.938-3.439 9.484 9.484 0 0 0-1.708-2.456 9.627 9.627 0 0 0-3.607-2.372l-.183-.069a9.573 9.573 0 0 0-3.996-.579 9.623 9.623 0 0 0-4.881 1.708c-.152.1-.29.206-.434.32a9.365 9.365 0 0 0-2.357 2.677 8.066 8.066 0 0 0-.45.855l-.076.174a8.36 8.36 0 0 0-.114.26l.549-1.441.107-.29c.068-.183.137-.359.22-.534l.077-.175c.138-.298.282-.58.45-.855a9.375 9.375 0 0 1 2.356-2.677c.145-.114.282-.22.435-.32a9.62 9.62 0 0 1 4.88-1.708 9.576 9.576 0 0 1 3.997.58l.183.069a9.621 9.621 0 0 1 3.606 2.371 9.512 9.512 0 0 1 1.709 2.456 9.48 9.48 0 0 1 .938 3.439 9.41 9.41 0 0 1 .007 1.548z"/><path id="u0kpI" d="M448.582 4989.964a9.654 9.654 0 0 1-.58 2.602l-3.249 8.639-2.189 5.81-1.151 3.066-2.242 5.964-.862-.32v-.008l-8.93-3.316-7.481-2.785-.999-.373 5.926-15.763.435-1.16.305-.793.023-.052.434-1.16.503-1.334v-.008l.283-.754.122-.336.762-2.006.115-.312.023-.07c.038-.091.076-.175.114-.26l.076-.173c.137-.298.282-.58.45-.855a9.365 9.365 0 0 1 2.357-2.677c.144-.114.281-.22.434-.32a9.623 9.623 0 0 1 4.881-1.708 9.575 9.575 0 0 1 3.996.579l.182.07a9.61 9.61 0 0 1 3.608 2.37 9.508 9.508 0 0 1 1.708 2.457 9.474 9.474 0 0 1 .938 3.439c.046.51.046 1.029.008 1.547z"/><path id="u0kpJ" d="M427.565 4991.527l-.305.794.503-1.335v-.008l.282-.755.763-2.005-.283.754v.008l-.503 1.335-.434 1.16z"/><path id="u0kpK" d="M429.692 4985.877l-.762 2.006.114-.313.572-1.51.107-.289a2.12 2.12 0 0 1 .084-.206z"/><path id="u0kpL" d="M432.406 4979.034l21.157 2.2c-2.15 3.202-12.034 1.682-21.157-2.2z"/><path id="u0kpM" d="M453.561 4985.236v19.255l-.876-.579-7.169-4.713-16.091-10.577-.617-.404-.092-.06v-.009l.793-1.96.869-2.135.329-.823.076-.176.358-.892c.03.015.061.022.092.038.45.19.892.374 1.327.55.777.32 1.548.625 2.295.914 4.782 1.831 9.067 3.012 12.994 2.868.504-.016 1-.054 1.487-.122a14.314 14.314 0 0 0 4.225-1.175z"/><path id="u0kpN" d="M412.368 4967.35l-7.92-.74-.782 11.719c-1.517.423-2.105 1.638-2.277 3.488l-.71 6.095c3.243 1.548 6.654 1.82 10.432 2.02l.372-3.991 1.768.212v-.005c-.013-.171-.244-3.87-.29-4.16-.174-1.104-.846-2.075-1.806-2.71l-.576-.323z"/><path id="u0kpO" d="M408.986 4988.09a1.405 1.405 0 0 1 1.506-1.295l.257.02a1.403 1.403 0 0 1 1.296 1.505l-.214 2.834a1.311 1.311 0 0 1-1.406 1.209l-.53-.04a1.224 1.224 0 0 1-1.13-1.313z"/><path id="u0kpP" d="M405.96 4987.477a1.402 1.402 0 0 1 1.508-1.316l.258.019a1.404 1.404 0 0 1 1.296 1.484l-.215 3.578a1.312 1.312 0 0 1-1.407 1.229l-.53-.04a1.224 1.224 0 0 1-1.13-1.294z"/><path id="u0kpQ" d="M403.029 4986.936a1.404 1.404 0 0 1 1.506-1.294l.257.02a1.402 1.402 0 0 1 1.295 1.505l-.213 2.832a1.31 1.31 0 0 1-1.406 1.21l-.53-.04a1.225 1.225 0 0 1-1.13-1.313z"/><path id="u0kpR" d="M400.8 4986.54c.092-.59.68-.986 1.314-.888l.21.033c.634.1 1.074.657.98 1.245l-.335 2.156c-.086.55-.635.92-1.227.827l-.434-.067c-.552-.086-.935-.573-.854-1.085z"/><path id="u0kpS" d="M407.122 4976.09l-.24 2.89c-.876 4.32 3.061 5.452 3.061 5.452l.04.49a.803.803 0 0 1-.247.638l-1.05 1.007a1.89 1.89 0 0 0-.042 2.687l.207.21a.899.899 0 0 0 1.265.022l1.137-1.081 1.69-1.607a.988.988 0 0 0 .307-.645l.001-.005c-.014-.171-.245-3.87-.29-4.16-.174-1.104-.847-2.075-1.807-2.71l-.575-.323 1.79-11.605-4.4-.411z"/><path id="u0kpT" d="M412.78 4955.405l21.597-12.009-5.58-10.035-21.597 12.008a5.684 5.684 0 0 0-2.206 7.73l.056.1a5.685 5.685 0 0 0 7.73 2.206z"/><path id="u0kpU" d="M404.14 4949.946l-.474 28.382 6.913.627 5.004-28.04a5.684 5.684 0 0 0-5.185-6.143l-.114-.01a5.684 5.684 0 0 0-6.143 5.184z"/><path id="u0kpV" d="M464.481 5002.402l-.458.48-12.048 12.728-.9.953-8.899-8.487-10.799-10.303c-2.227-2.104-3.226-5.018-2.989-7.854.03-.313.076-.625.137-.939v-.008a9.74 9.74 0 0 1 .191-.815v-.008c.19-.67.45-1.327.793-1.96.053-.106.114-.213.182-.312a9.036 9.036 0 0 1 1.312-1.754l.13-.145a9.322 9.322 0 0 1 1.426-1.228 9.571 9.571 0 0 1 5.087-1.769 9.644 9.644 0 0 1 5.49 1.372c.038.024.076.046.115.077a8.878 8.878 0 0 1 1.532 1.182l3.066 2.921 1.494 1.426 4.218 4.026z"/><path id="u0kpW" d="M490.83 5063.295s-3.44 1.692-6.865 2.684c-.297.084-.587.16-.877.229-.182.046-.358.092-.533.13-.145-.443-.298-.877-.442-1.297-.29-.87-.58-1.7-.863-2.493-.107-.29-.205-.572-.305-.847 0-.008 0-.008-.007-.014a95.982 95.982 0 0 0-.786-2.121 46.6 46.6 0 0 0-.366-.961c-.198-.503-.388-.992-.572-1.45a37.264 37.264 0 0 0-.32-.792c-.229-.556-.45-1.075-.663-1.571-.092-.206-.175-.404-.267-.595a66.98 66.98 0 0 0-1.136-2.44c-.184-.366-.359-.717-.535-1.045-.19-.351-.365-.687-.54-1.006a25.401 25.401 0 0 0-.702-1.182 29.38 29.38 0 0 0-1.549-2.296c-.06-.091-.136-.183-.205-.274-.633-.832-1.228-1.533-1.8-2.25-.068-.084-.137-.168-.198-.252-.099-.122-.19-.244-.29-.366-.175-.236-.359-.48-.54-.74a19.386 19.386 0 0 1-.909-1.426 19.436 19.436 0 0 1-.549-1.006c-.083-.168-.167-.336-.25-.518-.108-.206-.207-.428-.314-.657a44.001 44.001 0 0 1-1.35-3.44 8.426 8.426 0 0 1-.167-.486c-.03-.084-.06-.161-.084-.245a55.8 55.8 0 0 1-.435-1.335c-.092-.29-.183-.571-.26-.853-.09-.282-.167-.557-.244-.832a42.47 42.47 0 0 1-.427-1.586c-.053-.214-.106-.42-.152-.617a33.182 33.182 0 0 1-.389-1.8 30.04 30.04 0 0 1-.389-2.433c-.008-.091-.023-.175-.03-.266-.137-1.213-.176-2.304-.137-3.28.213-5.521 2.92-7.49 5.452-8.03l.137-.03a6.77 6.77 0 0 1 6.81 2.539l.007.008c.58.763 1 1.662 1.213 2.653l11.012 38.29 1.273 4.415.137.474z"/><path id="u0kpX" d="M510.999 5066.803c-1.365 1.365-3.264 2.509-5.353 3.577a17.539 17.539 0 0 1-3.722 1.402l-10.241 2.6c-.122.024-.236.062-.351.092l-1.334.405-3.104.945a7.362 7.362 0 0 1-1.685.297l-1.968.116a.607.607 0 0 1-.419-.146.556.556 0 0 1-.184-.412l-.076-2.15-.007-.313 11.873-3.508 15.107-4.461.953-.282h.015l.603 1.09a.623.623 0 0 1-.107.748z"/><path id="u0kpY" d="M503.129 5061.944c0 .01-.007.016-.007.023a1.645 1.645 0 0 1-.618.625.655.655 0 0 1-.19.1 2.012 2.012 0 0 1-.427.114 1.21 1.21 0 0 1-.175.016h-.07c-.327 0-.663.022-1.006.068-.191.015-.374.046-.565.076-.358.054-.724.123-1.098.192-.191.037-.381.075-.572.114-.221.045-.45.084-.671.13l-.412.068c-.251.038-.51.076-.777.107-.23.022-.458.046-.686.06-1.45.077-2.952-.122-4.5-1.067-.26-.122-.587-.358-.931-.679v-.007c-.098-.077-.19-.175-.29-.275-1.128-1.15-2.256-3.005-1.478-4.21.09-.144.205-.282.358-.403.137-.114.305-.222.503-.313.09-.047.19-.084.298-.122.107-.046.22-.084.35-.114.427-.114.389 1.098 1.556 2.15a13.923 13.923 0 0 0 .762.633c.13.1.268.198.405.297.122.084.244.168.366.244v.008a10.967 10.967 0 0 0 .862.511l.32.16c.107.061.214.115.32.16h.008c.305.145.617.274.93.397.122.038.245.083.366.122.03.015.06.022.084.031h.016c.327.114.656.205.984.29l.228.045c.076.015.153.038.22.053h.016c.336.077.664.13.992.175l.007.008c.168.024.328.046.496.061.023 0 .046.007.068.007.344.046.695.07 1.03.092h.016c.175.016.342.023.51.031h.046c.35.015.694.022 1.03.022h.007c.458.01.9.01 1.319 0z"/><path id="u0kpZ" d="M510.503 5064.965a.314.314 0 0 1-.099.152c-.137.108-.275.214-.412.313-2.432 1.822-3.72 2.364-5.94 3.379a22.942 22.942 0 0 1-6.132 1.806l-4.766.397c-.632.092-1.25.222-1.868.374l-8.686 2.21c-.015-.022-.023-.044-.038-.068-.839-1.601-1.41-3.918-1.388-6.252v-.07c.008-.8.092-1.6.251-2.371.237.077.466.146.687.206.442.107.862.19 1.251.236.39.046.755.062 1.098.046 3.042-.084 4.568-2.196 5.673-3.713.054-.07.107-.137.153-.2.114-.151.221-.297.328-.433a.17.17 0 0 1 .053-.054 1.07 1.07 0 0 1 1.29-.221c.212.115.434.229.648.328.327.16.647.297.968.427.244.1.48.19.724.275.335.122.671.228 1.007.32.19.054.381.106.572.152h.007c.344.084.68.16 1.022.22.183.04.36.07.534.093.351.06.702.107 1.045.145.19.023.366.038.55.054h.007a17.6 17.6 0 0 0 1.052.068 6.7 6.7 0 0 0 .55.023c.334.008.67.015.998.015h.07a1.2 1.2 0 0 0 .174-.015c.153-.015.297-.054.427-.114a.7.7 0 0 0 .191-.1.587.587 0 0 0 .183-.122c.175-.13.32-.305.434-.503 0-.008.007-.015.007-.024 2.464-.014 4.477-.16 5.728.52.717.244 1.457 1.334 1.632 2.05.008.039.008.062.015.093a.695.695 0 0 1 0 .358z"/><path id="u0kpaa" d="M484.484 5065.339a3.9 3.9 0 0 0-.763.38 3.186 3.186 0 0 0-.633.489c-.625.603-.8 1.144-1.914 1.068v-.07c-.053-1.364-.267-3.096-.396-4.025a.573.573 0 0 1 .144-.465.525.525 0 0 1 .328-.168c.031-.016.077-.016.114-.016h.138c.168.03.343.16.511.344l.007.007c.298.298.588.763.885 1.227.641 1.007 1.167.939 1.556 1.213.007.008.015.008.023.016z"/><path id="u0kpab" d="M500.959 5064.317l.01.002c.285.04.552-.182.596-.495l.244-1.73c.043-.314-.152-.6-.436-.64l-.011-.002c-.285-.04-.552.181-.596.495l-.244 1.73c-.043.314.151.6.437.64z"/><path id="u0kpac" d="M499.355 5064.191l.011.001c.285.041.551-.18.595-.494l.244-1.73c.044-.315-.151-.6-.436-.64l-.011-.002c-.285-.04-.551.18-.596.494l-.243 1.731c-.044.314.151.6.436.64z"/><path id="u0kpad" d="M497.752 5064.065l.01.001c.286.04.552-.182.596-.495l.244-1.73c.044-.314-.152-.6-.436-.64l-.011-.002c-.285-.04-.552.181-.596.495l-.243 1.73c-.044.314.15.6.436.641z"/><path id="u0kpae" d="M496.042 5063.735l.01.002c.28.07.57-.136.649-.456l.436-1.774c.078-.32-.084-.636-.364-.705l-.01-.002c-.28-.069-.571.135-.649.456l-.436 1.774c-.078.32.084.637.364.705z"/><path id="u0kpaf" d="M494.255 5063.273l.01.003c.268.105.586-.066.709-.383l.68-1.746c.124-.316.007-.656-.261-.762l-.01-.005c-.268-.103-.586.069-.71.384l-.68 1.746c-.124.317-.006.659.262.763z"/><path id="u0kpag" d="M492.504 5062.45l.01.005c.26.124.59-.026.737-.334l.818-1.702c.148-.309.057-.66-.202-.784l-.009-.005c-.26-.125-.59.024-.738.333l-.818 1.704c-.148.307-.057.66.202.783z"/><path id="u0kpah" d="M370.908 5021.492a.573.573 0 0 0-.742.35l-.643 1.864a7.31 7.31 0 0 0-.365 1.673l-.446 4.62a8.494 8.494 0 0 1-.043.352l-1.5 10.463a17.832 17.832 0 0 0-.122 3.972c.193 2.343.531 4.536 1.27 6.314a.629.629 0 0 0 .65.383l1.241-.137 3.01-28.99z"/><path id="u0kpai" d="M375.557 5043.983c1.173-2.835.621-6.838 4.156-9.434 1.183-1.075 6.63-2.826 6.116 1.23-.056.442-1.164-.057-2.58.622-4.532 2.171-6.2 6.181-7.444 9.273l-.014-.018a1.667 1.667 0 0 1-.234-1.673z"/><path id="u0kpaj" d="M381.4 5024.508c-3.926 4.605-1.085 7.924.064 9.967a1.063 1.063 0 0 1-.253 1.346c-3.05 2.504-4.572 5.544-5.662 8.18a1.646 1.646 0 0 0 .255 1.673c-.917 2.282-1.552 4.2-2.658 5.102-.7.792-2.891.997-3.046.417-.885-3.291-.894-4.706-.99-7.282a22.69 22.69 0 0 1 .665-6.352l1.446-4.565c.154-.614.276-1.237.365-1.864l1.265-8.878c2.437-.244 5.95.479 8.549 2.256z"/><path id="u0kpak" d="M379.243 5023.343c-.741 1.493.583 1.576.528 3.803.413-.254.534-.781 1.734-.996.868-.156 1.732-.31 1.99-.695l.06-.126a.574.574 0 0 0-.375-.792c-.93-.241-2.65-.711-3.937-1.194z"/><path id="u0kpal" d="M374.44 5042.764l-.005.009c-.146.249-.043.58.23.74l1.508.884c.273.159.612.088.758-.16l.005-.01c.146-.247.042-.578-.23-.738l-1.509-.885c-.273-.16-.612-.088-.758.16z"/><path id="u0kpam" d="M375.167 5041.33l-.005.008c-.146.248-.043.58.231.74l1.507.884c.273.16.612.088.758-.16l.005-.009c.145-.248.042-.58-.23-.739l-1.508-.885c-.273-.16-.612-.088-.758.16z"/><path id="u0kpan" d="M375.895 5039.895l-.005.008c-.146.249-.043.58.23.74l1.507.884c.273.16.612.089.758-.16l.006-.008c.145-.25.042-.58-.231-.74l-1.508-.884c-.272-.16-.612-.088-.757.16z"/><path id="u0kpao" d="M376.85 5038.439l-.005.008c-.17.233-.092.58.175.775l1.474 1.078c.266.195.62.164.79-.067l.006-.01c.17-.231.092-.578-.175-.773l-1.473-1.078c-.268-.196-.621-.165-.791.066z"/><path id="u0kpap" d="M377.959 5036.964l-.007.007c-.199.208-.161.567.084.8l1.355 1.296c.245.235.606.256.804.047l.008-.006c.198-.21.161-.568-.084-.802l-1.356-1.295c-.245-.234-.605-.256-.804-.047z"/><path id="u0kpaq" d="M379.386 5035.657l-.008.007c-.214.193-.202.555.027.81l1.264 1.404c.229.255.588.304.8.112l.01-.008c.213-.19.2-.554-.027-.808l-1.264-1.405c-.23-.254-.588-.304-.802-.112z"/><path id="u0kpar" d="M463.713 4942.85l-8.443 31.939-1.707 6.446c-2.15 3.202-12.034 1.68-21.157-2.2a77.555 77.555 0 0 1-1.172-4.246c-2.103-8.354-3.13-17.47-3.584-27.652l-5.847 3.252-4.286-10.756 9.834-5.468v-.04c.195-.105.397-.186.591-.292l.857-.468.024.04c12.027-5.742 23.52-2.693 31.55 1.699a6.826 6.826 0 0 1 3.34 7.747z"/><path id="u0kpas" d="M459.581 4922.689l-1.982 7.845-.978 3.85c-1.464 7.108-14.008 3.04-12.205-3.09l1.416-5.597 1.148-4.53.396-1.567 1.246.315 2.41.607 1.513.387z"/><path id="u0kpat" d="M466.846 4922.049c-.183.282-.48.495-.847.587l-1.205.305-.091 3.729c-.137 3.05-1.518 4.956-3.76 4.956 0 0-1.494-.198-3.34-1.09-2.486-1.197-5.628-3.66-6.695-8.61v-.007h-.031c-.03-.008-.07-.016-.1-.023-.243-.053-.487-.107-.723-.145-.008.008-.008.008-.008 0-.252-.046-.495-.092-.732-.13-.847-.144-1.624-.266-2.333-.45-.664-.175-1.266-.403-1.808-.77-.58-.396-1.083-.945-1.502-1.738-.351-.664-.633-1.503-.854-2.562-.015-.084-.038-.176-.054-.268l-.046-.205v-.008c-.007-.07-.022-.13-.038-.198a7.576 7.576 0 0 1-.083-.48l-.07-.49a13.333 13.333 0 0 1-.121-1.424c-.008-.115-.008-.237-.008-.352v-.152c0-.435.023-.862.069-1.274 0-.03.007-.06.015-.098.328-2.823 1.639-5.026 3.56-6.567a11.055 11.055 0 0 1 2.388-1.433c.236-.107.473-.2.717-.29a11.46 11.46 0 0 1 1.533-.465 15.583 15.583 0 0 1 2.707-.381c.236-.008.465-.016.7-.016 5.027 0 8.253 2.616 9.839 5.842.183.373.343.747.48 1.128.618 1.693.824 3.477.626 5.117-.023.198-.023.397-.04.587h.024l-.053 2.029c.839 1.152 1.518 2.532 2.067 4.103.152.434.068.89-.183 1.243z"/><path id="u0kpau" d="M463.924 4907.84c-9.001.039-11.023-.315-9.843 8.97-1.116.089-3.267.153-3 2.692.04.357-.032.696-.05 1.02-.031.509-.071.97-.12 1.39v.009c-.64 5.386-2.685 3.979-5.08 3.776 0 0-1.051-4.221-1.77-6.097-.113-.291-.243-.591-.388-.94a15.27 15.27 0 0 1-1.076-3.718 62.604 62.604 0 0 0-.073-.486c-.064-.493-.105-.97-.121-1.431-.008-.114-.008-.235-.008-.348v-.153c.016-3.495 1.423-6.156 3.647-7.935a11.3 11.3 0 0 1 3.106-1.73 15.332 15.332 0 0 1 1.529-.461 14.75 14.75 0 0 1 3.413-.397c5.022 0 8.249 2.612 9.834 5.839z"/><path id="u0kpav" d="M447.812 4917.808c.154 2.357 1.43 5.013 3.275 3.95 1.264-.727 1.598-1.974 1.598-3.823 0-1.85-1.172-2.926-2.591-3.115-1.493-.2-2.402 1.143-2.282 2.988z"/><path id="u0kpaw" d="M453.561 4981.232v4.004a14.314 14.314 0 0 1-4.225 1.175c-.487.068-.983.106-1.487.122-3.927.144-8.212-1.037-12.994-2.868a115.04 115.04 0 0 1-2.295-.915 84.588 84.588 0 0 1-1.327-.549c-.031-.016-.062-.023-.092-.038l1.266-3.127a58.712 58.712 0 0 0 5.239 1.945 48.154 48.154 0 0 0 5.605 1.45c.404.075.793.144 1.183.197 1.433.23 2.768.343 3.964.343 2.501-.008 4.362-.549 5.163-1.739z"/><path id="u0kpax" d="M464.959 4918.355c.76 1.04 1.384 2.28 1.905 3.669.235-.352.316-.794.166-1.22-.541-1.542-1.207-2.9-2.027-4.034z"/><path id="u0kpay" d="M460.887 4905.777a10.362 10.362 0 0 1 3.037 3.715c.186.372.347.752.484 1.133.367 1.006.568 2.045.646 3.068a11.279 11.279 0 0 0-1.13-5.853 10.354 10.354 0 0 0-3.037-3.715c-1.716-1.297-3.973-2.124-6.798-2.124a14.726 14.726 0 0 0-3.412.396c-.527.121-1.036.276-1.53.461-.485.178-.962.388-1.415.631-.598.315-1.164.68-1.69 1.1a9.542 9.542 0 0 0-2.128 2.371c-.382.608-.7 1.27-.944 1.986-.123.357-.227.73-.312 1.113-.168.77-.26 1.59-.264 2.464v.153c0 .114 0 .235.008.348.005.128.026.266.034.397.04-.593.103-1.169.222-1.709.085-.385.19-.756.312-1.114a9.456 9.456 0 0 1 .944-1.986 9.56 9.56 0 0 1 2.128-2.37c.526-.42 1.092-.785 1.69-1.1.453-.244.93-.454 1.415-.632a12.035 12.035 0 0 1 1.53-.46 14.726 14.726 0 0 1 3.412-.397c2.825 0 5.082.826 6.798 2.124z"/><path id="u0kpaz" d="M463.82 4937.678a5.668 5.668 0 0 0-2.599-2.075c-.047-.018-.093-.03-.138-.047a7.003 7.003 0 0 0-.71-.452 43.44 43.44 0 0 0-3.124-1.54l-.377 1.479a43.154 43.154 0 0 1 3.501 1.713c.25.136.483.29.71.452.045.017.091.03.137.047a5.684 5.684 0 0 1 2.6 2.075l3.238 4.732 8.297 12.119 17.258 1.534 7.848.47.261-.59c.532-.992 1.416-1.735 2.475-2.005.28-.071 3.86-.632 4.025-.661h.004a.967.967 0 0 1 .657.24l1 .874c.176-.084.367-.133.565-.136l2.777-.05a1.28 1.28 0 0 1 1.162.7c.092-.172.157-.362.154-.573l-.01-.52a1.284 1.284 0 0 0-1.306-1.26l-2.777.05a1.374 1.374 0 0 0-.565.137l-1-.873a.96.96 0 0 0-.657-.24h-.004c-.166.028-3.746.588-4.025.66-1.059.269-1.943 1.012-2.475 2.006l-.26.589-7.849-.47-17.258-1.534-8.297-12.12z"/><path id="u0kpaA" d="M511.106 5066.056l-.603-1.091h-.015c.031-.084.031-.206.015-.358-.007-.03-.007-.054-.015-.092-.175-.717-.915-1.807-1.632-2.051-1.25-.68-3.264-.534-5.727-.52a36.23 36.23 0 0 1-1.319 0h-.007a.634.634 0 0 0-.084-.257.49.49 0 0 0-.344-.23l-.015-.007c-.213-.031-.419.098-.526.296-.031.054-.045.116-.061.176h-.045c-.169-.008-.344-.022-.511-.03h-.016a.555.555 0 0 0-.122-.381.46.46 0 0 0-.313-.184h-.007a.516.516 0 0 0-.336.077c-.023.015-.046.038-.068.06a.585.585 0 0 0-.184.336c-.022 0-.045-.008-.068-.008-.168-.022-.328-.046-.496-.068h-.007a.74.74 0 0 0-.069-.26c-.023-.03-.038-.06-.061-.091-.023-.023-.038-.046-.061-.061a.484.484 0 0 0-.244-.114h-.007c-.023 0-.046-.007-.069-.007a.55.55 0 0 0-.481.357h-.015c-.069-.014-.145-.037-.221-.053-.077-.022-.153-.045-.228-.061.03-.221-.055-.441-.214-.556-.023-.015-.046-.031-.077-.046a.292.292 0 0 0-.083-.031h-.008c-.039-.007-.069-.015-.107-.015-.206 0-.404.153-.495.374-.009 0-.009 0-.016-.008-.03-.007-.053-.015-.084-.023-.121-.046-.244-.084-.366-.136h-.007c.03-.207-.031-.413-.161-.535a.481.481 0 0 0-.129-.076h-.016a.504.504 0 0 0-.182-.03.293.293 0 0 0-.137.03c-.009 0-.016 0-.023.007a.18.18 0 0 0-.1.062c-.03.007-.053.03-.076.053a.669.669 0 0 0-.099.107h-.008a2.983 2.983 0 0 1-.32-.16 31.855 31.855 0 0 1-.32-.161c0-.006-.008-.006-.008-.006a.683.683 0 0 0 .008-.33.486.486 0 0 0-.252-.32l-.008-.007a.47.47 0 0 0-.404.008.73.73 0 0 0-.183.122l-.016.015c-.121-.076-.243-.16-.365-.244a25.223 25.223 0 0 1-.405-.297c-.129-.1-.259-.198-.38-.305-.13-.107-.252-.214-.382-.328-1.167-1.053-1.129-2.265-1.555-2.15-.13.03-.244.068-.351.114a2.403 2.403 0 0 0-.298.122 2.263 2.263 0 0 0-.503.312l-11.012-38.29a6.83 6.83 0 0 0-1.197-2.63c-.008-.007-.015-.023-.023-.031a1.277 1.277 0 0 0-.099-.168 6.092 6.092 0 0 0-.297-.442c-.023-.03-.046-.068-.077-.1a6.46 6.46 0 0 0-.412-.503 164.158 164.158 0 0 0-2.897-3.126c-.153-.168-.313-.328-.466-.496a158.809 158.809 0 0 0-2.524-2.585c-.496-.496-.991-.991-1.487-1.48-.495-.487-.991-.968-1.495-1.448-.434-.42-.877-.84-1.319-1.258a1.194 1.194 0 0 1-.175-.16c-.504-.466-1.007-.931-1.51-1.388v-.008h.008l.449-.48-10.92-10.417v1.655s1.556 1.562 3.851 3.88c1.693 1.709 3.782 3.829 5.964 6.04 3.493 3.555 7.206 7.337 9.814 10.044 1.16 1.22 2.105 2.22 2.707 2.883.351.388.649.808.908 1.242a6.707 6.707 0 0 1 1.197 2.632l10.654 37.038.358 1.244c.214.587.526 1.113.93 1.57.214.252.457.488.725.709.465.389.999.717 1.571.999.282.146.572.276.877.39.275.113.556.213.846.305.329.106.671.198 1.006.282.237.06.473.114.71.167.343.069.686.137 1.03.19.205.039.411.07.617.092.137.023.267.039.404.054.214.03.428.053.641.069.191.022.373.038.557.045.366.039.716.06 1.052.076.19.008.374.016.549.016.389.015.747.022 1.067.022.87 0 1.442-.03 1.533-.03.809-.008 1.571-.03 2.273-.03 1.433 0 2.616.09 3.454.549.336.115.679.54.977 1.037.061.09.106.183.16.274.434.786.747 1.617.747 1.617.084-.084.176-.161.259-.244a.623.623 0 0 0 .107-.747z"/><path id="u0kpaB" d="M422.44 5009.815c-1.19 3.104-2.646 7.366-3.645 10.936a77.99 77.99 0 0 0-.442 1.638c-.138-.007-.275-.007-.42-.007a48.937 48.937 0 0 0-3.737.054c-13.231.694-9.486 3.843-30.694 4.667l.054-.122a.582.582 0 0 0 0-.48.609.609 0 0 0-.374-.313c-.221-.061-.488-.13-.785-.214a39.678 39.678 0 0 1-1.053-.29 12.515 12.515 0 0 1-.503-.152c-.061-.016-.122-.038-.183-.053-.48-.152-.953-.306-1.388-.474-.008 0-.023-.006-.031-.006-2.096-.885-4.4-1.244-6.184-1.107-.046 0-.084.008-.13.008l-.297-.114-1.716-.641a.61.61 0 0 0-.45.016.608.608 0 0 0-.297.335l-.641 1.86a7.018 7.018 0 0 0-.366 1.678l-.45 4.614c-.007.121-.023.235-.038.357l-1.502 10.464c-.077.556-.13 1.127-.153 1.692a13.995 13.995 0 0 1-.023-.792c0-.213 0-.427.008-.64.008-.215.023-.429.038-.643.023-.425.069-.852.13-1.272l1.502-10.463c.015-.114.03-.236.038-.35l.45-4.623a6.965 6.965 0 0 1 .366-1.668l.64-1.87a.575.575 0 0 1 .298-.327.578.578 0 0 1 .45-.023l2.006.755.007.007h.008c.122-.015.252-.023.38-.03h.055c.152-.008.313-.008.465-.008.206 0 .419.008.633.016.427.023.869.069 1.327.138.22.036.45.074.686.13.22.037.442.09.664.144.007.008.015.008.022.008.237.06.465.12.702.198.229.069.457.145.686.229l.686.266c1.289.48 3.013.953 3.943 1.198.16.038.298.152.374.305a.585.585 0 0 1 0 .48l-.054.122.519-.023 1.044-.046c.436-.015.847-.038 1.259-.061.564-.03 1.106-.061 1.632-.1.305-.021.603-.037.892-.06a76.697 76.697 0 0 0 2.235-.183l.693-.069a5.8 5.8 0 0 0 .32-.03c.222-.023.443-.045.649-.07 4.789-.524 7.42-1.233 9.716-1.921.16-.045.32-.091.472-.136 1.35-.405 2.624-.801 4.217-1.13.214-.044.435-.09.656-.128 1.297-.244 2.82-.45 4.736-.595l.99-.07c.215-.014.436-.022.664-.037a48.643 48.643 0 0 1 4.149-.054h.008v-.023c.968-3.752 2.12-7.398 3.477-10.936l.068-.16z"/><path id="u0kpaC" d="M444.66 4930.331c-4.983-.33-10.353.456-15.836 3.073l-.024-.04-.002-.003-.506.282-.35.19c-.194.105-.396.186-.59.292v.04l-2.796 1.555-7.038 3.913-10.317 5.736c-.03.016-.054.034-.082.051a5.675 5.675 0 0 0-2.978 4.526l-.475 28.382c-1.517.424-2.105 1.64-2.277 3.488l-.522 4.494a.988.988 0 0 0-.066.23l-.347 2.221a.894.894 0 0 0 .156.65l.19-1.22a.972.972 0 0 1 .067-.228l.522-4.495c.172-1.848.76-3.064 2.277-3.488l.475-28.38a5.675 5.675 0 0 1 2.978-4.528c.028-.016.053-.035.082-.05l10.317-5.737 7.038-3.913 2.796-1.555v-.04c.194-.105.396-.186.59-.292l.35-.19.506-.28.002.002.024.041c5.483-2.619 10.853-3.406 15.836-3.075l1.715-6.22s-.335-.044-.543-.066z"/><path id="u0kpaD" d="M431.145 4982.164l-.442 1.092c-.074.168-.153.332-.218.506l-.169.45-.81 2.001a9.575 9.575 0 0 0-.787 1.942v.002a9.44 9.44 0 0 0-.178.775l-7.641 20.314.545.203 7.096-18.864c.05-.26.106-.52.178-.775v-.002a9.56 9.56 0 0 1 .787-1.943l.81-2.002.169-.448c.065-.175.144-.339.218-.507l.442-1.092 1.261-3.13c-.097-.316-.185-.639-.279-.959z"/><path id="u0kpaE" d="M413.165 4986.477c.046-.103.077-.212.086-.324v-.006c-.013-.17-.244-3.868-.29-4.158-.174-1.105-.846-2.075-1.806-2.711l-.576-.323-.268 1.502.844.472c.96.637 1.632 1.608 1.806 2.712.029.18.129 1.687.204 2.837z"/><path id="u0kpaF" d="M411.964 4989.38l-.005.006.004.016z"/><path id="u0kpaG" d="M442.524 4914.456l.073.485c.039.244.082.475.128.698.239 1.274.55 2.268.948 3.022.145.348.275.648.388.94.455 1.186 1.043 3.311 1.413 4.712l.358-1.412s-1.051-4.22-1.771-6.098c-.113-.29-.243-.59-.388-.938-.398-.754-.71-1.748-.948-3.023a15.208 15.208 0 0 1-.128-.698c-.024-.16-.05-.323-.073-.484-.022-.176-.026-.337-.043-.508-.004.034-.013.066-.016.1-.045.41-.068.834-.07 1.271v.154c0 .113 0 .234.007.347.017.461.058.94.122 1.432z"/><path id="u0kpaH" d="M454.4 4932.412h.007c.695.412 1.503.725 2.433.97.007 0 .023.007.03.007l.733-2.853c1.845.892 3.34 1.09 3.34 1.09 2.242 0 3.622-1.905 3.76-4.956l.091-3.73 1.205-.304c.366-.092.663-.305.846-.587-1.167.282-2.417.58-2.417.58v1.684c-.168 4.37-.733 6.3-2.974 6.3 0 0-1.434.16-3.6-1.076-1.914-1.09-4.392-3.27-6.947-7.618v.008c-.336 5.582.625 8.792 3.493 10.485z"/><path id="u0kpaI" d="M512.168 4960.235a1.172 1.172 0 0 1-.385.076l-.275.005c.376.145.649.524.657.98l.008.427c.009.547-.394.997-.902 1.006l-2.199.04a1.005 1.005 0 0 1-.666-.246l-4.323-.098c-1.816 0-3.053-.46-3.603-1.9l-28.326 2.394a5.678 5.678 0 0 1-4.788-2.538c-.018-.027-.039-.05-.057-.077l-4.779-6.978-.466-.683-.678-.989c-5.337 15.673-8.229 27.847-14.121 31.314 2.706.208 4.914-.23 6.299-1.734l1.706-6.445 5.583-21.118 1.211 1.768.466.683 4.779 6.98c.018.026.039.048.057.074a5.677 5.677 0 0 0 4.788 2.54l28.326-2.395c.55 1.44 1.787 1.9 3.603 1.9l4.323.098a1 1 0 0 0 .666.246l2.199-.039c.508-.01.911-.46.902-1.007l-.008-.429a1.056 1.056 0 0 0-.657-.978l.275-.004a1.198 1.198 0 0 0 1.175-1.219l-.009-.52c-.009-.519-.334-.94-.781-1.134z"/><path id="u0kpaJ" d="M513.911 4958.4a1.281 1.281 0 0 0-.398-.907 1.216 1.216 0 0 0-.365-.236 1.171 1.171 0 0 1-.385.082l-.759.026c.535.146.935.626.945 1.208l.01.52a1.2 1.2 0 0 1-.336.853c-.08.082-.173.147-.27.203l.41-.014a1.195 1.195 0 0 0 1.157-1.217z"/><path id="u0kpaK" d="M401.308 4989.846l.434.067c.458.073.887-.135 1.1-.487l-.034.43a1.227 1.227 0 0 0 1.13 1.313l.53.04a1.305 1.305 0 0 0 1.32-.847l-.047.775a1.224 1.224 0 0 0 1.13 1.294l.53.04a1.303 1.303 0 0 0 1.391-1.129c.104.525.542.94 1.102.982l.531.04a1.314 1.314 0 0 0 1.406-1.21l.213-2.833a1.405 1.405 0 0 0-.085-.587l.984-.936a.988.988 0 0 0 .307-.645l.001-.005c-.008-.095-.082-1.276-.155-2.358-.045.075-.088.15-.153.21l-.984.938c.068.186.1.385.085.587l-.213 2.833a1.313 1.313 0 0 1-1.406 1.209l-.53-.04a1.221 1.221 0 0 1-1.104-.982 1.308 1.308 0 0 1-.43.81c-.265.23-.61.346-.96.32l-.53-.04a1.224 1.224 0 0 1-1.13-1.294l.046-.775c-.199.53-.725.892-1.319.847l-.53-.04a1.225 1.225 0 0 1-1.13-1.313l.033-.43a1.08 1.08 0 0 1-1.099.487l-.434-.067a1.053 1.053 0 0 1-.547-.26l-.307 1.97c-.08.514.302 1 .854 1.086z"/><path id="u0kpaL" d="M510.504 5064.965h-.016c.039-.114.023-.282-.022-.458-.291.26-.603.504-.931.74-1.136.846-2.47 1.616-3.89 2.34a17.422 17.422 0 0 1-3.72 1.396s-3.425.832-7.497.725c-3.63-.084-7.778-.907-10.462-3.73-.076-.083-.16-.166-.244-.258a9.634 9.634 0 0 1-.36-.443 9.099 9.099 0 0 1-1.341-2.394l-.008-.007c-.366-.916-.625-1.953-.762-3.12-8.083-22.687-8.846-13.498-13.605-28.59a26.353 26.353 0 0 1-1.06-5.047c-.145-1.152-.221-2.212-.335-3.211-.39-.244-1.03-.702-1.868-1.342-1.946-1.462-4.974-3.867-8.493-6.71l9.819-10.417c-1.19-1.16-.48-.465-1.685-1.556l-9.946 10.507a1628.228 1628.228 0 0 1-5.237-4.277c-.52-.427-2.761-1.922-5.514-4.102-5.352-4.254-12.622-11.112-12.805-17.711 1.096-1.256 2.508-2.627 4.333-3.635 1.983-1.105 4.446-1.776 7.51-1.418.253.03.513.06.77.107.42.069.856.16 1.299.275-1.221-.558-2.41-1.495-3.554-2.716a22.158 22.158 0 0 1-1.975-2.417c-5.636-7.847-9.944-21.931-11.02-30.496a33.812 33.812 0 0 1-.236-2.661l-5.842 3.257-.915.503-5.338 2.966-1.956 1.16-3.02 26.73 4.427-24.786 6.802-3.783 5.842-3.248c.457 10.18 1.479 19.293 3.584 27.65.068.276.183.71.32 1.206.22.785.48 1.723.67 2.403.077.258.139.48.184.639l-1.266 3.127-.358.893-.076.176c-.084.174-.153.35-.221.533l-.107.29-.87 2.135a9.625 9.625 0 0 0-.793 1.959v.008a9.759 9.759 0 0 0-.19.816v.004l-.38 1.01-.124.329v-.001l-.434 1.16c.023.06.015.09-.023.052l-.595 1.572v.008c.06.312 1.777 9.738 2.41 19.293l-7.481-2.784h-.008c-.023.054-.046.108-.061.16a58.474 58.474 0 0 0-.678 1.853l7.465 2.776.893.33c.406 8.908-.331 17.28-4.47 17.736h-.037c-.138.015-.275.023-.412.03-.138.008-.275.008-.412.008h-.076c-.153-.007-.305-.007-.45-.015l-5.254-.1-32.624-.617c-3.44.915-5.88-2.547-14.527 15.237a3.134 3.134 0 0 1-1.365 1.41l-.374.198-.542.062a.615.615 0 0 1-.64-.367c-.747-1.777-1.083-3.98-1.281-6.33-.023.245-.038.497-.046.742-.008.342-.015.685-.008 1.029.008.35.023.685.054 1.028.198 2.349.534 4.554 1.28 6.33a.614.614 0 0 0 .64.366l1.245-.137v-.007a.403.403 0 0 0 .137.075.862.862 0 0 0 .176.062h.015c.068.015.144.03.22.03.74.076 1.907-.19 2.388-.731 1.106-.901 1.738-2.815 2.66-5.102.16-.39.314-.802.497-1.221h.007v-.008c.03.016.06.016.092.024a.737.737 0 0 0 .22-.008c.039-.016.085-.023.123-.046a.5.5 0 0 0 .099-.076.507.507 0 0 0 .084-.1l.008-.006a.511.511 0 0 0 .045-.382.497.497 0 0 0-.144-.243.448.448 0 0 0-.115-.1c0-.008.008-.008.008-.016.076-.167.152-.328.236-.495h.008v-.01c.122.056.259.07.38.04.047-.015.1-.03.146-.061a.265.265 0 0 0 .076-.061.473.473 0 0 0 .084-.1v-.006a.48.48 0 0 0 .046-.382.584.584 0 0 0-.252-.343h-.008l.046-.084c.077-.137.16-.275.244-.412v-.008c.03.008.069.024.107.03a.543.543 0 0 0 .458-.128c.03-.03.06-.061.083-.1l.008-.014a.486.486 0 0 0 .038-.382l-.023-.07c-.015-.03-.03-.06-.053-.09a.88.88 0 0 0-.076-.092v-.007h.007c0-.008.008-.016.008-.024.076-.106.152-.206.22-.312.016-.015.032-.03.039-.045.054.03.107.053.16.068a.59.59 0 0 0 .16.023.495.495 0 0 0 .412-.191l.008-.007a.408.408 0 0 0 .06-.13c.062-.191-.007-.411-.167-.572l.008-.007c.015-.016.023-.031.038-.046.09-.108.19-.206.29-.313.168.1.359.122.51.06a.374.374 0 0 0 .16-.106l.009-.007a.452.452 0 0 0 .129-.328.42.42 0 0 0-.03-.161.684.684 0 0 0-.077-.167l.008-.01c.175-.158.359-.318.542-.463l.007-.007a.612.612 0 0 0 .442.12c.03.01.069 0 .099-.014a.427.427 0 0 0 .153-.084l.008-.008c.16-.144.19-.396.09-.61h.009v-.008c.122-.084.25-.167.38-.251l.413-.252c.137-.083.282-.16.427-.236.145-.076.297-.152.45-.228 1.41-.68 2.524-.176 2.577-.62a3.265 3.265 0 0 0 0-.906 1.401 1.401 0 0 0-.053-.274v-.023l37.878.708c.068.009.145.009.213.009.008.007.008.007.016 0 .076.007.145.007.22.007.009 0 .016.008.03 0a.094.094 0 0 0 .047.008c.137 0 .274-.008.412-.008h.023l.282-.023c.038 0 .069 0 .107-.007h.038c.084-.008.168-.015.252-.031.136-.014.274-.038.403-.06a7.583 7.583 0 0 0 2.266-.847 6.787 6.787 0 0 0 1.318-.961 5.6 5.6 0 0 0 .306-.29l.32-.344c.008-.014.015-.022.023-.037a7.566 7.566 0 0 0 .854-1.251 175.566 175.566 0 0 0 4.019-7.9c.289-.595.572-1.191.846-1.785.374-.816.747-1.624 1.106-2.433.243-.548.47-1.095.709-1.642l.008.003c.289-.656.564-1.311.838-1.967v-.008l.87.328 2.997-7.97 8.899 8.489.904-.951c1.054.91.677.635 1.78 1.503l.006-.005c.393.323.784.646 1.184.962.473.38.96.756 1.45 1.137.022.016.045.03.075.053.48.366.96.732 1.449 1.09l.267.199a115.584 115.584 0 0 0 6.33 4.294c.008.09.023.175.03.266.09.763.22 1.57.389 2.433.107.579.237 1.174.389 1.8.046.198.099.403.153.617.13.51.267 1.045.426 1.586.077.275.153.55.245.832.076.282.168.564.259.853.145.465.29.908.435 1.335.023.084.053.16.084.245.053.168.107.328.167.487a44.402 44.402 0 0 0 1.35 3.439c.107.229.206.45.313.657.084.182.168.35.25.518.185.359.367.694.55 1.006a19.388 19.388 0 0 0 1.449 2.166c.1.122.19.244.29.366.062.084.13.168.199.252.572.717 1.166 1.418 1.799 2.25.069.09.137.183.206.274.488.656.999 1.396 1.548 2.296.229.366.458.754.702 1.182.175.319.35.655.54 1.006.176.328.352.679.535 1.045.358.73.74 1.54 1.137 2.44.083.19.174.389.266.595.214.496.434 1.015.664 1.57.107.26.213.52.32.794.183.457.374.946.57 1.449.124.312.246.633.368.96.259.672.519 1.38.785 2.122.008.006.008.006.008.014.099.275.198.557.305.847a.522.522 0 0 0-.328.168.573.573 0 0 0-.144.465c.129.929.342 2.66.396 4.026v.206c0 2.288.564 4.545 1.388 6.115l.075 2.15c0 .162.07.306.184.413a.603.603 0 0 0 .419.145l1.968-.115a7.416 7.416 0 0 0 1.685-.297l3.104-.945 1.335-.405c.114-.031.228-.07.35-.091l10.242-2.601c1.28-.32 2.546-.8 3.72-1.402 2.098-1.068 4.004-2.22 5.37-3.593a.62.62 0 0 0 .09-.731zm-134.871-19.545a3.017 3.017 0 0 1-.107-.252h-.008v-.008a2.778 2.778 0 0 1-.061-.251c-.007 0-.007-.008-.007-.008-.008-.091-.016-.175-.016-.26v-.098c0-.076.008-.153.023-.222v-.014c.015-.084.038-.168.076-.252 0-.008 0-.023.008-.031l.008.008a1.683 1.683 0 0 0-.092.877c.015.084.038.175.069.259.06.176.152.344.267.488a2.048 2.048 0 0 1-.16-.236z"/><path id="u0kpaM" d="M455.519 5011.91l-16.032-14.382a11.162 11.162 0 0 1-3.406-10.908l.716-2.793 2.217.57-.712 2.773a8.866 8.866 0 0 0 2.713 8.655l16.032 14.383z"/><linearGradient id="u0kpb" x1="308.09" x2="491.24" y1="5115.06" y2="4931.91" gradientUnits="userSpaceOnUse"><stop offset="0" stop-color="#0694ea"/><stop offset=".01" stop-color="#0694ea"/><stop offset="1" stop-color="#9dc137"/><stop offset="1" stop-color="#9dc137"/></linearGradient></defs><g><g opacity=".4" transform="translate(-230 -4902)"><g opacity=".4"><use fill="url(#u0kpb)" xlink:href="#u0kpa"/></g></g><g transform="translate(-230 -4902)"><use fill="#fff" fill-opacity="0" stroke="#001c34" stroke-linecap="round" stroke-linejoin="round" stroke-miterlimit="50" stroke-width=".53" xlink:href="#u0kpc"/></g><g transform="translate(-230 -4902)"><use fill="#64b9ff" xlink:href="#u0kpd"/></g><g transform="translate(-230 -4902)"><use fill="#fff" xlink:href="#u0kpe"/></g><g transform="translate(-230 -4902)"><use fill="#008ddc" xlink:href="#u0kpf"/></g><g transform="translate(-230 -4902)"><use fill="#008ddc" xlink:href="#u0kpg"/></g><g transform="translate(-230 -4902)"><use fill="#008ddc" xlink:href="#u0kph"/></g><g transform="translate(-230 -4902)"><use fill="#00cbdb" xlink:href="#u0kpi"/></g><g transform="translate(-230 -4902)"><use fill="#fff" xlink:href="#u0kpj"/></g><g transform="translate(-230 -4902)"><use fill="#07a4a8" xlink:href="#u0kpk"/></g><g transform="translate(-230 -4902)"><use fill="#64b9ff" xlink:href="#u0kpl"/></g><g transform="translate(-230 -4902)"><use fill="#fff" xlink:href="#u0kpm"/></g><g transform="translate(-230 -4902)"><use fill="#008ddc" xlink:href="#u0kpn"/></g><g transform="translate(-230 -4902)"><use fill="#008ddc" xlink:href="#u0kpo"/></g><g transform="translate(-230 -4902)"><use fill="#008ddc" xlink:href="#u0kpp"/></g><g transform="translate(-230 -4902)"><use fill="#64b9ff" xlink:href="#u0kpq"/></g><g transform="translate(-230 -4902)"><use fill="#fff" xlink:href="#u0kpr"/></g><g transform="translate(-230 -4902)"><use fill="#008ddc" xlink:href="#u0kps"/></g><g transform="translate(-230 -4902)"><use fill="#008ddc" xlink:href="#u0kpt"/></g><g transform="translate(-230 -4902)"><use fill="#008ddc" xlink:href="#u0kpu"/></g><g transform="translate(-230 -4902)"><use fill="#f5c08c" xlink:href="#u0kpv"/></g><g transform="translate(-230 -4902)"><use fill="#fac896" xlink:href="#u0kpw"/></g><g transform="translate(-230 -4902)"><use fill="#fac896" xlink:href="#u0kpx"/></g><g transform="translate(-230 -4902)"><use fill="#fac896" xlink:href="#u0kpy"/></g><g transform="translate(-230 -4902)"><use fill="#fac896" xlink:href="#u0kpz"/></g><g transform="translate(-230 -4902)"><use fill="#ffcf9f" xlink:href="#u0kpA"/></g><g transform="translate(-230 -4902)"><use fill="#ffcf9f" xlink:href="#u0kpB"/></g><g transform="translate(-230 -4902)"><use fill="#ffcf9f" xlink:href="#u0kpC"/></g><g transform="translate(-230 -4902)"><use fill="#058591" xlink:href="#u0kpD"/></g><g transform="translate(-230 -4902)"><use fill="#ffcf9f" xlink:href="#u0kpE"/></g><g transform="translate(-230 -4902)"><use fill="#ffcf9f" xlink:href="#u0kpF"/></g><g transform="translate(-230 -4902)"><use fill="#ffcf9f" xlink:href="#u0kpG"/></g><g transform="translate(-230 -4902)"><use fill="#c23f30" xlink:href="#u0kpH"/></g><g transform="translate(-230 -4902)"><use fill="#c23f30" xlink:href="#u0kpI"/></g><g transform="translate(-230 -4902)"><use fill="#c23f30" xlink:href="#u0kpJ"/></g><g transform="translate(-230 -4902)"><use fill="#c23f30" xlink:href="#u0kpK"/></g><g transform="translate(-230 -4902)"><use fill="#df4937" xlink:href="#u0kpL"/></g><g transform="translate(-230 -4902)"><use fill="#df4937" xlink:href="#u0kpM"/></g><g transform="translate(-230 -4902)"><use fill="#ffcf9f" xlink:href="#u0kpN"/></g><g transform="translate(-230 -4902)"><use fill="#ffcf9f" xlink:href="#u0kpO"/></g><g transform="translate(-230 -4902)"><use fill="#ffcf9f" xlink:href="#u0kpP"/></g><g transform="translate(-230 -4902)"><use fill="#ffcf9f" xlink:href="#u0kpQ"/></g><g transform="translate(-230 -4902)"><use fill="#ffcf9f" xlink:href="#u0kpR"/></g><g transform="translate(-230 -4902)"><use fill="#ffcf9f" xlink:href="#u0kpS"/></g><g transform="translate(-230 -4902)"><use fill="#ffcf9f" xlink:href="#u0kpT"/></g><g transform="translate(-230 -4902)"><use fill="#ffcf9f" xlink:href="#u0kpU"/></g><g transform="translate(-230 -4902)"><use fill="#df4937" xlink:href="#u0kpV"/></g><g transform="translate(-230 -4902)"><use fill="#ffcf9f" xlink:href="#u0kpW"/></g><g transform="translate(-230 -4902)"><use fill="#ededed" xlink:href="#u0kpX"/></g><g transform="translate(-230 -4902)"><use fill="#ededed" xlink:href="#u0kpY"/></g><g transform="translate(-230 -4902)"><use fill="#0593a1" xlink:href="#u0kpZ"/></g><g transform="translate(-230 -4902)"><use fill="#ededed" xlink:href="#u0kpaa"/></g><g transform="translate(-230 -4902)"><use fill="#dadada" xlink:href="#u0kpab"/></g><g transform="translate(-230 -4902)"><use fill="#dadada" xlink:href="#u0kpac"/></g><g transform="translate(-230 -4902)"><use fill="#dadada" xlink:href="#u0kpad"/></g><g transform="translate(-230 -4902)"><use fill="#dadada" xlink:href="#u0kpae"/></g><g transform="translate(-230 -4902)"><use fill="#dadada" xlink:href="#u0kpaf"/></g><g transform="translate(-230 -4902)"><use fill="#dadada" xlink:href="#u0kpag"/></g><g transform="translate(-230 -4902)"><use fill="#ededed" xlink:href="#u0kpah"/></g><g transform="translate(-230 -4902)"><use fill="#ededed" xlink:href="#u0kpai"/></g><g transform="translate(-230 -4902)"><use fill="#0593a1" xlink:href="#u0kpaj"/></g><g transform="translate(-230 -4902)"><use fill="#ededed" xlink:href="#u0kpak"/></g><g transform="translate(-230 -4902)"><use fill="#dadada" xlink:href="#u0kpal"/></g><g transform="translate(-230 -4902)"><use fill="#dadada" xlink:href="#u0kpam"/></g><g transform="translate(-230 -4902)"><use fill="#dadada" xlink:href="#u0kpan"/></g><g transform="translate(-230 -4902)"><use fill="#dadada" xlink:href="#u0kpao"/></g><g transform="translate(-230 -4902)"><use fill="#dadada" xlink:href="#u0kpap"/></g><g transform="translate(-230 -4902)"><use fill="#dadada" xlink:href="#u0kpaq"/></g><g transform="translate(-230 -4902)"><use fill="#0697ed" xlink:href="#u0kpar"/></g><g transform="translate(-230 -4902)"><use fill="#f2c394" xlink:href="#u0kpas"/></g><g transform="translate(-230 -4902)"><use fill="#ffcf9f" xlink:href="#u0kpat"/></g><g transform="translate(-230 -4902)"><use fill="#3c3c3b" xlink:href="#u0kpau"/></g><g transform="translate(-230 -4902)"><use fill="#ffcf9f" xlink:href="#u0kpav"/></g><g transform="translate(-230 -4902)"><use fill="#fff" xlink:href="#u0kpaw"/></g><g opacity=".9" transform="translate(-230 -4902)"><g opacity=".9"><use fill="#fff" xlink:href="#u0kpax"/></g><g opacity=".9"><use fill="#fff" xlink:href="#u0kpay"/></g><g opacity=".9"><use fill="#fff" xlink:href="#u0kpaz"/></g><g opacity=".9"><use fill="#fff" xlink:href="#u0kpaA"/></g><g opacity=".9"><use fill="#fff" xlink:href="#u0kpaB"/></g><g opacity=".9"><use fill="#fff" xlink:href="#u0kpaC"/></g><g opacity=".9"><use fill="#fff" xlink:href="#u0kpaD"/></g><g opacity=".9"><use fill="#fff" xlink:href="#u0kpaE"/></g><g opacity=".9"><use fill="#fff" xlink:href="#u0kpaF"/></g></g><g opacity=".1" transform="translate(-230 -4902)"><g opacity=".1"><use fill="#1d1d1b" xlink:href="#u0kpaG"/></g><g opacity=".1"><use fill="#1d1d1b" xlink:href="#u0kpaH"/></g><g opacity=".1"><use fill="#1d1d1b" xlink:href="#u0kpaI"/></g><g opacity=".1"><use fill="#1d1d1b" xlink:href="#u0kpaJ"/></g><g opacity=".1"><use fill="#1d1d1b" xlink:href="#u0kpaK"/></g><g opacity=".1"><use fill="#1d1d1b" xlink:href="#u0kpaL"/></g></g><g transform="translate(-230 -4902)"><use fill="#fff" xlink:href="#u0kpaM"/></g></g></svg>