<svg xmlns="http://www.w3.org/2000/svg" xmlns:xlink="http://www.w3.org/1999/xlink" width="82" height="72.67" viewBox="0 0 123 109"><defs><path id="qzbva" d="M1194.295 1773.823a34.596 34.596 0 0 0-.898-2.889l2.979-1.073c.372 1.033.702 2.095.98 3.157zm-2.048-5.687a33.912 33.912 0 0 0-1.393-2.684l2.743-1.583a37.39 37.39 0 0 1 1.523 2.935zm-3.02-5.233a34.178 34.178 0 0 0-1.847-2.393l2.417-2.045c.71.838 1.389 1.72 2.02 2.617zm-56.905-3.649a37.216 37.216 0 0 1 1.862-2.158l2.317 2.16a33.753 33.753 0 0 0-1.703 1.973zm53.003-.962a33.99 33.99 0 0 0-2.244-2.027l2.015-2.442c.848.7 1.674 1.445 2.454 2.216zm-48.784-3.51a37.326 37.326 0 0 1 2.556-2.096l1.896 2.536c-.803.6-1.59 1.245-2.337 1.916zm44.124-.338l-.301-.205a34.337 34.337 0 0 0-2.267-1.399l1.559-2.757a38.01 38.01 0 0 1 2.475 1.528l.327.223zm-38.835-3.617a37.329 37.329 0 0 1 2.888-1.608l1.416 2.833c-.9.45-1.787.943-2.642 1.47zm33.57.642a33.864 33.864 0 0 0-2.807-1.125l1.044-2.989c1.036.361 2.069.776 3.07 1.23zm-27.662-3.594a36.91 36.91 0 0 1 3.126-1.072l.893 3.037c-.964.284-1.927.614-2.861.981zm21.958 1.6a34.185 34.185 0 0 0-2.963-.607l.496-3.128c1.086.173 2.176.396 3.24.664zm-15.623-3.464a37.992 37.992 0 0 1 3.266-.505l.346 3.147c-1 .11-2.005.266-2.99.463zm9.655 2.517a34.267 34.267 0 0 0-3.024-.07l-.067-3.167c1.099-.023 2.21.004 3.306.078z"/><path id="qzbvb" d="M1158.816 1819.61l.216-3.16c1 .069 2.016.094 3.024.073l.065 3.166a37.448 37.448 0 0 1-3.305-.078zm6.259-3.284a34.377 34.377 0 0 0 2.99-.462l.622 3.105a37.954 37.954 0 0 1-3.267.505zm-9.545 2.913a37.273 37.273 0 0 1-3.24-.663l.773-3.071c.974.245 1.97.449 2.963.607zm15.472-4.1a34.198 34.198 0 0 0 2.86-.98l1.16 2.946a37.391 37.391 0 0 1-3.126 1.072zm-21.88 2.486a37.275 37.275 0 0 1-3.07-1.23l1.307-2.884c.916.415 1.86.793 2.808 1.125zm27.504-4.697c.899-.45 1.788-.944 2.64-1.47l1.663 2.695a37.253 37.253 0 0 1-2.888 1.608zm-33.523 1.968a37.887 37.887 0 0 1-2.802-1.751l1.795-2.61a34.78 34.78 0 0 0 2.566 1.604zm38.663-5.138a34.031 34.031 0 0 0 2.337-1.916l2.115 2.357a37.433 37.433 0 0 1-2.556 2.095zm-44.103 1.399a37.358 37.358 0 0 1-2.454-2.216l2.225-2.253a34.202 34.202 0 0 0 2.244 2.026zm48.596-5.432a34.012 34.012 0 0 0 1.552-1.787l2.46 1.993a38.137 38.137 0 0 1-1.695 1.953zm-53.297.79a37.352 37.352 0 0 1-2.021-2.617l2.59-1.822a33.667 33.667 0 0 0 1.849 2.394zm-3.8-5.405a37.534 37.534 0 0 1-1.523-2.934l2.873-1.333c.423.913.892 1.816 1.393 2.685zm-2.78-5.992a37.188 37.188 0 0 1-.98-3.157l3.063-.805c.255.973.557 1.945.897 2.889z"/><path id="qzbvc" d="M1107.937 1774.685c.094-.645.2-1.296.316-1.935l3.116.566c-.11.602-.21 1.215-.298 1.823zm.997-5.124c.257-1.05.551-2.108.872-3.143l3.024.939a52.049 52.049 0 0 0-.82 2.957zm1.934-6.227c.383-1.01.802-2.023 1.245-3.009l2.888 1.3c-.417.927-.812 1.88-1.172 2.83zm2.671-5.938a54.856 54.856 0 0 1 1.601-2.836l2.71 1.639a50.735 50.735 0 0 0-1.507 2.67zm3.372-5.572a54 54 0 0 1 1.932-2.626l2.492 1.954a50.637 50.637 0 0 0-1.819 2.471zm4.02-5.129a53.85 53.85 0 0 1 2.233-2.373l2.24 2.238a51.609 51.609 0 0 0-2.104 2.235zm76.35-.223a51.098 51.098 0 0 0-2.239-2.102l2.098-2.372a53.913 53.913 0 0 1 2.377 2.231zm-71.745-4.388a54.808 54.808 0 0 1 2.503-2.089l1.956 2.49a51.365 51.365 0 0 0-2.357 1.969zm67.146.322a51.478 51.478 0 0 0-2.473-1.818l1.797-2.607a54.375 54.375 0 0 1 2.628 1.93zm-62.018-4.347a54.608 54.608 0 0 1 2.736-1.775l1.643 2.705a51.774 51.774 0 0 0-2.577 1.673zm56.966.863a51.24 51.24 0 0 0-2.674-1.506l1.47-2.805a53.91 53.91 0 0 1 2.84 1.6zm-51.39-4.246a52.95 52.95 0 0 1 2.931-1.434l1.304 2.885c-.929.42-1.857.874-2.759 1.35zm45.955 1.4a50.74 50.74 0 0 0-2.836-1.17l1.118-2.963c1.013.383 2.027.801 3.014 1.244zm-40.01-4.09a55.091 55.091 0 0 1 3.085-1.069l.945 3.024c-.973.303-1.949.641-2.903 1.005zm34.272 1.925a51.116 51.116 0 0 0-2.957-.818l.751-3.076a54.3 54.3 0 0 1 3.142.87zm-28.042-3.872c1.051-.26 2.124-.49 3.19-.685l.57 3.114a50.789 50.789 0 0 0-3 .645zm22.084 2.418a51.471 51.471 0 0 0-3.034-.455l.375-3.144a54.39 54.39 0 0 1 3.222.484zm-15.67-3.595a54.25 54.25 0 0 1 3.247-.294l.19 3.161a50.433 50.433 0 0 0-3.057.277zm9.576 2.866a51.497 51.497 0 0 0-3.066-.09h-.002l-.003-3.167h.004c1.08 0 2.175.033 3.255.097z"/><path id="qzbvd" d="M1197.28 1746.472a50.79 50.79 0 0 0-32.738-14.735l.196-3.16a53.954 53.954 0 0 1 34.779 15.653z"/><path id="qzbve" d="M1203.914 1735.242l5.747 21.34-21.356-5.69z"/><path id="qzbvf" d="M1161.437 1836.499c-1.079 0-2.175-.032-3.258-.097l.188-3.161c1.021.06 2.053.092 3.07.092zm3.07-3.258a51.865 51.865 0 0 0 3.056-.277l.381 3.143a53.291 53.291 0 0 1-3.248.294zm-9.575 2.87a54.793 54.793 0 0 1-3.223-.482l.564-3.116c1.002.18 2.023.334 3.034.455zm15.665-3.61a50.16 50.16 0 0 0 3-.643l.76 3.073c-1.05.26-2.124.49-3.189.686zm-22.076 2.45a54.653 54.653 0 0 1-3.142-.867l.936-3.026c.972.3 1.967.576 2.957.818zm28.036-3.921a51.573 51.573 0 0 0 2.903-1.006l1.127 2.959a54.296 54.296 0 0 1-3.085 1.069zm-34.262 1.996a54.204 54.204 0 0 1-3.014-1.243l1.296-2.89c.93.417 1.883.81 2.836 1.17zm40.002-4.182c.928-.42 1.856-.874 2.76-1.35l1.476 2.8c-.959.507-1.946.99-2.932 1.435zm-45.95 1.514a53.118 53.118 0 0 1-2.84-1.6l1.635-2.711a50.462 50.462 0 0 0 2.675 1.506zm51.382-4.378a51.543 51.543 0 0 0 2.577-1.672l1.802 2.603a53.726 53.726 0 0 1-2.736 1.776zm-56.963 1.009a53.551 53.551 0 0 1-2.627-1.931l1.951-2.494c.802.628 1.634 1.24 2.474 1.819zm62.011-4.504a52.039 52.039 0 0 0 2.357-1.97l2.101 2.37a54.91 54.91 0 0 1-2.502 2.09zm-67.145.487a54.494 54.494 0 0 1-2.377-2.231l2.237-2.243a51.12 51.12 0 0 0 2.238 2.103zm71.736-4.561a51.67 51.67 0 0 0 2.104-2.236l2.37 2.1a53.85 53.85 0 0 1-2.234 2.374zm4.07-4.593a51.624 51.624 0 0 0 1.818-2.471l2.605 1.8a54.466 54.466 0 0 1-1.932 2.624zm3.484-5.046a50.764 50.764 0 0 0 1.507-2.671l2.804 1.473a55.277 55.277 0 0 1-1.6 2.837zm2.85-5.426c.417-.928.811-1.881 1.171-2.832l2.961 1.122a53.943 53.943 0 0 1-1.245 3.009zm2.17-5.733c.303-.974.58-1.97.821-2.957l3.075.753a53.256 53.256 0 0 1-.872 3.144zm1.461-5.96c.09-.483.171-.976.245-1.465l3.131.476a56.768 56.768 0 0 1-.26 1.557z"/><path id="qzbvg" d="M1158.035 1836.393a53.954 53.954 0 0 1-34.78-15.653l2.237-2.242a50.797 50.797 0 0 0 32.739 14.735z"/><path id="qzbvh" d="M1118.859 1829.727l-5.747-21.34 21.356 5.692z"/><path id="qzbvi" d="M1104.806 1743.219a3.263 3.263 0 0 0-3.262 3.262v38.644a3.262 3.262 0 0 0 3.262 3.262h10.82a3.262 3.262 0 0 1 3.262 3.263v11.24c0 1.066 1.345 1.536 2.008.702l11.125-13.973a3.263 3.263 0 0 1 2.553-1.232h12.361v27.138a3.263 3.263 0 0 0 3.264 3.262h37.945c.995 0 1.934.453 2.553 1.23l11.124 13.973c.663.834 2.008.366 2.008-.7v-11.239a3.263 3.263 0 0 1 3.263-3.264h10.82a3.261 3.261 0 0 0 3.262-3.262v-38.644a3.26 3.26 0 0 0-3.262-3.262h-42.13v-27.138a3.263 3.263 0 0 0-3.262-3.262z"/><path id="qzbvk" d="M1172.52 1743.218h-67.714a3.263 3.263 0 0 0-3.263 3.263v4.75a3.263 3.263 0 0 1 3.263-3.263h67.713a3.263 3.263 0 0 1 3.263 3.263v-4.75a3.263 3.263 0 0 0-3.263-3.263z"/><path id="qzbvl" d="M1120.032 1805.604c-.302 0-.609-.052-.91-.156a2.68 2.68 0 0 1-1.816-2.56v-11.237c0-.927-.754-1.68-1.68-1.68h-10.82a4.852 4.852 0 0 1-4.846-4.846v-38.644a4.852 4.852 0 0 1 4.846-4.846h67.713a4.852 4.852 0 0 1 4.846 4.846v38.644a4.852 4.852 0 0 1-4.846 4.846h-37.945a1.67 1.67 0 0 0-1.314.633l-11.125 13.973a2.68 2.68 0 0 1-2.103 1.027zm-15.226-60.802a1.68 1.68 0 0 0-1.679 1.679v38.644a1.68 1.68 0 0 0 1.68 1.679h10.82a4.852 4.852 0 0 1 4.845 4.847v9.93l10.311-12.95a4.818 4.818 0 0 1 3.791-1.827h37.945c.926 0 1.68-.753 1.68-1.68v-38.643c0-.926-.754-1.68-1.68-1.68z"/><path id="qzbvm" d="M1147.172 1765.794c2.159 1.542 3.254 3.874 3.254 6.93 0 2.446-.733 4.419-2.177 5.863-1.523 1.523-4.012 2.498-7.398 2.897l-.333.039-1.986-3.575.766-.07c3.054-.277 5.096-.912 6.069-1.884.768-.768 1.158-1.868 1.158-3.27 0-2.047-.57-3.523-1.69-4.387-.788-.63-1.728-1.02-2.8-1.16-.79 2.82-2.182 5.63-4.145 8.359l.773 1.7-2.938 2.154-.71-1.134c-1.858 1.47-3.67 2.217-5.384 2.217-1.102 0-2.051-.391-2.82-1.162-.865-.864-1.305-2.251-1.305-4.123 0-2.734 1.025-5.146 3.046-7.167 1.1-1.1 2.22-2.003 3.333-2.684.005-1.22.04-2.355.105-3.386l-4.812.283-.595-3.767 5.617-.148.29-5.23 2.985.002c.307.028 1.124.103 1.302.713.154.526-.323.988-.583 1.206l-.346 3.117c3.064-.197 6.115-.524 9.073-.974l.52-.08.394 3.932-.507.042a396.67 396.67 0 0 1-9.836.699 43.39 43.39 0 0 1-.093 2.37c1.264-.26 2.48-.407 3.625-.44l.15-1.973 3.19.533c.285.072.95.24.994.788.032.399-.293.637-.513.758l-.036.25c1.613.255 3.079.847 4.362 1.76zm-15.05 3.437c-.74.548-1.433 1.324-2.07 2.315-.813 1.265-1.225 2.442-1.225 3.497 0 1.153.22 1.463.288 1.53.197.197.453.288.806.288 1.136 0 2.31-.607 3.494-1.807-.632-2.095-1.066-4.05-1.293-5.823zm4.197 2.607c.784-1.317 1.474-2.937 2.058-4.83-1.05.054-2.006.234-2.848.537.157 1.528.422 2.968.79 4.293z"/><path id="qzbvn" d="M1217.912 1773.618h-67.713a3.263 3.263 0 0 0-3.263 3.263v4.75a3.262 3.262 0 0 1 3.263-3.263h67.713a3.262 3.262 0 0 1 3.263 3.262v-4.749a3.263 3.263 0 0 0-3.263-3.263z"/><path id="qzbvo" d="M1202.686 1836.003a2.676 2.676 0 0 1-2.103-1.027l-11.125-13.972a1.669 1.669 0 0 0-1.314-.634h-37.945a4.851 4.851 0 0 1-4.846-4.846v-38.643a4.852 4.852 0 0 1 4.846-4.847h67.713a4.852 4.852 0 0 1 4.846 4.847v38.643a4.852 4.852 0 0 1-4.846 4.846h-10.82c-.926 0-1.68.754-1.68 1.68v11.24a2.68 2.68 0 0 1-1.815 2.557 2.761 2.761 0 0 1-.911.156zm-52.487-60.802a1.68 1.68 0 0 0-1.68 1.68v38.643c0 .927.754 1.68 1.68 1.68h37.945c1.485 0 2.867.666 3.792 1.827l10.31 12.95v-9.93a4.852 4.852 0 0 1 4.846-4.847h10.82c.926 0 1.68-.754 1.68-1.68v-38.643c0-.927-.754-1.68-1.68-1.68z"/><path id="qzbvp" d="M1171.945 1807.678l1.819-.263 7.749-22.145h5.23l7.698 22.146 1.819.262v3.06h-8.677v-3.06l1.767-.316-1.12-3.498h-8.256l-1.12 3.498 1.767.315v3.062h-8.676zm9.236-7.575h5.843l-2.87-8.974h-.104z"/><linearGradient id="qzbvj" x1="1128.71" x2="1194" y1="1813.65" y2="1748.36" gradientUnits="userSpaceOnUse"><stop offset="0" stop-color="#0693e9"/><stop offset=".01" stop-color="#0693e9"/><stop offset="1" stop-color="#9cc037"/><stop offset="1" stop-color="#9cc037"/></linearGradient></defs><g><g transform="translate(-1100 -1728)"><use fill="#122436" xlink:href="#qzbva"/></g><g transform="translate(-1100 -1728)"><use fill="#122436" xlink:href="#qzbvb"/></g><g transform="translate(-1100 -1728)"><use fill="#122436" xlink:href="#qzbvc"/></g><g transform="translate(-1100 -1728)"><use fill="#122436" xlink:href="#qzbvd"/></g><g transform="translate(-1100 -1728)"><use fill="#122436" xlink:href="#qzbve"/></g><g transform="translate(-1100 -1728)"><use fill="#122436" xlink:href="#qzbvf"/></g><g transform="translate(-1100 -1728)"><use fill="#122436" xlink:href="#qzbvg"/></g><g transform="translate(-1100 -1728)"><use fill="#122436" xlink:href="#qzbvh"/></g><g transform="translate(-1100 -1728)"><use fill="url(#qzbvj)" xlink:href="#qzbvi"/></g><g transform="translate(-1100 -1728)"><use fill="#fff" xlink:href="#qzbvk"/></g><g transform="translate(-1100 -1728)"><use fill="#122436" xlink:href="#qzbvl"/></g><g transform="translate(-1100 -1728)"><use fill="#fff" xlink:href="#qzbvm"/></g><g transform="translate(-1100 -1728)"><use fill="#fff" xlink:href="#qzbvn"/></g><g transform="translate(-1100 -1728)"><use fill="#122436" xlink:href="#qzbvo"/></g><g transform="translate(-1100 -1728)"><use fill="#fff" xlink:href="#qzbvp"/></g></g></svg>