<svg xmlns="http://www.w3.org/2000/svg" xmlns:xlink="http://www.w3.org/1999/xlink" width="222" height="132" viewBox="0 0 333 198"><defs><path id="rwmea" d="M1490.099 4070.098s-21.358 24.763-68.096 32.225c-71.181 11.364-69.737 99.675 7.384 117.661 77.121 17.987 56.601-11.241 165.718-3.747 109.119 7.494 82.624-73.948 42.944-99.09-41.035-26-2.526-72.346-63.445-82.273-47.867-7.8-84.505 35.224-84.505 35.224z"/><path id="rwmec" d="M1377.34 4231.44v-39.35h313.76v39.35z"/><path id="rwmed" d="M1360.116 4192.09h327.254"/><path id="rwmee" d="M1414.786 4175.257c-2.39 0-12.216-2.1-13.014-11.791-.408-4.95.934-8.271 2.231-11.483 1.552-3.843 3.016-7.473 1.785-13.747-.536-2.725-1.223-4.988-1.829-6.985-2.007-6.608-3.113-10.25 5.444-17.27.058-.043 4.821-3.64 4.89-8.342.073-5.026 6.83-10.545 12.91-10.545 1.554 0 2.997.349 4.287 1.036 2.418 1.287 3.885 2.894 4.485 4.91.99 3.323-.269 7.699-4.344 15.104-4.067 7.39-1.944 9.927-.07 12.167.6.715 1.164 1.39 1.472 2.178.147.373.314.747.485 1.13 1.245 2.787 2.792 6.255-2.267 13.159-2.874 3.923-2.313 8.249-1.77 12.43.508 3.924 1.034 7.98-1.323 11.608-.056.073-4.418 5.592-13.31 6.439z"/><path id="rwmef" d="M1427.202 4095.344c1.44 0 2.86.309 4.171 1.007 6.892 3.67 5.504 9.74.04 19.673-5.466 9.93.17 11.445 1.388 14.556 1.216 3.112 3.907 6.329-1.75 14.05-5.66 7.723 1.687 16.676-3.103 24.05 0 0-4.236 5.48-13.124 6.326a.332.332 0 0 1-.038.002c-.853 0-11.907-1.155-12.765-11.562-.874-10.613 6.324-13.488 4.012-25.257-2.312-11.77-7.455-15.002 3.528-24.015 0 0 4.911-3.645 4.982-8.531.07-4.736 6.54-10.3 12.66-10.3zm0-.5c-6.197 0-13.084 5.647-13.159 10.79-.068 4.577-4.733 8.104-4.779 8.139-8.706 7.142-7.583 10.84-5.544 17.55.604 1.992 1.29 4.249 1.822 6.962 1.218 6.2-.234 9.797-1.77 13.605-1.309 3.239-2.66 6.589-2.249 11.597.814 9.88 10.827 12.02 13.263 12.02h.023l.062-.003c9-.856 13.295-6.288 13.473-6.518 2.43-3.74 1.898-7.841 1.384-11.808-.56-4.324-1.09-8.41 1.725-12.251 5.146-7.022 3.564-10.563 2.293-13.41-.17-.38-.336-.75-.48-1.118-.323-.826-.9-1.517-1.513-2.248-1.822-2.178-3.887-4.646.096-11.886 4.111-7.471 5.375-11.901 4.366-15.296-.62-2.084-2.127-3.74-4.607-5.06-1.327-.707-2.809-1.065-4.406-1.065z"/><path id="rwmeg" d="M1589.814 4206.919c-.034-.021-3.445-2.167-4.604-2.82-24.627-13.861-38.318-38.26-40.696-72.527-.493.222-.8.394-.805.396a40.5 40.5 0 0 1-1.895.935l-.119.059c-8.997 4.138-18.47 4.584-22.126 4.584-1.269 0-1.994-.05-2.024-.052l-1.274-.015c-.004 0-.552.016-1.479.016-3.276 0-11.257-.208-17.226-2.054-2.134 2.306-4.998 3.876-9.536 5.964-3.228 1.484-6.378 4.324-9.426 7.069l-.88.792c1.19.522 3.437 2.86 5.29 5.568 2.256 3.298 5.704 9.695 3.452 15.488-5.244 13.484-35.159 26.304-36.429 26.843l-.196.083-.352-.558-5.084 2.948c.121.3.54 1.06 1.932 2.204.877.72 2.04 1.206 3.065 1.634 1.308.546 2.34.976 2.315 1.74-.029.9-1.104.9-1.458.9-.873 0-2.199-.221-3.877-.503l-.95-.158c-2.835-.47-4.234-2.677-4.158-6.563.033-1.708 1.55-1.841 2.013-1.841.04 0 .074 0 .103.002l4.294-3.222-.317-.504.138-.14s9.213-9.403 15.984-16.361c1.898-1.951 4.11-3.212 5.888-4.224 1.788-1.02 3.2-1.824 3.171-2.75-.043-1.417-3.302-3.584-11.248-7.483a46.956 46.956 0 0 1-3.885-2.14c-2.82 8.03-7.44 18.794-13.595 25.126-7.756 7.977-30.993 12.653-31.227 12.699l-.188.037-1.799-3.673.158-.125c14.481-11.432 23.625-13.072 25.263-13.282-4.62-37.295 3.888-43.75 5.46-44.61a1.611 1.611 0 0 1-.013-.605c.253-1.727 2.887-6.12 17.681-16.117 11.63-7.86 28.842-11.478 41.275-13.13l.087-.12c.836-1.035 1.411-2.267 1.76-3.764.297-1.28.397-2.59.495-3.855.254-3.314.494-6.443 4.357-7.602 1-.3 1.948-.452 2.818-.452 2.056 0 3.752.856 4.906 2.476.925 1.297 1.483 3.079 1.53 4.884.068 2.578.414 2.822.781 3.079.148.105.317.224.484.444.18.236.212.57.092.944-.187.58-.782 1.323-1.666 1.653a5.196 5.196 0 0 1-.29.95l.218-.008c.155-.023 18.166-2.51 26.321-6.165l.214-.096.163.309c1.585-.715 2.605-1.451 2.813-2.033a2.53 2.53 0 0 1 .431-.741c1.393-9.791 3.121-16.152 3.14-16.216l.03-.113.106-.048c.17-.077 17.271-7.704 40.25-7.704 17.057 0 32.956 4.104 47.256 12.198l.096.053.024.108c.05.21 4.886 21.283 1.784 46.615 0 0 1.582 0 1.932.004.676.007.983.287 1.094.997l.407 2.59-.066.068.325.153c.426.204.828.396 1.253.51h.002c.115 0 .302-.094.568-.278a44.799 44.799 0 0 0 1.845-1.375c.198-.154.401-.233.603-.233.234 0 .457.104.664.309.434.427.864.857 1.294 1.288l.983.982c.5.495.33.959.1 1.259-.227.298-.45.599-.673.9-.289.39-.578.78-.876 1.163-.23.298-.212.428-.086.593a.592.592 0 0 1 .112.255c.163 1.06.912 1.199 1.953 1.279.301.022.6.073.9.124.155.027.31.053.466.076.546.077.863.44.867.998a140.63 140.63 0 0 1 0 3.115c-.005.582-.358.982-.94 1.069-.349.05-.696.096-1.045.14a35.74 35.74 0 0 0-1.498.213c-.103.019-.264.147-.342.275-.075.127-.125.273-.176.417-.066.184-.133.375-.247.549-.185.29-.156.476.132.829.28.342.542.696.805 1.048.21.282.42.563.636.837.342.437.323.887-.055 1.268-.767.775-1.539 1.545-2.31 2.313-.21.209-.423.31-.652.31-.2 0-.399-.08-.605-.241-.37-.293-.749-.575-1.128-.856a62.499 62.499 0 0 1-.928-.7c-.132-.101-.237-.15-.329-.15a.395.395 0 0 0-.203.069c-.135.083-.296.182-.48.207-.82.115-1.008.626-1.064 1.526-.029.47-.106.939-.18 1.393l-.039.242c-.102.629-.49.955-1.15.968l-2.267.004-.589-.004c-.71-.011-1.062-.305-1.176-.985a42.767 42.767 0 0 1-.315-2.248c-.04-.365-.158-.533-.525-.75-.356-.21-.676-.31-.98-.31-.312 0-.619.112-.937.342a104.877 104.877 0 0 1-2.124 5.925c.413-.313.824-.628 1.233-.946.347-.27.696-.406 1.038-.406.393 0 .774.18 1.134.535.84.829 1.674 1.665 2.51 2.5.651.653 1.304 1.308 1.96 1.958.687.682.746 1.406.174 2.155-.45.589-.89 1.184-1.33 1.779-.565.76-1.129 1.522-1.71 2.269-.479.614-.524.995-.172 1.458a.88.88 0 0 1 .173.397c.35 2.248 1.971 2.548 4.056 2.709.595.046 1.188.146 1.763.245.301.05.602.102.904.146.955.137 1.486.749 1.497 1.724a289.5 289.5 0 0 1 0 6.11c-.013 1.03-.612 1.71-1.644 1.864-.679.1-1.359.188-2.04.274-.988.126-1.976.252-2.957.42-.273.048-.647.34-.836.653-.154.259-.258.553-.369.865-.124.348-.25.707-.458 1.028-.474.739-.269 1.24.275 1.909a61.44 61.44 0 0 1 1.594 2.077c.406.544.811 1.089 1.23 1.622.605.768.575 1.498-.088 2.169-1.337 1.352-2.683 2.693-4.029 4.036l-.506.505c-.363.362-.726.538-1.108.538-.34 0-.68-.138-1.04-.423-.733-.58-1.483-1.136-2.233-1.694-.604-.448-1.209-.897-1.805-1.358-.304-.236-.556-.345-.793-.345-.169 0-.34.055-.526.167-.257.157-.537.329-.846.372-1.762.25-2.186 1.418-2.298 3.222-.056.91-.207 1.826-.352 2.71l-.077.476c-.183 1.12-.846 1.676-2.026 1.697-.358.006-.716.008-1.075.008h-3.43c-.365 0-.728-.002-1.092-.007-1.289-.02-1.87-.505-2.073-1.732a83.531 83.531 0 0 1-.62-4.4c-.087-.79-.366-1.191-1.149-1.652-.74-.436-1.412-.648-2.053-.648-.916 0-1.787.435-2.742 1.37-.432.422-.932.769-1.416 1.105-.334.233-.669.465-.98.722-.337.276-.659.41-.982.41-.387 0-.752-.187-1.148-.59l-.829-.83a97.106 97.106 0 0 1-12.228 7.932l-.129.07zm29.213-22.57c2.725 0 4.921-2.216 4.924-4.941a4.735 4.735 0 0 0-.909-2.831 88.738 88.738 0 0 1-5.428 7.544c.471.15.944.226 1.413.229zm19.991-42.107c-1.349.005-2.326.993-2.32 2.35.003 1.32 1.032 2.362 2.344 2.37a2.388 2.388 0 0 0 2.383-2.393 2.292 2.292 0 0 0-.653-1.641c-.44-.442-1.06-.686-1.747-.686v-.25zm-133.117-19.777c8.137 5.685 22.282 6.542 30.06 6.542 2.454 0 4.475-.082 5.738-.151l.173-.01c.81-.046 1.347-.088 1.547-.105.273-.255.567-.496.894-.731-.332-7.397-.124-15.125.618-22.983l-.619.314-.64-1.213z"/><path id="rwmeh" d="M1589.47 4072.621c-23.19-.002-40.146 7.681-40.146 7.681s-1.734 6.326-3.142 16.255c-.196.23-.345.473-.433.72-.266.746-1.528 1.56-3.16 2.271l.847 1.601-1.01-1.908c-8.283 3.713-26.416 6.186-26.416 6.186s-.23.007-.62.023c.39-.788.462-1.404.462-1.404 1.22-.376 2.015-1.706 1.597-2.256-.588-.777-1.221-.094-1.316-3.667-.04-1.53-.48-3.336-1.483-4.746-.978-1.374-2.493-2.372-4.702-2.372-.818 0-1.73.137-2.747.442-5.112 1.534-3.59 6.584-4.68 11.274-.314 1.348-.842 2.667-1.808 3.864-.051.064-.096.131-.145.197-12.418 1.643-29.647 5.247-41.273 13.103-20.027 13.534-17.488 16.638-17.488 16.638s-10.578 4.09-5.5 44.708c0 0-9.31.564-25.387 13.258l1.625 3.32s23.305-4.615 31.096-12.629c6.37-6.553 11.092-18.016 13.64-25.327a46.993 46.993 0 0 0 4.13 2.291c19.933 9.78 9.027 7.9 2.257 14.857-6.77 6.958-15.984 16.36-15.984 16.36l.335.531-4.552 3.416s-.068-.008-.18-.008c-.476 0-1.734.14-1.762 1.596-.036 1.8.106 5.677 3.949 6.312 2.164.357 3.78.66 4.786.66.78 0 1.192-.183 1.208-.66.035-1.093-3.315-1.552-5.29-3.173-1.974-1.622-2.068-2.516-2.068-2.516l5.462-3.167.368.582s31.028-13.163 36.294-26.703c3.53-9.079-7.216-20.823-8.933-20.824a.217.217 0 0 0-.154.051c-2.451 2.208-4.937 4.927-8.577 5.632 5.85-1.34 12.402-10.714 19.356-13.913 4.694-2.16 7.42-3.705 9.459-5.909l-.692-.38c6.008 2.13 14.666 2.357 18.098 2.357.936 0 1.484-.017 1.484-.017l1.288.017s.73.051 2.006.051c3.964 0 13.18-.495 22.015-4.558l.125-.063a5.865 5.865 0 0 1-.073-.67c.019.223.037.447.073.67a40.266 40.266 0 0 0 1.878-.925s.452-.254 1.153-.549c1.755 26.193 11.03 56.041 40.592 72.68 1.179.663 4.615 2.826 4.615 2.826a96.203 96.203 0 0 0 12.37-8.043c.327.33.659.654.985.985.322.327.635.517.97.517.256 0 .526-.11.823-.355.77-.634 1.673-1.12 2.38-1.812.94-.919 1.875-1.44 2.918-1.44.672 0 1.388.215 2.179.681.849.5 1.174.961 1.27 1.84.163 1.466.38 2.93.619 4.386.185 1.12.675 1.506 1.83 1.524.367.005.735.007 1.103.007.564 0 1.128-.004 1.692-.004h.05c.555 0 1.108.005 1.663.005.36 0 .72-.002 1.08-.009 1.063-.02 1.619-.476 1.784-1.487.169-1.05.362-2.104.427-3.163.106-1.712.473-3.164 2.513-3.453.26-.037.517-.195.75-.338.233-.14.449-.204.657-.204.325 0 .63.154.946.398 1.335 1.033 2.716 2.006 4.039 3.053.316.25.607.37.885.37.32 0 .626-.16.932-.465 1.514-1.51 3.03-3.02 4.534-4.54.572-.579.59-1.178.069-1.839-.958-1.218-1.843-2.493-2.821-3.695-.578-.709-.851-1.333-.291-2.204.367-.569.474-1.3.823-1.885.206-.343.63-.705 1.007-.77 1.658-.286 3.336-.448 5.002-.695.898-.134 1.42-.7 1.43-1.619.024-2.035.02-4.072.002-6.106-.01-.827-.424-1.356-1.284-1.479-.883-.128-1.761-.322-2.65-.39-2.004-.153-3.896-.416-4.283-2.92a.664.664 0 0 0-.125-.283c-.491-.645-.28-1.183.173-1.763 1.036-1.33 2.015-2.706 3.039-4.046.515-.675.425-1.254-.152-1.826-1.493-1.482-2.972-2.979-4.47-4.458-.307-.304-.625-.463-.958-.463-.283 0-.577.116-.884.354-.646.5-1.294.997-1.948 1.485.913-2.265 1.735-4.54 2.472-6.815.368-.283.743-.439 1.15-.439.34 0 .705.11 1.107.346.432.254.598.49.647.937.082.748.192 1.493.314 2.235.095.57.344.766.933.775.188.003.376.004.564.004l.858-.002.875.002c.183 0 .366 0 .548-.004.54-.01.825-.242.909-.758.086-.535.184-1.07.217-1.61.055-.872.24-1.612 1.28-1.759.133-.018.264-.099.382-.172a.64.64 0 0 1 .334-.104c.166 0 .322.078.483.202.679.526 1.384 1.023 2.057 1.556.162.127.309.187.45.187.165 0 .319-.08.475-.236a457.98 457.98 0 0 0 2.31-2.313c.292-.295.3-.599.036-.936-.49-.62-.94-1.27-1.438-1.882-.295-.36-.433-.679-.148-1.122.186-.29.242-.663.419-.96.105-.175.32-.359.514-.393.843-.145 1.699-.228 2.546-.354.458-.068.724-.357.729-.824a140.27 140.27 0 0 0 0-3.11c-.004-.422-.215-.69-.652-.754-.452-.064-.9-.164-1.351-.198-1.02-.078-1.984-.212-2.181-1.488a.328.328 0 0 0-.064-.144c-.25-.328-.142-.6.088-.897.528-.678 1.026-1.378 1.548-2.06.262-.345.216-.639-.077-.93-.761-.756-1.514-1.519-2.277-2.27-.156-.156-.318-.237-.488-.237-.145 0-.294.058-.45.18-.61.472-1.223.943-1.856 1.382-.204.142-.485.325-.698.325a.293.293 0 0 1-.08-.009c-.567-.154-1.1-.44-1.64-.689-.045-.02-.04-.16-.053-.246-.137-.863-.273-1.726-.408-2.59-.091-.587-.285-.78-.85-.786a99.49 99.49 0 0 0-1.091-.005l-1.121.002c3.204-25.707-1.743-46.809-1.743-46.809-16.403-9.284-32.938-12.165-47.133-12.165zm-137.154 75.255a67.406 67.406 0 0 1-2.538-2.237c-4.745-4.623-7.971-9.116-7.971-9.116s4.572 6.104 10.509 11.353zm83.643-18.62c-8.628 0-22.566-1-30.545-6.833l38.364-18.626.64 1.21c.279-.14.545-.277.806-.41-.677 6.98-1.044 15.024-.655 23.537-.35.245-.7.521-1.042.85 0 0-.658.058-1.81.121-.008.064-.014.14-.022.205l.018-.205c-1.336.073-3.337.151-5.754.151zm103.098 17.955h-.017a2.605 2.605 0 0 1-2.593-2.619c-.004-1.493 1.086-2.595 2.57-2.6h.01c1.524 0 2.65 1.096 2.649 2.576a2.625 2.625 0 0 1-2.62 2.643zm-179.602 5.873l-.026-.014s-.028-.018-.07-.042c.032.017.064.038.096.056zm159.602 31.515h-.031a5.114 5.114 0 0 1-1.83-.36 88.128 88.128 0 0 0 5.826-8.093 4.976 4.976 0 0 1 1.179 3.262c-.003 2.88-2.298 5.191-5.144 5.191zm-29.586-112.478c17.102 0 33.043 4.115 47.379 12.23l.19.108.05.212c.05.21 4.859 21.174 1.82 46.423h.558c.366 0 .73 0 1.097.004.806.01 1.207.37 1.338 1.21l.404 2.565.125.06c.4.191.779.371 1.168.482.047-.014.159-.063.403-.232a44.868 44.868 0 0 0 1.835-1.368c.243-.188.497-.284.756-.284.302 0 .584.128.84.38.438.432.874.87 1.309 1.304.323.324.645.646.968.966.482.48.527 1.06.122 1.59-.226.296-.448.596-.671.897-.29.391-.58.783-.88 1.167-.125.161-.126.215-.126.215s.004.024.042.074a.85.85 0 0 1 .16.37c.125.8.56.975 1.725 1.064.319.026.63.078.93.13.15.025.303.051.454.072.67.097 1.075.562 1.08 1.243.012 1.04.013 2.081 0 3.122-.007.705-.45 1.208-1.154 1.313-.346.051-.693.096-1.04.14-.494.062-1.003.128-1.49.211a.444.444 0 0 0-.174.156c-.061.101-.108.235-.16.376-.065.187-.14.4-.268.6-.101.156-.142.22.114.536.284.347.552.707.82 1.067.206.275.41.551.623.821.424.54.398 1.121-.073 1.597-.741.75-1.488 1.495-2.235 2.24l-.077.075c-.255.254-.533.382-.827.382-.256 0-.512-.098-.76-.296a46.743 46.743 0 0 0-1.125-.852 59.21 59.21 0 0 1-.93-.698c-.122-.096-.17-.099-.176-.099a.21.21 0 0 0-.074.032c-.142.087-.337.206-.572.24-.603.084-.793.375-.85 1.293-.03.483-.108.957-.183 1.415l-.04.245c-.085.527-.397 1.16-1.394 1.178-.185.003-.371.004-.557.004h-.44l-.435-.002-.427.001-.431.001c-.19 0-.382 0-.572-.004-.835-.012-1.285-.39-1.418-1.194a42.318 42.318 0 0 1-.32-2.262c-.028-.267-.084-.373-.402-.559-.316-.187-.596-.278-.852-.278-.242 0-.474.08-.726.248a105.112 105.112 0 0 1-1.781 5.032c.176-.135.35-.27.525-.407.393-.303.793-.458 1.19-.458.462 0 .903.204 1.31.608.852.84 1.696 1.685 2.54 2.531.644.644 1.286 1.286 1.93 1.927.985.976.65 1.89.198 2.484-.447.585-.885 1.177-1.323 1.768-.557.752-1.133 1.53-1.72 2.282-.45.578-.412.833-.17 1.152.116.152.196.332.223.51.32 2.077 1.724 2.338 3.827 2.5.604.046 1.2.147 1.779.245.302.052.603.104.905.147 1.077.154 1.7.872 1.712 1.968.02 2.17.02 4.171-.001 6.117-.013 1.15-.708 1.937-1.858 2.108-.68.101-1.362.187-2.044.274-.97.124-1.972.251-2.945.42-.2.034-.517.288-.663.533-.143.24-.244.523-.351.824-.128.36-.26.732-.481 1.076-.363.564-.305.927.259 1.617a60.73 60.73 0 0 1 1.592 2.077c.407.545.813 1.091 1.234 1.624.675.86.637 1.746-.108 2.5a771.728 771.728 0 0 1-4.336 4.342l-.2.201c-.413.41-.833.611-1.285.611-.398 0-.79-.157-1.194-.478-.73-.576-1.491-1.14-2.226-1.687-.606-.45-1.213-.9-1.81-1.363-.258-.2-.461-.293-.64-.293-.121 0-.251.043-.408.14-.254.154-.571.347-.93.397-1.608.228-1.973 1.227-2.082 2.99-.06.928-.211 1.853-.357 2.75l-.077.461c-.201 1.241-.963 1.882-2.267 1.907-.363.007-.727.01-1.09.01l-.834-.004-.828-.002h-.051l-.845.002-.847.002c-.37 0-.741-.002-1.11-.007-1.403-.022-2.095-.603-2.316-1.943a84.073 84.073 0 0 1-.622-4.413c-.078-.713-.31-1.04-1.027-1.463-.701-.413-1.332-.613-1.926-.613-.846 0-1.662.412-2.568 1.298-.446.437-.956.791-1.45 1.134-.34.236-.661.46-.963.708-.383.314-.756.468-1.14.468-.451 0-.885-.218-1.327-.666-.172-.176-.347-.35-.522-.524l-.15-.149a97.25 97.25 0 0 1-12.085 7.818l-.258.141-.248-.157c-.034-.02-3.44-2.162-4.595-2.812-13.605-7.657-24.011-18.752-30.93-32.975-5.474-11.258-8.793-24.509-9.866-39.39a8.683 8.683 0 0 0-.471.24c-.577.305-1.197.61-1.894.934l-.133.066c-.152.07-.305.14-.456.206l-.018.01c-8.891 3.955-18.141 4.388-21.75 4.388a31.42 31.42 0 0 1-2.013-.05l-1.266-.018s-.554.017-1.5.017c-3.26 0-11.163-.205-17.147-2.02-2.151 2.276-5.016 3.84-9.508 5.906-3.192 1.468-6.328 4.294-9.361 7.027l-.62.556c1.403.836 3.534 3.235 5.075 5.49 2.28 3.336 5.763 9.813 3.47 15.71-5.281 13.578-35.29 26.44-36.564 26.98l-.391.166-.227-.359-.111-.175-4.675 2.712c.19.347.655.998 1.765 1.91.85.697 1.994 1.176 3.004 1.597 1.396.583 2.498 1.043 2.468 1.98-.025.757-.6 1.142-1.708 1.142-.894 0-2.161-.213-3.915-.507l-.952-.159c-2.978-.49-4.448-2.784-4.368-6.815.03-1.537 1.188-2.086 2.262-2.086l.024.001 4.039-3.032-.09-.14-.211-.335.277-.283c.092-.093 9.29-9.48 15.983-16.359 1.925-1.978 4.153-3.247 5.944-4.268 1.648-.938 3.07-1.75 3.046-2.525-.05-1.625-5.644-4.585-11.108-7.266a46.791 46.791 0 0 1-3.643-1.99c-2.837 8.021-7.437 18.64-13.55 24.926-7.808 8.033-30.398 12.58-31.355 12.77l-.377.075-.17-.345-1.625-3.32-.178-.363.317-.25c14.076-11.112 22.935-12.996 25.138-13.305-4.421-36.02 3.495-43.29 5.465-44.518a1.984 1.984 0 0 1 .015-.514c.258-1.768 2.914-6.236 17.788-16.288 11.634-7.863 28.822-11.493 41.274-13.156.01-.015.023-.029.034-.044.81-1.005 1.37-2.203 1.71-3.663.293-1.26.393-2.562.49-3.819.26-3.4.507-6.613 4.534-7.82 1.023-.307 1.996-.464 2.89-.464 2.14 0 3.907.893 5.109 2.581.953 1.338 1.527 3.17 1.576 5.024.064 2.452.36 2.66.675 2.881.156.11.35.246.54.497.23.303.276.72.13 1.172-.195.606-.796 1.376-1.688 1.758a5.14 5.14 0 0 1-.136.484c2.055-.29 18.423-2.69 26.067-6.117l.428-.192.162.307c2.027-.945 2.4-1.605 2.467-1.792a2.75 2.75 0 0 1 .428-.759c1.394-9.767 3.119-16.115 3.137-16.179l.06-.226.215-.097c.17-.077 17.318-7.726 40.348-7.726zm-83.072 50.38c8.13 5.43 21.925 6.255 29.56 6.255 2.45 0 4.467-.082 5.727-.15l.168-.01c.713-.04 1.214-.077 1.459-.096.232-.214.478-.416.745-.614-.318-7.225-.121-14.766.583-22.43l-.435.217-.23-.432-.413-.783zm132.658 24.21c1.168 0 2.118-.96 2.119-2.144a2.046 2.046 0 0 0-.581-1.464c-.394-.393-.95-.61-1.575-.61-1.205.003-2.077.885-2.073 2.097.003 1.183.924 2.115 2.097 2.121l.013.5zm-21.01 37.27c.328.076.656.116.98.118l.03.5v-.5c2.558 0 4.64-2.105 4.644-4.692a4.504 4.504 0 0 0-.654-2.376 89.89 89.89 0 0 1-5 6.95z"/><path id="rwmei" d="M1495.752 4147.31h40.5v41.988h-33.096l-7.404 10.993z"/><path id="rwmej" d="M1536.002 4147.56v41.488h-32.979l-7.021 10.425v-51.913zm.5-.5h-41v54.05l.915-1.358 6.872-10.204h33.213v-41.988z"/><path id="rwmek" d="M1466.802 4110.434c-.188 0-.355-.062-.493-.124-3.485-1.56-6.013-3.29-7.958-5.447-1.64-1.817-2.411-3.824-2.431-6.317-.006-.815 0-2.81.007-4.99.009-2.847.019-6.01.004-7.275-.01-.643.23-.938.856-1.053 3.11-.571 6.214-1.178 9.318-1.784l.197-.038a2.424 2.424 0 0 1 .963 0l1.349.264c2.69.529 5.379 1.056 8.078 1.54.795.145.947.535.943 1.159l-.007 1.34c-.02 3.667-.041 7.459.017 11.186.026 1.797-.477 3.38-1.538 4.842-2.44 3.355-5.882 5.225-8.927 6.612a.894.894 0 0 1-.378.085z"/><path id="rwmel" d="M1466.783 4083.606c.143 0 .285.015.433.044 3.141.615 6.281 1.24 9.431 1.807.607.11.741.338.738.91-.022 4.176-.055 8.354.01 12.531.026 1.766-.483 3.304-1.49 4.69-2.254 3.1-5.422 4.981-8.829 6.533a.659.659 0 0 1-.274.062.968.968 0 0 1-.392-.102c-2.95-1.32-5.687-2.96-7.874-5.386-1.568-1.739-2.347-3.705-2.366-6.15-.014-1.88.037-10.033.01-12.268-.006-.508.132-.708.652-.804 3.177-.584 6.347-1.204 9.517-1.823a2.25 2.25 0 0 1 .434-.044zm0-.5c-.175 0-.348.018-.529.053-3.147.615-6.354 1.242-9.513 1.823-.743.137-1.07.538-1.06 1.301.014 1.256.004 4.425-.004 7.22a732.857 732.857 0 0 0-.007 5.044c.02 2.522.836 4.642 2.495 6.483 1.97 2.183 4.523 3.933 8.041 5.507.162.072.36.146.596.146.162 0 .324-.036.482-.108 3.073-1.399 6.55-3.288 9.024-6.693 1.096-1.507 1.615-3.14 1.586-4.992-.058-3.742-.037-7.55-.016-11.233l.007-1.288c.004-.85-.329-1.257-1.15-1.405-2.733-.49-5.508-1.037-8.19-1.563l-1.233-.242a2.767 2.767 0 0 0-.529-.053z"/><path id="rwmem" d="M1410.486 4206.224c-.759 0-1.652-.117-2.655-.35-1.784-.411-3.153-1.491-3.958-3.123-.88-1.787-.916-4.01-.445-5.046.03-.057.615-1.17 1.943-1.17.262 0 .54.046.821.135l5.172-1.84 1.26 2.57-5.885 2.279c.421 2.022 2.443 2.947 4.234 3.768.671.306 1.305.596 1.78.92a.685.685 0 0 1 .261.79c-.077.25-.488 1.067-2.527 1.067z"/><path id="rwmen" d="M1411.238 4195.14l1.04 2.125-5.82 2.254c.472 3.128 4.44 3.886 6.154 5.055.477.325.138 1.4-2.126 1.4-.682 0-1.538-.099-2.599-.344-4.584-1.056-4.936-6.274-4.23-7.821 0 0 .523-1.024 1.713-1.024.246 0 .52.045.825.15l5.043-1.795zm.253-.62l-.42.148-4.886 1.74a2.914 2.914 0 0 0-.815-.123c-1.479 0-2.132 1.244-2.159 1.297-.517 1.13-.488 3.401.437 5.278.84 1.703 2.266 2.83 4.127 3.259 1.021.235 1.933.355 2.711.355 2.211 0 2.677-.953 2.767-1.245a.932.932 0 0 0-.36-1.068c-.49-.336-1.134-.63-1.815-.943-1.672-.764-3.553-1.625-4.044-3.386l5.425-2.1.508-.198-.24-.49-1.04-2.123z"/><path id="rwmeo" d="M1414.824 4175.006c-.452.043-11.929-.948-12.803-11.561-.874-10.612 6.324-13.487 4.011-25.256-2.312-11.77-7.454-15.002 3.53-24.015 0 0 4.91-3.646 4.981-8.531.085-5.85 9.94-12.962 16.831-9.292 6.89 3.67 5.503 9.74.038 19.673-5.465 9.93.171 11.446 1.39 14.556 1.215 3.112 3.906 6.329-1.752 14.05-5.659 7.723 1.688 16.676-3.102 24.05 0 0-4.236 5.48-13.124 6.326z"/><path id="rwmep" d="M1619.086 4204.994c-.932 0-1.864.01-2.795-.003-1.156-.018-1.646-.404-1.83-1.524a83.336 83.336 0 0 1-.619-4.386c-.096-.88-.422-1.341-1.27-1.84-2.02-1.19-3.552-.753-5.097.758-.707.693-1.61 1.18-2.38 1.813-.686.563-1.225.414-1.794-.162a380.456 380.456 0 0 0-4.536-4.537c-.543-.534-.575-1.062-.138-1.65 1.005-1.354 1.991-2.725 3.032-4.052.483-.616.403-1.126.236-1.872-.51-2.292-1.906-3.143-4.119-3.121-.85.009-1.702-.222-2.555-.328-1.189-.146-1.66-.633-1.666-1.798-.01-1.931.013-3.863-.01-5.794-.01-.95.422-1.5 1.341-1.647 1.695-.27 3.39-.545 5.093-.756.597-.074.98-.258 1.075-.88a.68.68 0 0 1 .12-.284c1.364-1.902.862-3.514-.677-5.06-.698-.701-1.206-1.587-1.819-2.374-.479-.615-.484-1.22.053-1.765a298.997 298.997 0 0 1 4.612-4.607c.583-.567 1.23-.495 1.868-.008 1.315 1 2.633 2 3.98 2.957.31.22.802.46 1.105.365 1.045-.331 2.084-.735 3.037-1.271.304-.17.4-.824.474-1.275.244-1.493.431-2.994.645-4.492.134-.957.65-1.473 1.658-1.466 1.966.013 3.933-.011 5.898.01 1.11.01 1.488.39 1.668 1.543l.801 5.085c.026.168.017.44.108.484 1.057.488 2.102 1.049 3.214 1.35.428.115 1.078-.305 1.53-.618 1.243-.865 2.446-1.788 3.643-2.715.67-.52 1.276-.451 1.843.109 1.497 1.479 2.977 2.975 4.47 4.458.577.572.667 1.15.151 1.826-1.023 1.34-2.003 2.715-3.039 4.046-.452.58-.663 1.117-.173 1.763.061.08.111.183.125.282.388 2.505 2.28 2.768 4.283 2.922.89.068 1.767.262 2.651.389.86.123 1.274.652 1.283 1.479.02 2.034.022 4.07 0 6.106-.012.919-.533 1.485-1.432 1.619-1.665.247-3.343.409-5 .695-.378.065-.802.427-1.008.77-.349.584-.457 1.316-.823 1.885-.56.87-.287 1.494.29 2.203.98 1.203 1.864 2.478 2.822 3.696.52.66.503 1.259-.07 1.839-1.504 1.52-3.019 3.029-4.534 4.54-.57.569-1.138.63-1.816.095-1.324-1.048-2.704-2.02-4.039-3.053-.518-.401-1.008-.556-1.603-.194-.233.143-.489.3-.75.338-2.04.289-2.407 1.74-2.513 3.453-.066 1.06-.258 2.113-.427 3.162-.164 1.012-.722 1.468-1.784 1.488-.93.017-1.862.003-2.793.004zm-.104-30.642c-2.916.009-5.056 2.173-5.048 5.104.008 2.85 2.261 5.126 5.091 5.143 2.861.018 5.173-2.301 5.176-5.191.003-2.91-2.22-5.066-5.219-5.056z"/><path id="rwmeq" d="M1639.07 4157.6c-.474 0-.948.004-1.422-.003-.588-.008-.838-.205-.932-.775a40.99 40.99 0 0 1-.315-2.235c-.05-.448-.215-.682-.647-.937-1.03-.605-1.81-.383-2.596.387-.361.352-.821.601-1.213.923-.35.287-.624.211-.913-.082a201.503 201.503 0 0 0-2.311-2.312c-.276-.27-.292-.54-.07-.84.513-.689 1.014-1.388 1.545-2.064.245-.313.205-.573.12-.953-.26-1.167-.971-1.6-2.098-1.59-.433.006-.867-.112-1.302-.166-.605-.075-.844-.322-.848-.916-.005-.983.007-1.968-.005-2.95-.005-.486.215-.766.683-.84.863-.138 1.726-.277 2.593-.385.305-.038.499-.132.548-.448a.344.344 0 0 1 .062-.146c.694-.968.438-1.789-.346-2.576-.355-.357-.613-.808-.926-1.21-.244-.313-.247-.62.028-.898.775-.79 1.555-1.575 2.348-2.347.297-.289.625-.252.95-.004.67.51 1.343 1.02 2.029 1.506.157.112.408.235.563.186a8.135 8.135 0 0 0 1.546-.647c.155-.087.204-.42.24-.649.126-.76.22-1.526.329-2.288.07-.488.33-.75.845-.747 1.002.006 2.003-.005 3.005.004.564.006.758.2.85.787.134.863.27 1.726.407 2.59.014.085.009.225.055.246.539.25 1.07.535 1.638.688.217.06.548-.155.779-.315.632-.44 1.246-.91 1.855-1.383.342-.265.649-.23.938.055.763.753 1.517 1.516 2.277 2.271.294.292.34.587.077.931-.522.682-1.02 1.382-1.548 2.06-.23.295-.338.57-.088.898a.338.338 0 0 1 .065.143c.197 1.277 1.16 1.41 2.18 1.488.452.036.9.134 1.35.2.438.061.649.331.653.752a140.18 140.18 0 0 1 0 3.11c-.005.468-.27.757-.728.824-.848.126-1.703.21-2.547.355-.192.033-.408.217-.514.391-.178.298-.232.671-.42.961-.284.444-.145.761.15 1.122.498.613.948 1.262 1.436 1.883.266.336.257.641-.035.936-.766.774-1.538 1.544-2.31 2.312-.291.29-.58.322-.924.05-.674-.534-1.378-1.03-2.058-1.557-.264-.203-.514-.283-.815-.097-.12.072-.25.153-.384.172-1.038.147-1.225.886-1.278 1.758-.035.54-.132 1.076-.218 1.611-.084.515-.368.747-.91.757-.473.008-.948.002-1.422.002zm-.052-15.608c-1.484.005-2.575 1.107-2.57 2.601a2.605 2.605 0 0 0 2.592 2.62 2.627 2.627 0 0 0 2.636-2.645c.002-1.483-1.131-2.58-2.658-2.576z"/><path id="rwmer" d="M1589.815 4206.919c-.034-.021-3.446-2.167-4.606-2.82-31.377-17.66-39.526-50.41-40.836-74.773-1.419-26.37 4.65-48.864 4.711-49.09l.031-.112.106-.048c.17-.077 17.272-7.705 40.25-7.705 17.057 0 32.956 4.104 47.255 12.197l.096.054.024.108c.051.213 4.986 21.7 1.692 47.369-3.042 23.707-13.92 55.932-48.47 74.828l-.129.07z"/><path id="rwmes" d="M1589.47 4072.621c14.196 0 30.73 2.881 47.134 12.165 0 0 20.05 85.441-46.656 121.921 0 0-3.437-2.162-4.616-2.825-60.55-34.079-36.007-123.578-36.007-123.578s16.956-7.683 40.146-7.683zm0-.5c-23.031 0-40.181 7.65-40.352 7.727l-.213.097-.062.226c-.061.224-6.141 22.76-4.72 49.17.836 15.528 4.06 29.345 9.586 41.067 6.918 14.675 17.475 26.084 31.378 33.91 1.155.65 4.56 2.79 4.595 2.812l.248.156.258-.14c15.298-8.367 27.284-20.018 35.626-34.63 6.669-11.684 11.033-25.27 12.972-40.386 3.299-25.712-1.645-47.244-1.696-47.458l-.05-.213-.19-.109c-14.337-8.115-30.277-12.229-47.38-12.229z"/><path id="rwmet" d="M1590.38 4192.196c55.18-30.177 38.595-100.854 38.595-100.854-35.736-20.228-72.2-3.709-72.2-3.709s-20.302 74.035 29.787 102.226c.975.55 3.818 2.337 3.818 2.337z"/><path id="rwmeu" d="M1611.743 4134.695c-1.519 11.56-12.119 19.698-23.677 18.181-11.559-1.519-19.698-12.12-18.18-23.678 1.518-11.553 12.118-19.689 23.677-18.172 11.56 1.518 19.7 12.113 18.18 23.67z"/><path id="rwmev" d="M1597.203 4127.293h.646c1.283.002 2.251.961 2.255 2.246l.017 11.212c0 1.27-.971 2.239-2.249 2.243-1.745.006-3.49.007-5.237.011-2.941.005-5.89.009-8.832.012-1.084.003-1.972-.675-2.213-1.696a2.309 2.309 0 0 1-.063-.543c-.011-3.733-.016-7.467-.019-11.201 0-.953.44-1.641 1.297-2.063.307-.153.64-.206.982-.2h.608v-.172l-.001-2.067c-.004-3.157 2.194-5.79 5.307-6.352 3.378-.61 6.732 1.675 7.37 5.04.08.421.112.852.123 1.284.023.685.006 1.375.009 2.066zm-13.4 1.263c-.663 0-1.06.401-1.06 1.063l.018 11.083c.001.681.4 1.074 1.085 1.074 4.626-.008 9.251-.014 13.88-.023.059 0 .119 0 .177-.003.561-.009.981-.426.981-.983l-.021-11.259c0-.382-.174-.688-.519-.855a1.313 1.313 0 0 0-.558-.115c-2.33-.004-4.663.004-6.992.005-2.327.007-4.66.008-6.991.013zm12.164-1.396c-.003-.731.016-1.466-.011-2.199a5.96 5.96 0 0 0-.155-1.19c-.665-2.652-3.249-4.3-5.947-3.814-2.319.421-4.091 2.411-4.206 4.761-.041.83-.014 1.665-.015 2.496.001.029.01.058.015.092 3.435-.005 6.865-.013 10.31-.015.002-.055.011-.088.009-.131z"/><path id="rwmew" d="M1588.954 4137.162c0-.42.003-.843-.005-1.265a.329.329 0 0 0-.094-.197c-.989-.862-1.369-1.942-1.032-3.204.34-1.27 1.214-2.028 2.512-2.262 1.68-.299 3.328.932 3.542 2.631.142 1.135-.235 2.074-1.103 2.817a.266.266 0 0 0-.102.227c.002.773.007 1.546.004 2.32-.002.903-.602 1.656-1.462 1.84-1.168.247-2.24-.616-2.257-1.82-.004-.365 0-.728-.003-1.087zm1.24-.334v1.412a.626.626 0 0 0 .458.608c.408.113.783-.189.786-.629.002-.89.002-1.78-.006-2.675-.006-.308.11-.52.374-.685.675-.42.996-1.22.812-1.999a1.875 1.875 0 0 0-1.613-1.419 1.869 1.869 0 0 0-1.953 1.242 1.844 1.844 0 0 0 .782 2.187c.248.153.365.356.36.65-.01.434 0 .871 0 1.308z"/><path id="rwmex" d="M1503.023 4189.048h32.98v-41.488h-40v51.913z"/><path id="rwmey" d="M1518.524 4163.669h.255a.87.87 0 0 1 .891.887l.008 4.427a.872.872 0 0 1-.889.886c-.69.003-1.378.003-2.068.005l-3.489.004a.87.87 0 0 1-.898-.884c-.004-1.473-.006-2.948-.007-4.423 0-.377.174-.649.512-.815a.833.833 0 0 1 .387-.079h.241v-.885a2.524 2.524 0 0 1 2.095-2.509c1.333-.241 2.658.662 2.91 1.99.032.167.044.337.05.508.007.272.001.543.002.817zm-5.292.498c-.26 0-.418.159-.418.421l.007 4.376c.001.269.158.425.43.425l5.48-.01.07-.001a.382.382 0 0 0 .387-.389l-.009-4.445a.354.354 0 0 0-.204-.338.53.53 0 0 0-.22-.046c-.92-.001-1.84.002-2.76.002-.92.003-1.842.004-2.763.005zm4.804-.551c0-.289.007-.579-.004-.869a2.034 2.034 0 0 0-2.41-1.976 2.032 2.032 0 0 0-1.66 1.88c-.017.329-.006.659-.006.987 0 .011.004.022.005.036 1.357-.002 2.711-.005 4.072-.006 0-.021.004-.035.003-.052z"/><path id="rwmez" d="M1515.268 4167.567c0-.166 0-.333-.002-.5a.127.127 0 0 0-.037-.077c-.391-.341-.541-.768-.41-1.266.135-.501.48-.801.994-.893.663-.118 1.314.369 1.398 1.04.057.447-.093.819-.434 1.112a.103.103 0 0 0-.042.09c0 .304.003.61.002.916a.731.731 0 0 1-.577.725.733.733 0 0 1-.891-.718c-.002-.144 0-.288-.001-.43zm.488-.132v.558c.003.116.075.21.182.24.16.044.309-.074.31-.25 0-.351 0-.702-.003-1.055a.283.283 0 0 1 .149-.27.728.728 0 0 0 .32-.79.739.739 0 0 0-.637-.56.737.737 0 0 0-.771.49.73.73 0 0 0 .308.864c.099.06.145.14.142.256-.003.172 0 .344 0 .517z"/><path id="rwmeA" d="M1530.486 4177.838c0 .706 0 1.414.002 2.12-.191.434-.586.293-.906.293-5.862.008-11.725.006-17.59.006-3.212 0-6.425.003-9.635-.005-.305 0-.671.116-.841-.295l.002-2.119c.495-1.006.977-2.017 1.49-3.015a2.36 2.36 0 0 0 .26-1.117 8444.32 8444.32 0 0 1-.004-15.1c0-2.125 1.104-3.234 3.226-3.234 6.35-.003 12.702-.003 19.052 0 2.087 0 3.196 1.111 3.196 3.197.002 4.644.014 9.289-.007 13.934-.005 1.132.026 2.242.479 3.3.14.322.198.665-.233.795-.384.117-.515-.178-.625-.486-.457-1.274-.461-1.271-1.79-1.271-7.278 0-14.558.005-21.837-.011-.526-.001-.822.133-1.031.635-.306.735-.701 1.434-1.057 2.15-.067.135-.144.268-.186.41-.293.998-.063 1.308.954 1.308 8.49 0 16.98.003 25.467-.008.249 0 .637.21.724-.283.093-.532-.19-.592-.633-.59-4.73.012-9.46.008-14.19.008h-10.433c-.173 0-.347 0-.518-.007-.296-.01-.523-.147-.53-.454-.008-.303.215-.453.505-.481.172-.017.346-.01.518-.01 8.403 0 16.807 0 25.208.005.346 0 .759-.128.963.325zm-14.483-3.943c3.694 0 7.388-.01 11.08.01.512.004.707-.091.705-.661-.023-4.949-.011-9.896-.015-14.843 0-1.418-.691-2.105-2.112-2.105-6.436-.004-12.875-.004-19.312 0-1.416 0-2.117.695-2.12 2.105-.003 4.948.008 9.895-.014 14.843-.004.57.193.664.704.661 3.695-.02 7.389-.01 11.084-.01z"/><path id="rwmeB" d="M1516.004 4157.571h9.979c.869 0 .928.06.928.913.002 3.78.002 7.56-.001 11.34 0 .193.003.393-.041.578-.05.208-.215.322-.433.317-.218-.005-.38-.12-.415-.335a3.653 3.653 0 0 1-.04-.645c-.001-3.543-.01-7.086.008-10.628.002-.49-.107-.669-.64-.667-6.22.02-12.44.02-18.661 0-.556-.002-.678.175-.675.697.019 3.932.023 7.864-.003 11.795-.004.581.167.715.728.713 6.287-.017 12.573-.012 18.857-.012h.518c.354-.002.775-.02.77.46-.001.48-.423.454-.775.454-6.74 0-13.48-.003-20.218.008-.58.001-.81-.199-.807-.793.015-4.47.015-8.942 0-13.415-.002-.593.232-.792.812-.789 3.37.017 6.739.01 10.109.01z"/><path id="rwmeC" d="M1477.385 4086.366c.004-.57-.131-.8-.737-.909-3.151-.567-6.29-1.192-9.432-1.807a2.177 2.177 0 0 0-.866 0c-3.17.62-6.341 1.24-9.518 1.823-.52.096-.658.296-.651.804.027 2.235-.025 10.387-.011 12.267.02 2.446.798 4.412 2.366 6.151 2.188 2.426 4.923 4.066 7.874 5.386.226.1.42.151.666.04 3.408-1.552 6.576-3.433 8.828-6.532 1.008-1.387 1.517-2.925 1.49-4.69-.065-4.178-.03-8.356-.01-12.533z"/><path id="rwmeD" d="M1461.723 4096.384l4.219 4.05 7.328-9.6"/><path id="rwmeE" d="M1441.807 4136.523s-10.578 4.09-5.5 44.708c0 0-9.31.564-25.387 13.258l1.625 3.32s23.305-4.615 31.096-12.629c9.872-10.154 15.788-32.11 15.788-32.11s-10.57-6.252-17.622-16.547z"/><path id="rwmeF" d="M1477.147 4149.458c1.04-.938 12.75 11.353 9.087 20.773-5.266 13.54-36.294 26.704-36.294 26.704l-2.257-3.574s9.214-9.402 15.984-16.36c6.77-6.957 17.676-5.077-2.256-14.856-19.934-9.779-19.605-25.622-19.605-25.622s8.165 11.374 17.622 16.547 13.635.068 17.718-3.612z"/><path id="rwmeG" d="M1406.195 4196.935l.262 2.584 5.821-2.255-1.04-2.124z"/><path id="rwmeI" d="M1406.457 4199.52c.474 3.126 4.441 3.885 6.155 5.053.62.424-.141 2.116-4.724 1.058-4.584-1.058-4.937-6.276-4.232-7.822 0 0 .764-1.491 2.539-.874z"/><path id="rwmeJ" d="M1443.467 4197.309l.643 2.21 5.462-3.166-1.554-2.461z"/><path id="rwmeL" d="M1443.467 4197.309s-1.907-.21-1.942 1.588c-.036 1.799.106 5.677 3.949 6.31 3.844.636 5.959 1.094 5.994 0 .035-1.091-3.314-1.55-5.29-3.171-1.974-1.623-2.067-2.516-2.067-2.516z"/><path id="rwmeM" d="M1497.385 4135.269c-2.038 2.204-4.765 3.749-9.46 5.909-7.051 3.243-13.69 12.855-19.603 13.982-11.001 2.096-26.515-18.636-26.515-18.636s-2.54-3.104 17.488-16.638c20.028-13.535 56.716-14.458 56.716-14.458s18.132-2.473 26.415-6.186l2.195 4.147-39.207 19.034c10.214 7.467 30.194 7.016 36.299 6.683 0 0-.227 2.355-.004 3.57l-.125.063c-11.678 5.37-24.022 4.507-24.022 4.507l-1.287-.017s-18.184.563-24.042-4.796z"/><path id="rwmeN" d="M1508.258 4098.947c-.56.201-.959-.238-1.331-.674-.41-.484-.785-.965-1.301-.597-.988.706.775 2.399 0 3.949-.776 1.552-3.105 1.096-3.105 1.096h-.001c-.313 1.348-.841 2.668-1.808 3.865-4.322 5.359.378 15.038 2.916 14.758 2.539-.284 3.385-11.749 7.616-12.784 4.23-1.034 4.607-4.513 4.607-4.513 1.222-.375 2.016-1.707 1.597-2.256-.587-.777-1.22-.094-1.315-3.667-.039-1.531-.48-3.337-1.484-4.747a10.107 10.107 0 0 0-.566-.016c-5.716 0-4.686 5.176-5.825 5.586z"/><path id="rwmeP" d="M1505.626 4101.626c.775-1.552-.987-3.244 0-3.949.987-.705 1.457 1.692 2.632 1.269 1.176-.423.042-5.92 6.391-5.569-1.339-1.881-3.686-3.058-7.448-1.93-5.112 1.534-3.59 6.584-4.68 11.275h.001s2.329.455 3.104-1.096z"/><path id="rwmeQ" d="M1545.75 4097.277c-.268.746-1.53 1.56-3.161 2.271l1.829 3.459c2.526-1.274 4.334-2.257 4.434-2.488.423-.992 2.539-2.595 2.539-2.595-.129-2.021-1.169-2.744-2.328-2.744-1.381 0-2.931 1.024-3.313 2.097z"/><path id="rwmeS" d="M1545.75 4099.277c-.268.747-1.53 1.559-3.161 2.273l1.829 3.457c2.526-1.274 4.334-2.255 4.434-2.489.423-.99 2.539-2.592 2.539-2.592-.129-2.023-1.169-2.746-2.329-2.746-1.38 0-2.93 1.024-3.312 2.097z"/><path id="rwmeU" d="M1543.527 4128.983s-.658.059-1.809.122c-.139 1.005-.212 2.302-.009 3.57a38.803 38.803 0 0 0 1.877-.925s4.395-2.476 7.122-.972c0 0 1.802-2.636-.284-3.541a5.066 5.066 0 0 0-2.009-.394c-1.476 0-3.238.566-4.888 2.14z"/><path id="rwmeW" d="M1417.152 4191.24a.483.483 0 0 0 .337-.57c-7.222-32.24 3.82-76.904 3.931-77.35a.483.483 0 0 0-.937-.236c-.112.45-11.208 45.336-3.936 77.797.057.26.316.423.576.366l.03-.008z"/><path id="rwmeX" d="M1417.2 4133.178a.484.484 0 0 0 .3-.676c-.029-.056-2.77-5.705-3.98-10.566a.483.483 0 1 0-.938.233c1.235 4.962 4.021 10.699 4.05 10.757a.482.482 0 0 0 .567.252z"/><path id="rwmeY" d="M1415.676 4146.439a.488.488 0 0 0 .186-.103c2.359-2.086 8.336-6.068 8.396-6.108a.482.482 0 1 0-.535-.805c-.247.165-6.093 4.06-8.502 6.19a.483.483 0 0 0 .455.825z"/><linearGradient id="rwmeb" x1="1437" x2="1620.14" y1="4247.06" y2="4063.91" gradientUnits="userSpaceOnUse"><stop offset="0" stop-color="#0694ea"/><stop offset=".01" stop-color="#0694ea"/><stop offset="1" stop-color="#9dc137"/><stop offset="1" stop-color="#9dc137"/></linearGradient><linearGradient id="rwmeH" x1="1406.19" x2="1412.28" y1="4197.33" y2="4197.33" gradientUnits="userSpaceOnUse"><stop offset="0" stop-color="#f5dd4c"/><stop offset="1" stop-color="#fbc94f"/></linearGradient><linearGradient id="rwmeK" x1="1443.47" x2="1449.57" y1="4196.71" y2="4196.71" gradientUnits="userSpaceOnUse"><stop offset="0" stop-color="#f5dd4c"/><stop offset="1" stop-color="#fbc94f"/></linearGradient><linearGradient id="rwmeO" x1="1503.36" x2="1513.34" y1="4098.53" y2="4115.82" gradientUnits="userSpaceOnUse"><stop offset="0" stop-color="#f5dd4c"/><stop offset="1" stop-color="#fbc94f"/></linearGradient><linearGradient id="rwmeR" x1="1545.87" x2="1548.41" y1="4096.49" y2="4100.88" gradientUnits="userSpaceOnUse"><stop offset="0" stop-color="#f5dd4c"/><stop offset="1" stop-color="#fbc94f"/></linearGradient><linearGradient id="rwmeT" x1="1545.87" x2="1548.41" y1="4098.49" y2="4102.88" gradientUnits="userSpaceOnUse"><stop offset="0" stop-color="#f5dd4c"/><stop offset="1" stop-color="#fbc94f"/></linearGradient><linearGradient id="rwmeV" x1="1544.77" x2="1547.74" y1="4127.34" y2="4132.49" gradientUnits="userSpaceOnUse"><stop offset="0" stop-color="#f5dd4c"/><stop offset="1" stop-color="#fbc94f"/></linearGradient></defs><g><g opacity=".4" transform="translate(-1359 -4034)"><g opacity=".4"><use fill="url(#rwmeb)" xlink:href="#rwmea"/></g></g><g transform="translate(-1359 -4034)"><use fill="#fff" xlink:href="#rwmec"/></g><g transform="translate(-1359 -4034)"><use fill="#fff" fill-opacity="0" stroke="#001c34" stroke-linecap="round" stroke-linejoin="round" stroke-miterlimit="50" stroke-width=".53" xlink:href="#rwmed"/></g><g transform="translate(-1359 -4034)"><use fill="#fff" xlink:href="#rwmee"/></g><g transform="translate(-1359 -4034)"><use fill="#fff" xlink:href="#rwmef"/></g><g transform="translate(-1359 -4034)"><use fill="#fff" xlink:href="#rwmeg"/></g><g transform="translate(-1359 -4034)"><use fill="#fff" xlink:href="#rwmeh"/></g><g transform="translate(-1359 -4034)"><use fill="#fff" xlink:href="#rwmei"/></g><g transform="translate(-1359 -4034)"><use fill="#fff" xlink:href="#rwmej"/></g><g transform="translate(-1359 -4034)"><use fill="#fff" xlink:href="#rwmek"/></g><g transform="translate(-1359 -4034)"><use fill="#fff" xlink:href="#rwmel"/></g><g transform="translate(-1359 -4034)"><use fill="#fff" xlink:href="#rwmem"/></g><g transform="translate(-1359 -4034)"><use fill="#fff" xlink:href="#rwmen"/></g><g transform="translate(-1359 -4034)"><use fill="#64b9ff" xlink:href="#rwmeo"/></g><g transform="translate(-1359 -4034)"><use fill="#a0c437" xlink:href="#rwmep"/></g><g transform="translate(-1359 -4034)"><use fill="#fff" fill-opacity="0" stroke="#fff" stroke-miterlimit="50" xlink:href="#rwmep"/></g><g transform="translate(-1359 -4034)"><use fill="#a0c437" xlink:href="#rwmeq"/></g><g transform="translate(-1359 -4034)"><use fill="#fff" fill-opacity="0" stroke="#fff" stroke-miterlimit="50" xlink:href="#rwmeq"/></g><g transform="translate(-1359 -4034)"><use fill="#0697ed" xlink:href="#rwmer"/></g><g transform="translate(-1359 -4034)"><use fill="#fff" xlink:href="#rwmes"/></g><g transform="translate(-1359 -4034)"><use fill="#a0c437" xlink:href="#rwmet"/></g><g transform="translate(-1359 -4034)"><use fill="#fff" fill-opacity="0" stroke="#fff" stroke-miterlimit="50" xlink:href="#rwmet"/></g><g transform="translate(-1359 -4034)"><use fill="#eee" xlink:href="#rwmeu"/></g><g transform="translate(-1359 -4034)"><use fill="#434141" xlink:href="#rwmev"/></g><g transform="translate(-1359 -4034)"><use fill="#434141" xlink:href="#rwmew"/></g><g transform="translate(-1359 -4034)"><use fill="#0697ed" xlink:href="#rwmex"/></g><g transform="translate(-1359 -4034)"><use fill="#eee" xlink:href="#rwmey"/></g><g transform="translate(-1359 -4034)"><use fill="#eee" xlink:href="#rwmez"/></g><g transform="translate(-1359 -4034)"><use fill="#eee" xlink:href="#rwmeA"/></g><g transform="translate(-1359 -4034)"><use fill="#eee" xlink:href="#rwmeB"/></g><g transform="translate(-1359 -4034)"><use fill="#0993c7" xlink:href="#rwmeC"/></g><g transform="translate(-1359 -4034)"><use fill="#fff" fill-opacity="0" stroke="#fff" stroke-miterlimit="50" stroke-width="4" xlink:href="#rwmeD"/></g><g transform="translate(-1359 -4034)"><use fill="#323d5d" xlink:href="#rwmeE"/></g><g transform="translate(-1359 -4034)"><use fill="#323d5d" xlink:href="#rwmeF"/></g><g transform="translate(-1359 -4034)"><use fill="url(#rwmeH)" xlink:href="#rwmeG"/></g><g transform="translate(-1359 -4034)"><use fill="#434141" xlink:href="#rwmeI"/></g><g transform="translate(-1359 -4034)"><use fill="url(#rwmeK)" xlink:href="#rwmeJ"/></g><g transform="translate(-1359 -4034)"><use fill="#434141" xlink:href="#rwmeL"/></g><g transform="translate(-1359 -4034)"><use fill="#ff7587" xlink:href="#rwmeM"/></g><g transform="translate(-1359 -4034)"><use fill="url(#rwmeO)" xlink:href="#rwmeN"/></g><g transform="translate(-1359 -4034)"><use fill="#434141" xlink:href="#rwmeP"/></g><g transform="translate(-1359 -4034)"><use fill="url(#rwmeR)" xlink:href="#rwmeQ"/></g><g transform="translate(-1359 -4034)"><use fill="url(#rwmeT)" xlink:href="#rwmeS"/></g><g transform="translate(-1359 -4034)"><use fill="url(#rwmeV)" xlink:href="#rwmeU"/></g><g transform="translate(-1359 -4034)"><use fill="#008ddc" xlink:href="#rwmeW"/></g><g transform="translate(-1359 -4034)"><use fill="#008ddc" xlink:href="#rwmeX"/></g><g transform="translate(-1359 -4034)"><use fill="#008ddc" xlink:href="#rwmeY"/></g></g></svg>