<svg xmlns="http://www.w3.org/2000/svg" xmlns:xlink="http://www.w3.org/1999/xlink" width="67.33" height="73.33" viewBox="0 0 101 110"><defs><path id="2o2ma" d="M353.228 1983.78c0 1.552.234 3.045.66 4.458-15.547 6.01-26.578 21.093-26.578 38.76 0 22.948 18.603 41.552 41.55 41.552 22.95 0 41.552-18.604 41.552-41.552 0-17.779-11.167-32.941-26.868-38.874.404-1.379.629-2.835.629-4.344 0-8.546-6.927-15.472-15.471-15.472-8.546 0-15.474 6.926-15.474 15.472z"/><path id="2o2mc" d="M367.406 2076.922l.082-2.86c.922.026 1.864.026 2.792-.002l.085 2.861a53.877 53.877 0 0 1-2.96.001zm-2.953-.17a50.736 50.736 0 0 1-2.94-.346l.419-2.83c.915.134 1.847.243 2.77.325zm8.613-2.856a46.984 46.984 0 0 0 2.77-.327l.42 2.83c-.972.144-1.961.261-2.94.347zm-14.465 1.991c-.961-.2-1.93-.433-2.878-.69l.75-2.762c.894.243 1.807.462 2.713.652zm19.98-2.81a46.52 46.52 0 0 0 2.712-.654l.753 2.761c-.947.258-1.915.491-2.877.694zm-25.69 1.258a50.7 50.7 0 0 1-2.78-1.032l1.075-2.65c.86.347 1.742.674 2.62.97zm31.069-2.726a46.27 46.27 0 0 0 2.614-.973l1.077 2.651c-.91.37-1.842.717-2.774 1.032zm-36.562.5a50.356 50.356 0 0 1-2.635-1.354l1.382-2.506a47.7 47.7 0 0 0 2.484 1.277zm41.724-2.598a47.046 47.046 0 0 0 2.477-1.274l1.384 2.504a49.36 49.36 0 0 1-2.628 1.352zm-46.91-.264a51.45 51.45 0 0 1-2.455-1.656l1.67-2.324a46.83 46.83 0 0 0 2.314 1.561zm51.786-2.429a48.427 48.427 0 0 0 2.31-1.56l1.67 2.323a51.073 51.073 0 0 1-2.451 1.655zm-56.593-1.024a49.696 49.696 0 0 1-2.242-1.933l1.93-2.11a47.595 47.595 0 0 0 2.115 1.821zm61.12-2.23a46.805 46.805 0 0 0 2.112-1.822l1.932 2.111a51.333 51.333 0 0 1-2.24 1.932zm-65.486-1.763a50.942 50.942 0 0 1-2-2.182l2.167-1.869c.605.7 1.239 1.393 1.885 2.057zm69.6-2.003a47.634 47.634 0 0 0 1.885-2.058l2.167 1.87a50.887 50.887 0 0 1-2 2.182zm-73.465-2.474a50.474 50.474 0 0 1-1.727-2.4l2.37-1.602a46.973 46.973 0 0 0 1.63 2.264zm77.11-1.75c.564-.737 1.112-1.5 1.63-2.267l2.372 1.601a50.201 50.201 0 0 1-1.73 2.404zm-80.42-3.149a49.316 49.316 0 0 1-1.43-2.586l2.543-1.31c.423.821.877 1.642 1.349 2.437zm83.544-1.478c.472-.797.926-1.62 1.35-2.444l2.545 1.31c-.45.873-.932 1.746-1.433 2.592zm-86.25-3.775a49.464 49.464 0 0 1-1.113-2.737l2.68-.998c.324.864.677 1.732 1.05 2.578zm88.803-1.189a46.73 46.73 0 0 0 1.05-2.589l2.683.997a50.55 50.55 0 0 1-1.115 2.746zm-90.866-4.35a50.124 50.124 0 0 1-.781-2.855l2.78-.673c.218.9.466 1.805.737 2.69zm92.81-.887c.27-.885.518-1.79.735-2.69l2.78.67c-.23.954-.49 1.915-.777 2.855zm-94.201-4.864a50.47 50.47 0 0 1-.436-2.927l2.84-.338c.11.92.249 1.848.412 2.76zm95.507-.557c.163-.91.3-1.838.408-2.759l2.842.335a50.33 50.33 0 0 1-.433 2.927zm-96.206-5.317a51.079 51.079 0 0 1-.09-2.957l2.862-.003c0 .928.03 1.867.085 2.79zm96.859-.22c.054-.924.08-1.863.08-2.79v-.1l2.862-.007v.11c0 .98-.03 1.975-.086 2.953zm-96.865-5.694c.056-.982.143-1.973.256-2.947l2.842.332a47.61 47.61 0 0 0-.241 2.78zm96.859.013c-.056-.925-.14-1.86-.25-2.778l2.84-.34c.117.973.207 1.964.266 2.945zm-96.173-5.888a49.95 49.95 0 0 1 .604-2.897l2.782.666c-.215.9-.407 1.82-.568 2.731zm95.508.351a46.722 46.722 0 0 0-.577-2.729l2.78-.675c.232.954.438 1.928.613 2.895zm-94.13-6.105c.287-.94.605-1.887.947-2.81l2.683.993a47.34 47.34 0 0 0-.892 2.65zm92.814.687a47.115 47.115 0 0 0-.898-2.64l2.68-1.002c.344.92.665 1.863.953 2.802zm-90.755-6.246c.396-.9.825-1.8 1.274-2.676l2.545 1.306a47.259 47.259 0 0 0-1.2 2.522zm88.805 1.028c-.375-.845-.78-1.69-1.205-2.512l2.543-1.313c.45.872.88 1.77 1.277 2.665zm-86.101-6.299c.5-.846 1.032-1.689 1.58-2.504l2.374 1.598a47.807 47.807 0 0 0-1.491 2.361zm83.545 1.351a47.462 47.462 0 0 0-1.494-2.354l2.369-1.605c.55.813 1.083 1.652 1.585 2.497zm-80.238-6.26a50.708 50.708 0 0 1 1.864-2.3l2.169 1.866a47.435 47.435 0 0 0-1.76 2.17zm77.113 1.644a47.566 47.566 0 0 0-1.762-2.162l2.163-1.872a50.205 50.205 0 0 1 1.869 2.293zm-73.253-6.129c.685-.706 1.398-1.4 2.122-2.064l1.933 2.11a47.638 47.638 0 0 0-2 1.945zm69.604 1.912a47.667 47.667 0 0 0-2.005-1.942l1.929-2.113a50.29 50.29 0 0 1 2.126 2.058zm-65.244-5.91a51.005 51.005 0 0 1 2.348-1.799l1.672 2.322a48.386 48.386 0 0 0-2.214 1.696zm61.123 2.148a47.945 47.945 0 0 0-2.22-1.693l1.666-2.325a49.889 49.889 0 0 1 2.355 1.795zm-56.326-5.603a49.836 49.836 0 0 1 2.543-1.509l1.386 2.503c-.808.448-1.614.926-2.397 1.422zm51.789 2.352a47.216 47.216 0 0 0-2.405-1.419l1.379-2.506c.862.474 1.72.98 2.552 1.505zm-46.62-5.216a49.602 49.602 0 0 1 2.703-1.196l1.08 2.65c-.856.348-1.713.727-2.546 1.127zm41.729 2.524a47.3 47.3 0 0 0-2.558-1.124l1.072-2.652c.913.368 1.826.77 2.714 1.191zm-36.253-4.755c.93-.315 1.882-.607 2.83-.868l.757 2.76c-.894.245-1.791.52-2.667.817zm31.075 2.663a46.284 46.284 0 0 0-2.67-.809l.748-2.762a48.58 48.58 0 0 1 2.833.86zm-25.368-4.228a49.826 49.826 0 0 1 2.912-.524l.423 2.83a47.78 47.78 0 0 0-2.745.494zm19.986 2.77a47.648 47.648 0 0 0-2.747-.486l.414-2.83a49.74 49.74 0 0 1 2.915.515zm-14.136-3.645c.976-.087 1.97-.147 2.953-.177l.088 2.86c-.928.03-1.865.085-2.786.167zm8.618 2.837c-.92-.08-1.857-.133-2.786-.158l.079-2.86c.985.027 1.978.083 2.954.167z"/><path id="2o2md" d="M418.806 2026.998h-2.86c0-25.962-21.123-47.083-47.085-47.083s-47.084 21.12-47.084 47.083h-2.86c0-6.742 1.32-13.283 3.924-19.441a49.78 49.78 0 0 1 10.703-15.875 49.782 49.782 0 0 1 15.876-10.704c6.158-2.604 12.7-3.925 19.441-3.925 6.742 0 13.283 1.32 19.441 3.925a49.766 49.766 0 0 1 15.875 10.704 49.747 49.747 0 0 1 10.703 15.875c2.605 6.158 3.926 12.699 3.926 19.44z"/><path id="2o2me" d="M334.278 1986.421a53.34 53.34 0 0 1 2.15-1.773l-1.763-2.254a56.606 56.606 0 0 0-2.264 1.867zm71.042-3.257a57.15 57.15 0 0 0-2.319-1.799l-1.694 2.306a53.676 53.676 0 0 1 2.202 1.708zm-66.654-.176a53.334 53.334 0 0 1 2.321-1.542l-1.52-2.423a56.535 56.535 0 0 0-2.445 1.623zm61.927-3.3a58.162 58.162 0 0 0-2.493-1.55l-1.447 2.47c.797.466 1.593.962 2.366 1.47zm-57.208.34c.806-.45 1.637-.886 2.468-1.294l-1.262-2.568c-.875.43-1.75.888-2.599 1.362zm52.145-3.308a56.883 56.883 0 0 0-2.64-1.283l-1.184 2.605c.843.383 1.686.792 2.506 1.218zm-47.146.851c.85-.363 1.72-.709 2.588-1.028l-.987-2.686c-.915.337-1.833.701-2.727 1.084zm41.801-3.278a55.69 55.69 0 0 0-2.76-1l-.905 2.713c.878.293 1.76.612 2.62.95zm-36.574 1.357a53.018 53.018 0 0 1 2.681-.753l-.702-2.774a56.94 56.94 0 0 0-2.825.794zm31.005-3.214a56.711 56.711 0 0 0-2.85-.707l-.616 2.794c.903.2 1.813.425 2.704.671zm-25.608 1.85a53.36 53.36 0 0 1 2.746-.47l-.41-2.833c-.963.14-1.936.306-2.89.495zm19.876-3.115a56.784 56.784 0 0 0-2.908-.408l-.323 2.843c.92.105 1.848.235 2.76.387zm-14.364 2.317a53.553 53.553 0 0 1 2.781-.184l-.116-2.859c-.974.04-1.96.105-2.928.194zm8.532-2.98a56.028 56.028 0 0 0-2.934-.106l-.03 2.86c.93.01 1.867.044 2.787.101z"/><path id="2o2mf" d="M368.861 1994.122c-18.157 0-32.876 14.719-32.876 32.876 0 18.157 14.72 32.876 32.876 32.876 18.157 0 32.876-14.72 32.876-32.876 0-18.157-14.719-32.876-32.876-32.876zm0 53.749c-11.527 0-20.872-9.345-20.872-20.873 0-11.527 9.345-20.873 20.872-20.873 11.528 0 20.873 9.346 20.873 20.873 0 11.528-9.345 20.873-20.873 20.873z"/><path id="2o2mg" d="M368.861 2069.98c-11.48 0-22.275-4.47-30.393-12.588-8.119-8.12-12.59-18.912-12.59-30.394 0-11.481 4.471-22.275 12.59-30.393 8.118-8.118 18.912-12.59 30.393-12.59 11.481 0 22.275 4.472 30.393 12.59 8.12 8.118 12.59 18.912 12.59 30.393 0 11.482-4.47 22.275-12.59 30.394-8.118 8.118-18.912 12.589-30.393 12.589zm0-83.103c-22.123 0-40.12 17.999-40.12 40.12 0 22.125 17.997 40.123 40.12 40.123 22.123 0 40.121-17.998 40.121-40.122 0-22.122-17.998-40.121-40.12-40.121z"/><path id="2o2mh" d="M368.861 1989.527a5.747 5.747 0 1 1 0-11.494 5.747 5.747 0 0 1 0 11.494z"/><path id="2o2mi" d="M368.861 1968.307c-8.545 0-15.473 6.928-15.473 15.473 0 8.545 15.473 43.218 15.473 43.218s15.473-34.673 15.473-43.218c0-8.545-6.928-15.473-15.473-15.473zm0 21.22a5.747 5.747 0 1 1 0-11.494 5.747 5.747 0 0 1 0 11.494z"/><path id="2o2mj" d="M367.555 2027.58c-.637-1.427-15.597-35.05-15.597-43.8 0-9.32 7.582-16.904 16.903-16.904 9.32 0 16.903 7.583 16.903 16.903 0 8.75-14.96 42.374-15.597 43.801a1.43 1.43 0 0 1-2.612 0zm-12.736-43.8c0 6.015 8.55 27.106 14.042 39.675 5.492-12.569 14.042-33.66 14.042-39.676 0-7.742-6.299-14.042-14.042-14.042-7.743 0-14.042 6.3-14.042 14.042zm6.864 0c0-3.959 3.22-7.178 7.178-7.178 3.958 0 7.178 3.22 7.178 7.177 0 3.958-3.22 7.178-7.178 7.178-3.958 0-7.178-3.22-7.178-7.178zm2.862 0a4.322 4.322 0 0 0 4.316 4.316 4.322 4.322 0 0 0 4.316-4.317 4.32 4.32 0 0 0-4.316-4.316 4.32 4.32 0 0 0-4.316 4.316z"/><path id="2o2mk" d="M368.861 1972.132c7.897 0 14.408 5.918 15.351 13.56.077-.627.122-1.264.122-1.912 0-8.545-6.928-15.473-15.473-15.473-8.545 0-15.473 6.928-15.473 15.473 0 .648.045 1.285.122 1.912.943-7.642 7.454-13.56 15.351-13.56z"/><path id="2o2ml" d="M368.861 2000.683c-9.32 0-16.903-7.583-16.903-16.903 0-9.321 7.582-16.903 16.903-16.903 9.32 0 16.903 7.582 16.903 16.903 0 9.32-7.583 16.903-16.903 16.903zm0-30.945c-7.743 0-14.042 6.299-14.042 14.042 0 7.743 6.3 14.042 14.042 14.042 7.743 0 14.042-6.3 14.042-14.042 0-7.743-6.299-14.042-14.042-14.042z"/><path id="2o2mm" d="M379.104 1983.81c0 5.656-4.586 10.243-10.243 10.243-5.658 0-10.244-4.587-10.244-10.244s4.586-10.243 10.244-10.243c5.657 0 10.243 4.586 10.243 10.243z"/><path id="2o2mn" d="M361.86 1989.39v-11.29h3.3v11.29z"/><path id="2o2mo" d="M367.873 1978.1h3.763c3.461 0 5.32 1.662 5.32 4.201 0 2.267-1.693 4.398-5.093 4.398h-.696v2.69h-3.294zm5.758 4.322c0-.892-.725-1.345-1.647-1.345h-.817v2.705h.847c.892 0 1.617-.468 1.617-1.36z"/><linearGradient id="2o2mb" x1="327.31" x2="410.41" y1="2018.43" y2="2018.43" gradientUnits="userSpaceOnUse"><stop offset="0" stop-color="#0693e9"/><stop offset=".01" stop-color="#0693e9"/><stop offset="1" stop-color="#9cc037"/><stop offset="1" stop-color="#9cc037"/></linearGradient></defs><g><g transform="translate(-318 -1967)"><use fill="url(#2o2mb)" xlink:href="#2o2ma"/></g><g transform="translate(-318 -1967)"><use fill="#122436" xlink:href="#2o2mc"/></g><g transform="translate(-318 -1967)"><use fill="#122436" xlink:href="#2o2md"/></g><g transform="translate(-318 -1967)"><use fill="#122436" xlink:href="#2o2me"/></g><g transform="translate(-318 -1967)"><use fill="#fff" xlink:href="#2o2mf"/></g><g transform="translate(-318 -1967)"><use fill="#122436" xlink:href="#2o2mg"/></g><g transform="translate(-318 -1967)"><use fill="#4ea3da" xlink:href="#2o2mh"/></g><g transform="translate(-318 -1967)"><use fill="#fff" xlink:href="#2o2mi"/></g><g transform="translate(-318 -1967)"><use fill="#122436" xlink:href="#2o2mj"/></g><g transform="translate(-318 -1967)"><use fill="#fff" xlink:href="#2o2mk"/></g><g transform="translate(-318 -1967)"><use fill="#122436" xlink:href="#2o2ml"/></g><g transform="translate(-318 -1967)"><use fill="#122436" xlink:href="#2o2mm"/></g><g transform="translate(-318 -1967)"><use fill="#fff" xlink:href="#2o2mn"/></g><g transform="translate(-318 -1967)"><use fill="#fff" xlink:href="#2o2mo"/></g></g></svg>