<svg xmlns="http://www.w3.org/2000/svg" xmlns:xlink="http://www.w3.org/1999/xlink" width="89.33" height="83.33" viewBox="0 0 134 125"><defs><path id="iscta" d="M1253.426 538.332a54.116 54.116 0 0 1-7.765 28.006 12.468 12.468 0 0 0-5.884 2.816l-5.392 4.86-5.694-3.51a12.632 12.632 0 0 0-6.617-1.869h-2.74v-.783c0-8.977-.43-17.942-1.262-26.869a286.372 286.372 0 0 0-3.79-26.643 6.949 6.949 0 0 0-1.627-4.457l-11.44-13.523a2.754 2.754 0 0 0-2.084-.96c-.795 0-1.565.353-2.083.96l-11.44 13.523a6.944 6.944 0 0 0-1.63 4.457 286.076 286.076 0 0 0-5.05 53.512v.783h-2.74c-2.335 0-4.621.644-6.616 1.87l-5.695 3.51-5.391-4.861a12.468 12.468 0 0 0-5.884-2.816 54.107 54.107 0 0 1-7.766-28.006c0-29.99 24.307-54.295 54.295-54.295 29.989 0 54.295 24.306 54.295 54.295z"/><path id="isctb" d="M1247.113 580h-95.965c2.41 0 4.77-.725 6.826-2.103l4.847-3.252 5.811-3.907a10.712 10.712 0 0 1 1.836-1.008 11.917 11.917 0 0 1 4.991-1.094h47.343c1.72 0 3.414.369 4.99 1.094.638.27 1.251.611 1.837 1.008l5.81 3.907 4.847 3.252c2.058 1.378 4.416 2.103 6.827 2.103z"/><path id="isctc" d="M1252.163 578.737h-6.528c-2.336 0-4.62-.644-6.617-1.869l-4.697-2.89 5.455-4.825a12.583 12.583 0 0 1 8.22-3.043h4.167a6.316 6.316 0 0 0-6.313 6.314 6.315 6.315 0 0 0 6.313 6.313z"/><path id="isctd" d="M1163.94 573.977l-4.698 2.892a12.637 12.637 0 0 1-6.615 1.868h-6.53a6.315 6.315 0 0 0 6.315-6.313 6.315 6.315 0 0 0-6.314-6.313h4.167a12.58 12.58 0 0 1 8.22 3.043z"/><path id="iscte" d="M1226.91 568.636v.972a12.45 12.45 0 0 0-4.837-.972h-2.74v-.783c0-2.26-.025-4.533-.075-6.793h.075a7.582 7.582 0 0 1 7.576 7.576z"/><path id="isctf" d="M1179.004 561.06c-.051 2.26-.076 4.533-.076 6.793v.783h-2.74c-1.667 0-3.308.329-4.836.972v-.972a7.582 7.582 0 0 1 7.576-7.576z"/><path id="isctg" d="M1187.768 556.003a.622.622 0 0 1-.141-.016 51.609 51.609 0 0 1-16.667-7.056.631.631 0 1 1 .687-1.06 50.333 50.333 0 0 0 16.26 6.885.631.631 0 0 1-.14 1.247z"/><path id="iscth" d="M1191.26 540.673a.622.622 0 0 1-.14-.016 35.87 35.87 0 0 1-4.841-1.469.63.63 0 1 1 .45-1.179 34.503 34.503 0 0 0 4.672 1.417.633.633 0 0 1-.14 1.247z"/><path id="iscti" d="M1264.79 564.848h-16.794a13.894 13.894 0 0 0-9.039 3.344l-4.856 4.163-4.749-2.921a13.873 13.873 0 0 0-7.278-2.061H1176.189c-2.572 0-5.089.713-7.28 2.06l-4.747 2.922-4.856-4.163a13.896 13.896 0 0 0-9.039-3.344h-16.795a1.262 1.262 0 1 0 0 2.525h16.795c2.71 0 5.336.972 7.395 2.735l4.242 3.637-3.322 2.044a11.369 11.369 0 0 1-5.956 1.686h-6.527a1.262 1.262 0 1 0 0 2.525h6.527a13.89 13.89 0 0 0 7.279-2.06l10.327-6.356a11.371 11.371 0 0 1 5.957-1.685H1222.074c2.105 0 4.162.583 5.954 1.685l10.328 6.356a13.89 13.89 0 0 0 7.28 2.06h6.527a1.262 1.262 0 1 0 0-2.525h-6.527c-2.106 0-4.163-.584-5.955-1.686l-3.324-2.045 4.243-3.636a11.375 11.375 0 0 1 7.396-2.735h16.794a1.262 1.262 0 1 0 0-2.525z"/><path id="isctj" d="M1215.526 514.119a287.93 287.93 0 0 1 5.07 53.731v.786a1.26 1.26 0 0 1-1.262 1.262h-40.406a1.261 1.261 0 0 1-1.262-1.262v-.786c0-17.986 1.705-36.062 5.07-53.731a8.155 8.155 0 0 1 1.91-5.047l11.442-13.523a3.978 3.978 0 0 1 3.042-1.411c1.176 0 2.285.514 3.042 1.411l11.444 13.523a8.157 8.157 0 0 1 1.91 5.047zm-28.952-3.416a5.655 5.655 0 0 0-1.189 2.375h27.491a5.643 5.643 0 0 0-1.189-2.375l-11.442-13.523c-.556-.658-1.673-.656-2.229 0zm31.497 56.67a285.408 285.408 0 0 0-4.835-51.77h-28.21a285.465 285.465 0 0 0-4.835 51.77z"/><path id="isctk" d="M1163.776 542.12a1.26 1.26 0 0 1-.893-2.155l70.71-70.71a1.261 1.261 0 1 1 1.786 1.785l-70.71 70.71c-.247.247-.57.37-.893.37z"/><path id="isctl" d="M1165.04 471.41l68.184 68.185z"/><path id="isctm" d="M1233.224 540.857c-.323 0-.646-.123-.893-.37l-68.184-68.184a1.261 1.261 0 1 1 1.785-1.786l68.185 68.185a1.262 1.262 0 0 1-.893 2.155z"/><path id="isctn" d="M1202.919 505.502a3.787 3.787 0 1 1-7.575.001 3.787 3.787 0 0 1 7.575-.001z"/><path id="iscto" d="M1199.13 510.553a5.056 5.056 0 0 1-5.05-5.051 5.056 5.056 0 0 1 5.05-5.05 5.055 5.055 0 0 1 5.052 5.05 5.056 5.056 0 0 1-5.051 5.05zm0-7.576a2.528 2.528 0 0 0-2.524 2.525 2.528 2.528 0 0 0 2.525 2.526 2.528 2.528 0 0 0 2.525-2.526 2.528 2.528 0 0 0-2.525-2.525z"/><path id="isctp" d="M1226.959 463.234a.635.635 0 0 1-.344-.102 50.393 50.393 0 0 0-16.26-6.885.63.63 0 0 1-.475-.755.623.623 0 0 1 .756-.475 51.61 51.61 0 0 1 16.668 7.056.632.632 0 0 1-.345 1.16z"/><path id="isctq" d="M1212.434 473.304a.645.645 0 0 1-.238-.046 34.5 34.5 0 0 0-5.334-1.681.63.63 0 0 1-.475-.755.621.621 0 0 1 .756-.476 35.757 35.757 0 0 1 5.529 1.742c.324.132.479.5.346.822a.63.63 0 0 1-.584.394z"/><path id="isctr" d="M1206.707 497.926l27.779-27.78-7.576-7.574-27.779 27.778z"/><path id="iscts" d="M1206.707 568.636h-15.152v-7.576a7.576 7.576 0 0 1 15.152 0z"/><path id="isctt" d="M1206.707 569.898h-15.153a1.261 1.261 0 0 1-1.262-1.262v-7.576c0-4.874 3.964-8.839 8.838-8.839 4.874 0 8.84 3.965 8.84 8.839v7.576a1.26 1.26 0 0 1-1.263 1.262zm-13.89-2.525h12.627v-6.313a6.32 6.32 0 0 0-6.314-6.313 6.32 6.32 0 0 0-6.313 6.313z"/><path id="isctu" d="M1199.13 569.267a.63.63 0 0 1-.63-.63v-15.153a.631.631 0 1 1 1.263 0v15.152a.63.63 0 0 1-.632.631z"/><path id="isctv" d="M1199.13 549.065a3.16 3.16 0 0 1-3.155-3.157 3.16 3.16 0 0 1 3.156-3.157 3.16 3.16 0 0 1 3.157 3.157 3.16 3.16 0 0 1-3.157 3.157zm0-5.051c-1.043 0-1.893.85-1.893 1.894s.85 1.894 1.894 1.894c1.045 0 1.895-.85 1.895-1.894s-.85-1.894-1.895-1.894z"/><path id="isctw" d="M1199.13 531.387a3.16 3.16 0 0 1-3.155-3.157 3.16 3.16 0 0 1 3.156-3.157 3.16 3.16 0 0 1 3.157 3.157 3.16 3.16 0 0 1-3.157 3.157zm0-5.05c-1.043 0-1.893.85-1.893 1.893 0 1.044.85 1.894 1.894 1.894 1.045 0 1.895-.85 1.895-1.894s-.85-1.894-1.895-1.894z"/><path id="isctx" d="M1171.352 548.433l27.778-27.779-7.576-7.576-27.778 27.78z"/><path id="iscty" d="M1200.024 519.761a1.26 1.26 0 0 1 0 1.785l-27.78 27.78a1.26 1.26 0 0 1-1.786 0l-7.574-7.577a1.26 1.26 0 0 1 0-1.785l27.778-27.779a1.263 1.263 0 0 1 1.786 0zm-6.651 4.866l-5.791-5.79-2.895 2.895 5.79 5.79zm-3.788 3.788l-5.791-5.79-2.895 2.895 5.79 5.79zm-3.788 3.788l-5.791-5.79-2.895 2.894 5.79 5.791zm-3.788 3.788l-5.791-5.79-2.895 2.895 5.79 5.79zm-3.788 3.788l-5.791-5.79-2.895 2.895 5.79 5.79zm-3.788 3.788l-5.791-5.79-3.08 3.08 5.79 5.79zm22.913-22.913l-5.791-5.79-3.08 3.08 5.79 5.79z"/><path id="isctz" d="M1149.262 494.77a.63.63 0 0 1-.616-.771 51.507 51.507 0 0 1 4.109-11.506.633.633 0 0 1 1.13.562 50.332 50.332 0 0 0-4.01 11.222.63.63 0 0 1-.613.492z"/><path id="isctA" d="M1156.2 477.723l27.778 27.78 7.576-7.577-27.778-27.779z"/><path id="isctB" d="M1192.447 497.033a1.261 1.261 0 0 1 0 1.786l-7.574 7.575a1.262 1.262 0 0 1-1.788 0l-27.778-27.779a1.262 1.262 0 0 1 0-1.785l7.576-7.576a1.26 1.26 0 0 1 1.785 0zm-12.441 2.71l5.79-5.79-2.895-2.896-5.79 5.791zm-3.789-3.788l5.791-5.79-2.895-2.896-5.79 5.791zm-3.788-3.788l5.791-5.79-2.895-2.896-5.79 5.791zm-3.788-3.788l5.791-5.79-2.895-2.896-5.79 5.791zm-3.788-3.788l5.791-5.79-2.895-2.896-5.792 5.791zm-6.868-6.868l3.08 3.08 5.791-5.79-3.08-3.08zm31.785 20.202l-3.08-3.08-5.791 5.791 3.08 3.08z"/><path id="isctC" d="M1244.291 530.124a.632.632 0 0 1-.557-.928 50.3 50.3 0 0 0 4.652-12.47.623.623 0 0 1 .756-.475.631.631 0 0 1 .474.755 51.583 51.583 0 0 1-4.767 12.784.63.63 0 0 1-.558.334z"/><path id="isctD" d="M1228.844 525.407a.632.632 0 0 1-.53-.975 34.663 34.663 0 0 0 4.742-11.199.622.622 0 0 1 .756-.476.63.63 0 0 1 .474.755 35.916 35.916 0 0 1-4.912 11.607.63.63 0 0 1-.53.288z"/><path id="isctE" d="M1206.707 513.078l27.779 27.78 7.576-7.577-27.779-27.779z"/><path id="isctF" d="M1235.38 469.255a1.262 1.262 0 0 1 0 1.785l-27.78 27.779a1.258 1.258 0 0 1-1.785 0l-7.577-7.576a1.263 1.263 0 0 1 0-1.786l27.78-27.778a1.263 1.263 0 0 1 1.785 0zm-6.653 4.865l-5.79-5.79-2.895 2.895 5.79 5.79zm-3.788 3.788l-5.79-5.79-2.895 2.895 5.79 5.79zm-3.788 3.788l-5.79-5.79-2.895 2.895 5.79 5.79zm-3.788 3.788l-5.79-5.79-2.895 2.895 5.79 5.79zm-3.788 3.788l-5.79-5.79-2.895 2.894 5.79 5.791zm-3.788 3.788l-5.79-5.79-3.08 3.08 5.79 5.79zm22.913-22.913l-5.79-5.79-3.08 3.08 5.79 5.79z"/><path id="isctG" d="M1242.955 532.388a1.262 1.262 0 0 1 0 1.785l-7.576 7.576a1.258 1.258 0 0 1-1.786 0l-27.779-27.779a1.262 1.262 0 0 1 0-1.785l7.576-7.576a1.262 1.262 0 0 1 1.785 0zm-12.443 2.71l5.791-5.79-2.895-2.896-5.79 5.791zm-3.788-3.788l5.791-5.79-2.895-2.896-5.79 5.791zm-3.788-3.788l5.791-5.79-2.895-2.896-5.79 5.791zm-3.787-3.788l5.79-5.79-2.895-2.896-5.79 5.791zm-3.788-3.788l5.79-5.79-2.895-2.896-5.79 5.791zm-6.868-6.868l3.08 3.08 5.79-5.79-3.08-3.08zm31.783 20.202l-3.08-3.08-5.79 5.791 3.08 3.08z"/><path id="isctH" d="M1171.352 511.184a.63.63 0 0 1-.632-.63 1.895 1.895 0 0 0-1.893-1.895.631.631 0 1 1 0-1.263 3.16 3.16 0 0 1 3.156 3.157.63.63 0 0 1-.63.631z"/><path id="isctI" d="M1165.04 499.82a.631.631 0 1 0 0 1.263c1.043 0 1.893.849 1.893 1.894 0 1.044-.85 1.894-1.894 1.894h-13.89a.631.631 0 1 0 0 1.262h13.89a3.16 3.16 0 0 0 3.156-3.156 3.16 3.16 0 0 0-3.156-3.157z"/><path id="isctJ" d="M1237.012 498.557h-13.89a.632.632 0 0 0 0 1.263h13.89c1.044 0 1.894.85 1.894 1.894s-.85 1.894-1.894 1.894a.63.63 0 1 0 0 1.262 3.16 3.16 0 0 0 3.156-3.156 3.16 3.16 0 0 0-3.156-3.157z"/><path id="isctK" d="M1168.827 508.659h-13.89a.63.63 0 1 1 0-1.263h13.89a.631.631 0 0 1 0 1.263z"/><path id="isctL" d="M1159.988 499.82a.631.631 0 1 0 0 1.263.631.631 0 1 1 0 1.262h-7.576a.632.632 0 0 0 0 1.263h7.576c1.044 0 1.894-.85 1.894-1.894s-.85-1.894-1.894-1.894z"/><path id="isctM" d="M1151.15 508.659h-5.052a.631.631 0 1 1 0-1.263h5.051a.631.631 0 0 1 0 1.263z"/><path id="isctN" d="M1199.13 473.304a.63.63 0 1 0 0 1.263c1.046 0 1.896.849 1.896 1.894 0 1.044-.85 1.894-1.895 1.894h-12.627a.63.63 0 1 0 0 1.262h12.627a3.16 3.16 0 0 0 3.157-3.156 3.16 3.16 0 0 0-3.157-3.157z"/><path id="isctO" d="M1190.292 477.092h-7.576a.63.63 0 1 1 0-1.263h7.576a.631.631 0 1 1 0 1.263z"/><path id="isctP" d="M1244.588 497.295h-11.364a.631.631 0 1 1 0-1.263h11.364a.631.631 0 1 1 0 1.263z"/><path id="isctQ" d="M1234.486 494.77h-5.05a.632.632 0 0 1 0-1.263h5.05a.631.631 0 1 1 0 1.262z"/><path id="isctR" d="M1199.13 531.387a.63.63 0 0 1-.63-.631v-5.051a.63.63 0 1 1 1.263 0v5.051a.63.63 0 0 1-.632.631z"/><path id="isctS" d="M1199.13 549.064a.63.63 0 0 1-.63-.63v-5.051a.63.63 0 1 1 1.263 0v5.05a.63.63 0 0 1-.632.631z"/><path id="isctT" d="M1226.91 569.898a1.262 1.262 0 0 1-1.263-1.263 6.32 6.32 0 0 0-6.313-6.313 1.262 1.262 0 1 1 0-2.525c4.873 0 8.84 3.965 8.84 8.838 0 .698-.567 1.263-1.264 1.263z"/><path id="isctU" d="M1171.352 569.898a1.263 1.263 0 0 1-1.263-1.263c0-4.873 3.966-8.838 8.84-8.838a1.262 1.262 0 1 1 0 2.525 6.32 6.32 0 0 0-6.314 6.313c0 .698-.566 1.263-1.263 1.263z"/><path id="isctV" d="M1200.394 562.954h-2.525a.63.63 0 1 1 0-1.263h2.525a.631.631 0 1 1 0 1.263z"/></defs><g><g transform="translate(-1132 -455)"><use fill="#c6e9fa" xlink:href="#iscta"/></g><g transform="translate(-1132 -455)"><use fill="#bbd767" xlink:href="#isctb"/></g><g transform="translate(-1132 -455)"><use fill="#bbd767" xlink:href="#isctc"/></g><g transform="translate(-1132 -455)"><use fill="#bbd767" xlink:href="#isctd"/></g><g transform="translate(-1132 -455)"><use fill="#bbd767" xlink:href="#iscte"/></g><g transform="translate(-1132 -455)"><use fill="#bbd767" xlink:href="#isctf"/></g><g transform="translate(-1132 -455)"><use fill="#231f20" xlink:href="#isctg"/></g><g transform="translate(-1132 -455)"><use fill="#231f20" xlink:href="#iscth"/></g><g transform="translate(-1132 -455)"><use fill="#231f20" xlink:href="#iscti"/></g><g transform="translate(-1132 -455)"><use fill="#231f20" xlink:href="#isctj"/></g><g transform="translate(-1132 -455)"><use fill="#231f20" xlink:href="#isctk"/></g><g transform="translate(-1132 -455)"><use fill="#fff" xlink:href="#isctl"/></g><g transform="translate(-1132 -455)"><use fill="#231f20" xlink:href="#isctm"/></g><g transform="translate(-1132 -455)"><use fill="#fff" xlink:href="#isctn"/></g><g transform="translate(-1132 -455)"><use fill="#231f20" xlink:href="#iscto"/></g><g transform="translate(-1132 -455)"><use fill="#231f20" xlink:href="#isctp"/></g><g transform="translate(-1132 -455)"><use fill="#231f20" xlink:href="#isctq"/></g><g transform="translate(-1132 -455)"><use fill="#fff" xlink:href="#isctr"/></g><g transform="translate(-1132 -455)"><use fill="#d3e2ec" xlink:href="#iscts"/></g><g transform="translate(-1132 -455)"><use fill="#231f20" xlink:href="#isctt"/></g><g transform="translate(-1132 -455)"><use fill="#231f20" xlink:href="#isctu"/></g><g transform="translate(-1132 -455)"><use fill="#231f20" xlink:href="#isctv"/></g><g transform="translate(-1132 -455)"><use fill="#231f20" xlink:href="#isctw"/></g><g transform="translate(-1132 -455)"><use fill="#fff" xlink:href="#isctx"/></g><g transform="translate(-1132 -455)"><use fill="#231f20" xlink:href="#iscty"/></g><g transform="translate(-1132 -455)"><use fill="#231f20" xlink:href="#isctz"/></g><g transform="translate(-1132 -455)"><use fill="#fff" xlink:href="#isctA"/></g><g transform="translate(-1132 -455)"><use fill="#231f20" xlink:href="#isctB"/></g><g transform="translate(-1132 -455)"><use fill="#231f20" xlink:href="#isctC"/></g><g transform="translate(-1132 -455)"><use fill="#231f20" xlink:href="#isctD"/></g><g transform="translate(-1132 -455)"><use fill="#fff" xlink:href="#isctE"/></g><g transform="translate(-1132 -455)"><use fill="#231f20" xlink:href="#isctF"/></g><g transform="translate(-1132 -455)"><use fill="#231f20" xlink:href="#isctG"/></g><g transform="translate(-1132 -455)"><use fill="#231f20" xlink:href="#isctH"/></g><g transform="translate(-1132 -455)"><use fill="#231f20" xlink:href="#isctI"/></g><g transform="translate(-1132 -455)"><use fill="#231f20" xlink:href="#isctJ"/></g><g transform="translate(-1132 -455)"><use fill="#231f20" xlink:href="#isctK"/></g><g transform="translate(-1132 -455)"><use fill="#231f20" xlink:href="#isctL"/></g><g transform="translate(-1132 -455)"><use fill="#231f20" xlink:href="#isctM"/></g><g transform="translate(-1132 -455)"><use fill="#231f20" xlink:href="#isctN"/></g><g transform="translate(-1132 -455)"><use fill="#231f20" xlink:href="#isctO"/></g><g transform="translate(-1132 -455)"><use fill="#231f20" xlink:href="#isctP"/></g><g transform="translate(-1132 -455)"><use fill="#231f20" xlink:href="#isctQ"/></g><g transform="translate(-1132 -455)"><use fill="#231f20" xlink:href="#isctR"/></g><g transform="translate(-1132 -455)"><use fill="#231f20" xlink:href="#isctS"/></g><g transform="translate(-1132 -455)"><use fill="#231f20" xlink:href="#isctT"/></g><g transform="translate(-1132 -455)"><use fill="#231f20" xlink:href="#isctU"/></g><g transform="translate(-1132 -455)"><use fill="#231f20" xlink:href="#isctV"/></g></g></svg>