<svg xmlns="http://www.w3.org/2000/svg" xmlns:xlink="http://www.w3.org/1999/xlink" width="219.33" height="128" viewBox="0 0 329 192"><defs><path id="2iv1a" d="M361.193 4507.098s-21.358 24.763-68.096 32.225c-71.18 11.364-69.737 99.675 7.383 117.661 77.122 17.987 56.602-11.241 165.72-3.747 109.117 7.494 82.624-73.948 42.943-99.09-41.036-26-2.526-72.346-63.446-82.273-47.866-7.8-84.504 35.224-84.504 35.224z"/><path id="2iv1c" d="M231.21 4629.09h327.253"/><path id="2iv1d" d="M266.789 4613.257c-2.39 0-12.215-2.1-13.013-11.791-.408-4.95.933-8.271 2.23-11.482 1.552-3.844 3.017-7.474 1.784-13.748-.535-2.725-1.222-4.988-1.83-6.984-2.005-6.61-3.11-10.25 5.446-17.271.058-.043 4.82-3.64 4.89-8.342.073-5.026 6.83-10.545 12.91-10.545 1.555 0 2.998.349 4.289 1.036 2.417 1.287 3.883 2.894 4.483 4.91.989 3.323-.27 7.699-4.344 15.104-4.067 7.39-1.943 9.927-.07 12.167.599.715 1.164 1.39 1.473 2.178.145.372.313.747.484 1.13 1.245 2.787 2.793 6.255-2.266 13.159-2.875 3.923-2.314 8.249-1.772 12.432.509 3.922 1.035 7.978-1.322 11.606-.055.073-4.417 5.592-13.31 6.439z"/><path id="2iv1e" d="M279.205 4533.344c1.44 0 2.86.308 4.171 1.007 6.892 3.67 5.503 9.74.038 19.673-5.464 9.93.171 11.445 1.39 14.556 1.216 3.112 3.907 6.329-1.75 14.05-5.66 7.723 1.687 16.676-3.103 24.05 0 0-4.237 5.48-13.124 6.326a.353.353 0 0 1-.039.002c-.852 0-11.907-1.155-12.764-11.562-.874-10.613 6.324-13.488 4.011-25.257-2.312-11.77-7.454-15.002 3.53-24.015 0 0 4.91-3.645 4.98-8.531.07-4.736 6.541-10.3 12.66-10.3zm0-.5c-6.197 0-13.084 5.648-13.16 10.79-.067 4.577-4.732 8.104-4.779 8.139-8.705 7.142-7.582 10.84-5.544 17.55.605 1.992 1.29 4.249 1.823 6.962 1.218 6.2-.234 9.797-1.772 13.605-1.307 3.239-2.659 6.589-2.247 11.597.814 9.88 10.827 12.02 13.262 12.02h.024l.061-.003c9.001-.856 13.295-6.288 13.474-6.52 2.43-3.738 1.898-7.84 1.384-11.806-.56-4.324-1.09-8.41 1.725-12.252 5.146-7.021 3.564-10.562 2.292-13.408-.169-.38-.335-.75-.479-1.12-.323-.825-.9-1.516-1.514-2.247-1.82-2.178-3.886-4.646.097-11.886 4.111-7.47 5.375-11.901 4.366-15.296-.62-2.084-2.127-3.74-4.607-5.06-1.327-.707-2.81-1.065-4.406-1.065z"/><path id="2iv1f" d="M296.634 4615.554c-.941 0-4.73-7.595-5.626-16.464-.008-.07-.16-1.697.655-2.597.347-.382.81-.577 1.38-.577.497 0 1.08.153 1.738.455-.455-2.306-2.013-11.636 1.517-16.046 1.216-1.52 2.919-2.291 5.06-2.291.4 0 .824.028 1.256.082 2.244.28 3.396.808 4.567 2.094 1.448 1.587 2.733 4.429.635 8.95-1.091 2.354-2.132 4.27-3.051 5.962-2.21 4.069-3.543 6.524-2.424 9.496 1.694 4.5 1.024 5.823-5.518 10.873l-.067.05z"/><path id="2iv1g" d="M301.358 4578.284c.388 0 .796.025 1.226.08 2.057.256 3.228.714 4.412 2.014 1.604 1.76 2.486 4.596.593 8.677-3.784 8.161-7.11 11.33-5.482 15.651 1.626 4.321 1.077 5.557-5.436 10.586a.06.06 0 0 1-.037.012c-.595 0-4.46-7.173-5.378-16.24 0 0-.29-2.898 1.787-2.898.528 0 1.21.187 2.088.66 0 0-4.163-18.542 6.227-18.542zm0-.5c-2.221 0-3.99.802-5.255 2.384-3.392 4.238-2.187 12.871-1.654 15.791-.516-.196-.981-.293-1.406-.293-.633 0-1.175.228-1.565.66-.89.98-.727 2.715-.72 2.788.842 8.312 4.56 16.69 5.876 16.69h.17l.172-.117c6.599-5.093 7.332-6.553 5.599-11.158-1.078-2.865.16-5.146 2.41-9.287.92-1.695 1.963-3.615 3.058-5.977 2.268-4.89.549-7.878-.677-9.224-1.362-1.495-2.762-1.93-4.72-2.174a10.31 10.31 0 0 0-1.288-.083z"/><path id="2iv1h" d="M441.432 4628.037c-11.13 0-24.203-14.18-24.754-14.783l-.31-.34.454-.076c.05-.008 5.173-.849 11.318-.849 9.544 0 21.146 1.982 22.22 11.422l.012.102-.063.081c-2.313 2.948-5.3 4.443-8.876 4.443z"/><path id="2iv1i" d="M428.14 4612.24c9.222 0 20.91 1.873 21.973 11.2-2.457 3.132-5.474 4.347-8.681 4.347-11.147 0-24.57-14.702-24.57-14.702s5.083-.846 11.278-.846zm0-.5c-6.166 0-11.308.843-11.36.852l-.907.15.62.68c.555.607 13.7 14.865 24.939 14.865 3.658 0 6.71-1.527 9.074-4.539l.126-.16-.023-.205c-1.096-9.623-12.823-11.644-22.47-11.644z"/><path id="2iv1j" d="M509.245 4570.13a38.674 38.674 0 0 0-2.003-1.307l-.121-.073v-.39l.015-.001v-19.12l2.487 6.93.015 14.234z"/><path id="2iv1k" d="M507.386 4550.676l2 5.578v13.672c-.657-.457-1.327-.9-2.015-1.316v-.018h.015v-17.916zm-.5-2.873v20.578l-.014.19-.012.295.252.17c.619.375 1.27.8 1.99 1.3l.785.545v-14.714l-.03-.082-2-5.578z"/><path id="2iv1l" d="M388.178 4640.53l1.717-3.503h-.384l-2.224-25.47c-.867.204-3.633.84-7.076 1.462v26.916h-14.569v-2.96h-6.104v-1.536c-4.784 3.31-10.037 5.068-15.207 5.091h-17.915a5.577 5.577 0 0 1-5.57-5.57 5.58 5.58 0 0 1 3.264-5.072h-1.18c-3.07 0-5.57-2.5-5.57-5.572a5.545 5.545 0 0 1 3.017-4.928 5.528 5.528 0 0 1-4.179-5.369c0-3.043 2.475-5.542 5.518-5.57l1.306-.019c-1.98-.925-3.335-2.946-3.335-5.214a5.763 5.763 0 0 1 5.756-5.757h8.983l-1.22-1.305a18.84 18.84 0 0 1-4.833-9.732l-.362-3.066c-.209-1.215.194-2.5 1.137-3.607.885-1.039 2.118-1.759 3.381-1.975a5.15 5.15 0 0 1 .867-.072c2.26 0 4.841 1.44 5.252 3.85a20.246 20.246 0 0 0 4.89 10.367c1.587 1.782 2.805 3.095 3.633 3.921a4.19 4.19 0 0 1 .653-2.979l9.302-13.998a9.23 9.23 0 0 1 3.806-3.638 3.935 3.935 0 0 1-.487-1.888v-14.835c.066-4.65 3.334-8.702 7.947-9.854a11.02 11.02 0 0 1 2.671-.33c4.346 0 8.052 2.598 9.44 6.621.45 1.303.452 1.987.452 2.017v.143l-.366.212c.177.603.262 1.186.253 1.737l.114 3.473v3.13a4.515 4.515 0 0 1-1.829 3.652l.037 3.996a3.68 3.68 0 0 1-.123.96 9.336 9.336 0 0 1 5.308 2.67l7.761 7.863 6.61-11.28.434.264.44-4.932c-.002-.536.395-.957.921-.957.265 0 .51.106.688.296a.974.974 0 0 1 .23.423l1.414-2.132a1.11 1.11 0 0 1 1.54-.309c.168.112.297.266.38.443l.002-.005a1.112 1.112 0 0 1 1.923 1.105c.2.007.393.07.56.181.511.34.65 1.032.31 1.542l-.808 1.214a1.113 1.113 0 0 1 .92 1.729l-.659.894a9.543 9.543 0 0 1-3.378 2.851l-.196.098-.094.112.402.245-5.325 9.647h13.007c.696 0 1.347.311 1.785.853.438.542.606 1.243.46 1.925l-3.007 14.051a2.309 2.309 0 0 1-2.245 1.815h-3.828c.165.385.281.775.347 1.167l1.616 30.995h-1.843c.016.25.114.492.284.686.22.25.524.388.858.388l1.388-.215a3.132 3.132 0 0 1 3.516 2.332l.078.312zm11.13-2.21l.632-1.293h-.904l-2.128-18.754-.353 18.754h-1.884a1.147 1.147 0 0 0 1.142 1.074l1.388-.215a3.096 3.096 0 0 1 2.106.433zm-47.107-38.033c1.05.937 2.053 1.846 2.974 2.692a35.653 35.653 0 0 1 3.682 3.29v-2.96zm32.12 1.693l2.33-10.89-6.73-6.262 1.44 17.152zm-28.076-8.663a1.19 1.19 0 0 0 .476 1.803l2.136.934v-6.23z"/><path id="2iv1m" d="M371.063 4548.567c-.863 0-1.739.106-2.61.323-4.57 1.142-7.696 5.205-7.758 9.612v14.835c0 .735.22 1.415.59 1.992a9.037 9.037 0 0 0-3.95 3.673L348.032 4593c-.75 1.13-.83 2.472-.396 3.631-.915-.822-2.638-2.696-4.287-4.546a20.53 20.53 0 0 1-4.949-10.492c-.373-2.182-2.757-3.642-5.005-3.642-.279 0-.555.023-.825.07-2.45.418-4.732 2.853-4.313 5.306l.362 3.054a18.647 18.647 0 0 0 4.768 9.602l1.615 1.726h-9.56a5.506 5.506 0 0 0-5.506 5.505v.002a5.504 5.504 0 0 0 4.699 5.441l-2.917.042a5.319 5.319 0 0 0-5.271 5.32c0 2.766 2.117 5.008 4.81 5.27-2.114.704-3.648 2.675-3.648 5.026v.001a5.321 5.321 0 0 0 5.32 5.322h3.487a5.32 5.32 0 1 0 0 10.642h17.914c5.49-.024 10.79-2.037 15.282-5.198l.176-.123v1.766h6.104v2.96h14.068v-26.875c4.298-.769 7.55-1.563 7.55-1.563l2.228 25.53h.556l-1.717 3.503h21.941a2.887 2.887 0 0 0-3.235-2.147l-1.426.218c-.867 0-1.49-.769-1.382-1.574h1.82l-1.6-30.704a4.966 4.966 0 0 0-.495-1.458h4.222c.966 0 1.8-.674 2.001-1.617l3.007-14.052a2.047 2.047 0 0 0-2-2.475H398l5.414-9.808-.447-.272.36-.397.196-.099a9.227 9.227 0 0 0 3.29-2.775l.652-.885a.863.863 0 0 0-1.434-.956l1.321-1.986a.862.862 0 0 0-.24-1.196.827.827 0 0 0-.46-.14.876.876 0 0 0-.553.2l.301-.444a.862.862 0 0 0-1.425-.969l-.39.575a.85.85 0 0 0-.815-1.09.859.859 0 0 0-.716.383l-1.892 2.853.051-.549c.028-.422-.278-.779-.699-.779-.403 0-.673.327-.673.73l-.475 5.332-.56-.342-6.646 11.342-7.99-8.094a9.056 9.056 0 0 0-5.45-2.636c.118-.37.197-.757.193-1.168l-.039-4.126a4.237 4.237 0 0 0 1.83-3.488v-.037l.001-3.12-.114-3.485a5.707 5.707 0 0 0-.3-1.85l.413-.24s.002-.657-.439-1.935c-1.423-4.123-5.16-6.453-9.203-6.453zm10.067 53.663l-1.513-18.025 7.308 6.798-2.384 11.138c-.006.031-.003.06-.008.09zm-22.022-5.793l-2.487-1.089a1.439 1.439 0 0 1-.576-2.18l3.062-4.097zm.024 10.475c-1.353-1.419-2.723-2.67-4.125-3.748a299.024 299.024 0 0 0-4.21-3.789l8.31 3.773v3.625l.016-.002.009.141zm36.68 31.44a1.393 1.393 0 0 1-1.38-1.575h1.879l.418-22.297 2.53 22.297h1.082l-.936 1.911a2.893 2.893 0 0 0-2.166-.555zm-24.749-90.285c4.454 0 8.252 2.665 9.675 6.79.455 1.32.468 2.023.467 2.1v.286l-.249.144-.074.043c.148.56.218 1.1.21 1.598l.114 3.501v3.158a4.745 4.745 0 0 1-1.828 3.738l.036 3.872a3.78 3.78 0 0 1-.07.755 9.591 9.591 0 0 1 5.183 2.702l7.532 7.63 6.315-10.779.258-.439.308.188.402-4.487c0-.7.504-1.23 1.173-1.23a1.18 1.18 0 0 1 .95.47l1.174-1.77a1.356 1.356 0 0 1 2.158-.138 1.361 1.361 0 0 1 2.225 1.31 1.353 1.353 0 0 1 .949 1.038c.071.356 0 .72-.2 1.023l-.597.894a1.346 1.346 0 0 1 .909 1.025c.072.356 0 .72-.214 1.042l-.653.886a9.783 9.783 0 0 1-3.412 2.897l.28.171-.23.42-5.007 9.066h12.583c.773 0 1.494.345 1.98.946.485.6.672 1.378.51 2.133l-3.007 14.052a2.557 2.557 0 0 1-2.49 2.013h-3.462c.102.29.18.582.228.875l.005.028.001.03 1.6 30.703.028.526h-1.8a.926.926 0 0 0 .165.271.88.88 0 0 0 .636.303l1.384-.212a3.383 3.383 0 0 1 3.796 2.519l.157.622h-23.385l.353-.72 1.364-2.783h-.212l-.04-.457-2.178-24.953c-1.07.248-3.56.806-6.603 1.361v26.957h-15.068v-2.96h-6.104v-1.313c-4.72 3.166-9.877 4.846-14.956 4.868h-17.916a5.827 5.827 0 0 1-5.82-5.82 5.819 5.819 0 0 1 2.561-4.822h-.227a5.828 5.828 0 0 1-5.82-5.823 5.787 5.787 0 0 1 2.647-4.856 5.774 5.774 0 0 1-3.81-5.44c0-3.179 2.587-5.79 5.763-5.82l.39-.006c-1.613-1.09-2.664-2.938-2.664-4.979a6.013 6.013 0 0 1 6.006-6.005h8.408l-.828-.884a19.112 19.112 0 0 1-4.899-9.886l-.358-3.028c-.223-1.302.201-2.66 1.192-3.824.923-1.083 2.21-1.834 3.53-2.06.294-.05.6-.076.91-.076 2.361 0 5.063 1.518 5.498 4.064a19.986 19.986 0 0 0 4.828 10.237 120.437 120.437 0 0 0 3.147 3.424 4.423 4.423 0 0 1 .746-2.453l9.283-13.967a9.473 9.473 0 0 1 3.7-3.636 4.163 4.163 0 0 1-.404-1.783v-14.842c.067-4.76 3.413-8.909 8.137-10.089a11.261 11.261 0 0 1 2.731-.339zm13.055 53.663l2.258-10.555-6.152-5.723 1.366 16.278zm-25.51-11.155l-2.162 2.891a.934.934 0 0 0-.156.803.931.931 0 0 0 .53.621l1.788.783zm0 12.895l-5.032-2.285c.577.523 1.157 1.051 1.736 1.582a35.616 35.616 0 0 1 3.296 2.897zm36.37 33.807c.038.098.093.19.165.271a.877.877 0 0 0 .636.303l1.385-.212a3.348 3.348 0 0 1 2.035.332l.34-.694h-.726l-.05-.444-1.676-14.768-.276 14.721-.01.491z"/><path id="2iv1n" d="M442.345 4533.382a.742.742 0 0 1-.57-.264c-1.274-1.482-5.611-6.706-7.88-11.669a9.058 9.058 0 0 1-.81-3.782c0-5.106 4.154-9.26 9.26-9.26 5.105 0 9.26 4.154 9.26 9.26a9.03 9.03 0 0 1-.81 3.782c-2.263 4.953-6.604 10.185-7.88 11.671a.75.75 0 0 1-.57.262zm0-20.146a4.436 4.436 0 0 0-4.431 4.431 4.435 4.435 0 0 0 4.43 4.43 4.435 4.435 0 0 0 4.432-4.43 4.436 4.436 0 0 0-4.431-4.43z"/><path id="2iv1o" d="M442.345 4508.658c-4.968 0-9.01 4.042-9.01 9.009a8.8 8.8 0 0 0 .788 3.679c2.253 4.929 6.573 10.135 7.843 11.61a.496.496 0 0 0 .759 0c1.27-1.475 5.59-6.68 7.843-11.61a8.784 8.784 0 0 0 .788-3.68c-.001-4.966-4.043-9.008-9.011-9.008zm0 13.69a4.686 4.686 0 0 1-4.681-4.681c0-2.58 2.1-4.68 4.68-4.68 2.582 0 4.682 2.1 4.682 4.68 0 2.58-2.1 4.68-4.681 4.68zm0-14.19c5.243 0 9.51 4.266 9.51 9.509a9.284 9.284 0 0 1-.833 3.887c-2.278 4.986-6.636 10.238-7.917 11.73a1.002 1.002 0 0 1-1.518 0c-1.281-1.49-5.636-6.735-7.92-11.73a9.309 9.309 0 0 1-.832-3.887c0-5.243 4.266-9.51 9.51-9.51zm0 13.69a4.186 4.186 0 0 0 4.18-4.181 4.186 4.186 0 0 0-4.18-4.18 4.186 4.186 0 0 0-4.181 4.18 4.186 4.186 0 0 0 4.18 4.18z"/><path id="2iv1p" d="M425.674 4570.62a.542.542 0 0 1-.412-.188c-.747-.868-3.29-3.932-4.625-6.852a5.384 5.384 0 0 1-.484-2.255 5.527 5.527 0 0 1 5.521-5.52 5.527 5.527 0 0 1 5.521 5.52c0 .795-.163 1.554-.484 2.256-1.332 2.916-3.877 5.982-4.625 6.852a.544.544 0 0 1-.412.188zm0-11.783a2.49 2.49 0 0 0-2.488 2.488 2.491 2.491 0 0 0 2.488 2.488 2.491 2.491 0 0 0 2.488-2.488 2.49 2.49 0 0 0-2.488-2.488z"/><path id="2iv1q" d="M425.674 4556.055a5.277 5.277 0 0 0-5.27 5.27c0 .759.155 1.483.46 2.152 1.318 2.883 3.845 5.928 4.588 6.792a.293.293 0 0 0 .444 0c.743-.864 3.27-3.908 4.588-6.793a5.134 5.134 0 0 0 .461-2.15 5.277 5.277 0 0 0-5.27-5.272zm0 8.007a2.741 2.741 0 0 1-2.738-2.736 2.742 2.742 0 0 1 2.738-2.74 2.742 2.742 0 0 1 2.738 2.74 2.741 2.741 0 0 1-2.738 2.736zm0-8.507a5.778 5.778 0 0 1 5.771 5.77c0 .83-.17 1.625-.506 2.36-1.345 2.94-3.909 6.032-4.663 6.91a.792.792 0 0 1-1.203 0c-.753-.876-3.317-3.964-4.664-6.91a5.652 5.652 0 0 1-.506-2.36 5.778 5.778 0 0 1 5.771-5.77zm0 8.007a2.24 2.24 0 0 0 2.238-2.236 2.24 2.24 0 0 0-2.238-2.24 2.24 2.24 0 0 0-2.238 2.24 2.24 2.24 0 0 0 2.238 2.236z"/><path id="2iv1r" d="M394.897 4550.694a.614.614 0 0 1-.47-.217c-.942-1.096-4.149-4.96-5.825-8.628a6.737 6.737 0 0 1-.604-2.818c0-3.805 3.095-6.9 6.899-6.9a6.91 6.91 0 0 1 6.901 6.9 6.73 6.73 0 0 1-.605 2.818c-1.674 3.663-4.882 7.531-5.826 8.63a.618.618 0 0 1-.47.215zm0-14.868a3.207 3.207 0 0 0-3.204 3.205 3.206 3.206 0 0 0 3.204 3.203 3.207 3.207 0 0 0 3.205-3.203 3.208 3.208 0 0 0-3.205-3.205z"/><path id="2iv1s" d="M394.897 4532.38c-3.666 0-6.649 2.984-6.649 6.651 0 .956.196 1.87.581 2.715 1.663 3.636 4.851 7.478 5.788 8.57a.369.369 0 0 0 .561 0c.937-1.092 4.125-4.932 5.787-8.57a6.477 6.477 0 0 0 .583-2.715c-.001-3.667-2.984-6.65-6.651-6.65zm0 10.104a3.458 3.458 0 0 1-3.454-3.453 3.459 3.459 0 0 1 3.454-3.455 3.459 3.459 0 0 1 3.455 3.455 3.458 3.458 0 0 1-3.455 3.453zm0-10.604c3.942 0 7.15 3.208 7.151 7.151a6.98 6.98 0 0 1-.628 2.922c-1.687 3.693-4.914 7.584-5.862 8.687a.865.865 0 0 1-.661.304.86.86 0 0 1-.659-.304c-.948-1.102-4.173-4.988-5.864-8.687a7.001 7.001 0 0 1-.626-2.922c0-3.943 3.207-7.15 7.149-7.15zm0 10.104a2.957 2.957 0 0 0 2.955-2.953 2.958 2.958 0 0 0-2.955-2.955 2.957 2.957 0 0 0-2.954 2.955 2.956 2.956 0 0 0 2.954 2.953z"/><path id="2iv1t" d="M344.885 4554.363a.505.505 0 0 1-.385-.178c-.657-.763-2.893-3.455-4.067-6.025a4.766 4.766 0 0 1-.427-1.994 4.885 4.885 0 0 1 4.879-4.88 4.886 4.886 0 0 1 4.88 4.88c0 .703-.144 1.374-.428 1.995-1.171 2.562-3.41 5.259-4.067 6.025a.511.511 0 0 1-.385.177zm0-10.351a2.158 2.158 0 0 0-2.155 2.154c0 1.189.967 2.156 2.155 2.156a2.158 2.158 0 0 0 2.155-2.156 2.158 2.158 0 0 0-2.155-2.154z"/><path id="2iv1u" d="M344.885 4541.537a4.634 4.634 0 0 0-4.63 4.63c0 .665.137 1.301.405 1.89 1.158 2.532 3.377 5.206 4.03 5.965.049.058.12.09.195.09a.254.254 0 0 0 .195-.09c.653-.759 2.872-3.432 4.03-5.966a4.51 4.51 0 0 0 .405-1.89 4.635 4.635 0 0 0-4.63-4.629zm0 7.034a2.408 2.408 0 0 1-2.405-2.405 2.408 2.408 0 0 1 2.405-2.405 2.408 2.408 0 0 1 2.405 2.405 2.408 2.408 0 0 1-2.405 2.405zm0-7.534a5.136 5.136 0 0 1 5.13 5.13c0 .737-.151 1.443-.45 2.096-1.183 2.59-3.441 5.313-4.105 6.084a.756.756 0 0 1-1.15.001c-.662-.77-2.92-3.49-4.105-6.085a5.02 5.02 0 0 1-.45-2.097 5.135 5.135 0 0 1 5.13-5.129zm0 7.034c1.05 0 1.905-.854 1.905-1.905 0-1.05-.855-1.905-1.905-1.905s-1.905.855-1.905 1.905c0 1.051.855 1.905 1.905 1.905z"/><path id="2iv1v" d="M266.827 4613.006c-.452.043-11.928-.948-12.802-11.561-.874-10.612 6.323-13.487 4.01-25.256-2.312-11.77-7.454-15.002 3.529-24.015 0 0 4.91-3.646 4.982-8.531.085-5.85 9.94-12.962 16.83-9.292 6.892 3.67 5.504 9.74.039 19.673-5.465 9.93.17 11.446 1.389 14.556 1.217 3.112 3.907 6.329-1.751 14.05-5.658 7.723 1.688 16.676-3.101 24.05 0 0-4.237 5.48-13.125 6.326z"/><path id="2iv1w" d="M296.67 4615.292c-.449.347-4.475-6.948-5.415-16.228 0 0-.454-4.561 3.875-2.239 0 0-4.478-19.952 7.453-18.462 2.057.257 3.23.715 4.413 2.015 1.603 1.759 2.486 4.597.593 8.677-3.785 8.161-7.109 11.329-5.482 15.651 1.626 4.321 1.077 5.558-5.437 10.586z"/><path id="2iv1x" d="M467.307 4629.251l-23.417-23.691s8.82 29.602 23.417 23.691z"/><path id="2iv1y" d="M467.307 4629.251l-23.417-23.691s29.498 9.166 23.417 23.691z"/><path id="2iv1z" d="M477.415 4632.352l-36.946-11.523"/><path id="2iv1A" d="M450.112 4623.44l-33.25-10.355s22.251 24.375 33.25 10.355z"/><path id="2iv1B" d="M450.112 4623.44l-33.25-10.355s31.474-5.238 33.25 10.355z"/><path id="2iv1C" d="M466.942 4629.138l-31.99 9.286s30.225 6.36 31.99-9.286z"/><path id="2iv1D" d="M466.942 4629.138l-31.99 9.286s22.121-21.557 31.99-9.286z"/><path id="2iv1E" d="M319.937 4603.217v-.002a5.506 5.506 0 0 1 5.506-5.506h13.424l8.051 11.014h-21.475a5.506 5.506 0 0 1-5.506-5.506z"/><path id="2iv1F" d="M316.448 4614.02a5.32 5.32 0 0 1 5.27-5.32l24.19-.348v10.643l-24.088.346a5.322 5.322 0 0 1-5.372-5.322z"/><path id="2iv1G" d="M317.61 4624.316a5.321 5.321 0 0 1 5.32-5.322h22.979v10.644h-22.98a5.322 5.322 0 0 1-5.32-5.322z"/><path id="2iv1H" d="M321.095 4634.959a5.32 5.32 0 0 1 5.321-5.32h19.493l-3.17 10.641h-16.323a5.321 5.321 0 0 1-5.32-5.321z"/><path id="2iv1I" d="M339.69 4640.28h4.641c5.49-.023 10.79-2.037 15.281-5.197l.176-.124.312-27.018-.415-.45c-6.214-6.757-12.767-9.782-20.96-9.782z"/><path id="2iv1J" d="M341.99 4602.206a4.495 4.495 0 0 1-4.05-1.36l-4.552-4.863a18.647 18.647 0 0 1-4.768-9.602l-.361-3.054c-.42-2.453 1.86-4.888 4.313-5.307 2.45-.418 5.41 1.121 5.83 3.574a20.527 20.527 0 0 0 4.949 10.491c1.748 1.962 3.59 3.966 4.453 4.697 6.124 5.195 12.297 11.16 12.297 11.16s-17.27-5.88-18.111-5.736z"/><path id="2iv1K" d="M359.79 4636.73v-30.55h11.12v30.55z"/><path id="2iv1L" d="M365.89 4639.69v-36.47h14.07v36.47z"/><path id="2iv1M" d="M526.02 4601.666c0 21.326-17.288 38.614-38.614 38.614-21.326 0-38.615-17.288-38.615-38.614 0-21.326 17.289-38.614 38.615-38.614s38.614 17.288 38.614 38.614z"/><path id="2iv1N" d="M399.338 4574.52l3.41 2.115.58-.64.197-.1a9.244 9.244 0 0 0 3.29-2.775l.651-.885a.862.862 0 1 0-1.435-.955l1.323-1.988a.862.862 0 0 0-.24-1.195.851.851 0 0 0-1.014.06l.301-.445a.861.861 0 1 0-1.425-.968l-.39.575a.85.85 0 0 0-.339-.946.857.857 0 0 0-1.192.24l-1.892 2.852.051-.549c.028-.42-.277-.779-.699-.779-.403 0-.673.326-.673.73z"/><path id="2iv1O" d="M371.488 4564.975v8.362a3.714 3.714 0 1 0 7.427-.035l-.078-8.327z"/><path id="2iv1P" d="M390.47 4636.423l-1.892 3.857h11.896a2.886 2.886 0 0 0-3.235-2.146l-1.426.218a1.394 1.394 0 0 1-1.287-1.93z"/><path id="2iv1Q" d="M400.515 4636.423l-1.891 3.857h11.896a2.887 2.887 0 0 0-3.235-2.146l-1.426.218a1.394 1.394 0 0 1-1.287-1.93z"/><path id="2iv1R" d="M399.26 4636.777l-3.072-27.06-12.078-6.119-13.7 7.401-3.835-5.885 14.937 1.66 20.048-4.544a5.013 5.013 0 0 1 3.136 3.843l1.6 30.704z"/><path id="2iv1S" d="M394.216 4602.88a5.006 5.006 0 0 1 2.656 3.962l-.562 29.935h-6.57l-2.23-25.53s-12.258 2.995-20.658 2.995c-3.686 0-7.744-3.467-7.744-7.745v-1.383z"/><path id="2iv1T" d="M377.726 4574.411h-12.512a9.06 9.06 0 0 0-7.88 4.591l-9.3 13.998a4.02 4.02 0 0 0 1.685 5.886l12.951 5.88 2.48-5.683-8.529-3.735a1.438 1.438 0 0 1-.576-2.18l3.062-4.097v17.702l22.183-2.64-1.672-19.928 8.984 8.358c1.958 1.998 5.297 1.496 6.582-.988l8.231-14.912-4.608-2.805-6.646 11.341-7.989-8.094a9.063 9.063 0 0 0-6.446-2.694z"/><path id="2iv1U" d="M380.592 4559.045c.057-3.49-3.627-7.687-8.564-7.69-3.013 0-5.78 1.674-7.368 4.235l-.212.34a8.553 8.553 0 0 0-.917 6.983l2.494 7.36.171 4.367 1.173.762a4.69 4.69 0 0 0 6.016-.762l-.165-4.702 3.307-.01a4.24 4.24 0 0 0 4.178-4.24v-.038l.001-3.121z"/><path id="2iv1V" d="M377.12 4565.395a1.867 1.867 0 0 1-3.735 0z"/><path id="2iv1W" d="M370.097 4607.255a.898.898 0 0 1-1.131.579l-3.751-1.211-.698-2.115 5 1.616a.897.897 0 0 1 .58 1.13z"/><path id="2iv1X" d="M371.457 4605.744a.899.899 0 0 1-1.124.581l-5.817-1.817.553-1.71 5.801 1.811a.9.9 0 0 1 .587 1.135z"/><path id="2iv1Y" d="M371.202 4603.834a.899.899 0 0 1-1.13.579l-5.003-1.616.553-1.711 5.001 1.616a.898.898 0 0 1 .58 1.132z"/><path id="2iv1Z" d="M369.386 4601.357a.9.9 0 0 1-1.132.58l-2.632-.85.553-1.712 2.632.85a.9.9 0 0 1 .58 1.132z"/><path id="2iv1aa" d="M367.175 4599.698l-1.02-.329c-.441-.143-.91-.192-1.373-.143l-.991.106-1.576 4.505.043.093c.648 1.41 1.886 2.348 3.362 2.825l-.03.134z"/><path id="2iv1ab" d="M403.475 4604.732h-24.933a2.503 2.503 0 0 1 2.503-2.502h22.43z"/><path id="2iv1ac" d="M408.424 4604.616h-21.881a2.047 2.047 0 0 1-2.001-2.475l3.007-14.05a2.047 2.047 0 0 1 2-1.62h21.882a2.048 2.048 0 0 1 2 2.475l-3.006 14.052a2.047 2.047 0 0 1-2.001 1.618z"/><path id="2iv1ad" d="M400.875 4595.544a1.888 1.888 0 1 1-3.776 0 1.888 1.888 0 0 1 3.776 0z"/><path id="2iv1ae" d="M364.41 4577.05a3.714 3.714 0 0 0 3.712-3.748l-.113-12.103a19.92 19.92 0 0 0 10.025-2.693l2.671-1.551s.002-.656-.439-1.934c-1.727-5.003-6.862-7.366-11.813-6.13-4.57 1.14-7.695 5.204-7.757 9.61v14.836a3.713 3.713 0 0 0 3.713 3.714z"/><path id="2iv1af" d="M368.54 4561.559a1.713 1.713 0 1 1-2.423 2.423 1.713 1.713 0 0 1 2.423-2.423z"/><path id="2iv1ag" d="M463.66 4571.444l1.31 3.405-9.736 5.183a2.678 2.678 0 0 1 1.714-3.167l1.26-.442c.815-.433 2.845-2.626 2.133-3.21z"/><path id="2iv1ah" d="M488.556 4573.05l-16.396-12.014-6.268 12.376-6.814.382 9.063-19.792a4.417 4.417 0 0 1 6.115-2.054l18.203 9.82z"/><path id="2iv1ai" d="M492.398 4618.325l2.628 3.09-10.885 2.77a2.726 2.726 0 0 1 2.46-2.717l1.357-.133a1.316 1.316 0 0 0 .727-2.065z"/><path id="2iv1aj" d="M507.386 4566.912v1.4a7.838 7.838 0 0 1-7.838 7.838l-12.037 15.222 6.055 26.512-6.196 1.686-8.212-28.705a5.84 5.84 0 0 1 .338-4.107l9.414-19.846z"/><path id="2iv1ak" d="M488.543 4535.839h12.663a9.168 9.168 0 0 1 7.975 4.646l4.922 10.83a12.973 12.973 0 0 1 1.164 5.37v16.365h-5.88v-16.796l-2.001-5.578v17.916h-19.378l-1.38-22.841-9.093 8.459c-1.981 2.023-5.36 1.515-6.66-1l-8-15.473 3.991-2.458 7.067 11.478 8.086-8.19a9.16 9.16 0 0 1 6.523-2.728z"/><path id="2iv1al" d="M485.642 4521.492c-.058-3.517 3.64-7.745 8.604-7.782 3.08-.023 5.914 1.694 7.536 4.31l.198.32a8.655 8.655 0 0 1 .928 7.067l-2.523 6.245-.165 4.187-.138.13a5.133 5.133 0 0 1-7.138-.13l.158-4.528-3.346-.009a4.292 4.292 0 0 1-4.228-4.292v-1.993z"/><path id="2iv1am" d="M498.793 4523.033l-2.727-4.6-10.127.085c0-3.268 2.849-6.222 4.644-7.133a9.605 9.605 0 0 1 6.697-.755c5.608 1.4 8.743 7.383 6.68 12.782-.686 1.794-1.542 4.244-2.857 6.465z"/><path id="2iv1an" d="M496.451 4523.817a2.163 2.163 0 1 0 4.326 0 2.163 2.163 0 0 0-4.326 0z"/><path id="2iv1ao" d="M489.157 4526.715a1.89 1.89 0 1 0 3.779 0z"/><path id="2iv1ap" d="M509.598 4581.588a.91.91 0 0 1-.91-.91v-3.988l1.82-1.331v5.32a.91.91 0 0 1-.91.909z"/><path id="2iv1aq" d="M511.446 4582.428a.94.94 0 0 1-.94-.931l-.06-6.371h1.878l.061 6.354a.94.94 0 0 1-.939.948z"/><path id="2iv1ar" d="M513.236 4581.588a.91.91 0 0 1-.91-.91v-5.32h1.82v5.32a.91.91 0 0 1-.91.91z"/><path id="2iv1as" d="M515.056 4579.068a.91.91 0 0 1-.91-.909v-2.8h1.82v2.8a.91.91 0 0 1-.91.91z"/><path id="2iv1at" d="M515.966 4576.423v-1.336c0-.305-.064-.606-.187-.884l-.513-1.153-4.83-.116-.076.07c-1.155 1.063-1.674 2.547-1.674 4.116z"/><path id="2iv1au" d="M466.733 4535.384l-.498-3.477v-2.814a.812.812 0 1 0-1.622.054l.209 3.124-5.393 3.576 3.447 1.89z"/><path id="2iv1av" d="M464.188 4535.847h-4.96a.67.67 0 0 1-.67-.67v-1.206l.671-4.045-.67-3.618v-.828c0-.37.3-.67.67-.67h4.96c.368 0 .668.3.668.67v.828l-.795 3.618.795 4.12v1.13c0 .37-.3.67-.669.67z"/><path id="2iv1aw" d="M462.608 4533.97a.9.9 0 1 1-1.799 0 .9.9 0 0 1 1.799 0z"/><path id="2iv1ax" d="M458.56 4533.97v-7.66h6.3v7.66z"/><path id="2iv1ay" d="M495.87 4523.01v-6.93h2.08v6.93z"/><path id="2iv1az" d="M462.8 4528.281c-.583 0-1.055.472-1.055 1.054a1.053 1.053 0 1 0-1.89.64c.192.251 1.89 2.007 1.89 2.007s1.7-1.756 1.891-2.008a1.054 1.054 0 0 0-.837-1.693z"/><path id="2iv1aA" d="M442.345 4508.658c-4.968 0-9.01 4.042-9.01 9.009a8.8 8.8 0 0 0 .788 3.679c2.253 4.929 6.572 10.134 7.843 11.61a.496.496 0 0 0 .759 0c1.27-1.476 5.59-6.68 7.843-11.61a8.784 8.784 0 0 0 .788-3.68c-.001-4.966-4.043-9.008-9.011-9.008zm0 13.69c-2.581 0-4.68-2.1-4.68-4.681 0-2.58 2.099-4.68 4.68-4.68 2.58 0 4.68 2.1 4.68 4.68 0 2.58-2.1 4.68-4.68 4.68z"/><path id="2iv1aB" d="M425.674 4556.055a5.277 5.277 0 0 0-5.27 5.27c0 .759.155 1.483.46 2.152 1.318 2.883 3.845 5.928 4.588 6.792a.295.295 0 0 0 .445 0c.742-.864 3.27-3.908 4.587-6.793a5.134 5.134 0 0 0 .461-2.15 5.277 5.277 0 0 0-5.27-5.272zm0 8.007a2.74 2.74 0 0 1-2.738-2.736 2.742 2.742 0 0 1 2.738-2.74 2.742 2.742 0 0 1 2.738 2.74 2.74 2.74 0 0 1-2.738 2.736z"/><path id="2iv1aC" d="M394.897 4532.381a6.657 6.657 0 0 0-6.649 6.65c0 .956.196 1.87.581 2.715 1.663 3.636 4.851 7.478 5.788 8.57a.369.369 0 0 0 .561 0c.937-1.092 4.125-4.933 5.787-8.57a6.475 6.475 0 0 0 .583-2.716 6.659 6.659 0 0 0-6.651-6.649zm0 10.104a3.459 3.459 0 0 1-3.454-3.455 3.459 3.459 0 0 1 3.454-3.454 3.459 3.459 0 0 1 3.455 3.454 3.459 3.459 0 0 1-3.455 3.455z"/><path id="2iv1aD" d="M344.885 4541.537a4.634 4.634 0 0 0-4.63 4.63c0 .665.137 1.301.405 1.89 1.158 2.532 3.377 5.206 4.03 5.965a.257.257 0 0 0 .39 0c.653-.759 2.872-3.432 4.03-5.966a4.51 4.51 0 0 0 .405-1.89 4.635 4.635 0 0 0-4.63-4.629zm0 7.034a2.408 2.408 0 0 1-2.405-2.405 2.409 2.409 0 0 1 2.405-2.405 2.409 2.409 0 0 1 2.405 2.405 2.408 2.408 0 0 1-2.405 2.405z"/><path id="2iv1aE" d="M269.155 4629.24a.482.482 0 0 0 .336-.57c-7.22-32.24 3.82-76.904 3.932-77.35a.483.483 0 0 0-.937-.236c-.113.45-11.208 45.336-3.937 77.797.058.26.316.423.577.366l.03-.008z"/><path id="2iv1aF" d="M269.202 4571.178a.484.484 0 0 0 .3-.676c-.028-.056-2.77-5.705-3.98-10.566a.483.483 0 0 0-.937.233c1.235 4.962 4.021 10.699 4.05 10.757a.484.484 0 0 0 .567.252z"/><path id="2iv1aG" d="M267.679 4584.439a.477.477 0 0 0 .185-.103c2.359-2.086 8.337-6.068 8.397-6.108a.482.482 0 1 0-.535-.805c-.248.165-6.093 4.06-8.502 6.19a.483.483 0 0 0 .455.825z"/><path id="2iv1aH" d="M297.834 4628.277a.44.44 0 0 0 .342-.519c-2.75-13.41 1.204-35.999 1.71-36.989a.426.426 0 0 0-.109-.6.45.45 0 0 0-.62.111c-.815 1.136-4.509 24.646-1.84 37.655a.438.438 0 0 0 .517.342z"/><linearGradient id="2iv1b" x1="308.09" x2="491.24" y1="4684.06" y2="4500.91" gradientUnits="userSpaceOnUse"><stop offset="0" stop-color="#0694ea"/><stop offset=".01" stop-color="#0694ea"/><stop offset="1" stop-color="#9dc137"/><stop offset="1" stop-color="#9dc137"/></linearGradient></defs><g><g opacity=".4" transform="translate(-230 -4471)"><g opacity=".4"><use fill="url(#2iv1b)" xlink:href="#2iv1a"/></g></g><g transform="translate(-230 -4471)"><use fill="#fff" fill-opacity="0" stroke="#001c34" stroke-linecap="round" stroke-linejoin="round" stroke-miterlimit="50" stroke-width=".53" xlink:href="#2iv1c"/></g><g transform="translate(-230 -4471)"><use fill="#fff" xlink:href="#2iv1d"/></g><g transform="translate(-230 -4471)"><use fill="#fff" xlink:href="#2iv1e"/></g><g transform="translate(-230 -4471)"><use fill="#fff" xlink:href="#2iv1f"/></g><g transform="translate(-230 -4471)"><use fill="#fff" xlink:href="#2iv1g"/></g><g transform="translate(-230 -4471)"><use fill="#fff" xlink:href="#2iv1h"/></g><g transform="translate(-230 -4471)"><use fill="#fff" xlink:href="#2iv1i"/></g><g transform="translate(-230 -4471)"><use fill="#fff" xlink:href="#2iv1j"/></g><g transform="translate(-230 -4471)"><use fill="#fff" xlink:href="#2iv1k"/></g><g transform="translate(-230 -4471)"><use fill="#fff" xlink:href="#2iv1l"/></g><g transform="translate(-230 -4471)"><use fill="#fff" xlink:href="#2iv1m"/></g><g transform="translate(-230 -4471)"><use fill="#fff" xlink:href="#2iv1n"/></g><g transform="translate(-230 -4471)"><use fill="#fff" xlink:href="#2iv1o"/></g><g transform="translate(-230 -4471)"><use fill="#fff" xlink:href="#2iv1p"/></g><g transform="translate(-230 -4471)"><use fill="#fff" xlink:href="#2iv1q"/></g><g transform="translate(-230 -4471)"><use fill="#fff" xlink:href="#2iv1r"/></g><g transform="translate(-230 -4471)"><use fill="#fff" xlink:href="#2iv1s"/></g><g transform="translate(-230 -4471)"><use fill="#fff" xlink:href="#2iv1t"/></g><g transform="translate(-230 -4471)"><use fill="#fff" xlink:href="#2iv1u"/></g><g transform="translate(-230 -4471)"><use fill="#64b9ff" xlink:href="#2iv1v"/></g><g transform="translate(-230 -4471)"><use fill="#00cbdb" xlink:href="#2iv1w"/></g><g transform="translate(-230 -4471)"><use fill="#327c3d" xlink:href="#2iv1x"/></g><g transform="translate(-230 -4471)"><use fill="#a0c437" xlink:href="#2iv1y"/></g><g transform="translate(-230 -4471)"><use fill="#fff" fill-opacity="0" stroke="#fff" stroke-miterlimit="50" xlink:href="#2iv1y"/></g><g transform="translate(-230 -4471)"><use fill="#fff" fill-opacity="0" stroke="#b7c9ff" stroke-miterlimit="50" stroke-width="1.89" xlink:href="#2iv1z"/></g><g transform="translate(-230 -4471)"><use fill="#327c3d" xlink:href="#2iv1A"/></g><g transform="translate(-230 -4471)"><use fill="#a0c437" xlink:href="#2iv1B"/></g><g transform="translate(-230 -4471)"><use fill="#fff" fill-opacity="0" stroke="#fff" stroke-miterlimit="50" xlink:href="#2iv1B"/></g><g transform="translate(-230 -4471)"><use fill="#327c3d" xlink:href="#2iv1C"/></g><g transform="translate(-230 -4471)"><use fill="#a0c437" xlink:href="#2iv1D"/></g><g transform="translate(-230 -4471)"><use fill="#fff" fill-opacity="0" stroke="#fff" stroke-miterlimit="50" xlink:href="#2iv1D"/></g><g transform="translate(-230 -4471)"><use fill="#a8dbef" xlink:href="#2iv1E"/></g><g transform="translate(-230 -4471)"><use fill="#a8dbef" xlink:href="#2iv1F"/></g><g transform="translate(-230 -4471)"><use fill="#a8dbef" xlink:href="#2iv1G"/></g><g transform="translate(-230 -4471)"><use fill="#a8dbef" xlink:href="#2iv1H"/></g><g transform="translate(-230 -4471)"><use fill="#a8dbef" xlink:href="#2iv1I"/></g><g transform="translate(-230 -4471)"><use fill="#a8dbef" xlink:href="#2iv1J"/></g><g transform="translate(-230 -4471)"><use fill="#a2defc" xlink:href="#2iv1K"/></g><g transform="translate(-230 -4471)"><use fill="#0697ed" xlink:href="#2iv1L"/></g><g transform="translate(-230 -4471)"><use fill="#a0c437" xlink:href="#2iv1M"/></g><g transform="translate(-230 -4471)"><use fill="#fff" fill-opacity="0" stroke="#fff" stroke-miterlimit="50" xlink:href="#2iv1M"/></g><g transform="translate(-230 -4471)"><use fill="#fbbe9d" xlink:href="#2iv1N"/></g><g transform="translate(-230 -4471)"><use xlink:href="#2iv1O"/></g><g transform="translate(-230 -4471)"><use xlink:href="#2iv1P"/></g><g transform="translate(-230 -4471)"><use xlink:href="#2iv1Q"/></g><g transform="translate(-230 -4471)"><use fill="#252030" xlink:href="#2iv1R"/></g><g transform="translate(-230 -4471)"><use fill="#3f374f" xlink:href="#2iv1S"/></g><g transform="translate(-230 -4471)"><use fill="#ff600e" xlink:href="#2iv1T"/></g><g transform="translate(-230 -4471)"><use fill="#fbbe9d" xlink:href="#2iv1U"/></g><g transform="translate(-230 -4471)"><use fill="#fff" xlink:href="#2iv1V"/></g><g transform="translate(-230 -4471)"><use fill="#fbbe9d" xlink:href="#2iv1W"/></g><g transform="translate(-230 -4471)"><use fill="#fbbe9d" xlink:href="#2iv1X"/></g><g transform="translate(-230 -4471)"><use fill="#fbbe9d" xlink:href="#2iv1Y"/></g><g transform="translate(-230 -4471)"><use fill="#fbbe9d" xlink:href="#2iv1Z"/></g><g transform="translate(-230 -4471)"><use fill="#fbbe9d" xlink:href="#2iv1aa"/></g><g transform="translate(-230 -4471)"><use fill="#e34073" xlink:href="#2iv1ab"/></g><g transform="translate(-230 -4471)"><use fill="#0697ed" xlink:href="#2iv1ac"/></g><g transform="translate(-230 -4471)"><use fill="#fff" xlink:href="#2iv1ad"/></g><g transform="translate(-230 -4471)"><use xlink:href="#2iv1ae"/></g><g transform="translate(-230 -4471)"><use fill="#fbbe9d" xlink:href="#2iv1af"/></g><g transform="translate(-230 -4471)"><use xlink:href="#2iv1ag"/></g><g transform="translate(-230 -4471)"><use fill="#3f374f" xlink:href="#2iv1ah"/></g><g transform="translate(-230 -4471)"><use xlink:href="#2iv1ai"/></g><g transform="translate(-230 -4471)"><use fill="#3f374f" xlink:href="#2iv1aj"/></g><g transform="translate(-230 -4471)"><use fill="#ff600e" xlink:href="#2iv1ak"/></g><g transform="translate(-230 -4471)"><use fill="#fbbe9d" xlink:href="#2iv1al"/></g><g transform="translate(-230 -4471)"><use xlink:href="#2iv1am"/></g><g transform="translate(-230 -4471)"><use fill="#fbbe9d" xlink:href="#2iv1an"/></g><g transform="translate(-230 -4471)"><use fill="#fff" xlink:href="#2iv1ao"/></g><g transform="translate(-230 -4471)"><use fill="#fbbe9d" xlink:href="#2iv1ap"/></g><g transform="translate(-230 -4471)"><use fill="#fbbe9d" xlink:href="#2iv1aq"/></g><g transform="translate(-230 -4471)"><use fill="#fbbe9d" xlink:href="#2iv1ar"/></g><g transform="translate(-230 -4471)"><use fill="#fbbe9d" xlink:href="#2iv1as"/></g><g transform="translate(-230 -4471)"><use fill="#fbbe9d" xlink:href="#2iv1at"/></g><g transform="translate(-230 -4471)"><use fill="#fbbe9d" xlink:href="#2iv1au"/></g><g transform="translate(-230 -4471)"><use xlink:href="#2iv1av"/></g><g transform="translate(-230 -4471)"><use fill="#fff" xlink:href="#2iv1aw"/></g><g transform="translate(-230 -4471)"><use fill="#dbe4ff" xlink:href="#2iv1ax"/></g><g transform="translate(-230 -4471)"><use xlink:href="#2iv1ay"/></g><g transform="translate(-230 -4471)"><use fill="#ff98d4" xlink:href="#2iv1az"/></g><g transform="translate(-230 -4471)"><use fill="#0993c7" xlink:href="#2iv1aA"/></g><g transform="translate(-230 -4471)"><use fill="#327774" xlink:href="#2iv1aB"/></g><g transform="translate(-230 -4471)"><use fill="#2f6e80" xlink:href="#2iv1aC"/></g><g transform="translate(-230 -4471)"><use fill="#0993c7" xlink:href="#2iv1aD"/></g><g transform="translate(-230 -4471)"><use fill="#008ddc" xlink:href="#2iv1aE"/></g><g transform="translate(-230 -4471)"><use fill="#008ddc" xlink:href="#2iv1aF"/></g><g transform="translate(-230 -4471)"><use fill="#008ddc" xlink:href="#2iv1aG"/></g><g transform="translate(-230 -4471)"><use fill="#07a4a8" xlink:href="#2iv1aH"/></g></g></svg>