<svg xmlns="http://www.w3.org/2000/svg" xmlns:xlink="http://www.w3.org/1999/xlink" width="219.33" height="128" viewBox="0 0 329 192"><defs><path id="13oaa" d="M370.955 4071.098s-21.357 24.763-68.096 32.225c-71.18 11.364-69.737 99.675 7.384 117.661 77.121 17.987 56.601-11.241 165.719-3.747s82.624-73.948 42.943-99.09c-41.035-26-2.526-72.346-63.446-82.273-47.866-7.8-84.504 35.224-84.504 35.224z"/><path id="13oac" d="M240.973 4193.09h327.253"/><path id="13oad" d="M276.55 4177.382c-2.411 0-12.331-2.12-13.137-11.905-.41-4.98.937-8.315 2.239-11.54 1.545-3.826 3.003-7.44 1.778-13.676-.534-2.72-1.22-4.98-1.826-6.973-2.022-6.66-3.136-10.33 5.485-17.404.06-.046 4.776-3.607 4.844-8.247.074-5.084 6.896-10.668 13.035-10.668 1.575 0 3.038.353 4.347 1.05 2.448 1.304 3.935 2.935 4.546 4.986.999 3.358-.263 7.762-4.355 15.199-4.026 7.316-1.932 9.819-.084 12.026.605.724 1.177 1.407 1.493 2.214.145.37.31.743.482 1.125 1.258 2.815 2.823 6.32-2.28 13.284-2.844 3.882-2.287 8.182-1.748 12.34.512 3.946 1.04 8.024-1.341 11.69-.195.255-4.457 5.645-13.403 6.496z"/><path id="13oae" d="M288.967 4097.344c1.44 0 2.86.309 4.171 1.007 6.892 3.67 5.503 9.74.038 19.673-5.464 9.93.171 11.445 1.39 14.556 1.217 3.112 3.907 6.329-1.75 14.05-5.66 7.723 1.687 16.676-3.103 24.05 0 0-4.237 5.48-13.124 6.326a.353.353 0 0 1-.039.002c-.852 0-11.907-1.155-12.764-11.562-.874-10.613 6.324-13.488 4.012-25.257-2.313-11.77-7.455-15.002 3.528-24.015 0 0 4.91-3.645 4.981-8.531.07-4.736 6.541-10.3 12.66-10.3zm0-.75c-6.314 0-13.333 5.776-13.41 11.037-.065 4.449-4.632 7.907-4.678 7.942-8.844 7.255-7.636 11.233-5.634 17.824.602 1.985 1.285 4.235 1.816 6.936 1.204 6.128-.234 9.69-1.757 13.463-1.319 3.267-2.682 6.644-2.265 11.71.83 10.072 11.031 12.252 13.511 12.252h.036l.073-.005c9.107-.867 13.466-6.381 13.647-6.615l.02-.024.016-.026c2.457-3.782 1.92-7.931 1.4-11.942-.555-4.274-1.079-8.31 1.678-12.072 5.231-7.14 3.616-10.753 2.32-13.658-.169-.376-.334-.743-.477-1.11-.338-.861-.928-1.568-1.554-2.316-1.77-2.116-3.777-4.514.125-11.605 4.146-7.535 5.417-12.021 4.385-15.487-.64-2.152-2.187-3.856-4.728-5.21-1.364-.726-2.886-1.094-4.524-1.094z"/><path id="13oaf" d="M306.396 4179.679c-1.109 0-4.889-8.062-5.751-16.576-.007-.072-.164-1.753.688-2.694.371-.41.866-.618 1.472-.618.458 0 .985.124 1.57.37-.503-2.66-1.865-11.6 1.587-15.915 1.242-1.55 2.977-2.337 5.158-2.337.406 0 .835.028 1.272.082 2.277.285 3.449.824 4.644 2.134 1.206 1.324 2.894 4.263.656 9.088-1.093 2.358-2.136 4.277-3.055 5.969-2.192 4.037-3.515 6.474-2.417 9.393 1.704 4.528.977 5.969-5.558 11.014l-.101.078z"/><path id="13oag" d="M311.12 4142.283c.388 0 .796.026 1.226.08 2.057.257 3.228.715 4.413 2.015 1.603 1.76 2.485 4.596.592 8.676-3.784 8.162-7.109 11.33-5.482 15.652 1.626 4.321 1.077 5.557-5.436 10.586a.06.06 0 0 1-.037.012c-.595 0-4.46-7.173-5.378-16.24 0 0-.289-2.898 1.787-2.898.528 0 1.21.187 2.088.66 0 0-4.163-18.543 6.227-18.543zm0-.75c-2.3 0-4.134.834-5.45 2.48-3.305 4.127-2.339 12.29-1.779 15.574a3.808 3.808 0 0 0-1.086-.17c-.706 0-1.31.255-1.75.74-.946 1.045-.803 2.786-.784 2.981a44.686 44.686 0 0 0 2.86 11.721c.935 2.37 2.261 5.195 3.265 5.195h.256l.24-.168c6.725-5.193 7.468-6.69 5.68-11.445-1.039-2.758.18-5.004 2.395-9.08.922-1.698 1.966-3.623 3.065-5.99 2.33-5.023.55-8.108-.719-9.498-1.415-1.553-2.859-2.002-4.875-2.254a10.606 10.606 0 0 0-1.318-.086z"/><path id="13oah" d="M408.015 4184.561v13.305h-21.419v-39.122c-1.983 2.797-1.598 5.768-1.19 8.912.38 2.925.771 5.948-1.004 8.681-.086.113-1.698 2.148-4.999 3.573v17.956h-21.418v-20.32h5.956l1.203-2.456-.057-.492a9.233 9.233 0 0 1-.478-2.292 15.131 15.131 0 0 1-.024-2.058l-.52-4.427c-.473-3.673-.304-10.285.346-13.602l.762-3.884-1.444-9.717c-.297-2-.152-4.085.42-6.044l-8.455-6.729c-1.09-.716-1.792-1.648-2-2.673-.179-.869.016-1.76.56-2.58l7.511-11.304a7.69 7.69 0 0 1 6.675-3.874l.292-.02-.012-2.883-.554-1.637s-1.439-3.548-1.974-4.948a7.893 7.893 0 0 1 .374-6.464 7.93 7.93 0 0 1 5.106-4.025 8.468 8.468 0 0 1 2.047-.253c3.34 0 6.187 1.998 7.254 5.09.341.99.351 1.517.351 1.573v.237l-.246.118c.11.435.16.826.154 1.185l.092 2.794v2.534c0 2.095-1.68 3.8-3.744 3.83l-2.242-.068v2.496l13.05-.834.473-11.299a4.482 4.482 0 0 1-.52-.924 1.425 1.425 0 0 1-.812-1.283l.004-1.173c.001-.349.167-.67.44-.874l.001-.425a1.103 1.103 0 0 1 1.101-1.097c.138.001.27.027.392.075.155-.428.58-.74 1.074-.74.33.001.627.14.833.358a1.093 1.093 0 0 1 1.591.427 1.099 1.099 0 0 1 1.56 1.005l-.003 2.791a4.748 4.748 0 0 1-.248 1.466l.026.106.11 13.556c10.34-16.852 28.116-27.53 47.85-28.67l.79-.512c.004-.592.051-1.13.143-1.632l-2.088-2.007 1.956-3.647 2.83.628a9.539 9.539 0 0 1 1.306-1.014l-.037-2.843 3.962-1.208 1.55 2.358h.03a9.7 9.7 0 0 1 1.62.113l2.042-2.154 3.65 1.96-.668 2.893c.351.383.633.825.907 1.255l.07.11 2.832-.043 1.19 3.957-2.399 1.53a9.424 9.424 0 0 1-.183 1.612l.997.976a60.512 60.512 0 0 1 23.662 13.331l4.348-4.146a21.31 21.31 0 0 1-1.979-16.135l.087-.31a7.192 7.192 0 0 1 6.907-5.242 7.155 7.155 0 0 1 6.807 4.982c.302-.036.605-.054.908-.054 2.044 0 3.963.793 5.403 2.233a7.671 7.671 0 0 1 2.181 6.313 7.102 7.102 0 0 1 4.033 3.265 7.094 7.094 0 0 1 .693 5.44 7.196 7.196 0 0 1-4.986 5.01l-.31.086a21.19 21.19 0 0 1-16.135-1.979l-4.144 4.347a60.385 60.385 0 0 1 8.844 12.548l4.123-2.096 3.307 3.513c.954-.173 1.966-.325 2.973-.325h.116l2.8-4.229 6.405 2.11-.266 5.067c.745.547 1.384 1.246 2.004 1.923l.251.273 4.758-.912 3.026 6.016-3.582 3.285c.155.917.216 1.917.188 3.043l3.952 2.708-2.108 6.397-4.786-.177c-.52.75-1.149 1.587-1.925 2.34l.915 4.755-6.012 3.012-3.275-3.613c-.613.1-1.278.146-2.073.146-.315 0-.632-.007-.952-.017l-2.668 3.83-.826-.272c-4.232 29.467-29.79 51.63-59.636 51.63a60.367 60.367 0 0 1-37.773-13.305zm-22.03-39.498a61.07 61.07 0 0 1-.373-4.415c-.616 2.117-.237 3.428.373 4.415zm120.926-11.317a7.294 7.294 0 0 0 9.221-4.65 7.257 7.257 0 0 0-.416-5.573 7.249 7.249 0 0 0-4.234-3.646 7.263 7.263 0 0 0-2.282-.369 7.324 7.324 0 0 0-5.266 2.247 60.203 60.203 0 0 1 1.955 11.56 7.02 7.02 0 0 0 1.022.431zm-143.778-8.756v-6.149l-2.71 3.974zm23.655-2.487a9.4 9.4 0 0 1 .57.33 59.908 59.908 0 0 1 4.573-12.29c-.29.11-.594.18-.904.213l-11.012 1.157-.218 10.634c1.252-.543 2.537-.829 3.746-.829 1.175 0 2.267.264 3.245.785zm69.588-44.228a4.048 4.048 0 0 0-3.853-5.275c-1.502 0-2.875.82-3.585 2.142a3.987 3.987 0 0 0-.453 2.261c2.63.116 5.281.41 7.891.872z"/><path id="13oai" d="M450.964 4065.643l-3.425 1.044.036 2.768c-.545.353-1.102.751-1.566 1.223l-2.751-.61-1.687 3.146 2.03 1.951a9.128 9.128 0 0 0-.176 1.966l-1.043.676c-20.684 1.161-38.552 12.818-48.39 29.73.03-.184.052-.369.05-.56v-.075l-.116-14.347h-.087a4.5 4.5 0 0 0 .308-1.576l.003-1.973h-.002l.002-.818a.725.725 0 0 0-.723-.728h-.002a.725.725 0 0 0-.723.704l.003-.488a.726.726 0 0 0-.724-.728h-.002a.716.716 0 0 0-.684.521.742.742 0 0 0-.751-.695h-.003c-.417 0-.756.32-.761.716l-.011.513a.717.717 0 0 0-.691-.564h-.003a.727.727 0 0 0-.726.724l-.003.636a.724.724 0 0 0-.438.662l-.003 1.174c-.001.468.307.854.728.996.143.393.352.756.609 1.091l-.493 11.77-13.785.881v-3.282l2.61.078a3.424 3.424 0 0 0 3.375-3.424v-2.55l-.091-2.814c.007-.453-.086-.92-.226-1.387.098-.049.2-.087.297-.137l.02-.01s0-.492-.33-1.45c-1.066-3.092-3.87-4.839-6.9-4.839-.646 0-1.303.08-1.956.244-4.383 1.094-6.834 5.771-5.221 9.991.536 1.4 1.975 4.95 1.979 4.961l.574 1.695.014 3.297-.668.043a7.314 7.314 0 0 0-6.363 3.707l-7.511 11.304c-1.107 1.665-.544 3.498 1.36 4.752l8.615 6.852.035.048a13.79 13.79 0 0 0-.476 6.111l1.453 9.781-.774 3.948c-.671 3.421-.787 10.028-.343 13.486l.523 4.488c-.031.632-.036 1.29.023 2.01.07.845.245 1.592.477 2.28l.07.6-1.355 2.765h-5.814v19.57h20.668v-17.83c3.405-1.405 5.059-3.528 5.059-3.528 3.529-5.434-1.884-12.032 2.286-17.72.219-.3.412-.585.598-.866v39.944h20.668v-13.72c10.36 8.57 23.653 13.72 38.148 13.72 30.315 0 55.353-22.526 59.328-51.75l.986.323 2.625-3.767c.387.012.769.023 1.147.023.744 0 1.476-.04 2.208-.177l3.223 3.556 5.503-2.757-.9-4.677c.823-.767 1.492-1.648 2.142-2.592l4.709.174 1.93-5.862-3.887-2.665c.039-1.145-.007-2.268-.212-3.374l3.524-3.232-2.771-5.509-4.685.897c-.767-.822-1.561-1.768-2.505-2.418l.26-4.985-5.861-1.932-2.755 4.164a8.273 8.273 0 0 0-.315-.005c-1.044 0-2.1.168-3.105.355l-3.255-3.456-4.202 2.136a60.03 60.03 0 0 0-9.2-13.055l4.592-4.813a20.835 20.835 0 0 0 10.52 2.852c1.866 0 3.743-.25 5.582-.764l.31-.086a6.786 6.786 0 0 0 4.725-4.748c1.012-3.703-1.242-7.389-4.78-8.336a7.26 7.26 0 0 0-8.345-8.345 6.798 6.798 0 0 0-6.54-5.023c-.59 0-1.193.078-1.797.243a6.783 6.783 0 0 0-4.747 4.725l-.087.31a20.82 20.82 0 0 0 2.089 16.102l-4.815 4.592a59.789 59.789 0 0 0-23.862-13.51l-1.21-1.186a8.98 8.98 0 0 0 .218-1.943l2.33-1.488-1.025-3.414-2.758.041c-.354-.545-.712-1.164-1.184-1.628l.649-2.812-3.145-1.689-1.987 2.096c-.567-.12-1.163-.146-1.74-.146l-.242.001zm5.658 13.058a60.17 60.17 0 0 0-8.468-.937 4.394 4.394 0 0 1 .454-2.799 4.439 4.439 0 0 1 6.01-1.812c2.01 1.08 2.83 3.48 2.004 5.548zm-77.212 44.44l.238-11.566 11.34-1.192a3.392 3.392 0 0 0 1.877-.828 59.48 59.48 0 0 0-5.271 13.884c-.3-.21-.622-.413-.982-.605-.965-.514-2.01-.74-3.068-.74-1.403 0-2.83.396-4.134 1.047zm-15.901 2.63l-3.592-2.88 3.592-5.264zm145.69 8.72a7.636 7.636 0 0 1-3.67-.94 59.684 59.684 0 0 0-2.011-11.9 7.701 7.701 0 0 1 5.683-2.518 7.677 7.677 0 0 1-.002 15.357zm-122.651 11.94c-1.23-1.47-2.623-3.263-.624-7.67.05 2.6.254 5.162.624 7.67zm65.043-81.2l1.284 1.956c.387.003.844.021 1.31.086l1.71-1.803.395-.416.505.272 3.144 1.687.505.272-.128.558-.56 2.427c.296.35.545.734.77 1.09l2.34-.036.567-.009.163.543 1.026 3.415.163.543-.478.305-1.992 1.271a9.736 9.736 0 0 1-.147 1.274l.788.771c8.65 2.55 16.744 7.09 23.46 13.153l3.886-3.706a21.692 21.692 0 0 1-1.872-16.165l.087-.309a7.571 7.571 0 0 1 5.272-5.247 7.583 7.583 0 0 1 1.996-.27 7.533 7.533 0 0 1 7.067 4.954c.216-.017.433-.026.649-.026 2.144 0 4.157.833 5.669 2.344a8.051 8.051 0 0 1 2.318 6.317 7.494 7.494 0 0 1 3.955 3.338 7.468 7.468 0 0 1 .729 5.726 7.573 7.573 0 0 1-5.247 5.272l-.31.086a21.535 21.535 0 0 1-5.783.791c-3.63 0-7.205-.919-10.382-2.662l-3.703 3.884a60.713 60.713 0 0 1 8.49 12.041l3.545-1.8.5-.256.386.41 2.976 3.158c.884-.156 1.815-.287 2.753-.293l2.53-3.824.316-.477.544.18 5.862 1.931.545.18-.031.571-.24 4.581c.705.548 1.31 1.21 1.899 1.854l.105.114 4.275-.818.557-.107.254.506 2.77 5.51.256.505-.418.383-3.224 2.957c.126.83.18 1.722.165 2.708l3.553 2.435.464.318-.176.535-1.932 5.863-.177.536-.563-.02-4.3-.16c-.475.672-1.035 1.405-1.71 2.083l.824 4.28.107.558-.508.254-5.504 2.756-.508.255-.383-.422-2.948-3.253c-.576.082-1.2.121-1.927.121-.253 0-.507-.005-.763-.012l-2.393 3.435-.32.46-.53-.176-.137-.045c-2.126 14.055-9.172 26.955-19.906 36.405a60.541 60.541 0 0 1-40.037 15.104 60.748 60.748 0 0 1-37.398-12.903v12.903h-22.168v-38.12c-1.11 2.35-.785 4.856-.444 7.487.388 2.991.789 6.085-1.061 8.933l-.018.027-.02.026c-.068.088-1.664 2.104-4.9 3.56v18.087H357.61v-21.07h6.096l1.053-2.147-.036-.305a10.164 10.164 0 0 1-.488-2.38 15.456 15.456 0 0 1-.028-2.047l-.515-4.418c-.476-3.709-.306-10.38.35-13.727l.75-3.82-1.434-9.653a14.622 14.622 0 0 1 .362-5.964l-8.234-6.55c-1.187-.79-1.934-1.797-2.162-2.914-.197-.968.017-1.958.617-2.86l7.497-11.284c1.426-2.496 4.089-4.049 6.917-4.06l-.011-2.468-.52-1.538c-.013-.035-1.442-3.56-1.983-4.976a8.27 8.27 0 0 1 .392-6.772 8.3 8.3 0 0 1 5.347-4.214 8.832 8.832 0 0 1 2.139-.266c3.502 0 6.488 2.098 7.608 5.344.354 1.026.37 1.592.37 1.695l-.02.47-.17.086c.072.35.105.668.099.953l.092 2.84v2.55c0 2.268-1.845 4.14-4.146 4.173l-1.84-.056v1.71l12.315-.786.454-10.834a4.824 4.824 0 0 1-.433-.769 1.79 1.79 0 0 1-.894-1.552l.003-1.174c.002-.4.166-.773.44-1.044v-.254a1.48 1.48 0 0 1 1.674-1.457 1.526 1.526 0 0 1 2.155-.397 1.474 1.474 0 0 1 1.696.435 1.478 1.478 0 0 1 1.777 1.449v.03h.002l-.002.787-.003 1.974c0 .468-.075.951-.222 1.443v.125l.1 12.273c10.476-16.299 27.975-26.602 47.365-27.752l.538-.349c.01-.46.048-.887.112-1.294l-1.74-1.673-.41-.394.269-.5 1.688-3.146.269-.5.555.122 2.36.523c.345-.308.709-.577 1.039-.803l-.031-2.359-.007-.562.538-.165 3.425-1.044.537-.164zm-2.747 11.814c2.419.121 4.855.39 7.26.802a3.67 3.67 0 0 0-3.58-4.472 3.687 3.687 0 0 0-3.255 1.945 3.591 3.591 0 0 0-.425 1.725zm-68.66 44.942c1.128-.423 2.272-.643 3.36-.643 1.238 0 2.388.28 3.42.828.052.027.103.055.154.084a60.368 60.368 0 0 1 4.116-11.149 3.18 3.18 0 0 1-.167.022l-10.683 1.123zm124.169-.122a60.585 60.585 0 0 1 1.895 11.21c.263.125.52.23.78.315a6.913 6.913 0 0 0 8.747-4.411 6.882 6.882 0 0 0-.393-5.287 6.882 6.882 0 0 0-4.017-3.46 6.932 6.932 0 0 0-2.164-.349 6.95 6.95 0 0 0-4.848 1.982zm-141.594 2.344v-4.153l-1.831 2.684z"/><path id="13oaj" d="M276.55 4177.257c-2.388 0-12.214-2.098-13.012-11.791-.408-4.95.933-8.271 2.23-11.482 1.552-3.844 3.017-7.474 1.784-13.748-.535-2.725-1.222-4.988-1.83-6.985-2.005-6.608-3.11-10.25 5.446-17.27.057-.043 4.82-3.64 4.89-8.342.073-5.026 6.83-10.545 12.91-10.545 1.555 0 2.998.349 4.289 1.036 2.417 1.287 3.883 2.894 4.483 4.91.989 3.323-.27 7.699-4.344 15.104-4.067 7.39-1.943 9.928-.07 12.167.599.716 1.164 1.39 1.473 2.178.145.372.313.747.484 1.13 1.245 2.787 2.793 6.255-2.266 13.159-2.875 3.923-2.314 8.249-1.772 12.432.509 3.922 1.035 7.978-1.322 11.606-.055.073-4.417 5.592-13.31 6.439z"/><path id="13oak" d="M288.967 4097.344c1.44 0 2.86.308 4.171 1.007 6.892 3.67 5.503 9.74.038 19.673-5.464 9.93.171 11.446 1.39 14.556 1.217 3.112 3.907 6.329-1.75 14.05-5.66 7.723 1.687 16.676-3.103 24.05 0 0-4.237 5.48-13.124 6.326a.353.353 0 0 1-.039.002c-.85 0-11.907-1.154-12.764-11.562-.874-10.613 6.324-13.488 4.012-25.257-2.313-11.77-7.455-15.002 3.528-24.015 0 0 4.91-3.645 4.981-8.531.07-4.736 6.541-10.3 12.66-10.3zm0-.5c-6.197 0-13.084 5.648-13.16 10.79-.067 4.577-4.732 8.104-4.779 8.139-8.705 7.142-7.582 10.84-5.544 17.55.605 1.992 1.29 4.249 1.823 6.962 1.218 6.2-.234 9.797-1.772 13.605-1.307 3.239-2.659 6.589-2.247 11.597.814 9.88 10.827 12.02 13.262 12.02h.024l.062-.003c9-.856 13.294-6.288 13.473-6.518 2.43-3.74 1.898-7.841 1.384-11.808-.56-4.324-1.09-8.41 1.725-12.251 5.145-7.022 3.564-10.563 2.292-13.41-.169-.38-.335-.75-.479-1.118-.323-.826-.9-1.517-1.514-2.248-1.82-2.178-3.886-4.646.097-11.886 4.111-7.47 5.376-11.901 4.366-15.296-.62-2.084-2.127-3.74-4.607-5.06-1.327-.707-2.81-1.065-4.406-1.065z"/><path id="13oal" d="M306.397 4179.554c-.942 0-4.73-7.594-5.627-16.464-.007-.07-.16-1.697.656-2.597.347-.382.81-.577 1.38-.577.497 0 1.08.154 1.738.455-.455-2.305-2.012-11.637 1.518-16.046 1.215-1.52 2.917-2.291 5.058-2.291.401 0 .823.028 1.256.082 2.243.28 3.395.808 4.566 2.094 1.448 1.587 2.733 4.429.636 8.95-1.092 2.354-2.133 4.27-3.05 5.962-2.21 4.069-3.544 6.524-2.425 9.496 1.694 4.5 1.023 5.823-5.518 10.873l-.066.05z"/><path id="13oam" d="M311.12 4142.283c.388 0 .796.026 1.226.08 2.057.257 3.228.715 4.412 2.015 1.604 1.76 2.486 4.596.593 8.676-3.784 8.162-7.109 11.33-5.482 15.652 1.627 4.321 1.077 5.557-5.436 10.586a.06.06 0 0 1-.037.012c-.595 0-4.46-7.172-5.378-16.24 0 0-.288-2.898 1.787-2.898.528 0 1.21.187 2.088.66 0 0-4.16-18.542 6.227-18.543zm.001-.5c-2.22.001-3.988.803-5.254 2.385-3.393 4.238-2.188 12.871-1.656 15.791-.516-.197-.98-.293-1.406-.293-.633 0-1.174.228-1.565.66-.888.98-.727 2.715-.72 2.788.842 8.312 4.56 16.69 5.876 16.69h.171l.171-.117c6.6-5.093 7.332-6.553 5.6-11.158-1.079-2.865.16-5.146 2.41-9.288.92-1.694 1.962-3.614 3.057-5.976 2.268-4.89.55-7.878-.677-9.224-1.363-1.496-2.763-1.93-4.72-2.174a10.285 10.285 0 0 0-1.287-.084z"/><path id="13oan" d="M374.416 4180.795c-.333.032-8.79-.7-9.434-8.52-.644-7.82 4.66-9.938 2.956-18.611-1.704-8.673-5.493-11.055 2.6-17.696 0 0 3.618-2.686 3.671-6.286.063-4.31 7.324-9.552 12.402-6.848 5.078 2.705 4.055 7.179.03 14.497-4.028 7.318.125 8.435 1.022 10.728.897 2.292 2.88 4.663-1.29 10.353-4.169 5.69 1.244 12.287-2.286 17.72 0 0-3.122 4.04-9.67 4.663z"/><path id="13oao" d="M376.133 4192.757a.356.356 0 0 0 .248-.42c-5.322-23.757 2.814-56.67 2.897-56.998a.355.355 0 1 0-.69-.174c-.084.332-8.26 33.407-2.902 57.328a.356.356 0 0 0 .425.27z"/><path id="13oap" d="M376.167 4149.972c.02-.005.039-.013.058-.021a.357.357 0 0 0 .163-.476c-.02-.042-2.041-4.204-2.932-7.786a.356.356 0 1 0-.691.172c.909 3.655 2.963 7.883 2.984 7.925a.353.353 0 0 0 .418.186z"/><path id="13oaq" d="M375.044 4159.744a.358.358 0 0 0 .136-.075c1.74-1.538 6.144-4.473 6.188-4.502a.355.355 0 0 0 .1-.493.353.353 0 0 0-.494-.099c-.182.121-4.49 2.99-6.265 4.561a.357.357 0 0 0-.03.503.357.357 0 0 0 .365.105z"/><path id="13oar" d="M439.433 4188.896c-.13.014-3.48-.275-3.735-3.372-.255-3.097 1.845-3.936 1.17-7.37-.674-3.433-2.175-4.376 1.03-7.005 0 0 1.432-1.065 1.453-2.49.025-1.706 2.9-3.782 4.911-2.71 2.01 1.07 1.606 2.842.011 5.739-1.594 2.896.05 3.34.405 4.246.356.909 1.14 1.848-.51 4.1-1.652 2.254.492 4.866-.905 7.017 0 0-1.237 1.6-3.83 1.845z"/><path id="13oas" d="M440.113 4193.633a.141.141 0 0 0 .098-.166c-2.107-9.406 1.114-22.438 1.147-22.568a.14.14 0 0 0-.273-.07c-.033.132-3.27 13.229-1.15 22.7a.14.14 0 0 0 .178.104z"/><path id="13oat" d="M440.127 4176.692a.085.085 0 0 0 .022-.009.138.138 0 0 0 .065-.187c-.007-.017-.808-1.665-1.161-3.083a.14.14 0 1 0-.273.067c.36 1.448 1.173 3.122 1.18 3.14a.14.14 0 0 0 .167.072z"/><path id="13oau" d="M439.682 4180.561a.136.136 0 0 0 .054-.028c.688-.61 2.432-1.772 2.45-1.784a.141.141 0 0 0 .04-.195.139.139 0 0 0-.196-.039c-.073.048-1.778 1.184-2.48 1.806a.14.14 0 0 0-.013.198.139.139 0 0 0 .145.042z"/><path id="13oav" d="M499.985 4144.312l.127-4.641-.412-.278c-.74-.496-1.442-.966-2.06-1.604l-4.747.904-2.96-5.851 3.523-3.28c-.207-1.152-.296-2.195-.273-3.18l-4.087-2.745 2.05-6.222 4.92.216c.663-.936 1.484-1.756 2.156-2.387l-.9-4.751 5.853-2.975 3.29 3.493c.967-.177 1.996-.334 3.017-.334h.183l2.783-4.206 6.226 2.05-.265 5.039c.758.546 1.41 1.258 2.04 1.947l.3.324 4.732-.907 2.941 5.847-3.562 3.266c.164.947.23 1.982.195 3.155l3.931 2.694-2.049 6.219-4.76-.177c-.536.773-1.187 1.648-1.998 2.426l.91 4.727-5.842 2.926-3.258-3.593c-.623.107-1.298.156-2.11.156-.339 0-.68-.008-1.025-.02l-2.654 3.81zm9.21-24.93a7.416 7.416 0 0 0-7.053 5.105 7.384 7.384 0 0 0 .423 5.669 7.375 7.375 0 0 0 4.307 3.709 7.421 7.421 0 0 0 9.38-4.73 7.384 7.384 0 0 0-.424-5.668 7.378 7.378 0 0 0-4.307-3.71 7.421 7.421 0 0 0-2.326-.374z"/><path id="13oaw" d="M512.552 4106.767l-2.755 4.164a11.17 11.17 0 0 0-.317-.005c-1.044 0-2.099.168-3.103.355l-3.256-3.456-5.519 2.806.891 4.702c-.822.766-1.65 1.61-2.3 2.553l-4.869-.213-1.93 5.862 4.043 2.716c-.04 1.145.084 2.295.29 3.4l-3.487 3.245 2.791 5.515 4.695-.894c.766.823 1.696 1.374 2.64 2.024l-.126 4.592 5.862 1.931 2.625-3.767c.387.012.768.023 1.147.023.743 0 1.475-.04 2.208-.177l3.222 3.556 5.504-2.757-.9-4.677c.823-.767 1.492-1.648 2.141-2.592l4.71.174 1.931-5.862-3.888-2.665c.04-1.145-.007-2.268-.213-3.374l3.525-3.232-2.77-5.509-4.686.897c-.767-.822-1.562-1.768-2.506-2.418l.262-4.985zm-3.354 27.723a7.64 7.64 0 0 1-2.404-.388 7.676 7.676 0 1 1 4.805-14.582 7.677 7.677 0 0 1-2.4 14.97zm3.51-28.197l5.863 1.931.362.12-.02.381-.247 4.713c.732.55 1.361 1.237 1.971 1.904l.2.217 4.412-.845.371-.07.17.336 2.77 5.51.17.336-.278.256-3.323 3.048c.144.89.204 1.853.18 2.932l3.663 2.51.31.213-.117.356-1.932 5.863-.118.357-.375-.014-4.436-.165c-.506.725-1.11 1.527-1.854 2.256l.85 4.41.07.372-.339.17-5.503 2.755-.339.17-.255-.28-3.039-3.353c-.599.094-1.25.138-2.02.138-.296 0-.593-.007-.893-.016l-2.47 3.546-.213.306-.353-.116-5.863-1.932-.354-.117.011-.372.12-4.318-.299-.2c-.715-.479-1.393-.934-2.007-1.543l-4.429.844-.37.07-.17-.336-2.79-5.514-.17-.335.275-.257 3.286-3.06a16.214 16.214 0 0 1-.256-2.957l-3.816-2.563-.315-.21.12-.36 1.93-5.864.12-.359.377.017 4.596.201c.627-.86 1.375-1.618 2.01-2.219l-.84-4.433-.07-.368.333-.17 5.52-2.805.334-.17.256.272 3.07 3.258c.937-.169 1.931-.314 2.925-.314h.051l2.604-3.934.21-.318zm-3.51 27.697a7.163 7.163 0 0 0 6.815-4.933c.6-1.82.455-3.766-.408-5.477a7.13 7.13 0 0 0-4.162-3.585 7.164 7.164 0 0 0-9.063 4.57c-1.239 3.76.812 7.824 4.57 9.063a7.166 7.166 0 0 0 2.248.362z"/><path id="13oax" d="M452.485 4086.333c-.609-.013-1.155-.11-1.705-.225l-1.908 1.919-3.473-1.865.542-2.649-.166-.161c-.362-.347-.705-.677-.994-1.089l-2.816.04-1.145-3.782 2.354-1.526c0-.637.051-1.211.154-1.745l-2.068-1.987 1.867-3.48 2.802.622c.452-.439.967-.802 1.393-1.084l-.036-2.818 3.783-1.153 1.536 2.337h.097c.471 0 1.075.014 1.664.123l2.023-2.134 3.482 1.869-.66 2.865c.364.387.656.846.94 1.29l.103.163 2.81-.042 1.133 3.777-2.375 1.515a9.318 9.318 0 0 1-.195 1.723l1.984 1.943-1.866 3.476-2.714-.582c-.366.368-.8.773-1.309 1.121l.045 2.807-3.774 1.126zm.038-13.458a4.187 4.187 0 0 0-3.695 2.209 4.192 4.192 0 0 0 3.688 6.171 4.187 4.187 0 0 0 3.694-2.209 4.164 4.164 0 0 0 .32-3.191 4.158 4.158 0 0 0-2.03-2.481 4.186 4.186 0 0 0-1.977-.499z"/><path id="13oay" d="M450.964 4065.644l-3.425 1.044.036 2.767c-.545.354-1.101.75-1.566 1.224l-2.751-.611-1.687 3.146 2.03 1.95a9.139 9.139 0 0 0-.176 1.967l-2.31 1.498 1.036 3.42 2.763-.037c.354.545.828.952 1.3 1.417l-.531 2.602 3.144 1.688 1.873-1.883c.632.134 1.244.25 1.877.25l.048-.001 1.479 2.348 3.41-1.018-.043-2.754c.545-.354 1.015-.79 1.48-1.261l2.664.57 1.688-3.144-1.948-1.907a8.915 8.915 0 0 0 .218-1.942l2.33-1.49-1.025-3.413-2.758.04c-.354-.544-.711-1.163-1.184-1.627l.649-2.812-3.145-1.69-1.987 2.097c-.567-.121-1.163-.145-1.74-.145h-.242zm1.552 15.86a4.44 4.44 0 1 1 0 0zm-1.134-16.135l1.358 2.068c.438 0 .986.014 1.538.103l1.799-1.897.263-.278.337.18 3.144 1.689.337.18-.086.373-.59 2.55c.34.38.615.812.88 1.23l.029.044 2.479-.037.378-.006.109.362 1.026 3.415.109.362-.32.203-2.102 1.342c-.013.468-.07.963-.171 1.5l1.753 1.717.269.264-.178.33-1.688 3.145-.178.33-.367-.078-2.398-.515a9.17 9.17 0 0 1-1.137.978l.04 2.484.006.379-.363.109-3.411 1.017-.363.109-.203-.322-1.334-2.118a9.212 9.212 0 0 1-1.484-.201l-1.681 1.69-.263.265-.328-.176-3.145-1.687-.328-.177.075-.364.477-2.333-.066-.065c-.326-.312-.66-.633-.948-1.018l-2.498.035-.376.005-.11-.361-1.036-3.42-.11-.36.317-.204 2.083-1.351c.007-.547.05-1.05.133-1.521l-1.835-1.764-.273-.262.179-.335 1.688-3.145.179-.333.37.08 2.487.553c.4-.372.836-.69 1.218-.944l-.033-2.494-.005-.375.359-.11 3.425-1.044.358-.108zm1.134 15.636a3.938 3.938 0 0 0 3.775-5.077 3.914 3.914 0 0 0-1.908-2.334 3.938 3.938 0 0 0-3.726 6.941c.572.307 1.214.47 1.859.47z"/><path id="13oaz" d="M505.681 4137.599c0 33.078-26.815 59.893-59.893 59.893-33.079 0-59.894-26.815-59.894-59.893s26.815-59.894 59.894-59.894c33.078 0 59.893 26.816 59.893 59.894z"/><path id="13oaA" d="M495.7 4137.599c0 27.564-22.347 49.91-49.912 49.91-27.566 0-49.912-22.346-49.912-49.91 0-27.565 22.346-49.912 49.912-49.912 27.565 0 49.911 22.347 49.911 49.912z"/><path id="13oaB" d="M485.656 4137.599c0 22.019-17.85 39.867-39.868 39.867s-39.868-17.848-39.868-39.867c0-22.02 17.85-39.868 39.868-39.868s39.868 17.849 39.868 39.868z"/><path id="13oaC" d="M476.322 4137.599c0 16.863-13.67 30.534-30.534 30.534-16.864 0-30.535-13.671-30.535-30.534 0-16.864 13.671-30.535 30.535-30.535 16.863 0 30.534 13.67 30.534 30.535z"/><path id="13oaD" d="M465.117 4137.599c0 10.675-8.654 19.328-19.33 19.328-10.674 0-19.328-8.653-19.328-19.328 0-10.676 8.654-19.33 19.329-19.33s19.329 8.654 19.329 19.33z"/><path id="13oaE" d="M456.546 4137.599c0 5.94-4.817 10.758-10.758 10.758-5.942 0-10.759-4.817-10.759-10.758 0-5.942 4.817-10.76 10.76-10.76 5.94 0 10.757 4.818 10.757 10.76z"/><path id="13oaF" d="M448.48 4137.599a2.691 2.691 0 1 1-5.383 0 2.691 2.691 0 0 1 5.382 0z"/><path id="13oaG" d="M508.64 4074.695a7.278 7.278 0 0 1 0 10.291 7.278 7.278 0 0 1-10.292 0 7.278 7.278 0 0 1 0-10.29 7.278 7.278 0 0 1 10.291 0z"/><path id="13oaH" d="M502.762 4078.037l-.21-3.962c-.227-4.322-4.39-7.33-8.565-6.188a6.78 6.78 0 0 0-4.747 4.724l-.087.31a20.819 20.819 0 0 0 3.502 18.214z"/><path id="13oaI" d="M505.297 4080.573l3.962.21c4.323.227 7.33 4.39 6.19 8.564a6.784 6.784 0 0 1-4.726 4.748l-.31.086a20.816 20.816 0 0 1-18.213-3.5z"/><path id="13oaJ" d="M459.984 4125.154l-13.882 13.146-1.069-1.068 13.147-13.882z"/><path id="13oaK" d="M505.297 4080.573l-45.397 47.603-4.74-4.742 47.601-45.397z"/><path id="13oaL" d="M461.453 4126.623l-8.266 8.266-4.74-4.742 8.265-8.265z"/><path id="13oaM" d="M358.36 4197.49v-19.57h20.67v19.57z"/><path id="13oaN" d="M386.97 4197.49v-43.17h20.67v43.17z"/><path id="13oaO" d="M394.15 4089.006l-.003 1.974a4.53 4.53 0 0 1-.395 1.842l-.17.376-3.852.08-.061-.056c-.92-.851-1.33-2.036-1.326-3.288l-.11-.512z"/><path id="13oaP" d="M388.637 4088.737a.727.727 0 0 0-.73.724l-.002 1.173a1.06 1.06 0 0 0 1.057 1.063.392.392 0 0 0 .393-.39l.006-1.84a.726.726 0 0 0-.724-.73z"/><path id="13oaQ" d="M389.078 4087.44a.727.727 0 0 0-.73.723l-.005 1.486a.724.724 0 1 0 1.449.007l.01-1.487a.727.727 0 0 0-.724-.73z"/><path id="13oaR" d="M390.543 4086.774c-.418 0-.758.318-.764.717l-.048 2.14a.762.762 0 0 0 1.522.035l.05-2.157c.004-.403-.337-.734-.76-.735z"/><path id="13oaS" d="M391.981 4086.948a.725.725 0 0 0-.728.724l-.01 2.013a.726.726 0 1 0 1.452.007l.01-2.016a.726.726 0 0 0-.724-.728z"/><path id="13oaT" d="M393.426 4087.46a.725.725 0 0 0-.728.724l-.005 1.507a.726.726 0 1 0 1.452.004l.005-1.506a.726.726 0 0 0-.724-.729z"/><path id="13oaU" d="M365.53 4175.156l-1.355 2.765h8.526a2.07 2.07 0 0 0-2.32-1.539l-1.021.156a.998.998 0 0 1-.922-1.382z"/><path id="13oaV" d="M394.367 4151.555l-.786 2.765h8.486a2.068 2.068 0 0 0-2.32-1.538l-1.55.156a1 1 0 0 1-.922-1.383z"/><path id="13oaW" d="M375.356 4127.036h-8.848l-1.302 3.757a13.784 13.784 0 0 0-1.106 7.77l1.453 9.781-.774 3.948c-.67 3.422-.787 10.028-.342 13.486l1.092 9.378h2.908l5.43-38.279z"/><path id="13oaX" d="M374.59 4127.036l4.357 2.64 15.193-.498a1.678 1.678 0 0 1 1.592 1.37l1.907 20.98-3.597.081s-3.462-9.714-3.462-13.965c-3.514 1.472-18.531 2.646-18.531 2.646z"/><path id="13oaY" d="M368.44 4105.79a7.314 7.314 0 0 0-6.362 3.706l-7.511 11.304c-1.107 1.664-.544 3.497 1.36 4.751l8.615 6.854 4.08-.572 10.653-2.047.373-18.21 11.34-1.193a3.404 3.404 0 0 0 3.054-3.406v-.074l-.116-14.347h-4.676l-.501 11.937zm-4.931 19.981l-3.592-2.88 3.592-5.265z"/><path id="13oaZ" d="M380.857 4093.38c.04-2.373-2.067-5.153-5.116-5.971a6.905 6.905 0 0 0-7.655 3.03l-.264.427a6.906 6.906 0 0 0-.74 5.639l2.012 5.944.014 3.32.305.41c1.511 2.029 4.484 1.645 5.55-.648v-3.44l2.612.078a3.423 3.423 0 0 0 3.373-3.424v-.03l.001-2.521z"/><path id="13oaaa" d="M378.053 4098.51a1.508 1.508 0 0 1-3.015 0z"/><path id="13oaab" d="M372.703 4131.896a.725.725 0 0 0-.265-.99l-2.756-1.594-1.646.728 3.675 2.122c.347.2.791.082.992-.266z"/><path id="13oaac" d="M372.55 4133.499c.21-.361.103-.816-.24-1.019l-4.237-2.504-.761 1.318 4.224 2.498c.347.205.804.073 1.015-.293z"/><path id="13oaad" d="M371.25 4134.411a.726.726 0 0 0-.266-.992l-3.674-2.123-.727 1.257 3.675 2.123a.726.726 0 0 0 .993-.265z"/><path id="13oaae" d="M368.783 4134.662a.726.726 0 0 0-.265-.992l-1.594-.92a.393.393 0 0 0-.536.142l-.334.58a.392.392 0 0 0 .143.534l1.594.922c.347.2.792.081.992-.266z"/><path id="13oaaf" d="M366.592 4134.234l-1.242-.718-.809-1.112 1.847-3.383.08-.024c1.195-.374 2.428-.14 3.512.486l.064-.09z"/><path id="13oaag" d="M371.763 4085.802c3.712-.927 7.562.845 8.856 4.595.33.959.33 1.45.33 1.45l-.02.01a29.874 29.874 0 0 1-9.252 2.949l-1.966.53-1.19 5.419s-1.443-3.56-1.98-4.962c-1.611-4.22.839-8.897 5.222-9.991z"/><path id="13oaah" d="M371.549 4096.197a1.384 1.384 0 1 1-2.77 0 1.384 1.384 0 0 1 2.77 0z"/><path id="13oaai" d="M370.533 4092.788v4.942a3.752 3.752 0 0 0 1.96-3.17l.071-2.062z"/><path id="13oaaj" d="M278.918 4193.24a.482.482 0 0 0 .336-.57c-7.221-32.24 3.82-76.904 3.932-77.35a.483.483 0 0 0-.936-.236c-.114.45-11.21 45.336-3.938 77.797.058.26.316.423.577.366l.029-.008z"/><path id="13oaak" d="M278.964 4135.178a.484.484 0 0 0 .3-.676c-.028-.056-2.77-5.705-3.98-10.566a.483.483 0 0 0-.937.233c1.235 4.962 4.021 10.699 4.05 10.757a.484.484 0 0 0 .567.252z"/><path id="13oaal" d="M277.44 4148.439a.477.477 0 0 0 .186-.103c2.359-2.086 8.337-6.068 8.397-6.108a.482.482 0 1 0-.535-.805c-.248.165-6.093 4.06-8.502 6.19a.483.483 0 0 0 .455.825z"/><path id="13oaam" d="M307.597 4192.277a.44.44 0 0 0 .342-.519c-2.75-13.41 1.204-35.999 1.709-36.989a.426.426 0 0 0-.108-.6.45.45 0 0 0-.62.111c-.815 1.136-4.51 24.646-1.841 37.655a.438.438 0 0 0 .518.342z"/><linearGradient id="13oab" x1="317.85" x2="501" y1="4248.06" y2="4064.91" gradientUnits="userSpaceOnUse"><stop offset="0" stop-color="#0694ea"/><stop offset=".01" stop-color="#0694ea"/><stop offset="1" stop-color="#9dc137"/><stop offset="1" stop-color="#9dc137"/></linearGradient></defs><g><g opacity=".4" transform="translate(-240 -4035)"><g opacity=".4"><use fill="url(#13oab)" xlink:href="#13oaa"/></g></g><g transform="translate(-240 -4035)"><use fill="#fff" fill-opacity="0" stroke="#001c34" stroke-linecap="round" stroke-linejoin="round" stroke-miterlimit="50" stroke-width=".53" xlink:href="#13oac"/></g><g transform="translate(-240 -4035)"><use fill="#fff" xlink:href="#13oad"/></g><g transform="translate(-240 -4035)"><use fill="#fff" xlink:href="#13oae"/></g><g transform="translate(-240 -4035)"><use fill="#fff" xlink:href="#13oaf"/></g><g transform="translate(-240 -4035)"><use fill="#fff" xlink:href="#13oag"/></g><g transform="translate(-240 -4035)"><use fill="#fff" xlink:href="#13oah"/></g><g transform="translate(-240 -4035)"><use fill="#fff" xlink:href="#13oai"/></g><g transform="translate(-240 -4035)"><use fill="#64b9ff" xlink:href="#13oaj"/></g><g transform="translate(-240 -4035)"><use fill="#fff" xlink:href="#13oak"/></g><g transform="translate(-240 -4035)"><use fill="#00cbdb" xlink:href="#13oal"/></g><g transform="translate(-240 -4035)"><use fill="#fff" xlink:href="#13oam"/></g><g transform="translate(-240 -4035)"><use fill="#64b9ff" xlink:href="#13oan"/></g><g transform="translate(-240 -4035)"><use fill="#008ddc" xlink:href="#13oao"/></g><g transform="translate(-240 -4035)"><use fill="#008ddc" xlink:href="#13oap"/></g><g transform="translate(-240 -4035)"><use fill="#008ddc" xlink:href="#13oaq"/></g><g transform="translate(-240 -4035)"><use fill="#64b9ff" xlink:href="#13oar"/></g><g transform="translate(-240 -4035)"><use fill="#008ddc" xlink:href="#13oas"/></g><g transform="translate(-240 -4035)"><use fill="#008ddc" xlink:href="#13oat"/></g><g transform="translate(-240 -4035)"><use fill="#008ddc" xlink:href="#13oau"/></g><g transform="translate(-240 -4035)"><use fill="#0697ed" xlink:href="#13oav"/></g><g transform="translate(-240 -4035)"><use fill="#fff" xlink:href="#13oaw"/></g><g transform="translate(-240 -4035)"><use fill="#0697ed" xlink:href="#13oax"/></g><g transform="translate(-240 -4035)"><use fill="#fff" xlink:href="#13oay"/></g><g transform="translate(-240 -4035)"><use fill="#a0c437" xlink:href="#13oaz"/></g><g transform="translate(-240 -4035)"><use fill="#fff" fill-opacity="0" stroke="#fff" stroke-miterlimit="50" xlink:href="#13oaz"/></g><g transform="translate(-240 -4035)"><use fill="#fff" xlink:href="#13oaA"/></g><g transform="translate(-240 -4035)"><use fill="#a0c437" xlink:href="#13oaB"/></g><g transform="translate(-240 -4035)"><use fill="#0697ed" xlink:href="#13oaC"/></g><g transform="translate(-240 -4035)"><use fill="#fff" xlink:href="#13oaD"/></g><g transform="translate(-240 -4035)"><use fill="#0697ed" xlink:href="#13oaE"/></g><g transform="translate(-240 -4035)"><use fill="#e34073" xlink:href="#13oaF"/></g><g transform="translate(-240 -4035)"><use fill="#e34073" xlink:href="#13oaG"/></g><g transform="translate(-240 -4035)"><use fill="#00cbdb" xlink:href="#13oaH"/></g><g transform="translate(-240 -4035)"><use fill="#00cbdb" xlink:href="#13oaI"/></g><g transform="translate(-240 -4035)"><use fill="#e2e9ff" xlink:href="#13oaJ"/></g><g transform="translate(-240 -4035)"><use fill="#e2e9ff" xlink:href="#13oaK"/></g><g transform="translate(-240 -4035)"><use fill="#00cbdb" xlink:href="#13oaL"/></g><g transform="translate(-240 -4035)"><use fill="#0697ed" xlink:href="#13oaM"/></g><g transform="translate(-240 -4035)"><use fill="#0697ed" xlink:href="#13oaN"/></g><g transform="translate(-240 -4035)"><use fill="#fbbe9d" xlink:href="#13oaO"/></g><g transform="translate(-240 -4035)"><use fill="#fbbe9d" xlink:href="#13oaP"/></g><g transform="translate(-240 -4035)"><use fill="#fbbe9d" xlink:href="#13oaQ"/></g><g transform="translate(-240 -4035)"><use fill="#fbbe9d" xlink:href="#13oaR"/></g><g transform="translate(-240 -4035)"><use fill="#fbbe9d" xlink:href="#13oaS"/></g><g transform="translate(-240 -4035)"><use fill="#fbbe9d" xlink:href="#13oaT"/></g><g transform="translate(-240 -4035)"><use fill="#fbbe9d" xlink:href="#13oaU"/></g><g transform="translate(-240 -4035)"><use fill="#fbbe9d" xlink:href="#13oaV"/></g><g transform="translate(-240 -4035)"><use fill="#1d262d" xlink:href="#13oaW"/></g><g transform="translate(-240 -4035)"><use fill="#1d262d" xlink:href="#13oaX"/></g><g transform="translate(-240 -4035)"><use fill="#ff5e00" xlink:href="#13oaY"/></g><g transform="translate(-240 -4035)"><use fill="#fbbe9d" xlink:href="#13oaZ"/></g><g transform="translate(-240 -4035)"><use fill="#fff" xlink:href="#13oaaa"/></g><g transform="translate(-240 -4035)"><use fill="#fbbe9d" xlink:href="#13oaab"/></g><g transform="translate(-240 -4035)"><use fill="#fbbe9d" xlink:href="#13oaac"/></g><g transform="translate(-240 -4035)"><use fill="#fbbe9d" xlink:href="#13oaad"/></g><g transform="translate(-240 -4035)"><use fill="#fbbe9d" xlink:href="#13oaae"/></g><g transform="translate(-240 -4035)"><use fill="#fbbe9d" xlink:href="#13oaaf"/></g><g transform="translate(-240 -4035)"><use fill="#342717" xlink:href="#13oaag"/></g><g transform="translate(-240 -4035)"><use fill="#ff63be" xlink:href="#13oaah"/></g><g transform="translate(-240 -4035)"><use fill="#342717" xlink:href="#13oaai"/></g><g transform="translate(-240 -4035)"><use fill="#008ddc" xlink:href="#13oaaj"/></g><g transform="translate(-240 -4035)"><use fill="#008ddc" xlink:href="#13oaak"/></g><g transform="translate(-240 -4035)"><use fill="#008ddc" xlink:href="#13oaal"/></g><g transform="translate(-240 -4035)"><use fill="#07a4a8" xlink:href="#13oaam"/></g></g></svg>