<svg xmlns="http://www.w3.org/2000/svg" xmlns:xlink="http://www.w3.org/1999/xlink" width="73.33" height="73.33" viewBox="0 0 110 110"><defs><path id="o9pqa" d="M334.65 1783.821c0 21.232 17.213 38.445 38.445 38.445s38.444-17.213 38.444-38.445c0-21.233-17.212-38.444-38.444-38.444-21.232 0-38.445 17.211-38.445 38.444z"/><path id="o9pqc" d="M373.095 1823.326c-21.783 0-39.505-17.722-39.505-39.505s17.722-39.505 39.505-39.505 39.505 17.722 39.505 39.505-17.722 39.505-39.505 39.505zm0-76.753c-20.54 0-37.248 16.71-37.248 37.248 0 20.54 16.709 37.248 37.248 37.248 20.539 0 37.248-16.709 37.248-37.248 0-20.539-16.71-37.248-37.248-37.248z"/><path id="o9pqd" d="M373.151 1835.743a54.699 54.699 0 0 0 3.544-.124l.154 2.253a55.793 55.793 0 0 1-3.694.128zm-3.69 2.137a53.554 53.554 0 0 1-3.679-.371l.302-2.237c1.163.158 2.35.277 3.526.355zm10.757-2.621a52.532 52.532 0 0 0 3.491-.602l.461 2.209a53.311 53.311 0 0 1-3.645.628zm-18.079 1.632a53.07 53.07 0 0 1-3.596-.868l.607-2.174c1.125.313 2.283.593 3.443.83zm25.012-3.073a52.09 52.09 0 0 0 3.378-1.075l.756 2.128a55.085 55.085 0 0 1-3.52 1.12zm-32.134 1.092a53.014 53.014 0 0 1-3.445-1.355l.897-2.07c1.083.469 2.193.906 3.302 1.298zm38.8-3.467a51.674 51.674 0 0 0 3.195-1.525l1.04 2.004a55.035 55.035 0 0 1-3.334 1.59zm-45.59.525a54.288 54.288 0 0 1-3.227-1.813l1.17-1.93a53.594 53.594 0 0 0 3.095 1.739zm51.868-3.79a52.363 52.363 0 0 0 2.96-1.946l1.302 1.843a54.17 54.17 0 0 1-3.087 2.03zm-58.189-.05a54.685 54.685 0 0 1-2.949-2.233l1.424-1.753a51.86 51.86 0 0 0 2.826 2.14zm63.968-4.04a53.69 53.69 0 0 0 2.671-2.33l1.541 1.649a54.385 54.385 0 0 1-2.786 2.432zm-69.705-.621a54.175 54.175 0 0 1-2.618-2.611l1.646-1.544a52.922 52.922 0 0 0 2.51 2.504zm74.88-4.214c.8-.858 1.585-1.757 2.33-2.673l1.751 1.425a53.995 53.995 0 0 1-2.432 2.789zm-79.933-1.18a54.267 54.267 0 0 1-2.24-2.94l1.841-1.304a52.99 52.99 0 0 0 2.147 2.817zm84.407-4.317a52.88 52.88 0 0 0 1.948-2.964l1.927 1.175a55.217 55.217 0 0 1-2.032 3.092zm-88.682-1.706a55.579 55.579 0 0 1-1.82-3.216l2.002-1.045a52.588 52.588 0 0 0 1.745 3.083zm92.37-4.347a52.784 52.784 0 0 0 1.524-3.203l2.07.9a54.072 54.072 0 0 1-1.59 3.34zm-95.783-2.202a53.15 53.15 0 0 1-1.362-3.434l2.125-.758c.395 1.103.834 2.21 1.305 3.288zm98.608-4.3c.394-1.11.754-2.245 1.071-3.38l2.173.61a53.177 53.177 0 0 1-1.116 3.525zm-101.095-2.654a53.335 53.335 0 0 1-.88-3.594l2.21-.461c.24 1.154.524 2.312.843 3.442zm103-4.168c.238-1.15.44-2.325.598-3.491l2.237.305a54.172 54.172 0 0 1-.624 3.645zm-104.51-3.068a54.161 54.161 0 0 1-.382-3.675l2.251-.158c.084 1.18.206 2.367.366 3.525zm105.466-3.948c.081-1.198.124-2.457.118-3.776h2.257a55.193 55.193 0 0 1-.122 3.928zm-105.98-3.425c0-1.221.03-2.391.114-3.69l2.254.145a53.098 53.098 0 0 0-.112 3.545zm105.964-3.887a53.083 53.083 0 0 0-.373-3.524l2.235-.313c.171 1.218.302 2.454.39 3.676zm-105.483-3.482c.161-1.214.37-2.441.616-3.646l2.211.452a52.055 52.055 0 0 0-.59 3.493zm104.498-3.53a52.333 52.333 0 0 0-.85-3.44l2.17-.616a54.84 54.84 0 0 1 .89 3.59zm-103.019-3.711c.326-1.18.7-2.368 1.11-3.53l2.128.752a51.379 51.379 0 0 0-1.062 3.379zm101.083-3.101a53.143 53.143 0 0 0-1.312-3.286l2.065-.908a53.34 53.34 0 0 1 1.37 3.429zm-98.624-3.873a53.538 53.538 0 0 1 1.586-3.348l2.004 1.039a51.198 51.198 0 0 0-1.518 3.204zm95.777-2.6a53.068 53.068 0 0 0-1.75-3.08l1.922-1.182a55.903 55.903 0 0 1 1.828 3.212zm-92.384-3.975a55.078 55.078 0 0 1 2.023-3.096l1.848 1.297a53.326 53.326 0 0 0-1.94 2.969zm88.677-2.057a52.521 52.521 0 0 0-2.154-2.815l1.746-1.43a54.897 54.897 0 0 1 2.247 2.935zm-84.42-3.99a55.185 55.185 0 0 1 2.421-2.791l1.656 1.534a54.074 54.074 0 0 0-2.326 2.679zm79.93-1.484a53.861 53.861 0 0 0-2.517-2.498l1.534-1.656a56.552 56.552 0 0 1 2.625 2.606zm-74.9-3.93a56.203 56.203 0 0 1 2.78-2.437l1.43 1.746a53.08 53.08 0 0 0-2.665 2.338zm69.706-.888a52.305 52.305 0 0 0-2.832-2.135l1.296-1.848a54.117 54.117 0 0 1 2.955 2.228zm-63.988-3.793a54.142 54.142 0 0 1 3.083-2.037l1.18 1.925c-.997.61-1.99 1.267-2.956 1.953zm58.185-.28a54.49 54.49 0 0 0-3.097-1.731l1.034-2.006a55.165 55.165 0 0 1 3.23 1.805zm-51.89-3.58a53.458 53.458 0 0 1 3.331-1.6l.906 2.069a51.74 51.74 0 0 0-3.19 1.532zm45.585.336a51.79 51.79 0 0 0-3.304-1.291l.75-2.13a53.4 53.4 0 0 1 3.45 1.349zm-38.824-3.3a53.382 53.382 0 0 1 3.523-1.13l.613 2.173a51.418 51.418 0 0 0-3.373 1.082zm32.141.95a50.901 50.901 0 0 0-3.446-.823l.45-2.214c1.202.245 2.412.535 3.596.86zm-25.029-2.963a54.234 54.234 0 0 1 3.644-.636l.311 2.236a50.833 50.833 0 0 0-3.49.609zm18.09 1.554a51.692 51.692 0 0 0-3.527-.346l.144-2.253a54.24 54.24 0 0 1 3.68.36zm-10.77-2.574a53.668 53.668 0 0 1 3.695-.137l.007 2.257a53.112 53.112 0 0 0-3.543.13z"/><path id="o9pqe" d="M373.151 1835.743a54.699 54.699 0 0 0 3.544-.124l.154 2.253a55.793 55.793 0 0 1-3.694.128zm-7.369 1.766l.302-2.237c1.163.158 2.35.277 3.526.355l-.15 2.253a53.554 53.554 0 0 1-3.678-.371zm14.436-2.25a52.532 52.532 0 0 0 3.491-.602l.461 2.209a53.311 53.311 0 0 1-3.645.628zm-21.675.764l.607-2.174c1.125.313 2.283.593 3.443.83l-.454 2.212a53.07 53.07 0 0 1-3.596-.868zm28.608-2.205a52.09 52.09 0 0 0 3.378-1.075l.756 2.128a55.085 55.085 0 0 1-3.52 1.12zm-35.579-.263l.897-2.07c1.083.469 2.193.906 3.302 1.298l-.754 2.127a53.014 53.014 0 0 1-3.445-1.355zm42.244-2.112a51.674 51.674 0 0 0 3.196-1.525l1.04 2.004a55.035 55.035 0 0 1-3.334 1.59zM345 1830.155l1.17-1.93a53.594 53.594 0 0 0 3.095 1.739l-1.039 2.004a54.288 54.288 0 0 1-3.226-1.813zm55.095-1.976a52.363 52.363 0 0 0 2.96-1.947l1.302 1.843a54.17 54.17 0 0 1-3.087 2.03zm-61.138-2.284l1.424-1.753a51.86 51.86 0 0 0 2.826 2.14l-1.3 1.846a54.685 54.685 0 0 1-2.95-2.233zm66.917-1.806a53.69 53.69 0 0 0 2.671-2.33l1.541 1.648a54.385 54.385 0 0 1-2.786 2.432zm-72.323-3.233l1.646-1.544a52.922 52.922 0 0 0 2.51 2.504l-1.538 1.65a54.175 54.175 0 0 1-2.618-2.61zm77.498-1.603c.8-.858 1.585-1.757 2.33-2.673l1.751 1.425a53.995 53.995 0 0 1-2.432 2.789zm-82.173-4.12l1.841-1.304a52.99 52.99 0 0 0 2.147 2.817l-1.748 1.428a54.267 54.267 0 0 1-2.24-2.94zm86.647-1.377a52.88 52.88 0 0 0 1.948-2.964l1.927 1.175a55.217 55.217 0 0 1-2.032 3.092zm-90.502-4.922l2.002-1.045a52.588 52.588 0 0 0 1.745 3.083l-1.927 1.178a55.579 55.579 0 0 1-1.82-3.216zm94.19-1.131a52.784 52.784 0 0 0 1.524-3.203l2.07.9a54.072 54.072 0 0 1-1.59 3.34zm-97.145-5.636l2.125-.758c.395 1.103.834 2.21 1.305 3.288l-2.068.904a53.15 53.15 0 0 1-1.362-3.434zm99.97-.865c.394-1.11.754-2.246 1.071-3.38l2.173.609a53.177 53.177 0 0 1-1.116 3.525zm-101.975-6.25l2.21-.46c.24 1.154.524 2.312.843 3.442l-2.173.613a53.335 53.335 0 0 1-.88-3.594zm103.88-.573c.238-1.15.44-2.325.598-3.491l2.237.305a54.172 54.172 0 0 1-.624 3.645zm-104.892-6.743l2.251-.158c.084 1.18.206 2.367.366 3.525l-2.235.308a54.161 54.161 0 0 1-.382-3.675zm105.848-.273c.081-1.198.124-2.457.118-3.776h2.257a55.193 55.193 0 0 1-.122 3.928zm-105.98-3.425c0-1.221.03-2.391.114-3.69l2.254.145a53.098 53.098 0 0 0-.112 3.545zm105.591-7.411l2.235-.313c.171 1.218.302 2.454.39 3.676l-2.252.16a53.083 53.083 0 0 0-.373-3.523zm-105.11.042c.161-1.214.37-2.441.616-3.646l2.211.452a52.055 52.055 0 0 0-.59 3.493zm103.647-6.97l2.171-.616a54.84 54.84 0 0 1 .89 3.59l-2.21.467a52.333 52.333 0 0 0-.85-3.44zm-102.168-.271c.326-1.18.7-2.368 1.11-3.53l2.128.752a51.379 51.379 0 0 0-1.062 3.379zm99.771-6.387l2.065-.908a53.34 53.34 0 0 1 1.37 3.429l-2.123.765a53.143 53.143 0 0 0-1.312-3.286zm-97.312-.587a53.538 53.538 0 0 1 1.586-3.348l2.004 1.039a51.198 51.198 0 0 0-1.518 3.204zm94.027-5.68l1.922-1.182a55.903 55.903 0 0 1 1.828 3.212l-2 1.05a53.068 53.068 0 0 0-1.75-3.08zm-90.634-.895a55.078 55.078 0 0 1 2.023-3.096l1.848 1.297a53.326 53.326 0 0 0-1.94 2.969zm86.523-4.872l1.746-1.43a54.897 54.897 0 0 1 2.247 2.935l-1.839 1.31a52.521 52.521 0 0 0-2.154-2.815zm-82.267-1.175a55.185 55.185 0 0 1 2.422-2.791l1.656 1.534a54.074 54.074 0 0 0-2.326 2.679zm77.414-3.982l1.534-1.656a56.552 56.552 0 0 1 2.625 2.606l-1.642 1.548a53.861 53.861 0 0 0-2.517-2.498zm-72.384-1.431a56.203 56.203 0 0 1 2.78-2.438l1.431 1.746a53.08 53.08 0 0 0-2.665 2.338zm66.875-3.024l1.296-1.848a54.117 54.117 0 0 1 2.955 2.228l-1.419 1.755a52.305 52.305 0 0 0-2.832-2.135zm-61.156-1.658a54.142 54.142 0 0 1 3.083-2.037l1.18 1.925c-.997.61-1.99 1.267-2.956 1.953zm55.088-2.011l1.034-2.006a55.165 55.165 0 0 1 3.23 1.805l-1.167 1.932a54.49 54.49 0 0 0-3.097-1.731zm-48.793-1.848a53.458 53.458 0 0 1 3.331-1.6l.906 2.068a51.74 51.74 0 0 0-3.19 1.532zm42.281-.956l.75-2.13a53.4 53.4 0 0 1 3.45 1.349l-.896 2.072a51.79 51.79 0 0 0-3.304-1.291zm-35.52-2.01a53.382 53.382 0 0 1 3.523-1.128l.613 2.172a51.418 51.418 0 0 0-3.373 1.082zm28.695.128l.45-2.214c1.202.245 2.412.535 3.596.86l-.6 2.177a50.901 50.901 0 0 0-3.446-.823zm-21.583-2.14a54.234 54.234 0 0 1 3.644-.636l.311 2.236a50.833 50.833 0 0 0-3.49.609zm14.563 1.208l.144-2.253a54.24 54.24 0 0 1 3.68.36l-.298 2.239a51.692 51.692 0 0 0-3.526-.346zm-7.243-2.228a53.668 53.668 0 0 1 3.695-.137l.007 2.257a53.112 53.112 0 0 0-3.543.13z"/><path id="o9pqf" d="M387.584 1783.821c0 8.002-6.487 14.49-14.49 14.49-8.002 0-14.489-6.488-14.489-14.49 0-8.002 6.487-14.49 14.49-14.49 8.002 0 14.49 6.488 14.49 14.49z"/><path id="o9pqg" d="M365.465 1791.957c-1.99-1.993-3.111-4.363-3.336-7.049l-2.77.31-.037.004-.038.001a9.051 9.051 0 0 0-.782.053c-.06.007-.12.016-.18.025a15.4 15.4 0 0 0 4.435 9.364 15.317 15.317 0 0 0 10.904 4.517c3.883 0 7.548-1.427 10.395-4.032l-2.713-2.713a11.493 11.493 0 0 1-7.675 2.91 11.522 11.522 0 0 1-8.203-3.39z"/><path id="o9pqh" d="M373.542 1768.46a15.32 15.32 0 0 0-10.904 4.516c-.342.342-.665.7-.971 1.067l2.729 2.73c.296-.379.608-.746.951-1.089a11.51 11.51 0 0 1 8.187-3.39 11.531 11.531 0 0 1 8.204 3.39 11.505 11.505 0 0 1 3.381 7.89c1.269-.209 2.54-.413 3.812-.617a15.346 15.346 0 0 0-4.485-9.98 15.32 15.32 0 0 0-10.902-4.517z"/><path id="o9pqi" d="M358.853 1771.231l-1.595 10.789 10.761-1.623-3.623-3.623-2.729-2.73z"/><path id="o9pqj" d="M381.343 1792.438l2.712 2.711 2.778 2.779 1.623-10.762-10.79 1.596z"/><path id="o9pqk" d="M373.095 1757.582c14.468 0 26.239 11.771 26.239 26.239 0 14.469-11.771 26.24-26.24 26.24-14.467 0-26.238-11.771-26.238-26.24 0-14.468 11.77-26.239 26.239-26.239zm0-4c-16.701 0-30.24 13.539-30.24 30.239 0 16.701 13.539 30.24 30.24 30.24 16.7 0 30.239-13.539 30.239-30.24 0-16.7-13.538-30.239-30.24-30.239z"/><linearGradient id="o9pqb" x1="345.91" x2="400.28" y1="1811.01" y2="1756.64" gradientUnits="userSpaceOnUse"><stop offset="0" stop-color="#0693e9"/><stop offset=".01" stop-color="#0693e9"/><stop offset="1" stop-color="#9cc037"/><stop offset="1" stop-color="#9cc037"/></linearGradient></defs><g><g transform="translate(-318 -1729)"><use fill="url(#o9pqb)" xlink:href="#o9pqa"/></g><g transform="translate(-318 -1729)"><use fill="#333" xlink:href="#o9pqc"/></g><g transform="translate(-318 -1729)"><use fill="#fff" fill-opacity="0" stroke="#333" stroke-miterlimit="50" stroke-width=".25" xlink:href="#o9pqc"/></g><g transform="translate(-318 -1729)"><use fill="#333" xlink:href="#o9pqd"/></g><g transform="translate(-318 -1729)"><use fill="#fff" fill-opacity="0" stroke="#333" stroke-miterlimit="50" stroke-width=".25" xlink:href="#o9pqe"/></g><g transform="translate(-318 -1729)"><use fill="#fff" xlink:href="#o9pqf"/></g><g transform="translate(-318 -1729)"><use fill="#333" xlink:href="#o9pqg"/></g><g transform="translate(-318 -1729)"><use fill="#333" xlink:href="#o9pqh"/></g><g transform="translate(-318 -1729)"><use fill="#333" xlink:href="#o9pqi"/></g><g transform="translate(-318 -1729)"><use fill="#333" xlink:href="#o9pqj"/></g><g transform="translate(-318 -1729)"><use fill="#fff" xlink:href="#o9pqk"/></g></g></svg>