<svg xmlns="http://www.w3.org/2000/svg" xmlns:xlink="http://www.w3.org/1999/xlink" width="207" height="170" viewBox="0 0 207 170"><defs><path id="5oq5b" d="M1510.077 669.297c0 3.605-25.975 6.528-58.017 6.528-32.04 0-58.016-2.923-58.016-6.528 0-3.605 25.975-6.528 58.016-6.528 32.042 0 58.017 2.923 58.017 6.528z"/><path id="5oq5c" d="M1383.64 506.407c22.356 0 40.545 18.19 40.545 40.545 0 22.357-18.188 40.545-40.545 40.545-22.356 0-40.544-18.188-40.544-40.545 0-19.499 15.5-40.545 40.544-40.545zm29.042 17.31a37.385 37.385 0 0 0-15.089-11.259 734.867 734.867 0 0 1-1.032 7.963 6.092 6.092 0 0 1 3.204 3.398c5.425-.545 9.991-.37 12.917-.103zm-12.405 40.06a6.065 6.065 0 0 1 3.307-4.444c-.143-7.078-1.565-15.05-5.795-22.544a59.53 59.53 0 0 0-2.896-4.615 616.48 616.48 0 0 1-1.316 8.39c-.898 5.45-3.53 12.522-6.572 19.426a6.044 6.044 0 0 1 1.528 3.79c4.357.283 8.276.241 11.745-.003zm-17.813-5.855c.588 0 1.146.11 1.684.264 2.87-6.548 5.32-13.154 6.146-18.163a611.48 611.48 0 0 0 1.33-8.485 6.092 6.092 0 0 1-2.636-2.245c-5.005 1.426-10.24 3.613-15.27 6.954-5.285 3.512-9.432 7.184-12.679 10.67a6.061 6.061 0 0 1 1.04 3.403c0 1.104-.318 2.127-.83 3.02 4.258 3.531 9.457 6.723 15.52 8.566.86-2.32 3.074-3.984 5.694-3.984zm1.176-48.188a38.2 38.2 0 0 0-9.11 1.09c3.914 1.675 9.734 4.858 15.602 10.552a6.023 6.023 0 0 1 3.135-1.408 804.01 804.01 0 0 0 1.116-8.647 37.094 37.094 0 0 0-10.743-1.587zm-14.26 2.764c-11.2 4.618-18.816 14.456-21.68 25.087.684 1.161 2.484 4.031 5.301 7.456.886-.502 1.895-.812 2.985-.812.886 0 1.721.198 2.481.537 3.424-3.683 7.797-7.562 13.408-11.29 5.353-3.557 10.871-5.888 16.128-7.406 0-.032-.009-.062-.009-.095 0-.598.113-1.164.274-1.71-8.509-8.41-17.026-11.23-18.889-11.767zm-22.957 34.454c0 4.294.74 8.416 2.083 12.256.65-1.41 1.573-3.147 2.765-5.077-.846-1.046-1.374-2.36-1.374-3.81 0-1.035.283-1.993.736-2.846a68.577 68.577 0 0 1-3.89-5.164c-.205 1.55-.32 3.1-.32 4.641zm3.915 16.59c4.41 8.811 12.207 15.636 21.676 18.76a323.164 323.164 0 0 0 7.023-13.258 6.087 6.087 0 0 1-2.499-3.673c-7.07-1.979-12.996-5.653-17.772-9.66-.837.432-1.772.7-2.78.7-.687 0-1.336-.139-1.954-.35-2.215 3.606-3.303 6.352-3.694 7.481zm33.302 20.628a36.983 36.983 0 0 0 16.962-4.106c.46-1.395 1.581-5.14 2.32-10.204a6.105 6.105 0 0 1-2.276-2.738 84.625 84.625 0 0 1-6.072.218 94.41 94.41 0 0 1-6.87-.269c-1.058 1.806-2.996 3.032-5.24 3.032-.071 0-.137-.018-.208-.02a316.636 316.636 0 0 1-6.94 13.137 37.14 37.14 0 0 0 8.323.95zm21.185-6.642a37.469 37.469 0 0 0 11.811-13.389 52.613 52.613 0 0 1-4.338 1.227c-.299 3.083-2.868 5.502-6.033 5.502-.02 0-.042-.007-.063-.007a67.996 67.996 0 0 1-1.377 6.667zm6.863-15.473c3.558-.866 5.887-1.784 6.866-2.215a37.035 37.035 0 0 0 2.304-12.888 36.984 36.984 0 0 0-5.575-19.565c-1.36-.21-7.332-1-15.23-.198-.284 1.408-1.072 2.618-2.144 3.492a63.962 63.962 0 0 1 2.778 4.472c4.475 7.925 6.07 16.228 6.294 23.604a6.057 6.057 0 0 1 4.707 3.298z"/><path id="5oq5d" d="M1478.863 668.086h-53.416l3.27-2.988h47.625z"/><path id="5oq5e" d="M1425.45 671.64v-3.55h53.42v3.55z"/><path id="5oq5f" d="M1439.05 666.59v-20.45h28.87v20.45z"/><path id="5oq5g" d="M1439.05 652.49v-6.35h28.87v6.35z"/><path id="5oq5h" d="M1383.64 640.15V544.9h140.09v95.25z"/><path id="5oq5i" d="M1383.64 544.898h140.088v84.433h7.47v-84.433a7.471 7.471 0 0 0-7.47-7.471H1383.64a7.471 7.471 0 0 0-7.471 7.47v84.434h7.47z"/><path id="5oq5j" d="M1527.798 632.32H1376.17v10.82a7.471 7.471 0 0 0 7.47 7.471h140.088a7.47 7.47 0 0 0 7.47-7.47v-10.822z"/><path id="5oq5k" d="M1376.17 632.7v-7.3h155.03v7.3z"/><path id="5oq5l" d="M1387.84 565.33v-15.94h131.98v15.94z"/><path id="5oq5m" d="M1390.15 572.55v-1.68h17.56v1.68z"/><path id="5oq5n" d="M1410.38 572.55v-1.68h11.14v1.68z"/><path id="5oq5o" d="M1423.83 572.55v-1.68h19.67v1.68z"/><path id="5oq5p" d="M1445.87 572.55v-1.68h11.14v1.68z"/><path id="5oq5q" d="M1480.42 572.55v-1.68h19.67v1.68z"/><path id="5oq5r" d="M1502.46 572.55v-1.68h11.14v1.68z"/><path id="5oq5s" d="M1459.32 572.55v-1.68h10.21v1.68z"/><path id="5oq5t" d="M1471.89 572.55v-1.68h6.1v1.68z"/><path id="5oq5u" d="M1390.15 583.66v-1.68h17.56v1.68z"/><path id="5oq5v" d="M1410.38 583.66v-1.68h11.14v1.68z"/><path id="5oq5w" d="M1423.83 583.66v-1.68h19.67v1.68z"/><path id="5oq5x" d="M1445.87 583.66v-1.68h11.14v1.68z"/><path id="5oq5y" d="M1480.42 583.66v-1.68h19.67v1.68z"/><path id="5oq5z" d="M1502.46 583.66v-1.68h11.14v1.68z"/><path id="5oq5A" d="M1515.35 583.66v-1.68h4.48v1.68z"/><path id="5oq5B" d="M1459.32 583.66v-1.68h10.21v1.68z"/><path id="5oq5C" d="M1471.89 583.66v-1.68h6.1v1.68z"/><path id="5oq5D" d="M1390.15 587.12v-1.68h14.77v1.68z"/><path id="5oq5E" d="M1407.91 587.12v-1.68h8.79v1.68z"/><path id="5oq5F" d="M1418.48 587.12v-1.68h16.55v1.68z"/><path id="5oq5G" d="M1438.05 587.12v-1.68h7.96v1.68z"/><path id="5oq5H" d="M1466.45 587.12v-1.68h15.68v1.68z"/><path id="5oq5I" d="M1484.24 587.12v-1.68h9.37v1.68z"/><path id="5oq5J" d="M1495.45 587.12v-1.68h3.77v1.68z"/><path id="5oq5K" d="M1448.32 587.12v-1.68h8.59v1.68z"/><path id="5oq5L" d="M1459.32 587.12v-1.68h4.72v1.68z"/><path id="5oq5M" d="M1452.97 576.26v-1.68h11.14v1.68z"/><path id="5oq5N" d="M1409.88 576.26v-1.68h19.67v1.68z"/><path id="5oq5O" d="M1396.37 576.26v-1.68h11.14v1.68z"/><path id="5oq5P" d="M1390.15 576.26v-1.68h4.48v1.68z"/><path id="5oq5Q" d="M1440.45 576.26v-1.68h10.21v1.68z"/><path id="5oq5R" d="M1431.98 576.26v-1.68h6.1v1.68z"/><path id="5oq5S" d="M1485.49 579.96v-1.68h19.61v1.68z"/><path id="5oq5T" d="M1464.11 579.96v-1.68h18.12v1.68z"/><path id="5oq5U" d="M1449.35 579.96v-1.68h5.23v1.68z"/><path id="5oq5V" d="M1456.7 579.96v-1.68h5.23v1.68z"/><path id="5oq5W" d="M1404.25 579.96v-1.68h25.31v1.68z"/><path id="5oq5X" d="M1396.363 578.28h-6.216v1.68h11.798v-1.68z"/><path id="5oq5Y" d="M1431.98 579.96v-1.68h14.57v1.68z"/><path id="5oq5Z" d="M1390.15 590.48v-1.68h17.56v1.68z"/><path id="5oq5aa" d="M1410.38 590.48v-1.68h11.14v1.68z"/><path id="5oq5ab" d="M1423.83 590.48v-1.68h19.67v1.68z"/><path id="5oq5ac" d="M1445.87 590.48v-1.68h11.14v1.68z"/><path id="5oq5ad" d="M1459.32 590.48v-1.68h10.21v1.68z"/><path id="5oq5ae" d="M1390.15 604.68V603h14.77v1.68z"/><path id="5oq5af" d="M1407.91 604.68V603h8.79v1.68z"/><path id="5oq5ag" d="M1418.48 604.68V603h16.55v1.68z"/><path id="5oq5ah" d="M1438.06 604.68V603h7.96v1.68z"/><path id="5oq5ai" d="M1466.45 604.68V603h15.68v1.68z"/><path id="5oq5aj" d="M1484.24 604.68V603h9.37v1.68z"/><path id="5oq5ak" d="M1495.45 604.68V603h3.77v1.68z"/><path id="5oq5al" d="M1448.32 604.68V603h8.59v1.68z"/><path id="5oq5am" d="M1501.46 604.68V603h8.59v1.68z"/><path id="5oq5an" d="M1459.32 604.68V603h4.72v1.68z"/><path id="5oq5ao" d="M1488.45 593.81v-1.68h11.14v1.68z"/><path id="5oq5ap" d="M1466.48 593.81v-1.68h19.67v1.68z"/><path id="5oq5aq" d="M1452.97 593.81v-1.68h11.14v1.68z"/><path id="5oq5ar" d="M1409.88 593.81v-1.68h19.67v1.68z"/><path id="5oq5as" d="M1396.37 593.81v-1.68h11.14v1.68z"/><path id="5oq5at" d="M1390.15 593.81v-1.68h4.48v1.68z"/><path id="5oq5au" d="M1440.45 593.81v-1.68h10.21v1.68z"/><path id="5oq5av" d="M1431.98 593.81v-1.68h6.1v1.68z"/><path id="5oq5aw" d="M1464.11 597.52v-1.68h18.12v1.68z"/><path id="5oq5ax" d="M1449.35 597.52v-1.68h5.23v1.68z"/><path id="5oq5ay" d="M1456.7 597.52v-1.68h5.23v1.68z"/><path id="5oq5az" d="M1404.25 597.52v-1.68h25.31v1.68z"/><path id="5oq5aA" d="M1396.363 595.836h-6.216v1.681h11.798v-1.68z"/><path id="5oq5aB" d="M1431.98 597.52v-1.68h14.57v1.68z"/><path id="5oq5aC" d="M1390.15 607.67v-1.68h17.56v1.68z"/><path id="5oq5aD" d="M1410.38 607.67v-1.68h11.14v1.68z"/><path id="5oq5aE" d="M1423.83 607.67v-1.68h19.67v1.68z"/><path id="5oq5aF" d="M1445.87 607.67v-1.68h11.14v1.68z"/><path id="5oq5aG" d="M1459.32 607.67v-1.68h10.21v1.68z"/><path id="5oq5aH" d="M1471.89 607.67v-1.68h6.1v1.68z"/><path id="5oq5aI" d="M1515.35 618.78v-1.68h4.48v1.68z"/><path id="5oq5aJ" d="M1390.15 622.23v-1.68h14.77v1.68z"/><path id="5oq5aK" d="M1407.91 622.23v-1.68h8.79v1.68z"/><path id="5oq5aL" d="M1418.48 622.23v-1.68h16.55v1.68z"/><path id="5oq5aM" d="M1438.06 622.23v-1.68h7.96v1.68z"/><path id="5oq5aN" d="M1448.32 622.23v-1.68h8.59v1.68z"/><path id="5oq5aO" d="M1459.32 622.23v-1.68h4.72v1.68z"/><path id="5oq5aP" d="M1488.45 611.37v-1.68h11.14v1.68z"/><path id="5oq5aQ" d="M1466.48 611.37v-1.68h19.67v1.68z"/><path id="5oq5aR" d="M1452.97 611.37v-1.68h11.14v1.68z"/><path id="5oq5aS" d="M1409.88 611.37v-1.68h19.67v1.68z"/><path id="5oq5aT" d="M1396.37 611.37v-1.68h11.14v1.68z"/><path id="5oq5aU" d="M1390.15 611.37v-1.68h4.48v1.68z"/><path id="5oq5aV" d="M1440.45 611.37v-1.68h10.21v1.68z"/><path id="5oq5aW" d="M1431.98 611.37v-1.68h6.1v1.68z"/><path id="5oq5aX" d="M1464.11 615.07v-1.68h18.12v1.68z"/><path id="5oq5aY" d="M1449.35 615.07v-1.68h5.23v1.68z"/><path id="5oq5aZ" d="M1456.7 615.07v-1.68h5.23v1.68z"/><path id="5oq5ba" d="M1404.25 615.07v-1.68h25.31v1.68z"/><path id="5oq5bb" d="M1396.363 613.393h-6.216v1.681h11.798v-1.68z"/><path id="5oq5bc" d="M1431.98 615.07v-1.68h14.57v1.68z"/><path id="5oq5bd" d="M1517.36 561.382a.486.486 0 0 1-.158.67l-.28.172a.483.483 0 0 1-.668-.157l-2.095-3.382a.487.487 0 0 1 .158-.67l.278-.173a.488.488 0 0 1 .67.158z"/><path id="5oq5be" d="M1515.59 554.24a2.905 2.905 0 1 1-4.94 3.06 2.905 2.905 0 0 1 4.94-3.06z"/><path id="5oq5bf" d="M1514.881 558.615a3.35 3.35 0 0 1-4.607-1.084 3.35 3.35 0 0 1 1.084-4.606 3.352 3.352 0 0 1 4.607 1.083 3.352 3.352 0 0 1-1.084 4.607zm-3.06-4.942a2.47 2.47 0 0 0-.799 3.395 2.469 2.469 0 0 0 3.395.798 2.47 2.47 0 0 0 .8-3.395 2.47 2.47 0 0 0-3.396-.798z"/><path id="5oq5bg" d="M1411.365 559.062l-.398.01-.017-.216.064.027.157-.016-.016-.2-.432.005-.119-.156.007-.08-.556-.501-.135.107.793.97.113.039v.054h-.15l.037.119.976.043z"/><path id="5oq5bh" d="M1411.991 558.554l.066-.044v-.533l-.066-.027-.032-.167h-.098l-.062.168-.075.067-.565.306v.303l.19.249h.474l.061-.155.107-.096z"/><path id="5oq5bi" d="M1412.41 558.51l-.285.11.003.065h-.07v.393h.145l-.022-.251.114.04v.179l.118-.011z"/><path id="5oq5bj" d="M1414.733 560.58l-.29-.248-.022-.475-.192-.328-.173-.01-.07.597-.329-.024-.092-.056-.012-.236.175.035.147-.144-.314-.188h-.367l-.265.376h-.107v-.12l-.318.026-.5.57-.267.004-.297.205-.02.884-.179.173v.157l.862-.297.7-.028.26.569.794.028.766-.72.188-.431z"/><path id="5oq5bk" d="M1413.167 562.46l.281.03.227-.124.005-.172-.249-.026z"/><path id="5oq5bl" d="M1415.868 561.683l-.117.023-.003-.264-.215.013-.027.413-.189.13-.35.048-.56.4-.098.077v.134l.294-.045.712-.437.202-.132.214-.095.217-.123z"/><path id="5oq5bm" d="M1413.663 558.738l-.182.005.015-.188-.173-.103-.245.245.164.203.356.05.2.106.006.097h-.13l.006.2.43-.027.157-.168.167-.016v.308h.291v-.124h-.146l-.026-.375-.696-.316z"/><path id="5oq5bn" d="M1408.485 557.842l.067.183.245-.09.028-.255-.198-.039z"/><path id="5oq5bo" d="M1405.605 559.979l-.335-.043v.259l.12.14-.093.14-.134.156v.286l.183.177.167-.268.328-.48.158-.757h-.2z"/><path id="5oq5bp" d="M1412.48 559.181h-.109v.06l.085.025z"/><path id="5oq5bq" d="M1411.86 559.34v-.07h.13v.07z"/><path id="5oq5br" d="M1412.177 559.338h.08v-.063l.06-.009v-.06h-.13l-.052.06-.077.072v.063l.119-.012z"/><path id="5oq5bs" d="M1412.509 559.395h.129v-.066l.092.009-.013-.114-.147.022-.013.074-.165.018h-.008v.114h.125z"/><path id="5oq5bt" d="M1392.575 553.768l.026-.17-.175-.027c0 .01.013.197.027.197z"/><path id="5oq5bu" d="M1401.383 553.606l.013.105-.158.033-.021.223h.189l.25-.024.13-.154-.136-.053-.077-.087-.112-.183-.055-.259-.212.043-.06.091v.103l.103.07z"/><path id="5oq5bv" d="M1401.201 553.692l.011-.14-.124-.054-.175.04-.129.208v.135h.15z"/><path id="5oq5bw" d="M1410.154 557.047l-.582-.518-.464-.044-.263.098-.163.351-.087.651-.157.228-.16-.036-.488-.805.028-.297v-.218l-.222-.141-.955-.156-.441-.022-.384-.221-.028-.232h-.182l-.006.336c0 .017.83.409.83.409l.237.03.004.178-.222.146-.71.513-.34.022-.166-.167-.017-.271-.723-.877-.051.06.729 1.372.178.088.693-.146.129.06-.666.954-.606.578.134.237.066.642-.31.421-.143.172v.259l-.222.048-.173.308-.55.567h-.733v-.432l-.248-.334v-.519l-.19-.188-.015-.216.239-.458-.455-.804.054-.545-.41-.043-.151-.15h-.275l-.14.128h-.485l-.017.044h-.27l-.62-.707.005-.55.103-.038.038-.21h-.146l-.06-.221.719-.518v-.367l.35-.195.142.015h.29l.225-.122.729-.056v.372l.574.145.113.081h.106v-.202l.332-.033.315.235h.518l.186-.17v-.267l-.152-.113-.512.008-.17-.186-.033-.299-.173.095-.093.365-.25-.266-.011-.253-.242-.208-.09-.089h-.281l.09.25.337.189.059.062-.073.037.003.198-.164.069-.141-.031-.09-.125.23.013.062-.084-.507-.342-.038-.145-.207.186-.208-.043-.317.413-.063.162-.203.019-.301.001-.18-.084-.052-.357.064-.17.306-.067.333.067.04-.185-.14-.033.048-.288.336-.052.235-.331.242-.041.219.032h.08l-.044-.311-.266.107-.094-.232-.153-.022-.03-.16.126-.137.3-.117.169-.303.453-.232.81-.025.663.308-.113.097-.55.024.024.116.526.015.216-.169.075-.199.103-.027.062.18.412-.191.862.057-.072-.179.057-.218.243.06.08.126.049.364.216-.064-.005-.364.7-.314.926-.059.46.276h.996l.338.251.106.008.254-.257.28.01.373.055.234.119 2.509.129.687.291-.098.083-.508-.083-.008.099.185.128-.243.048v.146l-.501.032.38.356.066.292-.171.088-.534-.437v-.201l.129-.203-.096-.121-.583.388-.461-.04-.155-.114-.193.276.089.178.672.081.268.307-.066.089-.21-.211-.098.105.164.217-.035.407h-.431l-.022.329.364.22.127.168-.191.051-.68-.517h-.218l.008.42.493.518.039.375-.25.207-.565.203.056.21-.103.073-.115-.178.017-.138-.203-.064-.113.153.016.291.398.321.04.243-.241.161-.184-.02-.33-.373-.063.259.622.89-.04.129-.77-.736zm-6.711-4.506h-.102l-.474.33-.002.527-.278.142.028.093.445.004.256-.382-.011-.174-.183-.085v-.13l.32-.196zm1.28 2.378l-.02-.119-.244-.1-.014-.262-.09-.045-.05.076-.222.026-.101.032-.094.105v.287l.125-.017.42.017zm1.322.092l-.143-.105v-.162l-.332-.222.014-.119.264.014-.008-.129-.186-.078-.218.019-.054.124.01.25.27.198v.102l-.14.121-.02.087.268.019.032.051.17.013.073-.07z"/><path id="5oq5bx" d="M1397.57 554.386h-.187v.096h.045l.007.047.114-.009.071-.045.018-.089.093-.008.036-.075-.085-.017-.073.001z"/><path id="5oq5by" d="M1397.122 554.556l.135-.011.014-.094-.08-.064-.06.075z"/><path id="5oq5bz" d="M1399.063 558.99l.253.083-.049.226-.277.353-.08.78-.252.199-.371-.011-.125.216.091.405-.404.518-.13.237-.386.185-.253.039-.01.107.178.05-.022.117-.159.154.097.122.191.005-.01.149-.052.145-.015.119.283.239-.036.124-.388-.008-.384-.335-.298-.527.042-.507-.228-.302.091-.512-.135-.038v-1.111s-.377-.287-.399-.287c-.022 0-.199-.048-.199-.048l-.038-.21-.49-.615.047-.221.017-.361.34-.238-.049-.405-.497-.037-.387-.443-.276-.075-.177-.032.021-.162-.226-.032v.092l-.567-.141-.227-.35.092-.168-.358-.523-.063-.383h-.145l.048.372.25.383-.028.15-.21-.031-.259-.441v-.513l-.27-.13v-.572l.501-.61-.032-.364.141-.1-.167-.156.01-.275-.2-.178h-.555l-.09.097-.665-.005-.243-.205.19-.135h.484v-.09l-.226-.034.145-.113.32-.048.473-.324h.82l.448.135.151.086.135.01.2-.194.647-.005.145.08.274.06.022.108.437.016-.059-.14-.388-.011.091-.086-.03-.102h-.353l.383-.286h.367l.172.237.287.016.172-.167.13.065-.237.232-.314.005c.017 0 .028.226.028.226l.4-.01.042-.108.275-.016.033-.162-.163-.027.054-.146.124-.037.432.02-.238.217.038.167.25.038-.018-.302.237-.124.421-.05.61.27v.233l.194.048-.098.184h-.274l-.08.21-.63-.148.494-.263-.188-.161-.427.054-.037.039-.002-.001-.006.01-.123.127-.202.017.015.1.072.03-.003.034-.166.023-.01.096-.159.008-.029-.19-.283.086-.579.338.066.239.162.106.323.044v.368l.15-.024.137-.287.344-.11v-.441l.191-.144.463.109-.032.292h.124l.34-.167.015.382.248.152-.01.226-.238.08.017.076.285.13-.004.156-.084.007v-.004l-.36-.111-.017-.116.106-.072v-.105l-.114-.03-.028.098-.199.03-.02-.006v.01l-.069.01-.057-.112-.063-.03h-.143l-.064.054v.117l.121.04.12.017-.026.012-.11.12-.049-.06-.105-.028-.287.27.038.032-.425.234-.399.416-.028.185-.399.263-.198.199.02.399-.274-.128.002-.233h-.765l-.396.2-.173.318-.069.252.112.244.312.038.497-.332.043.165-.15.285.377.065.037.583.518.088.33-.38.398.08.141.197.383-.023.01-.113.21.102.24.372.408.005.151.265.022.323.453.173.571.006zm-3.1-4.386l-.148.02-.02.049-.097.008-.033.142h.207l.092-.094zm.05-.258h-.218v.213l.12-.022.098-.063zm.125.04l.079.066.078-.065-.098-.062zm-.072.218l.056.08h.207v-.125l-.247-.072h-.017zm-.163-.311l.134-.032-.134-.123zm-.602-.041l.146.04h.388v-.133h-.057v-.077h-.255l-.187.077zm-.024.417l.113.06.274-.383h-.213l-.15.16zm-.345-.995l.106.214.165-.052.053-.207-.154-.036zm-.599-.931h.32l.066-.09v-.1h-.232l-.012.049h-.141zm0 .25l.061.074.32-.02s.012-.142 0-.142-.154.024-.154.024z"/><path id="5oq5bA" d="M1548.628 660.474l-23.232-28.632-12.478 10.511 23.044 28.4a6.102 6.102 0 0 0 8.58.892l3.194-2.59a6.098 6.098 0 0 0 .892-8.58z"/><path id="5oq5bB" d="M1515.415 624.135c-.346-5.02-4.187-5.417-6.804-3.295l-3.192 2.59c-2.616 2.124-3.016 5.965 2.059 6.817l8.28 9.923 7.66-6.383z"/><path id="5oq5bC" d="M1515.248 574.44c12.683 15.63 10.293 38.583-5.336 51.265-15.63 12.683-38.581 10.294-51.265-5.337-12.682-15.63-10.294-38.58 5.336-51.263s38.581-10.294 51.265 5.336z"/><path id="5oq5bD" d="M1513.389 629.99c-17.967 14.58-44.447 11.825-59.028-6.142-14.58-17.97-11.823-44.45 6.145-59.028 17.968-14.58 44.447-11.825 59.027 6.144 14.58 17.967 11.824 44.447-6.144 59.027zm-45.928-56.6c-13.241 10.746-15.272 30.26-4.527 43.5 10.745 13.243 30.258 15.274 43.5 4.529 13.24-10.745 15.273-30.26 4.529-43.5-10.745-13.242-30.26-15.273-43.502-4.528z"/><path id="5oq5a" d="M1467.461 573.391c-13.241 10.745-15.272 30.259-4.527 43.5 10.745 13.242 30.259 15.273 43.5 4.527 13.241-10.744 15.273-30.259 4.529-43.499-6.104-7.522-15.038-11.427-24.044-11.427a30.784 30.784 0 0 0-19.458 6.899z"/><path id="5oq5bF" d="M1468.31 593.37v-3.53h41.26v3.53z"/><path id="5oq5bH" d="M1514.53 593.37v-3.53h23.37v3.53z"/><path id="5oq5bJ" d="M1448.01 585.6v-3.53h23.37v3.53z"/><path id="5oq5bL" d="M1502.08 578.12v-3.52h23.37v3.52z"/><path id="5oq5bN" d="M1474.46 570.28v-3.53h23.37v3.53z"/><path id="5oq5bP" d="M1445.458 589.843v3.525z"/><path id="5oq5bR" d="M1450.42 593.37v-3.53h12.8v3.53z"/><path id="5oq5bT" d="M1439 600.61v-3.52h32.89v3.52z"/><path id="5oq5bV" d="M1476.32 600.61v-3.52h19.66v3.52z"/><path id="5oq5bX" d="M1499.84 600.61v-3.52h7.91v3.52z"/><path id="5oq5bZ" d="M1478.95 585.6v-3.53h41.13v3.53z"/><path id="5oq5cb" d="M1445.458 604.141v3.526z"/><path id="5oq5cd" d="M1470.44 622.62v-3.53h19.66v3.53z"/><path id="5oq5cf" d="M1493.95 622.62v-3.53h7.91v3.53z"/><path id="5oq5ch" d="M1463.96 578.13v-3.53h19.66v3.53z"/><path id="5oq5cj" d="M1487.47 578.13v-3.53h7.91v3.53z"/><path id="5oq5cl" d="M1485.15 614.66v-3.53h23.37v3.53z"/><path id="5oq5cn" d="M1439.06 614.66v-3.53h41.26v3.53z"/><clipPath id="5oq5bE"><use xlink:href="#5oq5a"/></clipPath><clipPath id="5oq5bG"><use xlink:href="#5oq5a"/></clipPath><clipPath id="5oq5bI"><use xlink:href="#5oq5a"/></clipPath><clipPath id="5oq5bK"><use xlink:href="#5oq5a"/></clipPath><clipPath id="5oq5bM"><use xlink:href="#5oq5a"/></clipPath><clipPath id="5oq5bO"><use xlink:href="#5oq5a"/></clipPath><clipPath id="5oq5bQ"><use xlink:href="#5oq5a"/></clipPath><clipPath id="5oq5bS"><use xlink:href="#5oq5a"/></clipPath><clipPath id="5oq5bU"><use xlink:href="#5oq5a"/></clipPath><clipPath id="5oq5bW"><use xlink:href="#5oq5a"/></clipPath><clipPath id="5oq5bY"><use xlink:href="#5oq5a"/></clipPath><clipPath id="5oq5ca"><use xlink:href="#5oq5a"/></clipPath><clipPath id="5oq5cc"><use xlink:href="#5oq5a"/></clipPath><clipPath id="5oq5ce"><use xlink:href="#5oq5a"/></clipPath><clipPath id="5oq5cg"><use xlink:href="#5oq5a"/></clipPath><clipPath id="5oq5ci"><use xlink:href="#5oq5a"/></clipPath><clipPath id="5oq5ck"><use xlink:href="#5oq5a"/></clipPath><clipPath id="5oq5cm"><use xlink:href="#5oq5a"/></clipPath><clipPath id="5oq5co"><use xlink:href="#5oq5a"/></clipPath></defs><g><g opacity=".1" transform="translate(-1343 -506)"><g opacity=".1"><use fill="#232323" xlink:href="#5oq5b"/></g></g><g opacity=".1" transform="translate(-1343 -506)"><g opacity=".1"><use fill="#232323" xlink:href="#5oq5c"/></g></g><g transform="translate(-1343 -506)"><use fill="#e3e4e5" xlink:href="#5oq5d"/></g><g transform="translate(-1343 -506)"><use fill="#fff" xlink:href="#5oq5e"/></g><g transform="translate(-1343 -506)"><use fill="#eeefef" xlink:href="#5oq5f"/></g><g transform="translate(-1343 -506)"><use fill="#ced0d1" xlink:href="#5oq5g"/></g><g transform="translate(-1343 -506)"><use fill="#fff" xlink:href="#5oq5h"/></g><g transform="translate(-1343 -506)"><use fill="#b3d6ff" xlink:href="#5oq5i"/></g><g transform="translate(-1343 -506)"><use fill="#eeefef" xlink:href="#5oq5j"/></g><g transform="translate(-1343 -506)"><use fill="#b3d6ff" xlink:href="#5oq5k"/></g><g transform="translate(-1343 -506)"><use fill="#e3e4e5" xlink:href="#5oq5l"/></g><g transform="translate(-1343 -506)"><use fill="#ced0d1" xlink:href="#5oq5m"/></g><g transform="translate(-1343 -506)"><use fill="#ced0d1" xlink:href="#5oq5n"/></g><g transform="translate(-1343 -506)"><use fill="#ced0d1" xlink:href="#5oq5o"/></g><g transform="translate(-1343 -506)"><use fill="#ced0d1" xlink:href="#5oq5p"/></g><g transform="translate(-1343 -506)"><use fill="#ced0d1" xlink:href="#5oq5q"/></g><g transform="translate(-1343 -506)"><use fill="#ced0d1" xlink:href="#5oq5r"/></g><g transform="translate(-1343 -506)"><use fill="#ced0d1" xlink:href="#5oq5s"/></g><g transform="translate(-1343 -506)"><use fill="#ced0d1" xlink:href="#5oq5t"/></g><g transform="translate(-1343 -506)"><use fill="#ced0d1" xlink:href="#5oq5u"/></g><g transform="translate(-1343 -506)"><use fill="#ced0d1" xlink:href="#5oq5v"/></g><g transform="translate(-1343 -506)"><use fill="#08b4b9" xlink:href="#5oq5w"/></g><g transform="translate(-1343 -506)"><use fill="#ced0d1" xlink:href="#5oq5x"/></g><g transform="translate(-1343 -506)"><use fill="#ced0d1" xlink:href="#5oq5y"/></g><g transform="translate(-1343 -506)"><use fill="#ced0d1" xlink:href="#5oq5z"/></g><g transform="translate(-1343 -506)"><use fill="#ced0d1" xlink:href="#5oq5A"/></g><g transform="translate(-1343 -506)"><use fill="#ced0d1" xlink:href="#5oq5B"/></g><g transform="translate(-1343 -506)"><use fill="#ced0d1" xlink:href="#5oq5C"/></g><g transform="translate(-1343 -506)"><use fill="#ced0d1" xlink:href="#5oq5D"/></g><g transform="translate(-1343 -506)"><use fill="#ced0d1" xlink:href="#5oq5E"/></g><g transform="translate(-1343 -506)"><use fill="#ced0d1" xlink:href="#5oq5F"/></g><g transform="translate(-1343 -506)"><use fill="#ced0d1" xlink:href="#5oq5G"/></g><g transform="translate(-1343 -506)"><use fill="#ced0d1" xlink:href="#5oq5H"/></g><g transform="translate(-1343 -506)"><use fill="#ced0d1" xlink:href="#5oq5I"/></g><g transform="translate(-1343 -506)"><use fill="#08b4b9" xlink:href="#5oq5J"/></g><g transform="translate(-1343 -506)"><use fill="#ced0d1" xlink:href="#5oq5K"/></g><g transform="translate(-1343 -506)"><use fill="#ced0d1" xlink:href="#5oq5L"/></g><g transform="translate(-1343 -506)"><use fill="#ced0d1" xlink:href="#5oq5M"/></g><g transform="translate(-1343 -506)"><use fill="#ced0d1" xlink:href="#5oq5N"/></g><g transform="translate(-1343 -506)"><use fill="#08b4b9" xlink:href="#5oq5O"/></g><g transform="translate(-1343 -506)"><use fill="#ced0d1" xlink:href="#5oq5P"/></g><g transform="translate(-1343 -506)"><use fill="#ced0d1" xlink:href="#5oq5Q"/></g><g transform="translate(-1343 -506)"><use fill="#ced0d1" xlink:href="#5oq5R"/></g><g transform="translate(-1343 -506)"><use fill="#ced0d1" xlink:href="#5oq5S"/></g><g transform="translate(-1343 -506)"><use fill="#ced0d1" xlink:href="#5oq5T"/></g><g transform="translate(-1343 -506)"><use fill="#ced0d1" xlink:href="#5oq5U"/></g><g transform="translate(-1343 -506)"><use fill="#ced0d1" xlink:href="#5oq5V"/></g><g transform="translate(-1343 -506)"><use fill="#ced0d1" xlink:href="#5oq5W"/></g><g transform="translate(-1343 -506)"><use fill="#ced0d1" xlink:href="#5oq5X"/></g><g transform="translate(-1343 -506)"><use fill="#ced0d1" xlink:href="#5oq5Y"/></g><g transform="translate(-1343 -506)"><use fill="#ced0d1" xlink:href="#5oq5Z"/></g><g transform="translate(-1343 -506)"><use fill="#ced0d1" xlink:href="#5oq5aa"/></g><g transform="translate(-1343 -506)"><use fill="#ced0d1" xlink:href="#5oq5ab"/></g><g transform="translate(-1343 -506)"><use fill="#ced0d1" xlink:href="#5oq5ac"/></g><g transform="translate(-1343 -506)"><use fill="#ced0d1" xlink:href="#5oq5ad"/></g><g transform="translate(-1343 -506)"><use fill="#ced0d1" xlink:href="#5oq5ae"/></g><g transform="translate(-1343 -506)"><use fill="#08b4b9" xlink:href="#5oq5af"/></g><g transform="translate(-1343 -506)"><use fill="#ced0d1" xlink:href="#5oq5ag"/></g><g transform="translate(-1343 -506)"><use fill="#08b4b9" xlink:href="#5oq5ah"/></g><g transform="translate(-1343 -506)"><use fill="#ced0d1" xlink:href="#5oq5ai"/></g><g transform="translate(-1343 -506)"><use fill="#08b4b9" xlink:href="#5oq5aj"/></g><g transform="translate(-1343 -506)"><use fill="#ced0d1" xlink:href="#5oq5ak"/></g><g transform="translate(-1343 -506)"><use fill="#ced0d1" xlink:href="#5oq5al"/></g><g transform="translate(-1343 -506)"><use fill="#ced0d1" xlink:href="#5oq5am"/></g><g transform="translate(-1343 -506)"><use fill="#ced0d1" xlink:href="#5oq5an"/></g><g transform="translate(-1343 -506)"><use fill="#ced0d1" xlink:href="#5oq5ao"/></g><g transform="translate(-1343 -506)"><use fill="#08b4b9" xlink:href="#5oq5ap"/></g><g transform="translate(-1343 -506)"><use fill="#ced0d1" xlink:href="#5oq5aq"/></g><g transform="translate(-1343 -506)"><use fill="#08b4b9" xlink:href="#5oq5ar"/></g><g transform="translate(-1343 -506)"><use fill="#ced0d1" xlink:href="#5oq5as"/></g><g transform="translate(-1343 -506)"><use fill="#ced0d1" xlink:href="#5oq5at"/></g><g transform="translate(-1343 -506)"><use fill="#ced0d1" xlink:href="#5oq5au"/></g><g transform="translate(-1343 -506)"><use fill="#ced0d1" xlink:href="#5oq5av"/></g><g transform="translate(-1343 -506)"><use fill="#ced0d1" xlink:href="#5oq5aw"/></g><g transform="translate(-1343 -506)"><use fill="#ced0d1" xlink:href="#5oq5ax"/></g><g transform="translate(-1343 -506)"><use fill="#ced0d1" xlink:href="#5oq5ay"/></g><g transform="translate(-1343 -506)"><use fill="#ced0d1" xlink:href="#5oq5az"/></g><g transform="translate(-1343 -506)"><use fill="#ced0d1" xlink:href="#5oq5aA"/></g><g transform="translate(-1343 -506)"><use fill="#ced0d1" xlink:href="#5oq5aB"/></g><g transform="translate(-1343 -506)"><use fill="#ced0d1" xlink:href="#5oq5aC"/></g><g transform="translate(-1343 -506)"><use fill="#ced0d1" xlink:href="#5oq5aD"/></g><g transform="translate(-1343 -506)"><use fill="#ced0d1" xlink:href="#5oq5aE"/></g><g transform="translate(-1343 -506)"><use fill="#ced0d1" xlink:href="#5oq5aF"/></g><g transform="translate(-1343 -506)"><use fill="#ced0d1" xlink:href="#5oq5aG"/></g><g transform="translate(-1343 -506)"><use fill="#ced0d1" xlink:href="#5oq5aH"/></g><g transform="translate(-1343 -506)"><use fill="#ced0d1" xlink:href="#5oq5aI"/></g><g transform="translate(-1343 -506)"><use fill="#ced0d1" xlink:href="#5oq5aJ"/></g><g transform="translate(-1343 -506)"><use fill="#08b4b9" xlink:href="#5oq5aK"/></g><g transform="translate(-1343 -506)"><use fill="#ced0d1" xlink:href="#5oq5aL"/></g><g transform="translate(-1343 -506)"><use fill="#ced0d1" xlink:href="#5oq5aM"/></g><g transform="translate(-1343 -506)"><use fill="#ced0d1" xlink:href="#5oq5aN"/></g><g transform="translate(-1343 -506)"><use fill="#ced0d1" xlink:href="#5oq5aO"/></g><g transform="translate(-1343 -506)"><use fill="#ced0d1" xlink:href="#5oq5aP"/></g><g transform="translate(-1343 -506)"><use fill="#ced0d1" xlink:href="#5oq5aQ"/></g><g transform="translate(-1343 -506)"><use fill="#ced0d1" xlink:href="#5oq5aR"/></g><g transform="translate(-1343 -506)"><use fill="#ced0d1" xlink:href="#5oq5aS"/></g><g transform="translate(-1343 -506)"><use fill="#08b4b9" xlink:href="#5oq5aT"/></g><g transform="translate(-1343 -506)"><use fill="#ced0d1" xlink:href="#5oq5aU"/></g><g transform="translate(-1343 -506)"><use fill="#ced0d1" xlink:href="#5oq5aV"/></g><g transform="translate(-1343 -506)"><use fill="#ced0d1" xlink:href="#5oq5aW"/></g><g transform="translate(-1343 -506)"><use fill="#ced0d1" xlink:href="#5oq5aX"/></g><g transform="translate(-1343 -506)"><use fill="#08b4b9" xlink:href="#5oq5aY"/></g><g transform="translate(-1343 -506)"><use fill="#ced0d1" xlink:href="#5oq5aZ"/></g><g transform="translate(-1343 -506)"><use fill="#ced0d1" xlink:href="#5oq5ba"/></g><g transform="translate(-1343 -506)"><use fill="#ced0d1" xlink:href="#5oq5bb"/></g><g transform="translate(-1343 -506)"><use fill="#ced0d1" xlink:href="#5oq5bc"/></g><g transform="translate(-1343 -506)"><use fill="#151414" xlink:href="#5oq5bd"/></g><g opacity=".1" transform="translate(-1343 -506)"><g opacity=".1"><use fill="#fff" xlink:href="#5oq5be"/></g></g><g transform="translate(-1343 -506)"><use fill="#232323" xlink:href="#5oq5bf"/></g><g opacity=".15" transform="translate(-1343 -506)"><g opacity=".15"><use fill="#231f20" xlink:href="#5oq5bg"/></g><g opacity=".15"><use fill="#231f20" xlink:href="#5oq5bh"/></g><g opacity=".15"><use fill="#231f20" xlink:href="#5oq5bi"/></g><g opacity=".15"><use fill="#231f20" xlink:href="#5oq5bj"/></g><g opacity=".15"><use fill="#231f20" xlink:href="#5oq5bk"/></g><g opacity=".15"><use fill="#231f20" xlink:href="#5oq5bl"/></g><g opacity=".15"><use fill="#231f20" xlink:href="#5oq5bm"/></g><g opacity=".15"><use fill="#231f20" xlink:href="#5oq5bn"/></g><g opacity=".15"><use fill="#231f20" xlink:href="#5oq5bo"/></g><g opacity=".15"><use fill="#231f20" xlink:href="#5oq5bp"/></g><g opacity=".15"><use fill="#231f20" xlink:href="#5oq5bq"/></g><g opacity=".15"><use fill="#231f20" xlink:href="#5oq5br"/></g><g opacity=".15"><use fill="#231f20" xlink:href="#5oq5bs"/></g><g opacity=".15"><use fill="#231f20" xlink:href="#5oq5bt"/></g><g opacity=".15"><use fill="#231f20" xlink:href="#5oq5bu"/></g><g opacity=".15"><use fill="#231f20" xlink:href="#5oq5bv"/></g><g opacity=".15"><use fill="#231f20" xlink:href="#5oq5bw"/></g><g opacity=".15"><use fill="#231f20" xlink:href="#5oq5bx"/></g><g opacity=".15"><use fill="#231f20" xlink:href="#5oq5by"/></g><g opacity=".15"><use fill="#231f20" xlink:href="#5oq5bz"/></g></g><g transform="translate(-1343 -506)"><use fill="#b3d6ff" xlink:href="#5oq5bA"/></g><g transform="translate(-1343 -506)"><use fill="#58595b" xlink:href="#5oq5bB"/></g><g transform="translate(-1343 -506)"><use fill="#fff" xlink:href="#5oq5bC"/></g><g transform="translate(-1343 -506)"><use fill="#9ac7f4" xlink:href="#5oq5bD"/></g><g transform="translate(-1343 -506)"/><g clip-path="url(#5oq5bE)" transform="translate(-1343 -506)"><use fill="#ced0d1" xlink:href="#5oq5bF"/></g><g transform="translate(-1343 -506)"/><g clip-path="url(#5oq5bG)" transform="translate(-1343 -506)"><use fill="#ced0d1" xlink:href="#5oq5bH"/></g><g transform="translate(-1343 -506)"/><g clip-path="url(#5oq5bI)" transform="translate(-1343 -506)"><use fill="#ced0d1" xlink:href="#5oq5bJ"/></g><g transform="translate(-1343 -506)"/><g clip-path="url(#5oq5bK)" transform="translate(-1343 -506)"><use fill="#ced0d1" xlink:href="#5oq5bL"/></g><g transform="translate(-1343 -506)"/><g clip-path="url(#5oq5bM)" transform="translate(-1343 -506)"><use fill="#ced0d1" xlink:href="#5oq5bN"/></g><g transform="translate(-1343 -506)"/><g clip-path="url(#5oq5bO)" transform="translate(-1343 -506)"><use fill="#ced0d1" xlink:href="#5oq5bP"/></g><g transform="translate(-1343 -506)"/><g clip-path="url(#5oq5bQ)" transform="translate(-1343 -506)"><use fill="#ced0d1" xlink:href="#5oq5bR"/></g><g transform="translate(-1343 -506)"/><g clip-path="url(#5oq5bS)" transform="translate(-1343 -506)"><use fill="#ced0d1" xlink:href="#5oq5bT"/></g><g transform="translate(-1343 -506)"/><g clip-path="url(#5oq5bU)" transform="translate(-1343 -506)"><use fill="#ced0d1" xlink:href="#5oq5bV"/></g><g transform="translate(-1343 -506)"/><g clip-path="url(#5oq5bW)" transform="translate(-1343 -506)"><use fill="#08b4b9" xlink:href="#5oq5bX"/></g><g transform="translate(-1343 -506)"/><g clip-path="url(#5oq5bY)" transform="translate(-1343 -506)"><use fill="#ced0d1" xlink:href="#5oq5bZ"/></g><g transform="translate(-1343 -506)"/><g clip-path="url(#5oq5ca)" transform="translate(-1343 -506)"><use fill="#ced0d1" xlink:href="#5oq5cb"/></g><g transform="translate(-1343 -506)"/><g clip-path="url(#5oq5cc)" transform="translate(-1343 -506)"><use fill="#08b4b9" xlink:href="#5oq5cd"/></g><g transform="translate(-1343 -506)"/><g clip-path="url(#5oq5ce)" transform="translate(-1343 -506)"><use fill="#ced0d1" xlink:href="#5oq5cf"/></g><g transform="translate(-1343 -506)"/><g clip-path="url(#5oq5cg)" transform="translate(-1343 -506)"><use fill="#08b4b9" xlink:href="#5oq5ch"/></g><g transform="translate(-1343 -506)"/><g clip-path="url(#5oq5ci)" transform="translate(-1343 -506)"><use fill="#ced0d1" xlink:href="#5oq5cj"/></g><g transform="translate(-1343 -506)"/><g clip-path="url(#5oq5ck)" transform="translate(-1343 -506)"><use fill="#ced0d1" xlink:href="#5oq5cl"/></g><g transform="translate(-1343 -506)"/><g clip-path="url(#5oq5cm)" transform="translate(-1343 -506)"><use fill="#08b4b9" xlink:href="#5oq5cn"/></g><g transform="translate(-1343 -506)"/><g clip-path="url(#5oq5co)" transform="translate(-1343 -506)"><use fill="#ced0d1" xlink:href="#5oq5bN"/></g></g></svg>