<svg xmlns="http://www.w3.org/2000/svg" xmlns:xlink="http://www.w3.org/1999/xlink" width="44" height="122.67" viewBox="0 0 66 184"><defs><path id="rp0ka" d="M959.371 2921.823c-6.415-5.187-9.524-10.35-9.242-15.343.213-3.777 2.323-6.533 3.953-8.12a5.84 5.84 0 0 1-3.313-2.71 217.528 217.528 0 0 1-1.975-3.612l-5.169 10.942a4.548 4.548 0 0 1-4.144 2.627 4.558 4.558 0 0 1-4.278-2.924l-5.517-14.177a21.082 21.082 0 0 1 1.387-18.254l4.943-8.577c-3.078-10.27-4.637-20.054-4.637-29.09 0-13.847 2.953-26.373 8.778-37.231C947.222 2782.184 956.972 2775 960 2775c3.028 0 12.778 7.184 19.843 20.354 5.825 10.858 8.778 23.384 8.778 37.23 0 1.25-.029 2.538-.086 3.83-.007.14-.048.738-.048.738a93.92 93.92 0 0 1-.203 3.09c-.02.242-.047.48-.073.72l-.09.882a83.256 83.256 0 0 1-.238 2.222c-.035.283-.076.567-.118.85l-.148 1.048c-.086.632-.172 1.264-.272 1.894-.056.349-.119.695-.18 1.042l-.197 1.115a76.653 76.653 0 0 1-.287 1.603c-.073.376-.153.75-.233 1.123l-.229 1.102c-.102.497-.204.994-.315 1.486-.093.41-.19.817-.29 1.223l-.263 1.092c-.105.448-.21.895-.324 1.337-.1.399-.209.792-.317 1.186l-.506 1.888 4.723 8.197a21.23 21.23 0 0 1 2.824 10.145 21.081 21.081 0 0 1-1.438 8.113l-5.516 14.178a4.56 4.56 0 0 1-4.279 2.923 4.545 4.545 0 0 1-4.143-2.627l-4.828-10.221-.45.753-.427.69-.684 1.065s-.517.768-.61.902a5.815 5.815 0 0 1-3.356 2.296c1.62 1.61 3.656 4.345 3.855 8.037.268 4.985-2.842 10.139-9.246 15.317l-.629.509z"/><path id="rp0kb" d="M960 2776c2.276 0 11.74 6.365 18.962 19.827 4.83 9.003 8.659 21.175 8.659 36.757v.004a83.9 83.9 0 0 1-.086 3.783c-.01.243-.034.486-.047.729a92.275 92.275 0 0 1-.2 3.058c-.034.4-.086.798-.125 1.197-.085.863-.165 1.726-.272 2.586-.058.468-.134.933-.198 1.4-.108.787-.211 1.576-.336 2.359-.085.534-.187 1.063-.28 1.595-.124.712-.241 1.426-.378 2.133-.109.567-.235 1.126-.352 1.689-.138.665-.27 1.333-.417 1.992-.131.581-.277 1.154-.415 1.73-.152.632-.296 1.268-.456 1.894-.149.582-.31 1.152-.465 1.729-.156.577-.304 1.16-.465 1.73l4.932 8.558a20.185 20.185 0 0 1 1.321 17.397l-5.517 14.178c-.589 1.515-1.967 2.286-3.346 2.286-1.293 0-2.589-.677-3.24-2.055l-5.645-11.95c-.143.256-.28.492-.42.737l-.264.461c-.146.253-.29.493-.434.735a79.397 79.397 0 0 1-.695 1.138l-.257.404c-.139.217-.278.435-.413.639l-.19.28c-.136.201-.273.411-.404.597a4.822 4.822 0 0 1-3.952 2.045h-1.128c.135.087 14.159 9.143-3.477 23.403-17.722-14.33-3.47-23.407-3.47-23.407h-.667a4.828 4.828 0 0 1-4.22-2.475 214.217 214.217 0 0 1-2.899-5.361l-6.023 12.75c-.652 1.378-1.947 2.055-3.24 2.055-1.379 0-2.756-.771-3.346-2.286l-5.517-14.178a20.184 20.184 0 0 1 1.321-17.393l5.159-8.95c-2.756-9.089-4.719-19.079-4.719-29.216 0-15.582 3.829-27.754 8.659-36.757C948.26 2782.365 957.724 2776 960 2776zm0-2c-3.323 0-13.369 7.172-20.725 20.881-5.903 11.004-8.896 23.689-8.896 37.703 0 9.011 1.532 18.752 4.555 28.964l-4.727 8.204a22.077 22.077 0 0 0-1.453 19.116l5.517 14.178a5.555 5.555 0 0 0 5.21 3.561 5.535 5.535 0 0 0 5.048-3.201l4.325-9.155c.34.624.687 1.251 1.042 1.887a6.825 6.825 0 0 0 2.506 2.558c-1.523 1.775-3.083 4.379-3.272 7.728-.301 5.333 2.933 10.776 9.612 16.177l1.258 1.017 1.258-1.017c6.672-5.396 9.907-10.833 9.615-16.16-.178-3.238-1.648-5.788-3.126-7.562a6.786 6.786 0 0 0 2.446-2.132c.102-.145.208-.303.314-.461l.112-.167.069-.1.131-.196c.138-.208.28-.43.423-.653l.193-.303 4.036 8.544a5.537 5.537 0 0 0 5.048 3.2 5.555 5.555 0 0 0 5.21-3.561l5.517-14.178a22.073 22.073 0 0 0 1.505-8.496 22.249 22.249 0 0 0-2.958-10.624l-4.516-7.837c.032-.117.063-.233.093-.35l.155-.583.148-.544c.11-.401.22-.803.324-1.21.114-.451.222-.907.33-1.363l.133-.56.136-.56c.097-.398.194-.795.285-1.197.107-.482.207-.967.306-1.453l.118-.571.122-.576c.081-.379.162-.758.236-1.14.103-.534.195-1.07.287-1.607l.097-.563.102-.572c.064-.349.127-.699.183-1.05.103-.639.189-1.281.277-1.922l.065-.48.078-.534c.043-.298.087-.595.124-.893.096-.774.172-1.551.247-2.327l.03-.31c.016-.159.034-.318.051-.476.028-.248.056-.496.077-.745.092-1.077.153-2.138.204-3.124.005-.097.013-.195.02-.292.011-.151.022-.303.028-.454.059-1.305.088-2.608.088-3.871v-.07c-.01-13.989-3.002-26.65-8.896-37.637C973.369 2781.172 963.323 2774 960 2774z"/><path id="rp0kc" d="M931.939 2869.751a20.182 20.182 0 0 0-1.322 17.392l5.517 14.177c1.142 2.936 5.241 3.08 6.587.232l7.042-14.907-12.28-26.516z"/><path id="rp0ke" d="M936.404 2873.533l2.231-3.94a2.334 2.334 0 1 0-4.06-2.3l-2.233 3.94a2.315 2.315 0 0 0-.22 1.748c-.527.268-.95.731-1.155 1.333a17.717 17.717 0 0 0 .287 12.061l2.358 6.054a2.334 2.334 0 1 0 4.348-1.693l-2.359-6.056a13.037 13.037 0 0 1-.21-8.878c.153-.454.157-.922.04-1.352a2.3 2.3 0 0 0 .973-.917z"/><path id="rp0kf" d="M970.237 2886.645l7.042 14.907c1.345 2.848 5.445 2.704 6.586-.232l5.517-14.177a20.185 20.185 0 0 0-1.321-17.392l-5.545-9.622z"/><path id="rp0kh" d="M951.643 2894.163a4.831 4.831 0 0 0 4.22 2.476h8.743a4.82 4.82 0 0 0 3.95-2.045c1.484-2.114 3.278-5.178 5.164-8.946h-26.59a208.92 208.92 0 0 0 4.513 8.515z"/><path id="rp0ki" d="M947.13 2885.648s3.086 6.263 12.87 6.263c9.784 0 13.72-6.263 13.72-6.263z"/><path id="rp0kj" d="M941.038 2794.827c-4.83 9.003-8.659 21.176-8.659 36.758 0 20.836 8.264 41.087 14.751 54.063h26.59c6.416-12.823 13.901-33.88 13.901-54.063 0-15.582-3.829-27.755-8.659-36.758z"/><path id="rp0kk" d="M941.038 2794.827h37.924c-7.222-13.461-16.686-19.826-18.962-19.826s-11.74 6.365-18.962 19.826z"/><path id="rp0km" d="M948.578 2792.987a2.334 2.334 0 0 1-2.017-3.504c1.496-2.58 2.635-3.933 4.477-5.82a2.339 2.339 0 0 1 3.301-.042c.922.901.94 2.378.041 3.3-1.573 1.611-2.458 2.62-3.78 4.902a2.334 2.334 0 0 1-2.022 1.164z"/><path id="rp0kn" d="M955.54 2784.682a2.334 2.334 0 0 1-1.545-4.083 42.468 42.468 0 0 1 2.288-1.885 2.334 2.334 0 0 1 2.84 3.703 39.26 39.26 0 0 0-2.041 1.681 2.318 2.318 0 0 1-1.542.584z"/><path id="rp0ko" d="M988.061 2869.754l-4.933-8.56c2.645-9.34 4.493-19.58 4.493-29.606 0-15.582-3.829-27.754-8.659-36.757-7.222-13.461-16.686-19.827-18.962-19.827v121.638h4.605a4.822 4.822 0 0 0 3.952-2.045c.922-1.315 1.966-2.998 3.077-4.991l5.645 11.95c1.346 2.848 5.445 2.703 6.586-.231l5.517-14.178a20.184 20.184 0 0 0-1.321-17.393z"/><path id="rp0kq" d="M960 2794.827v90.82"/><path id="rp0kr" d="M960 2860.276c-7.266 0-13.176-5.91-13.176-13.175 0-7.265 5.91-13.176 13.176-13.176s13.176 5.911 13.176 13.176c0 7.264-5.91 13.175-13.176 13.175z"/><path id="rp0ks" d="M960 2834.426c7 0 12.676 5.675 12.676 12.675 0 7-5.676 12.676-12.676 12.676s-12.676-5.675-12.676-12.676c0-7 5.676-12.675 12.676-12.675zm0-1c-7.541 0-13.676 6.135-13.676 13.675 0 7.54 6.135 13.676 13.676 13.676s13.676-6.135 13.676-13.676c0-7.54-6.135-13.675-13.676-13.675z"/><path id="rp0kt" d="M960 2858.724c-6.409 0-11.623-5.214-11.623-11.623 0-6.408 5.214-11.622 11.623-11.622 6.409 0 11.623 5.214 11.623 11.622 0 6.409-5.214 11.623-11.623 11.623z"/><path id="rp0ku" d="M960 2836.479c5.867 0 10.623 4.756 10.623 10.623 0 5.866-4.756 10.622-10.623 10.622-5.867 0-10.623-4.757-10.623-10.623s4.756-10.622 10.623-10.622zm0-2c-6.96 0-12.623 5.662-12.623 12.623 0 6.96 5.663 12.622 12.623 12.622 6.96 0 12.623-5.663 12.623-12.623 0-6.96-5.663-12.622-12.623-12.622z"/><path id="rp0kv" d="M960 2855.477c-4.618 0-8.376-3.757-8.376-8.375 0-4.62 3.758-8.378 8.376-8.378 4.618 0 8.376 3.758 8.376 8.377 0 4.618-3.758 8.376-8.376 8.376z"/><path id="rp0kw" d="M960 2839.225a7.876 7.876 0 0 1 7.876 7.876 7.876 7.876 0 1 1-15.752 0 7.876 7.876 0 0 1 7.876-7.876zm0-1c-4.895 0-8.876 3.982-8.876 8.876 0 4.895 3.981 8.877 8.876 8.877s8.876-3.982 8.876-8.877c0-4.894-3.981-8.876-8.876-8.876z"/><path id="rp0kx" d="M954.1 2847.101c0-1.633.663-3.11 1.735-4.18"/><path id="rp0ky" d="M954.466 2849.153a7.416 7.416 0 0 1-.102-.297"/><path id="rp0kz" d="M957.703 2841.664a5.892 5.892 0 0 1 2.297-.463"/><path id="rp0kA" d="M960 2828.927c-7.266 0-13.176-5.91-13.176-13.176 0-7.264 5.91-13.175 13.176-13.175s13.176 5.911 13.176 13.175c0 7.265-5.91 13.176-13.176 13.176z"/><path id="rp0kB" d="M960 2803.076c7 0 12.676 5.675 12.676 12.675 0 7.001-5.676 12.676-12.676 12.676s-12.676-5.675-12.676-12.676c0-7 5.676-12.675 12.676-12.675zm0-1c-7.541 0-13.676 6.135-13.676 13.675 0 7.541 6.135 13.676 13.676 13.676s13.676-6.135 13.676-13.676c0-7.54-6.135-13.675-13.676-13.675z"/><path id="rp0kC" d="M960 2827.374c-6.409 0-11.623-5.214-11.623-11.623 0-6.408 5.214-11.622 11.623-11.622 6.409 0 11.623 5.214 11.623 11.622 0 6.409-5.214 11.623-11.623 11.623z"/><path id="rp0kD" d="M960 2805.129c5.867 0 10.623 4.756 10.623 10.623 0 5.866-4.756 10.622-10.623 10.622-5.867 0-10.623-4.756-10.623-10.622 0-5.867 4.756-10.623 10.623-10.623zm0-2c-6.96 0-12.623 5.663-12.623 12.623 0 6.96 5.663 12.622 12.623 12.622 6.96 0 12.623-5.662 12.623-12.622s-5.663-12.623-12.623-12.623z"/><path id="rp0kE" d="M960 2824.128c-4.618 0-8.376-3.758-8.376-8.376 0-4.62 3.758-8.376 8.376-8.376 4.618 0 8.376 3.757 8.376 8.376 0 4.618-3.758 8.376-8.376 8.376z"/><path id="rp0kF" d="M960 2807.876a7.876 7.876 0 0 1 7.876 7.875 7.876 7.876 0 0 1-7.876 7.877 7.876 7.876 0 0 1-7.876-7.876 7.876 7.876 0 0 1 7.876-7.876zm0-1c-4.895 0-8.876 3.981-8.876 8.875 0 4.896 3.981 8.877 8.876 8.877s8.876-3.981 8.876-8.876c0-4.894-3.981-8.876-8.876-8.876z"/><path id="rp0kG" d="M954.1 2815.751c0-1.633.663-3.11 1.735-4.18"/><path id="rp0kH" d="M954.466 2817.804a7.416 7.416 0 0 1-.102-.297"/><path id="rp0kI" d="M957.703 2810.315a5.875 5.875 0 0 1 2.297-.464"/><path id="rp0kJ" d="M963.47 2896.638s14.252 9.077-3.47 23.407c-17.721-14.33-3.47-23.407-3.47-23.407z"/><path id="rp0kK" d="M962.376 2896.638s9.757 6.214-2.376 16.025c-12.133-9.81-2.376-16.025-2.376-16.025z"/><path id="rp0kL" d="M962 2930.5c0 4.143-.896 7.5-2 7.5s-2-3.357-2-7.5.896-7.5 2-7.5 2 3.357 2 7.5z"/><path id="rp0kM" d="M960.8 2946c0 2.209-.357 4-.8 4-.442 0-.801-1.791-.801-4s.359-4 .8-4c.444 0 .802 1.791.802 4z"/><path id="rp0kN" d="M960.8 2956c0 1.104-.357 2-.8 2-.442 0-.801-.896-.801-2s.359-2 .8-2c.444 0 .802.896.802 2z"/><linearGradient id="rp0kd" x1="929.24" x2="949.76" y1="2881.87" y2="2881.87" gradientUnits="userSpaceOnUse"><stop offset="0" stop-color="#9dc137"/><stop offset="1" stop-color="#0694ea"/></linearGradient><linearGradient id="rp0kg" x1="970.24" x2="990.76" y1="2881.87" y2="2881.87" gradientUnits="userSpaceOnUse"><stop offset="0" stop-color="#0694ea"/><stop offset=".01" stop-color="#0694ea"/><stop offset="1" stop-color="#9dc137"/><stop offset="1" stop-color="#9dc137"/></linearGradient><linearGradient id="rp0kl" x1="960" x2="960" y1="2794.83" y2="2775" gradientUnits="userSpaceOnUse"><stop offset="0" stop-color="#0694ea"/><stop offset=".01" stop-color="#0694ea"/><stop offset="1" stop-color="#9dc137"/><stop offset="1" stop-color="#9dc137"/></linearGradient><linearGradient id="rp0kp" x1="937.49" x2="994.71" y1="2872.83" y2="2815.61" gradientUnits="userSpaceOnUse"><stop offset="0" stop-color="#9dc137"/><stop offset="1" stop-color="#0694ea"/></linearGradient></defs><g><g transform="translate(-927 -2774)"><use fill="#fff" xlink:href="#rp0ka"/></g><g transform="translate(-927 -2774)"><use fill="#fff" xlink:href="#rp0kb"/></g><g transform="translate(-927 -2774)"><use fill="url(#rp0kd)" xlink:href="#rp0kc"/></g><g opacity=".28" transform="translate(-927 -2774)"><g opacity=".28"><use fill="#fff" xlink:href="#rp0ke"/></g></g><g transform="translate(-927 -2774)"><use fill="url(#rp0kg)" xlink:href="#rp0kf"/></g><g transform="translate(-927 -2774)"><use fill="#2ea9ae" xlink:href="#rp0kh"/></g><g transform="translate(-927 -2774)"><use fill="#187e8a" xlink:href="#rp0ki"/></g><g transform="translate(-927 -2774)"><use fill="#f2eed1" xlink:href="#rp0kj"/></g><g transform="translate(-927 -2774)"><use fill="url(#rp0kl)" xlink:href="#rp0kk"/></g><g opacity=".28" transform="translate(-927 -2774)"><g opacity=".28"><use fill="#fff" xlink:href="#rp0km"/></g><g opacity=".28"><use fill="#fff" xlink:href="#rp0kn"/></g></g><g opacity=".3" transform="translate(-927 -2774)"><g opacity=".3"><use fill="url(#rp0kp)" xlink:href="#rp0ko"/></g></g><g transform="translate(-927 -2774)"><use fill="#fff" fill-opacity="0" stroke="#3f2f3c" stroke-miterlimit="50" xlink:href="#rp0kq"/></g><g transform="translate(-927 -2774)"><use fill="#f2eed1" xlink:href="#rp0kr"/></g><g transform="translate(-927 -2774)"><use fill="#3f2f3c" xlink:href="#rp0ks"/></g><g transform="translate(-927 -2774)"><use fill="#2ea9ae" xlink:href="#rp0kt"/></g><g transform="translate(-927 -2774)"><use fill="#187e8a" xlink:href="#rp0ku"/></g><g transform="translate(-927 -2774)"><use fill="#3f2f3c" xlink:href="#rp0kv"/></g><g transform="translate(-927 -2774)"><use fill="#187e8a" xlink:href="#rp0kw"/></g><g transform="translate(-927 -2774)"><use fill="#fff" fill-opacity="0" stroke="#5b4659" stroke-linecap="round" stroke-linejoin="round" stroke-miterlimit="50" stroke-width="2" xlink:href="#rp0kx"/></g><g transform="translate(-927 -2774)"><use fill="#fff" fill-opacity="0" stroke="#5b4659" stroke-linecap="round" stroke-linejoin="round" stroke-miterlimit="50" stroke-width="2" xlink:href="#rp0ky"/></g><g transform="translate(-927 -2774)"><use fill="#fff" fill-opacity="0" stroke="#5b4659" stroke-linecap="round" stroke-linejoin="round" stroke-miterlimit="50" stroke-width="2" xlink:href="#rp0kz"/></g><g transform="translate(-927 -2774)"><use fill="#f2eed1" xlink:href="#rp0kA"/></g><g transform="translate(-927 -2774)"><use fill="#3f2f3c" xlink:href="#rp0kB"/></g><g transform="translate(-927 -2774)"><use fill="#2ea9ae" xlink:href="#rp0kC"/></g><g transform="translate(-927 -2774)"><use fill="#187e8a" xlink:href="#rp0kD"/></g><g transform="translate(-927 -2774)"><use fill="#3f2f3c" xlink:href="#rp0kE"/></g><g transform="translate(-927 -2774)"><use fill="#187e8a" xlink:href="#rp0kF"/></g><g transform="translate(-927 -2774)"><use fill="#fff" fill-opacity="0" stroke="#5b4659" stroke-linecap="round" stroke-linejoin="round" stroke-miterlimit="50" stroke-width="2" xlink:href="#rp0kG"/></g><g transform="translate(-927 -2774)"><use fill="#fff" fill-opacity="0" stroke="#5b4659" stroke-linecap="round" stroke-linejoin="round" stroke-miterlimit="50" stroke-width="2" xlink:href="#rp0kH"/></g><g transform="translate(-927 -2774)"><use fill="#fff" fill-opacity="0" stroke="#5b4659" stroke-linecap="round" stroke-linejoin="round" stroke-miterlimit="50" stroke-width="2" xlink:href="#rp0kI"/></g><g transform="translate(-927 -2774)"><use fill="#d89346" xlink:href="#rp0kJ"/></g><g transform="translate(-927 -2774)"><use fill="#d89346" xlink:href="#rp0kK"/></g><g transform="translate(-927 -2774)"><use fill="#f4c166" xlink:href="#rp0kK"/></g><g transform="translate(-927 -2774)"><use fill="#f4c166" xlink:href="#rp0kL"/></g><g opacity=".45" transform="translate(-927 -2774)"><g opacity=".45"><use fill="#333" xlink:href="#rp0kM"/></g></g><g opacity=".45" transform="translate(-927 -2774)"><g opacity=".45"><use fill="#333" xlink:href="#rp0kN"/></g></g></g></svg>