<svg xmlns="http://www.w3.org/2000/svg" xmlns:xlink="http://www.w3.org/1999/xlink" width="165" height="166" viewBox="0 0 165 166"><defs><path id="gvmwa" d="M1466.602 547.545c7.061 0 12.806 5.744 12.806 12.805s-5.745 12.806-12.806 12.806c-7.06 0-12.806-5.745-12.806-12.806 0-7.06 5.745-12.805 12.806-12.805zm-4.413 19.16a15.774 15.774 0 0 0 3.491 4.995c.072.006.143.012.214.016v-5.01zm-6.953-5.647a11.314 11.314 0 0 0 1.103 4.232h3.845a17.287 17.287 0 0 1-.717-4.232zm15.39-7.186a15.788 15.788 0 0 0-3.195-4.879l-.122-.009v4.888zm-3.317 1.415v4.355h4.507a15.856 15.856 0 0 0-.683-4.355zm-1.415-6.303a9.452 9.452 0 0 0-.237.02 15.789 15.789 0 0 0-3.418 4.868h3.655zm-4.208 6.303a15.844 15.844 0 0 0-.805 4.355h5.013v-4.355zm-2.22 4.355a17.29 17.29 0 0 1 .731-4.355h-3.794a11.316 11.316 0 0 0-1.167 4.355zm1.416 1.416c.064 1.46.325 2.88.767 4.232h4.245v-4.232zm6.427 9.924a15.797 15.797 0 0 0 2.986-4.277h-2.986zm3.573-5.692c.488-1.353.791-2.774.896-4.232h-4.469v4.232zm2.316-4.232a17.218 17.218 0 0 1-.818 4.232h4.485a11.314 11.314 0 0 0 1.103-4.232zm4.77-1.416a11.316 11.316 0 0 0-1.167-4.355h-4.197c.391 1.404.604 2.864.627 4.355zm-2.006-5.77a11.426 11.426 0 0 0-6.338-4.502 17.086 17.086 0 0 1 2.52 4.502zm-12.624-4.434a11.426 11.426 0 0 0-6.096 4.434h3.46a17.032 17.032 0 0 1 2.636-4.434zm-6.184 17.267a11.427 11.427 0 0 0 6.213 4.564 17.306 17.306 0 0 1-2.688-4.564zm11.577 4.833a11.413 11.413 0 0 0 7.32-4.833h-4.207a17.177 17.177 0 0 1-3.113 4.833z"/><path id="gvmwb" d="M1490.575 495.689a2.325 2.325 0 0 1-2.326 2.325h-9.328a2.324 2.324 0 0 1-2.325-2.325v-19.013a2.325 2.325 0 0 1 2.325-2.325h9.328a2.325 2.325 0 0 1 2.326 2.325z"/><path id="gvmwc" d="M1484.252 496.001a.668.668 0 1 1-1.335 0 .668.668 0 0 1 1.335 0z"/><path id="gvmwd" d="M1489.004 478.392l-10.837 15.581v-15.58z"/><path id="gvmwe" d="M1489.004 493.973h-10.837l10.837-15.581z"/><path id="gvmwf" d="M1420.408 488.132c-12.4 0-22.454 10.053-22.454 22.455 0 12.401 10.054 22.454 22.454 22.454 12.401 0 22.455-10.053 22.455-22.454 0-12.402-10.054-22.455-22.455-22.455z"/><path id="gvmwg" d="M1412.94 518.68v-17.27h25.52v17.27z"/><path id="gvmwh" d="M1425.996 518.032a.3.3 0 1 1-.6 0 .3.3 0 0 1 .6 0z"/><path id="gvmwi" d="M1427.259 518.68h-3.138l3.138 3.137z"/><path id="gvmwj" d="M1427.97 520.907h-1.622l-2.227-2.227v2.227h-.712a.54.54 0 0 0-.54.539v.372H1428.509v-.372a.539.539 0 0 0-.538-.54z"/><path id="gvmwk" d="M1437.037 502.677v14.735l-22.68-14.735z"/><path id="gvmwl" d="M1437.037 517.413h-22.68v-14.735z"/><path id="gvmwm" d="M1402.55 519.82v-18.44h8.77v18.44z"/><path id="gvmwn" d="M1409.803 522.26h-5.743a1.936 1.936 0 0 1-1.932-1.934v-19.45c0-1.066.868-1.933 1.933-1.933h5.742c1.066 0 1.933.867 1.933 1.933v19.45a1.935 1.935 0 0 1-1.934 1.933zm-5.743-22.476c-.601 0-1.091.49-1.091 1.092v19.45c0 .603.49 1.092 1.091 1.092h5.743c.603 0 1.092-.489 1.092-1.092v-19.45c0-.602-.488-1.092-1.092-1.092z"/><path id="gvmwo" d="M1405.256 516.994a.418.418 0 0 1-.42.418h-.584a.418.418 0 0 1-.418-.418v-3.803a.42.42 0 0 1 .418-.419h.585c.232 0 .419.188.419.42z"/><path id="gvmwp" d="M1403.39 503.73v-1.16h6.9v1.16z"/><path id="gvmwq" d="M1403.39 506.06v-1.16h6.9v1.16z"/><path id="gvmwr" d="M1404.14 513.74v-.42h.82v.42z"/><path id="gvmws" d="M1404.14 514.58v-.42h.82v.42z"/><path id="gvmwt" d="M1404.14 516.68v-.42h.82v.42z"/><path id="gvmwu" d="M1443.429 496.491v-4.546c-10.646 0-19.305 8.66-19.305 19.304v13.216h4.485v-13.153c0-8.173 6.648-14.82 14.82-14.82z"/><path id="gvmwv" d="M1443.429 491.945v4.546c8.174 0 14.82 6.649 14.82 14.82v13.154h4.485v-13.216c0-10.644-8.66-19.304-19.305-19.304z"/><path id="gvmww" d="M1428.608 511.312v13.153h4.14v-13.216c0-5.89 4.791-10.683 10.68-10.683v-4.075c-8.172 0-14.82 6.649-14.82 14.821z"/><path id="gvmwx" d="M1443.429 496.491v4.075c5.89 0 10.683 4.793 10.683 10.683v13.216h4.138v-13.153c0-8.173-6.647-14.82-14.821-14.82z"/><path id="gvmwy" d="M1443.43 553.91V518.7h22.99v35.21z"/><path id="gvmwz" d="M1420.44 553.91V518.7h22.99v35.21z"/><path id="gvmwA" d="M1455.107 536.305c-.015-6.437-5.237-11.652-11.68-11.652-6.449 0-11.678 5.23-11.678 11.679 0 6.348 5.062 11.508 11.371 11.672.103.002.204.008.307.008 6.452 0 11.681-5.23 11.681-11.68v-.027z"/><path id="gvmwB" d="M1481.154 527.884a7.153 7.153 0 0 0-6.746 4.778h-15.673v5.42l.026.02 2.562 2.374 2.028-1.878.524-.446 2.509 2.324 2.53-2.345 2.529 2.345 2.53-2.345 2.473 2.295.005-.007a7.124 7.124 0 0 0 4.703 1.77 7.152 7.152 0 0 0 7.15-7.153 7.151 7.151 0 0 0-7.15-7.152zm2.682 9.497a2.346 2.346 0 1 1-.002-4.692 2.346 2.346 0 0 1 .002 4.692z"/><path id="gvmwC" d="M1446.86 534.328a3.431 3.431 0 0 0-6.862 0c0 1.272.692 2.379 1.72 2.972v2.759a1.71 1.71 0 1 0 3.421 0v-2.76a3.424 3.424 0 0 0 1.72-2.971z"/><path id="gvmwD" d="M1407.69 575.53c.154.024.31.043.462.077 1.343.301 2.336 1.366 2.51 2.73.13 1.024-.166 1.93-.892 2.666-1.302 1.32-2.62 2.623-3.93 3.932-.165.162-.383.172-.53.027-.15-.152-.14-.36.033-.535 1.28-1.278 2.56-2.555 3.84-3.835a2.457 2.457 0 0 0 .747-1.747 2.504 2.504 0 0 0-2.266-2.537c-.775-.075-1.452.158-2.004.702a1473.03 1473.03 0 0 0-5.187 5.118c-.964.956-.599 2.563.68 2.984.7.231 1.33.071 1.855-.444 1.092-1.07 2.177-2.147 3.265-3.22.65-.64 1.3-1.28 1.945-1.923a1.07 1.07 0 0 0 .096-1.437 1.08 1.08 0 0 0-1.556-.148c-.042.036-.08.076-.12.116-1.278 1.276-2.555 2.551-3.83 3.827-.108.108-.226.172-.383.128a.35.35 0 0 1-.183-.562c.017-.024.04-.045.06-.066 1.293-1.292 2.584-2.585 3.88-3.874.902-.896 2.37-.646 2.905.49.327.69.177 1.49-.386 2.05l-3.343 3.298c-.608.602-1.219 1.202-1.826 1.805a2.514 2.514 0 0 1-1.976.76c-1.112-.056-2.109-.938-2.294-2.037-.015-.092-.032-.183-.048-.275v-.38c.008-.03.02-.058.022-.087a2.444 2.444 0 0 1 .728-1.5c1.751-1.732 3.503-3.462 5.258-5.19a3.062 3.062 0 0 1 1.417-.8c.198-.05.402-.076.603-.114z"/><path id="gvmwE" d="M1425.905 480.646c-.018.104-.03.21-.054.314a2.176 2.176 0 0 1-1.859 1.709c-.697.089-1.314-.113-1.815-.607-.899-.886-1.786-1.784-2.678-2.677-.11-.112-.117-.26-.019-.36.104-.104.246-.095.364.023l2.613 2.614c.328.328.725.5 1.19.509a1.706 1.706 0 0 0 1.728-1.543 1.645 1.645 0 0 0-.479-1.365c-1.158-1.18-2.32-2.357-3.485-3.532-.652-.657-1.746-.408-2.032.462-.158.477-.049.906.302 1.265.73.743 1.462 1.482 2.194 2.223.435.442.871.884 1.308 1.325a.733.733 0 0 0 1.08-.995c-.025-.029-.052-.055-.08-.082l-2.605-2.609c-.073-.073-.117-.153-.088-.259a.24.24 0 0 1 .384-.126c.015.013.03.027.044.042.88.88 1.76 1.759 2.637 2.641a1.218 1.218 0 1 1-1.727 1.715c-.75-.757-1.499-1.517-2.247-2.275-.41-.415-.819-.83-1.23-1.244a1.71 1.71 0 0 1-.516-1.345c.037-.758.637-1.437 1.386-1.563l.187-.032h.26c.02.004.04.013.058.014.4.047.742.211 1.023.496 1.178 1.193 2.356 2.386 3.533 3.581.27.271.451.595.545.965.034.134.053.273.078.41z"/><path id="gvmwF" d="M1497.204 586.32a2.66 2.66 0 0 1-2.66 2.66h-21.346a2.66 2.66 0 0 1-2.66-2.66v-30.724a2.66 2.66 0 0 1 2.66-2.66h21.345a2.66 2.66 0 0 1 2.661 2.66z"/><path id="gvmwG" d="M1484.634 586.678a.762.762 0 1 1-1.525 0 .763.763 0 1 1 1.525 0z"/><path id="gvmwH" d="M1484.37 555.237a.499.499 0 1 1-.999-.002.499.499 0 0 1 .998.002z"/><path id="gvmwI" d="M1472.335 557.56l23.071 26.797V557.56z"/><path id="gvmwJ" d="M1472.335 584.356h23.071l-23.071-26.796z"/><path id="gvmwK" d="M1389.81 564.35V548.7h23.12v15.65z"/><path id="gvmwL" d="M1401.64 563.76a.271.271 0 1 1-.543 0 .271.271 0 0 1 .543 0z"/><path id="gvmwM" d="M1389.543 566.422H1413.194c.678 0 1.227-.551 1.227-1.228v-.846h-26.105v.846c0 .677.549 1.228 1.227 1.228z"/><path id="gvmwN" d="M1411.644 549.848v13.35l-20.55-13.35z"/><path id="gvmwO" d="M1411.644 563.198h-20.55v-13.35z"/><path id="gvmwP" d="M1524.371 534.229l1.532.07.097-3.822h-1.534z"/><path id="gvmwQ" d="M1523.084 545.32l1.508.28.336-1.882c.093-.47.162-.942.2-1.298l.075-.593-1.519-.21-.074.582c-.037.35-.105.814-.196 1.275l-.33 1.846z"/><path id="gvmwR" d="M1520.291 556.13l1.455.485s.316-.902.603-1.813l.522-1.84-1.476-.417-.512 1.805c-.281.894-.592 1.78-.592 1.78z"/><path id="gvmwS" d="M1518.348 561.367l1.417.586.7-1.778.484-1.223c.127-.335.197-.564.197-.564l-1.444-.519s-.068.225-.193.554c-.13.326-.301.762-.474 1.2l-.687 1.744z"/><path id="gvmwT" d="M1516.032 566.45l1.373.682s.456-.84.832-1.72l.787-1.742-1.403-.618-.773 1.71a23.221 23.221 0 0 1-.816 1.687z"/><path id="gvmwU" d="M1513.371 571.361l1.322.776.953-1.657c.242-.412.478-.828.634-1.15.163-.32.273-.532.273-.532l-1.359-.714s-.106.21-.266.521c-.154.318-.385.726-.622 1.13l-.935 1.626z"/><path id="gvmwV" d="M1510.389 576.085l1.267.866s.143-.191.339-.491a1303.753 1303.753 0 0 0 1.742-2.716l-1.305-.805-1.013 1.579-.696 1.086c-.192.294-.334.481-.334.481z"/><path id="gvmwW" d="M1507.068 580.578l1.204.95 1.181-1.503c.574-.763 1.118-1.55 1.118-1.55l-1.246-.894s-.534.772-1.098 1.521c-.579.74-1.159 1.476-1.159 1.476z"/><path id="gvmwX" d="M1503.474 584.856l1.137 1.03 2.502-2.889-1.182-.978z"/><path id="gvmwY" d="M1499.563 588.846l1.062 1.106s.7-.652 1.376-1.326l1.32-1.384-1.112-1.056-1.295 1.358a63.44 63.44 0 0 1-1.35 1.302z"/><path id="gvmwZ" d="M1495.41 592.584l.984 1.177 1.445-1.252.993-.861a7.43 7.43 0 0 0 .44-.404l-1.038-1.131s-.163.169-.43.399l-.976.843z"/><path id="gvmwaa" d="M1491 596.01l.9 1.24s.196-.136.488-.344c.296-.203.678-.49 1.05-.79l1.502-1.18-.957-1.198-1.474 1.159c-.365.295-.74.575-1.031.773l-.478.34z"/><path id="gvmwab" d="M1486.368 599.135l.812 1.3 1.61-1.031c.814-.501 1.585-1.068 1.585-1.068l-.872-1.262s-.756.557-1.556 1.048l-1.579 1.013z"/><path id="gvmwac" d="M1481.534 601.935l.722 1.354.531-.273 1.142-.651 1.657-.953-.784-1.32-1.626.936-1.12.64-.522.267z"/><path id="gvmwad" d="M1476.513 604.38l.625 1.4 1.742-.787c.44-.188.859-.42 1.18-.58l.53-.271-.688-1.37-.523.267c-.314.157-.725.385-1.157.569z"/><path id="gvmwae" d="M1471.345 606.502l.526 1.44 3.557-1.401-.593-1.414z"/><path id="gvmwaf" d="M1460.611 609.586l.322 1.499 1.864-.43 1.28-.295.575-.16-.392-1.482-.564.156-1.257.29z"/><path id="gvmwag" d="M1449.558 611.16l.113 1.53 1.906-.145c.478-.026.95-.108 1.305-.147l.593-.075-.183-1.522-.582.073c-.348.038-.812.12-1.281.143z"/><path id="gvmwah" d="M1443.976 611.395l.009 1.533 3.82-.097-.077-1.532z"/><path id="gvmwai" d="M1406.321 602.335l-.707 1.361 1.701.871c.422.227.86.417 1.187.566l.545.246.642-1.394s-.214-.095-.534-.241c-.32-.144-.75-.331-1.165-.554l-1.669-.855z"/><path id="gvmwaj" d="M1401.445 599.61l-.799 1.308 3.311 1.912.737-1.345z"/><path id="gvmwak" d="M1396.79 596.52l-.887 1.25 1.559 1.106 1.608 1.032.829-1.29-1.579-1.013-1.53-1.086z"/><path id="gvmwal" d="M1392.338 593.145l-.971 1.187s.75.591 1.502 1.181l1.034.813c.279.224.476.36.476.36l.915-1.23s-.193-.133-.467-.355l-1.013-.797-1.476-1.159z"/><path id="gvmwam" d="M1388.146 589.451l-1.05 1.118.432.412c.26.247.6.582.969.888l1.444 1.252.998-1.165-1.418-1.229c-.36-.299-.696-.629-.95-.87z"/><path id="gvmwan" d="M1384.205 585.493l-1.124 1.044s.66.69 1.318 1.383l.91.946.433.412 1.075-1.094s-.17-.16-.424-.404c-.244-.253-.569-.59-.894-.93l-1.294-1.357z"/><path id="gvmwao" d="M1380.548 581.269l-1.193.964s.58.76 1.218 1.472l1.252 1.445 1.148-1.018-1.23-1.42c-.627-.696-1.194-1.443-1.195-1.443z"/><path id="gvmwap" d="M1377.194 576.8l-1.257.88 1.108 1.559c.271.393.557.775.785 1.053l.37.47 1.214-.937-.363-.461a16.13 16.13 0 0 1-.77-1.034l-1.087-1.53z"/><path id="gvmwaq" d="M1374.14 572.123l-1.313.791s.11.213.307.512c.194.301.45.705.709 1.106l1.032 1.61 1.277-.851-1.013-1.579c-.253-.395-.507-.789-.696-1.086-.195-.294-.302-.503-.302-.503z"/><path id="gvmwar" d="M1371.442 567.231l-1.365.697.871 1.701.944 1.662 1.333-.76-.929-1.63-.854-1.67z"/><path id="gvmwas" d="M1369.059 562.18l-1.411.602 1.577 3.483 1.38-.667z"/><path id="gvmwat" d="M1367.064 556.96l-1.449.503.191.565c.117.339.258.796.443 1.238l.701 1.778 1.425-.568-.689-1.745c-.182-.434-.319-.882-.435-1.214l-.187-.556z"/><path id="gvmwau" d="M1365.417 551.625l-1.48.399s.26.92.522 1.839c.133.459.255.921.365 1.263.114.339.192.565.192.565l1.461-.468s-.077-.222-.189-.556c-.108-.334-.227-.788-.358-1.238l-.513-1.804z"/><path id="gvmwav" d="M1364.145 546.185l-1.505.296.104.589c.082.348.188.815.295 1.28l.43 1.863 1.489-.366-.421-1.828-.29-1.257-.102-.577z"/><path id="gvmwaw" d="M1362.894 523.939l-1.528-.123-.146 1.907c-.046.476-.05.954-.058 1.312l-.016.597 1.533.052.015-.586c.01-.352.012-.821.057-1.288l.143-1.871z"/><path id="gvmwax" d="M1363.51 518.386l-1.517-.228-.481 3.793 1.526.157z"/><path id="gvmway" d="M1364.545 512.898l-1.497-.332-.135.582c-.082.349-.191.814-.266 1.287l-.336 1.88 1.51.262.33-1.847c.074-.463.18-.92.262-1.262z"/><path id="gvmwaz" d="M1365.94 507.488l-1.47-.435s-.26.919-.523 1.839c-.279.915-.479 1.85-.479 1.85l1.49.366s.195-.918.47-1.816l.512-1.804z"/><path id="gvmwaA" d="M1367.701 502.187l-1.437-.537-.214.558c-.116.339-.269.792-.422 1.245l-.613 1.811 1.46.468.602-1.776.413-1.222.211-.547z"/><path id="gvmwaB" d="M1369.847 497.03l-1.396-.634-.787 1.74c-.375.88-.713 1.775-.713 1.775l1.424.569s.332-.878.7-1.741l.772-1.71z"/><path id="gvmwaC" d="M1372.315 492.018l-1.349-.73-1.742 3.402 1.381.667z"/><path id="gvmwaD" d="M1375.16 487.21l-1.296-.822s-.529.797-1.018 1.618c-.476.829-.954 1.657-.954 1.657l1.333.761.935-1.627c.48-.806 1-1.587 1-1.587z"/><path id="gvmwaE" d="M1378.305 482.592l-1.235-.91-1.11 1.559c-.275.389-.552.779-.76 1.07l-.325.502 1.277.85.318-.491.748-1.051 1.087-1.53z"/><path id="gvmwaF" d="M1381.77 478.212l-1.17-.992s-.644.707-1.22 1.47l-1.182 1.504 1.216.936 1.158-1.475c.564-.75 1.197-1.443 1.197-1.443z"/><path id="gvmwaG" d="M1385.526 474.075l-1.1-1.07-1.318 1.384c-.674.68-1.283 1.417-1.283 1.417l1.147 1.018s.598-.725 1.26-1.391z"/><path id="gvmwaH" d="M1389.55 470.2l-1.022-1.142s-.18.158-.452.393c-.258.247-.604.577-.951.906l-1.384 1.32 1.077 1.093 1.357-1.295.934-.89.442-.384z"/><path id="gvmwaI" d="M1393.844 466.625l-.942-1.209-1.504 1.181c-.382.287-.731.615-1.005.845l-.452.391.998 1.166.443-.385c.269-.224.61-.547.986-.828l1.476-1.16z"/><path id="gvmwaJ" d="M1398.353 463.328l-.857-1.271-3.118 2.21.916 1.232z"/><path id="gvmwaK" d="M1403.102 460.385l-.769-1.328-1.654.958-1.609 1.032.83 1.29 1.578-1.013 1.624-.94z"/><path id="gvmwaL" d="M1408.026 457.746l-.674-1.377-1.7.87-1.17.6c-.322.158-.525.285-.525.285l.737 1.346s.2-.126.515-.281l1.148-.588 1.67-.855z"/><path id="gvmwaM" d="M1413.13 455.477l-.577-1.421-.556.219c-.337.125-.776.31-1.21.515l-1.74.787.642 1.392 1.71-.772c.423-.2.855-.383 1.185-.505.327-.13.546-.215.546-.215z"/><path id="gvmwaN" d="M1429.204 450.839l-.27-1.51-1.882.337c-.932.21-1.865.423-1.865.423l.341 1.496 1.83-.416 1.846-.33z"/><path id="gvmwaO" d="M1445.892 449.608l.045-1.533-1.911-.05c-.478-.021-.955.003-1.314.01l-.596.015.025 1.534.586-.015c.352-.007.82-.031 1.29-.01z"/><path id="gvmwaP" d="M1457.005 450.685l.254-1.513-.588-.105c-.352-.07-.824-.141-1.3-.194l-1.896-.241-.183 1.523 1.86.236c.467.052.93.122 1.276.19l.577.104z"/><path id="gvmwaQ" d="M1467.866 453.275l.46-1.463s-.224-.084-.57-.177l-1.265-.359-1.839-.522-.39 1.483 1.803.513c.451.128.903.255 1.24.352.341.09.561.173.561.173z"/><path id="gvmwaR" d="M1478.258 457.363l.658-1.385-1.741-.788-1.198-.54a7.539 7.539 0 0 0-.55-.237l-.592 1.414s.219.082.538.232l1.175.532 1.71.772z"/><path id="gvmwaS" d="M1483.21 459.947l.754-1.336-.518-.298a17.7 17.7 0 0 0-1.154-.628l-1.701-.872-.69 1.37 1.669.854c.422.207.829.44 1.132.618l.509.292z"/><path id="gvmwaT" d="M1487.98 462.853l.844-1.28-1.61-1.032c-.795-.53-1.63-.997-1.63-.997l-.783 1.318s.82.458 1.6.98l1.58 1.012z"/><path id="gvmwaU" d="M1492.54 466.083l.93-1.22-.47-.369c-.283-.22-.68-.488-1.066-.768l-1.559-1.108-.872 1.262 1.529 1.087c.38.275.769.538 1.046.754l.462.362z"/><path id="gvmwaV" d="M1496.86 469.625l1.01-1.153-1.445-1.25c-.355-.32-.733-.613-1.016-.834l-.469-.37-.957 1.2.461.361c.277.216.647.504.997.818l1.418 1.228z"/><path id="gvmwaW" d="M1500.941 473.44l1.088-1.081s-.16-.178-.424-.421l-.95-.907-1.384-1.32-1.037 1.13 1.357 1.295.934.89c.26.239.416.414.416.414z"/><path id="gvmwaX" d="M1504.728 477.547l1.16-1.004-1.251-1.444-1.315-1.386-1.113 1.056 1.29 1.36 1.23 1.418z"/><path id="gvmwaY" d="M1508.252 481.882l1.226-.92-2.366-3.005-1.181.977z"/><path id="gvmwaZ" d="M1511.44 486.47l1.286-.835-.322-.503c-.197-.298-.44-.71-.726-1.095l-1.107-1.558-1.246.894 1.087 1.53c.28.375.517.781.712 1.074l.316.493z"/><path id="gvmwba" d="M1514.325 491.253l1.341-.745-.952-1.656-.656-1.14-.322-.502-1.306.806.317.493.643 1.118.935 1.626z"/><path id="gvmwbb" d="M1516.864 496.23l1.39-.65s-.378-.88-.83-1.721l-.872-1.702-1.358.714.856 1.67c.445.826.814 1.689.814 1.689z"/><path id="gvmwbc" d="M1519.05 501.37l1.432-.552-.702-1.779a16.481 16.481 0 0 0-.51-1.21 179.08 179.08 0 0 1-.245-.545l-1.404.618.242.534c.15.318.334.75.5 1.188l.688 1.746z"/><path id="gvmwbd" d="M1520.894 506.643l1.466-.451s-.06-.232-.18-.57l-.421-1.245-.613-1.811-1.443.519.6 1.778c.152.444.302.888.414 1.22.118.333.177.56.177.56z"/><path id="gvmwbe" d="M1523.42 517.52l1.515-.244s-.167-.941-.336-1.881c-.083-.471-.168-.941-.232-1.294a4.904 4.904 0 0 0-.122-.585l-1.501.314s.065.225.12.572l.227 1.27z"/><path id="gvmwbf" d="M1524.114 523.063l1.527-.139s-.057-.954-.197-1.9l-.24-1.896-1.52.209.237 1.862c.136.928.192 1.865.193 1.865z"/><path id="gvmwbg" d="M1497.294 565.281s-9.248-.955-9.248-18.722l9.248-1.366 9.069 1.366c0 17.971-9.07 18.722-9.07 18.722z"/><path id="gvmwbh" d="M1497.294 565.281v-20.088l9.069 1.366c0 17.971-9.07 18.722-9.07 18.722z"/><path id="gvmwbi" d="M1388.358 510.476s-4.428-.458-4.428-8.963l4.428-.655 4.343.655c0 8.603-4.343 8.963-4.343 8.963z"/><path id="gvmwbj" d="M1388.358 510.476l.001-9.618 4.342.655c0 8.603-4.343 8.963-4.343 8.963z"/><path id="gvmwbk" d="M1425.283 543.087h-17.323c-.618 0-1.12.502-1.12 1.123v11.279a1.12 1.12 0 0 0 1.12 1.119l8.662-8.661 8.661 8.66c.62 0 1.121-.5 1.121-1.118v-11.28c0-.62-.502-1.122-1.12-1.122z"/><path id="gvmwbl" d="M1407.96 556.608h17.323l-8.661-8.66z"/><path id="gvmwbm" d="M1425.283 543.087h-17.323l8.662 8.662z"/><path id="gvmwbn" d="M1492.302 511.956l-3.934 3.933-3.933 3.934a.722.722 0 0 0 0 1.02l5.123 5.121a.719.719 0 0 0 1.017 0v-7.867h7.868a.72.72 0 0 0 0-1.018l-5.122-5.123a.721.721 0 0 0-1.02 0z"/><path id="gvmwbo" d="M1490.575 525.963l7.867-7.867h-7.866z"/><path id="gvmwbp" d="M1492.302 511.956l-7.867 7.867h7.868z"/><path id="gvmwbq" d="M1502.393 502.716h-7.562a.49.49 0 0 0-.49.49l-.001 4.924a.49.49 0 0 0 .49.489l3.782-3.78 3.78 3.78a.49.49 0 0 0 .49-.49v-4.923a.49.49 0 0 0-.49-.49z"/><path id="gvmwbr" d="M1494.83 508.619h7.562l-3.78-3.78z"/><path id="gvmwbs" d="M1502.393 502.716h-7.562l3.78 3.782z"/><path id="gvmwbt" d="M1459.233 559.56l-2-2-5.312 5.314-2.993-2.993-2 2 4.99 4.989.003-.005.004.005z"/><path id="gvmwbu" d="M1423.74 451.997l-.374-1.488s-.235.047-.58.142l-.924.262a3.036 3.036 0 0 0-5.57 1.677c0 .018.004.034.004.052l-.207.07c-.913.288-1.795.657-1.795.657l.544 1.434s.866-.362 1.761-.645l.118-.039a3.026 3.026 0 0 0 2.613 1.51 3.039 3.039 0 0 0 3.04-3.039c0-.075-.018-.146-.024-.22l.824-.234c.34-.093.57-.139.57-.139z"/><path id="gvmwbv" d="M1431.013 610.438l-1.583-.283a3.031 3.031 0 0 0-3.024-2.888 3.028 3.028 0 0 0-2.705 1.681c-.46-.095-.906-.242-1.246-.333l-.564-.16-.41 1.478.575.163c.347.092.802.242 1.27.34l.055.013a3.032 3.032 0 0 0 3.025 2.897 3.027 3.027 0 0 0 2.709-1.688l1.662.297z"/><path id="gvmwbw" d="M1440.43 611.328v-48.543a1.69 1.69 0 0 0 1.258-1.628c0-.932-.758-1.69-1.69-1.69-.932 0-1.69.758-1.69 1.69 0 .782.536 1.436 1.259 1.628v48.521c-.655-.028-1.175-.08-1.175-.08l-.096 1.532s.952.094 1.908.098l1.91.048.027-1.533-1.711-.043zm-1.26-50.17a.827.827 0 1 1 1.652 0 .827.827 0 0 1-1.651 0z"/><path id="gvmwbx" d="M1435.975 611.043c-.24-.016-.54-.043-.85-.076v-44.992a1.69 1.69 0 0 0 1.258-1.627c0-.933-.759-1.691-1.69-1.691-.932 0-1.69.758-1.69 1.69a1.69 1.69 0 0 0 1.258 1.628v44.887l-1.429-.182-.2 1.52 1.894.242c.474.069.95.103 1.308.129l.595.045.131-1.53s-.234-.016-.585-.043zm-2.11-46.695c0-.456.371-.828.827-.828a.827.827 0 1 1-.827.828z"/><path id="gvmwby" d="M1429.22 559.573c0-.933-.759-1.692-1.69-1.692-.932 0-1.69.759-1.69 1.692 0 .78.535 1.434 1.258 1.627v10.699l-14.474 14.474-.126.305v18.553c-.222-.087-.43-.17-.602-.246-.32-.146-.535-.242-.535-.242l-.61 1.407s.218.097.544.246c.328.145.777.31 1.22.489l1.778.7.545-1.433s-.702-.278-1.476-.582v-18.713l14.472-14.474.127-.305V561.2a1.689 1.689 0 0 0 1.26-1.627zm-1.45.778h-.48a.818.818 0 0 1-.586-.778c0-.456.37-.828.827-.828.456 0 .827.372.827.828 0 .37-.251.674-.588.778z"/><path id="gvmwbz" d="M1458.813 609.947l-.888.158v-13.632l-.127-.305-11.507-11.508v-12.074a1.69 1.69 0 0 0 1.26-1.627 1.69 1.69 0 0 0-3.38 0c0 .781.535 1.435 1.257 1.627v12.253l.126.306 11.507 11.506v13.609c-.032.005-.063.012-.094.016-.92.183-1.853.292-1.853.293l.218 1.518s.95-.112 1.888-.297l1.88-.337zm-13.78-38.988a.827.827 0 1 1 1.654 0 .827.827 0 0 1-1.654 0z"/><path id="gvmwbA" d="M1430.478 580.722c0-.933-.757-1.691-1.689-1.691-.933 0-1.69.758-1.69 1.69 0 .783.536 1.436 1.258 1.628v3.387l-10.443 10.443-.138.306v10.71l-1.214-.411-.51 1.446 1.81.613 1.245.416.576.164.442-1.47s-.226-.063-.564-.16l-.92-.307v-10.812l10.453-10.454.127-.306v-3.565a1.688 1.688 0 0 0 1.257-1.627zm-1.689.827a.828.828 0 0 1 0-1.654.827.827 0 0 1 0 1.654z"/><path id="gvmwbB" d="M1469.606 607.091s-.781.263-1.61.545V595.65l-.126-.304-13.592-13.592v-3.338a1.688 1.688 0 0 0 1.258-1.627 1.691 1.691 0 0 0-3.38 0c0 .782.536 1.435 1.259 1.627v3.517l.125.305 13.592 13.591v12.074c-.614.181-1.104.314-1.104.314l.426 1.473s.922-.25 1.835-.534l1.81-.612zm-16.587-30.303a.827.827 0 1 1 0 0z"/><path id="gvmwbC" d="M1451.467 449.94l.15-1.527-3.813-.29-.078 1.532 1.416.108v34.792a1.69 1.69 0 0 0-1.259 1.628c0 .932.76 1.69 1.691 1.69s1.69-.758 1.69-1.69a1.69 1.69 0 0 0-1.259-1.628v-34.727zm-1.066 36.243a.828.828 0 1 1-1.655-.002.828.828 0 0 1 1.655.002z"/><path id="gvmwbD" d="M1473.687 453.727l-1.777-.701-1.81-.614-.495 1.452 1.375.466v15.256l-12.956 12.956-.127.305v8.505a1.69 1.69 0 0 0-1.258 1.628c0 .932.758 1.69 1.69 1.69.932 0 1.69-.758 1.69-1.69 0-.782-.536-1.436-1.259-1.628v-8.326l12.958-12.956.126-.305v-15.117l1.283.506zm-14.53 39.253a.827.827 0 1 1 0 0z"/><path id="gvmwbE" d="M1462.837 450.308l-1.863-.43a19.185 19.185 0 0 0-1.285-.272l-.588-.105-.288 1.507.577.102c.19.03.418.076.657.13v13.131l-5.166 5.166-.127.305v2.881a1.69 1.69 0 0 0-1.26 1.628c0 .932.76 1.69 1.692 1.69.93 0 1.69-.758 1.69-1.69 0-.782-.536-1.436-1.26-1.628v-2.702l5.168-5.166.126-.305v-13.113l1.569.363zm-6.824 24.043a.828.828 0 1 1-1.656-.002.828.828 0 0 1 1.656.002z"/><path id="gvmwbF" d="M1444.665 480.736v-14.833l-.126-.305-5.652-5.651v-10.26c.76-.053 1.416-.057 1.416-.057l-.059-1.533s-.957.006-1.909.097l-1.906.145.131 1.529 1.464-.112v10.37l.126.305 5.651 5.65v14.655a1.689 1.689 0 0 0-1.257 1.628 1.691 1.691 0 0 0 3.379 0c0-.782-.536-1.436-1.258-1.628zm-.432 2.455a.828.828 0 0 1 0-1.654.828.828 0 0 1 0 1.654z"/><path id="gvmwbG" d="M1433.18 484.934V450.23l1.552-.197-.165-1.525-1.896.24-1.303.166c-.356.04-.592.086-.592.086l.237 1.515s.23-.044.58-.084l.722-.091v34.593a1.688 1.688 0 0 0-1.258 1.628c0 .932.758 1.69 1.69 1.69.932 0 1.69-.758 1.69-1.69 0-.782-.536-1.436-1.258-1.628zm-.433 2.455a.828.828 0 1 1 .002-1.656.828.828 0 0 1-.002 1.656z"/><path id="gvmwbH" d="M1416.034 535.726a1.69 1.69 0 0 0-1.627 1.26h-16.74l-.306.126-4.644 4.644h-29.31l-.139-1.089-1.52.192.24 1.896c.141.946.322 1.884.322 1.884l1.511-.262s-.167-.862-.302-1.758h29.376l.306-.126 4.645-4.645h16.561a1.688 1.688 0 0 0 1.627 1.26 1.691 1.691 0 0 0 0-3.382zm0 2.518a.828.828 0 0 1 0-1.654.828.828 0 0 1 0 1.654z"/><path id="gvmwbI" d="M1404.545 531.754c-.695 0-1.294.423-1.553 1.025h-7.184l-2.607-2.607-.305-.126h-30.28c.006-.316.016-.526.016-.526l-1.533-.018s-.045.955-.001 1.91l.048 1.91 1.533-.051-.048-1.876a20.667 20.667 0 0 1-.015-.486h30.1l2.608 2.607.305.126h7.245c.1.838.806 1.493 1.67 1.493a1.69 1.69 0 0 0 0-3.381zm0 2.518a.828.828 0 0 1 0-1.654.827.827 0 0 1 0 1.654z"/><path id="gvmwbJ" d="M1377.178 535.726c-.782 0-1.436.537-1.627 1.26h-12.657l-.146-1.88-1.531.086.295 3.811 1.526-.156-.077-.999h12.59a1.686 1.686 0 0 0 1.627 1.26 1.692 1.692 0 0 0 0-3.382zm0 2.518a.828.828 0 0 1 0-1.654.828.828 0 0 1 0 1.654z"/><path id="gvmwbK" d="M1522.331 512.04l1.494-.347-.431-1.862-.523-1.84-1.475.419.5 1.76h-5.633l-.305.127-19.869 19.869h-2.627a1.69 1.69 0 0 0-1.628-1.26c-.932 0-1.69.759-1.69 1.69 0 .933.758 1.69 1.69 1.69.782 0 1.436-.535 1.628-1.257h2.806l.304-.126 19.869-19.87h5.657l.233 1.008zm-30.497 19.384a.828.828 0 0 1 0-1.654.828.828 0 0 1 0 1.654z"/><path id="gvmwbL" d="M1524.253 536.06l-.118 1.55h-20.945a1.687 1.687 0 0 0-1.627-1.26 1.692 1.692 0 0 0 0 3.381c.782 0 1.436-.536 1.627-1.258h20.879c-.022.272-.046.531-.08.742l-.073.582 1.524.174.074-.592c.055-.355.09-.832.124-1.308l.146-1.906zm-22.69 2.808a.828.828 0 0 1 0-1.654.828.828 0 0 1 0 1.654z"/><path id="gvmwbM" d="M1524.419 528.64l1.535-.033-.05-1.911c0-.478-.051-.954-.075-1.311a98.137 98.137 0 0 1-.045-.596l-1.531.105.044.584c.02.307.057.704.068 1.112h-8.102l-.305.126-2.53 2.53h-4.532a1.689 1.689 0 0 0-1.627-1.26 1.691 1.691 0 0 0 0 3.381c.78 0 1.435-.535 1.627-1.257h4.71l.306-.126 2.53-2.531h7.948l.029 1.188zm-17.15 1.865a.828.828 0 0 1 0-1.654.827.827 0 0 1 0 1.654z"/><path id="gvmwbN" d="M1522.744 547.125l-.246 1.062-5.445-5.444-.305-.127h-4.63a1.69 1.69 0 0 0-1.628-1.259 1.692 1.692 0 0 0 0 3.381c.781 0 1.436-.536 1.627-1.259h4.452l5.7 5.699-.373 1.601 1.486.384.863-3.725zm-12.254-3.25a.828.828 0 0 1 0-1.654.828.828 0 0 1 0 1.654z"/></defs><g><g transform="translate(-1361 -448)"><use fill="#959595" xlink:href="#gvmwa"/></g><g transform="translate(-1361 -448)"><use fill="#959595" xlink:href="#gvmwb"/></g><g transform="translate(-1361 -448)"><use fill="#3c3c3b" xlink:href="#gvmwc"/></g><g transform="translate(-1361 -448)"><use fill="#fff" xlink:href="#gvmwd"/></g><g transform="translate(-1361 -448)"><use fill="#e2e3e4" xlink:href="#gvmwe"/></g><g transform="translate(-1361 -448)"><use fill="#ff6800" xlink:href="#gvmwf"/></g><g transform="translate(-1361 -448)"><use fill="#e2e3e4" xlink:href="#gvmwg"/></g><g transform="translate(-1361 -448)"><use fill="#fff" xlink:href="#gvmwh"/></g><g transform="translate(-1361 -448)"><use fill="#959595" xlink:href="#gvmwi"/></g><g transform="translate(-1361 -448)"><use fill="#e2e3e4" xlink:href="#gvmwj"/></g><g transform="translate(-1361 -448)"><use fill="#66d1ff" xlink:href="#gvmwk"/></g><g transform="translate(-1361 -448)"><use fill="#00b3ff" xlink:href="#gvmwl"/></g><g transform="translate(-1361 -448)"><use fill="#959595" xlink:href="#gvmwm"/></g><g transform="translate(-1361 -448)"><use fill="#e2e3e4" xlink:href="#gvmwn"/></g><g transform="translate(-1361 -448)"><use fill="#e2e3e4" xlink:href="#gvmwo"/></g><g transform="translate(-1361 -448)"><use fill="#e2e3e4" xlink:href="#gvmwp"/></g><g transform="translate(-1361 -448)"><use fill="#e2e3e4" xlink:href="#gvmwq"/></g><g transform="translate(-1361 -448)"><use fill="#959595" xlink:href="#gvmwr"/></g><g transform="translate(-1361 -448)"><use fill="#959595" xlink:href="#gvmws"/></g><g transform="translate(-1361 -448)"><use fill="#959595" xlink:href="#gvmwt"/></g><g transform="translate(-1361 -448)"><use fill="#fff" xlink:href="#gvmwu"/></g><g transform="translate(-1361 -448)"><use fill="#959595" xlink:href="#gvmwv"/></g><g transform="translate(-1361 -448)"><use fill="#959595" xlink:href="#gvmww"/></g><g transform="translate(-1361 -448)"><use fill="#fff" xlink:href="#gvmwx"/></g><g transform="translate(-1361 -448)"><use fill="#00b3ff" xlink:href="#gvmwy"/></g><g transform="translate(-1361 -448)"><use fill="#66d1ff" xlink:href="#gvmwz"/></g><g transform="translate(-1361 -448)"><use fill="#00b3ff" xlink:href="#gvmwA"/></g><g transform="translate(-1361 -448)"><use fill="#ff6800" xlink:href="#gvmwB"/></g><g transform="translate(-1361 -448)"><use fill="#3c3c3b" xlink:href="#gvmwC"/></g><g transform="translate(-1361 -448)"><use fill="#959595" xlink:href="#gvmwD"/></g><g transform="translate(-1361 -448)"><use fill="#fff" xlink:href="#gvmwE"/></g><g transform="translate(-1361 -448)"><use fill="#3c3c3b" xlink:href="#gvmwF"/></g><g transform="translate(-1361 -448)"><use fill="#fff" xlink:href="#gvmwG"/></g><g transform="translate(-1361 -448)"><use fill="#fff" xlink:href="#gvmwH"/></g><g transform="translate(-1361 -448)"><use fill="#ffa466" xlink:href="#gvmwI"/></g><g transform="translate(-1361 -448)"><use fill="#ff6800" xlink:href="#gvmwJ"/></g><g transform="translate(-1361 -448)"><use fill="#959595" xlink:href="#gvmwK"/></g><g transform="translate(-1361 -448)"><use fill="#fff" xlink:href="#gvmwL"/></g><g transform="translate(-1361 -448)"><use fill="#3c3c3b" xlink:href="#gvmwM"/></g><g transform="translate(-1361 -448)"><use fill="#fff" xlink:href="#gvmwN"/></g><g transform="translate(-1361 -448)"><use fill="#e2e3e4" xlink:href="#gvmwO"/></g><g transform="translate(-1361 -448)"><use fill="#fff" xlink:href="#gvmwP"/></g><g transform="translate(-1361 -448)"><use fill="#fff" xlink:href="#gvmwQ"/></g><g transform="translate(-1361 -448)"><use fill="#fff" xlink:href="#gvmwR"/></g><g transform="translate(-1361 -448)"><use fill="#fff" xlink:href="#gvmwS"/></g><g transform="translate(-1361 -448)"><use fill="#fff" xlink:href="#gvmwT"/></g><g transform="translate(-1361 -448)"><use fill="#fff" xlink:href="#gvmwU"/></g><g transform="translate(-1361 -448)"><use fill="#fff" xlink:href="#gvmwV"/></g><g transform="translate(-1361 -448)"><use fill="#fff" xlink:href="#gvmwW"/></g><g transform="translate(-1361 -448)"><use fill="#fff" xlink:href="#gvmwX"/></g><g transform="translate(-1361 -448)"><use fill="#fff" xlink:href="#gvmwY"/></g><g transform="translate(-1361 -448)"><use fill="#fff" xlink:href="#gvmwZ"/></g><g transform="translate(-1361 -448)"><use fill="#fff" xlink:href="#gvmwaa"/></g><g transform="translate(-1361 -448)"><use fill="#fff" xlink:href="#gvmwab"/></g><g transform="translate(-1361 -448)"><use fill="#fff" xlink:href="#gvmwac"/></g><g transform="translate(-1361 -448)"><use fill="#fff" xlink:href="#gvmwad"/></g><g transform="translate(-1361 -448)"><use fill="#fff" xlink:href="#gvmwae"/></g><g transform="translate(-1361 -448)"><use fill="#fff" xlink:href="#gvmwaf"/></g><g transform="translate(-1361 -448)"><use fill="#fff" xlink:href="#gvmwag"/></g><g transform="translate(-1361 -448)"><use fill="#fff" xlink:href="#gvmwah"/></g><g transform="translate(-1361 -448)"><use fill="#fff" xlink:href="#gvmwai"/></g><g transform="translate(-1361 -448)"><use fill="#fff" xlink:href="#gvmwaj"/></g><g transform="translate(-1361 -448)"><use fill="#fff" xlink:href="#gvmwak"/></g><g transform="translate(-1361 -448)"><use fill="#fff" xlink:href="#gvmwal"/></g><g transform="translate(-1361 -448)"><use fill="#fff" xlink:href="#gvmwam"/></g><g transform="translate(-1361 -448)"><use fill="#fff" xlink:href="#gvmwan"/></g><g transform="translate(-1361 -448)"><use fill="#fff" xlink:href="#gvmwao"/></g><g transform="translate(-1361 -448)"><use fill="#fff" xlink:href="#gvmwap"/></g><g transform="translate(-1361 -448)"><use fill="#fff" xlink:href="#gvmwaq"/></g><g transform="translate(-1361 -448)"><use fill="#fff" xlink:href="#gvmwar"/></g><g transform="translate(-1361 -448)"><use fill="#fff" xlink:href="#gvmwas"/></g><g transform="translate(-1361 -448)"><use fill="#fff" xlink:href="#gvmwat"/></g><g transform="translate(-1361 -448)"><use fill="#fff" xlink:href="#gvmwau"/></g><g transform="translate(-1361 -448)"><use fill="#fff" xlink:href="#gvmwav"/></g><g transform="translate(-1361 -448)"><use fill="#fff" xlink:href="#gvmwaw"/></g><g transform="translate(-1361 -448)"><use fill="#fff" xlink:href="#gvmwax"/></g><g transform="translate(-1361 -448)"><use fill="#fff" xlink:href="#gvmway"/></g><g transform="translate(-1361 -448)"><use fill="#fff" xlink:href="#gvmwaz"/></g><g transform="translate(-1361 -448)"><use fill="#fff" xlink:href="#gvmwaA"/></g><g transform="translate(-1361 -448)"><use fill="#fff" xlink:href="#gvmwaB"/></g><g transform="translate(-1361 -448)"><use fill="#fff" xlink:href="#gvmwaC"/></g><g transform="translate(-1361 -448)"><use fill="#fff" xlink:href="#gvmwaD"/></g><g transform="translate(-1361 -448)"><use fill="#fff" xlink:href="#gvmwaE"/></g><g transform="translate(-1361 -448)"><use fill="#fff" xlink:href="#gvmwaF"/></g><g transform="translate(-1361 -448)"><use fill="#fff" xlink:href="#gvmwaG"/></g><g transform="translate(-1361 -448)"><use fill="#fff" xlink:href="#gvmwaH"/></g><g transform="translate(-1361 -448)"><use fill="#fff" xlink:href="#gvmwaI"/></g><g transform="translate(-1361 -448)"><use fill="#fff" xlink:href="#gvmwaJ"/></g><g transform="translate(-1361 -448)"><use fill="#fff" xlink:href="#gvmwaK"/></g><g transform="translate(-1361 -448)"><use fill="#fff" xlink:href="#gvmwaL"/></g><g transform="translate(-1361 -448)"><use fill="#fff" xlink:href="#gvmwaM"/></g><g transform="translate(-1361 -448)"><use fill="#fff" xlink:href="#gvmwaN"/></g><g transform="translate(-1361 -448)"><use fill="#fff" xlink:href="#gvmwaO"/></g><g transform="translate(-1361 -448)"><use fill="#fff" xlink:href="#gvmwaP"/></g><g transform="translate(-1361 -448)"><use fill="#fff" xlink:href="#gvmwaQ"/></g><g transform="translate(-1361 -448)"><use fill="#fff" xlink:href="#gvmwaR"/></g><g transform="translate(-1361 -448)"><use fill="#fff" xlink:href="#gvmwaS"/></g><g transform="translate(-1361 -448)"><use fill="#fff" xlink:href="#gvmwaT"/></g><g transform="translate(-1361 -448)"><use fill="#fff" xlink:href="#gvmwaU"/></g><g transform="translate(-1361 -448)"><use fill="#fff" xlink:href="#gvmwaV"/></g><g transform="translate(-1361 -448)"><use fill="#fff" xlink:href="#gvmwaW"/></g><g transform="translate(-1361 -448)"><use fill="#fff" xlink:href="#gvmwaX"/></g><g transform="translate(-1361 -448)"><use fill="#fff" xlink:href="#gvmwaY"/></g><g transform="translate(-1361 -448)"><use fill="#fff" xlink:href="#gvmwaZ"/></g><g transform="translate(-1361 -448)"><use fill="#fff" xlink:href="#gvmwba"/></g><g transform="translate(-1361 -448)"><use fill="#fff" xlink:href="#gvmwbb"/></g><g transform="translate(-1361 -448)"><use fill="#fff" xlink:href="#gvmwbc"/></g><g transform="translate(-1361 -448)"><use fill="#fff" xlink:href="#gvmwbd"/></g><g transform="translate(-1361 -448)"><use fill="#fff" xlink:href="#gvmwbe"/></g><g transform="translate(-1361 -448)"><use fill="#fff" xlink:href="#gvmwbf"/></g><g transform="translate(-1361 -448)"><use fill="#fff" xlink:href="#gvmwbg"/></g><g transform="translate(-1361 -448)"><use fill="#959595" xlink:href="#gvmwbh"/></g><g transform="translate(-1361 -448)"><use fill="#66d1ff" xlink:href="#gvmwbi"/></g><g transform="translate(-1361 -448)"><use fill="#00b3ff" xlink:href="#gvmwbj"/></g><g transform="translate(-1361 -448)"><use fill="#e2e3e4" xlink:href="#gvmwbk"/></g><g transform="translate(-1361 -448)"><use fill="#959595" xlink:href="#gvmwbl"/></g><g transform="translate(-1361 -448)"><use fill="#fff" xlink:href="#gvmwbm"/></g><g transform="translate(-1361 -448)"><use fill="#66d1ff" xlink:href="#gvmwbn"/></g><g transform="translate(-1361 -448)"><use fill="#00b3ff" xlink:href="#gvmwbo"/></g><g transform="translate(-1361 -448)"><use fill="#fff" xlink:href="#gvmwbp"/></g><g transform="translate(-1361 -448)"><use fill="#66d1ff" xlink:href="#gvmwbq"/></g><g transform="translate(-1361 -448)"><use fill="#00b3ff" xlink:href="#gvmwbr"/></g><g transform="translate(-1361 -448)"><use fill="#fff" xlink:href="#gvmwbs"/></g><g transform="translate(-1361 -448)"><use fill="#fff" xlink:href="#gvmwbt"/></g><g transform="translate(-1361 -448)"><use fill="#fff" xlink:href="#gvmwbu"/></g><g transform="translate(-1361 -448)"><use fill="#fff" xlink:href="#gvmwbv"/></g><g transform="translate(-1361 -448)"><use fill="#fff" xlink:href="#gvmwbw"/></g><g transform="translate(-1361 -448)"><use fill="#fff" xlink:href="#gvmwbx"/></g><g transform="translate(-1361 -448)"><use fill="#fff" xlink:href="#gvmwby"/></g><g transform="translate(-1361 -448)"><use fill="#fff" xlink:href="#gvmwbz"/></g><g transform="translate(-1361 -448)"><use fill="#fff" xlink:href="#gvmwbA"/></g><g transform="translate(-1361 -448)"><use fill="#fff" xlink:href="#gvmwbB"/></g><g transform="translate(-1361 -448)"><use fill="#fff" xlink:href="#gvmwbC"/></g><g transform="translate(-1361 -448)"><use fill="#fff" xlink:href="#gvmwbD"/></g><g transform="translate(-1361 -448)"><use fill="#fff" xlink:href="#gvmwbE"/></g><g transform="translate(-1361 -448)"><use fill="#fff" xlink:href="#gvmwbF"/></g><g transform="translate(-1361 -448)"><use fill="#fff" xlink:href="#gvmwbG"/></g><g transform="translate(-1361 -448)"><use fill="#fff" xlink:href="#gvmwbH"/></g><g transform="translate(-1361 -448)"><use fill="#fff" xlink:href="#gvmwbI"/></g><g transform="translate(-1361 -448)"><use fill="#fff" xlink:href="#gvmwbJ"/></g><g transform="translate(-1361 -448)"><use fill="#fff" xlink:href="#gvmwbK"/></g><g transform="translate(-1361 -448)"><use fill="#fff" xlink:href="#gvmwbL"/></g><g transform="translate(-1361 -448)"><use fill="#fff" xlink:href="#gvmwbM"/></g><g transform="translate(-1361 -448)"><use fill="#fff" xlink:href="#gvmwbN"/></g></g></svg>