<svg xmlns="http://www.w3.org/2000/svg" xmlns:xlink="http://www.w3.org/1999/xlink" width="189" height="170" viewBox="0 0 189 170"><defs><path id="bz3ya" d="M1502.077 669.047c0 3.605-25.975 6.528-58.017 6.528-32.04 0-58.016-2.923-58.016-6.528 0-3.605 25.975-6.528 58.016-6.528 32.042 0 58.017 2.923 58.017 6.528z"/><path id="bz3yb" d="M1375.64 506.157c22.356 0 40.545 18.19 40.545 40.545 0 22.357-18.188 40.545-40.545 40.545-22.356 0-40.544-18.188-40.544-40.545 0-19.499 15.5-40.545 40.544-40.545zm29.042 17.31a37.385 37.385 0 0 0-15.089-11.259 734.867 734.867 0 0 1-1.032 7.963 6.092 6.092 0 0 1 3.204 3.398c5.425-.545 9.991-.37 12.917-.103zm-12.405 40.06a6.065 6.065 0 0 1 3.307-4.444c-.143-7.078-1.565-15.05-5.795-22.544a59.53 59.53 0 0 0-2.896-4.615 616.48 616.48 0 0 1-1.316 8.39c-.898 5.45-3.53 12.522-6.572 19.426a6.044 6.044 0 0 1 1.528 3.79c4.357.283 8.276.241 11.745-.003zm-17.813-5.855c.588 0 1.146.11 1.684.264 2.87-6.548 5.32-13.154 6.146-18.163a611.48 611.48 0 0 0 1.33-8.485 6.092 6.092 0 0 1-2.636-2.245c-5.005 1.426-10.24 3.613-15.27 6.954-5.285 3.512-9.432 7.184-12.679 10.67a6.061 6.061 0 0 1 1.04 3.403c0 1.104-.318 2.127-.83 3.02 4.258 3.531 9.457 6.723 15.52 8.566.86-2.32 3.074-3.984 5.694-3.984zm1.176-48.188a38.2 38.2 0 0 0-9.11 1.09c3.914 1.675 9.734 4.858 15.602 10.552a6.023 6.023 0 0 1 3.135-1.408 804.01 804.01 0 0 0 1.116-8.647 37.094 37.094 0 0 0-10.743-1.587zm-14.26 2.764c-11.2 4.618-18.816 14.456-21.68 25.087.684 1.161 2.484 4.031 5.301 7.456.886-.502 1.895-.812 2.985-.812.886 0 1.721.198 2.481.537 3.424-3.683 7.797-7.562 13.408-11.29 5.353-3.557 10.871-5.888 16.128-7.406 0-.032-.009-.062-.009-.095 0-.598.113-1.164.274-1.71-8.509-8.41-17.026-11.23-18.889-11.767zm-22.957 34.454c0 4.294.74 8.416 2.083 12.256.65-1.41 1.573-3.147 2.765-5.077-.846-1.046-1.374-2.36-1.374-3.81 0-1.035.283-1.993.736-2.846a68.577 68.577 0 0 1-3.89-5.164c-.205 1.55-.32 3.1-.32 4.641zm3.915 16.59c4.41 8.811 12.207 15.636 21.676 18.76a323.164 323.164 0 0 0 7.023-13.258 6.087 6.087 0 0 1-2.499-3.673c-7.07-1.979-12.996-5.653-17.772-9.66-.837.432-1.772.7-2.78.7-.687 0-1.336-.139-1.954-.35-2.215 3.606-3.303 6.352-3.694 7.481zm33.302 20.628a36.983 36.983 0 0 0 16.962-4.106c.46-1.395 1.581-5.14 2.32-10.204a6.105 6.105 0 0 1-2.276-2.738 84.625 84.625 0 0 1-6.072.218 94.41 94.41 0 0 1-6.87-.269c-1.058 1.806-2.996 3.032-5.24 3.032-.071 0-.137-.018-.208-.02a316.636 316.636 0 0 1-6.94 13.137 37.14 37.14 0 0 0 8.323.95zm21.185-6.642a37.469 37.469 0 0 0 11.811-13.389 52.613 52.613 0 0 1-4.338 1.227c-.299 3.083-2.868 5.502-6.033 5.502-.02 0-.042-.007-.063-.007a67.996 67.996 0 0 1-1.377 6.667zm6.863-15.473c3.558-.866 5.887-1.784 6.866-2.215a37.035 37.035 0 0 0 2.304-12.888 36.984 36.984 0 0 0-5.575-19.565c-1.36-.21-7.332-1-15.23-.198-.284 1.408-1.072 2.618-2.144 3.492a63.962 63.962 0 0 1 2.778 4.472c4.475 7.925 6.07 16.228 6.294 23.604a6.057 6.057 0 0 1 4.707 3.298z"/><path id="bz3yc" d="M1470.863 667.836h-53.416l3.27-2.988h47.625z"/><path id="bz3yd" d="M1417.45 671.39v-3.55h53.42v3.55z"/><path id="bz3ye" d="M1431.05 666.34v-20.45h28.87v20.45z"/><path id="bz3yf" d="M1431.05 652.24v-6.35h28.87v6.35z"/><path id="bz3yg" d="M1375.64 639.9v-95.25h140.09v95.25z"/><path id="bz3yh" d="M1375.64 544.648h140.088v84.433h7.47v-84.433a7.471 7.471 0 0 0-7.47-7.471H1375.64a7.471 7.471 0 0 0-7.471 7.47v84.434h7.47z"/><path id="bz3yi" d="M1519.798 632.07H1368.17v10.82a7.471 7.471 0 0 0 7.47 7.471h140.088a7.47 7.47 0 0 0 7.47-7.47v-10.822z"/><path id="bz3yj" d="M1368.17 632.45v-7.3h155.03v7.3z"/><path id="bz3yk" d="M1379.84 565.08v-15.94h131.98v15.94z"/><path id="bz3yl" d="M1382.15 572.3v-1.68h17.56v1.68z"/><path id="bz3ym" d="M1402.38 572.3v-1.68h11.14v1.68z"/><path id="bz3yn" d="M1415.83 572.3v-1.68h19.67v1.68z"/><path id="bz3yo" d="M1437.87 572.3v-1.68h11.14v1.68z"/><path id="bz3yp" d="M1472.42 572.3v-1.68h19.67v1.68z"/><path id="bz3yq" d="M1494.46 572.3v-1.68h11.14v1.68z"/><path id="bz3yr" d="M1451.32 572.3v-1.68h10.21v1.68z"/><path id="bz3ys" d="M1463.89 572.3v-1.68h6.1v1.68z"/><path id="bz3yt" d="M1382.15 583.41v-1.68h17.56v1.68z"/><path id="bz3yu" d="M1402.38 583.41v-1.68h11.14v1.68z"/><path id="bz3yv" d="M1415.83 583.41v-1.68h19.67v1.68z"/><path id="bz3yw" d="M1437.87 583.41v-1.68h11.14v1.68z"/><path id="bz3yx" d="M1472.42 583.41v-1.68h19.67v1.68z"/><path id="bz3yy" d="M1494.46 583.41v-1.68h11.14v1.68z"/><path id="bz3yz" d="M1507.35 583.41v-1.68h4.48v1.68z"/><path id="bz3yA" d="M1451.32 583.41v-1.68h10.21v1.68z"/><path id="bz3yB" d="M1463.89 583.41v-1.68h6.1v1.68z"/><path id="bz3yC" d="M1382.15 586.87v-1.68h14.77v1.68z"/><path id="bz3yD" d="M1399.91 586.87v-1.68h8.79v1.68z"/><path id="bz3yE" d="M1410.48 586.87v-1.68h16.55v1.68z"/><path id="bz3yF" d="M1430.05 586.87v-1.68h7.96v1.68z"/><path id="bz3yG" d="M1458.45 586.87v-1.68h15.68v1.68z"/><path id="bz3yH" d="M1476.24 586.87v-1.68h9.37v1.68z"/><path id="bz3yI" d="M1487.45 586.87v-1.68h3.77v1.68z"/><path id="bz3yJ" d="M1440.32 586.87v-1.68h8.59v1.68z"/><path id="bz3yK" d="M1451.32 586.87v-1.68h4.72v1.68z"/><path id="bz3yL" d="M1444.97 576.01v-1.68h11.14v1.68z"/><path id="bz3yM" d="M1401.88 576.01v-1.68h19.67v1.68z"/><path id="bz3yN" d="M1388.37 576.01v-1.68h11.14v1.68z"/><path id="bz3yO" d="M1382.15 576.01v-1.68h4.48v1.68z"/><path id="bz3yP" d="M1432.45 576.01v-1.68h10.21v1.68z"/><path id="bz3yQ" d="M1423.98 576.01v-1.68h6.1v1.68z"/><path id="bz3yR" d="M1477.49 579.71v-1.68h19.61v1.68z"/><path id="bz3yS" d="M1456.11 579.71v-1.68h18.12v1.68z"/><path id="bz3yT" d="M1441.35 579.71v-1.68h5.23v1.68z"/><path id="bz3yU" d="M1448.7 579.71v-1.68h5.23v1.68z"/><path id="bz3yV" d="M1396.25 579.71v-1.68h25.31v1.68z"/><path id="bz3yW" d="M1388.363 578.03h-6.216v1.68h11.798v-1.68z"/><path id="bz3yX" d="M1423.98 579.71v-1.68h14.57v1.68z"/><path id="bz3yY" d="M1382.15 590.23v-1.68h17.56v1.68z"/><path id="bz3yZ" d="M1402.38 590.23v-1.68h11.14v1.68z"/><path id="bz3yaa" d="M1415.83 590.23v-1.68h19.67v1.68z"/><path id="bz3yab" d="M1437.87 590.23v-1.68h11.14v1.68z"/><path id="bz3yac" d="M1451.32 590.23v-1.68h10.21v1.68z"/><path id="bz3yad" d="M1480.45 593.56v-1.68h11.14v1.68z"/><path id="bz3yae" d="M1458.48 593.56v-1.68h19.67v1.68z"/><path id="bz3yaf" d="M1444.97 593.56v-1.68h11.14v1.68z"/><path id="bz3yag" d="M1401.88 593.56v-1.68h19.67v1.68z"/><path id="bz3yah" d="M1388.37 593.56v-1.68h11.14v1.68z"/><path id="bz3yai" d="M1382.15 593.56v-1.68h4.48v1.68z"/><path id="bz3yaj" d="M1432.45 593.56v-1.68h10.21v1.68z"/><path id="bz3yak" d="M1423.98 593.56v-1.68h6.1v1.68z"/><path id="bz3yal" d="M1456.11 597.27v-1.68h18.12v1.68z"/><path id="bz3yam" d="M1441.35 597.27v-1.68h5.23v1.68z"/><path id="bz3yan" d="M1448.7 597.27v-1.68h5.23v1.68z"/><path id="bz3yao" d="M1396.25 597.27v-1.68h25.31v1.68z"/><path id="bz3yap" d="M1388.363 595.586h-6.216v1.681h11.798v-1.68z"/><path id="bz3yaq" d="M1423.98 597.27v-1.68h14.57v1.68z"/><path id="bz3yar" d="M1507.35 618.53v-1.68h4.48v1.68z"/><path id="bz3yas" d="M1382.15 621.98v-1.68h14.77v1.68z"/><path id="bz3yat" d="M1399.91 621.98v-1.68h8.79v1.68z"/><path id="bz3yau" d="M1410.48 621.98v-1.68h16.55v1.68z"/><path id="bz3yav" d="M1430.06 621.98v-1.68h7.96v1.68z"/><path id="bz3yaw" d="M1440.32 621.98v-1.68h8.59v1.68z"/><path id="bz3yax" d="M1451.32 621.98v-1.68h4.72v1.68z"/><path id="bz3yay" d="M1480.45 611.12v-1.68h11.14v1.68z"/><path id="bz3yaz" d="M1458.48 611.12v-1.68h19.67v1.68z"/><path id="bz3yaA" d="M1444.97 611.12v-1.68h11.14v1.68z"/><path id="bz3yaB" d="M1401.88 611.12v-1.68h19.67v1.68z"/><path id="bz3yaC" d="M1388.37 611.12v-1.68h11.14v1.68z"/><path id="bz3yaD" d="M1382.15 611.12v-1.68h4.48v1.68z"/><path id="bz3yaE" d="M1432.45 611.12v-1.68h10.21v1.68z"/><path id="bz3yaF" d="M1423.98 611.12v-1.68h6.1v1.68z"/><path id="bz3yaG" d="M1456.11 614.82v-1.68h18.12v1.68z"/><path id="bz3yaH" d="M1441.35 614.82v-1.68h5.23v1.68z"/><path id="bz3yaI" d="M1448.7 614.82v-1.68h5.23v1.68z"/><path id="bz3yaJ" d="M1396.25 614.82v-1.68h25.31v1.68z"/><path id="bz3yaK" d="M1388.363 613.143h-6.216v1.681h11.798v-1.68z"/><path id="bz3yaL" d="M1423.98 614.82v-1.68h14.57v1.68z"/><path id="bz3yaM" d="M1509.36 561.132a.486.486 0 0 1-.158.67l-.28.172a.483.483 0 0 1-.668-.157l-2.095-3.382a.487.487 0 0 1 .158-.67l.278-.173a.488.488 0 0 1 .67.158z"/><path id="bz3yaN" d="M1507.59 553.99a2.905 2.905 0 1 1-4.94 3.06 2.905 2.905 0 0 1 4.94-3.06z"/><path id="bz3yaO" d="M1506.881 558.365a3.35 3.35 0 0 1-4.607-1.084 3.35 3.35 0 0 1 1.084-4.606 3.352 3.352 0 0 1 4.607 1.083 3.352 3.352 0 0 1-1.084 4.607zm-3.06-4.942a2.47 2.47 0 0 0-.799 3.395 2.469 2.469 0 0 0 3.395.798 2.47 2.47 0 0 0 .8-3.395 2.47 2.47 0 0 0-3.396-.798z"/><path id="bz3yaP" d="M1403.365 558.812l-.398.01-.017-.216.064.027.157-.016-.016-.2-.432.005-.119-.156.007-.08-.556-.501-.135.107.793.97.113.039v.054h-.15l.037.119.976.043z"/><path id="bz3yaQ" d="M1403.991 558.304l.066-.044v-.533l-.066-.027-.032-.167h-.098l-.062.168-.075.067-.565.306v.303l.19.249h.474l.061-.155.107-.096z"/><path id="bz3yaR" d="M1404.41 558.26l-.285.11.003.065h-.07v.393h.145l-.022-.251.114.04v.179l.118-.011z"/><path id="bz3yaS" d="M1406.733 560.33l-.29-.248-.022-.475-.192-.328-.173-.01-.07.597-.329-.024-.092-.056-.012-.236.175.035.147-.144-.314-.188h-.367l-.265.376h-.107v-.12l-.318.026-.5.57-.267.004-.297.205-.02.884-.179.173v.157l.862-.297.7-.028.26.569.794.028.766-.72.188-.431z"/><path id="bz3yaT" d="M1405.167 562.21l.281.03.227-.124.005-.172-.249-.026z"/><path id="bz3yaU" d="M1407.868 561.433l-.117.023-.003-.264-.215.013-.027.413-.189.13-.35.048-.56.4-.098.077v.134l.294-.045.712-.437.202-.132.214-.095.217-.123z"/><path id="bz3yaV" d="M1405.663 558.488l-.182.005.015-.188-.173-.103-.245.245.164.203.356.05.2.106.006.097h-.13l.006.2.43-.027.157-.168.167-.016v.308h.291v-.124h-.146l-.026-.375-.696-.316z"/><path id="bz3yaW" d="M1400.485 557.592l.067.183.245-.09.028-.255-.198-.039z"/><path id="bz3yaX" d="M1397.605 559.729l-.335-.043v.259l.12.14-.093.14-.134.156v.286l.183.177.167-.268.328-.48.158-.757h-.2z"/><path id="bz3yaY" d="M1404.48 558.931h-.109v.06l.085.025z"/><path id="bz3yaZ" d="M1403.86 559.09v-.07h.13v.07z"/><path id="bz3yba" d="M1404.177 559.088h.08v-.063l.06-.009v-.06h-.13l-.052.06-.077.072v.063l.119-.012z"/><path id="bz3ybb" d="M1404.509 559.145h.129v-.066l.092.009-.013-.114-.147.022-.013.074-.165.018h-.008v.114h.125z"/><path id="bz3ybc" d="M1384.575 553.518l.026-.17-.175-.027c0 .01.013.197.027.197z"/><path id="bz3ybd" d="M1393.383 553.356l.013.105-.158.033-.021.223h.189l.25-.024.13-.154-.136-.053-.077-.087-.112-.183-.055-.259-.212.043-.06.091v.103l.103.07z"/><path id="bz3ybe" d="M1393.201 553.442l.011-.14-.124-.054-.175.04-.129.208v.135h.15z"/><path id="bz3ybf" d="M1402.154 556.797l-.582-.518-.464-.044-.263.098-.163.351-.087.651-.157.228-.16-.036-.488-.805.028-.297v-.218l-.222-.141-.955-.156-.441-.022-.384-.221-.028-.232h-.182l-.006.336c0 .017.83.409.83.409l.237.03.004.178-.222.146-.71.513-.34.022-.166-.167-.017-.271-.723-.877-.051.06.729 1.372.178.088.693-.146.129.06-.666.954-.606.578.134.237.066.642-.31.421-.143.172v.259l-.222.048-.173.308-.55.567h-.733v-.432l-.248-.334v-.519l-.19-.188-.015-.216.239-.458-.455-.804.054-.545-.41-.043-.151-.15h-.275l-.14.128h-.485l-.017.044h-.27l-.62-.707.005-.55.103-.038.038-.21h-.146l-.06-.221.719-.518v-.367l.35-.195.142.015h.29l.225-.122.729-.056v.372l.574.145.113.081h.106v-.202l.332-.033.315.235h.518l.186-.17v-.267l-.152-.113-.512.008-.17-.186-.033-.299-.173.095-.093.365-.25-.266-.011-.253-.242-.208-.09-.089h-.281l.09.25.337.189.059.062-.073.037.003.198-.164.069-.141-.031-.09-.125.23.013.062-.084-.507-.342-.038-.145-.207.186-.208-.043-.317.413-.063.162-.203.019-.301.001-.18-.084-.052-.357.064-.17.306-.067.333.067.04-.185-.14-.033.048-.288.336-.052.235-.331.242-.041.219.032h.08l-.044-.311-.266.107-.094-.232-.153-.022-.03-.16.126-.137.3-.117.169-.303.453-.232.81-.025.663.308-.113.097-.55.024.024.116.526.015.216-.169.075-.199.103-.027.062.18.412-.191.862.057-.072-.179.057-.218.243.06.08.126.049.364.216-.064-.005-.364.7-.314.926-.059.46.276h.996l.338.251.106.008.254-.257.28.01.373.055.234.119 2.509.129.687.291-.098.083-.508-.083-.008.099.185.128-.243.048v.146l-.501.032.38.356.066.292-.171.088-.534-.437v-.201l.129-.203-.096-.121-.583.388-.461-.04-.155-.114-.193.276.089.178.672.081.268.307-.066.089-.21-.211-.098.105.164.217-.035.407h-.431l-.022.329.364.22.127.168-.191.051-.68-.517h-.218l.008.42.493.518.039.375-.25.207-.565.203.056.21-.103.073-.115-.178.017-.138-.203-.064-.113.153.016.291.398.321.04.243-.241.161-.184-.02-.33-.373-.063.259.622.89-.04.129-.77-.736zm-6.711-4.506h-.102l-.474.33-.002.527-.278.142.028.093.445.004.256-.382-.011-.174-.183-.085v-.13l.32-.196zm1.28 2.378l-.02-.119-.244-.1-.014-.262-.09-.045-.05.076-.222.026-.101.032-.094.105v.287l.125-.017.42.017zm1.322.092l-.143-.105v-.162l-.332-.222.014-.119.264.014-.008-.129-.186-.078-.218.019-.054.124.01.25.27.198v.102l-.14.121-.02.087.268.019.032.051.17.013.073-.07z"/><path id="bz3ybg" d="M1389.57 554.136h-.187v.096h.045l.007.047.114-.009.071-.045.018-.089.093-.008.036-.075-.085-.017-.073.001z"/><path id="bz3ybh" d="M1389.122 554.306l.135-.011.014-.094-.08-.064-.06.075z"/><path id="bz3ybi" d="M1391.063 558.74l.253.083-.049.226-.277.353-.08.78-.252.199-.371-.011-.125.216.091.405-.404.518-.13.237-.386.185-.253.039-.01.107.178.05-.022.117-.159.154.097.122.191.005-.01.149-.052.145-.015.119.283.239-.036.124-.388-.008-.384-.335-.298-.527.042-.507-.228-.302.091-.512-.135-.038v-1.111s-.377-.287-.399-.287c-.022 0-.199-.048-.199-.048l-.038-.21-.49-.615.047-.221.017-.361.34-.238-.049-.405-.497-.037-.387-.443-.276-.075-.177-.032.021-.162-.226-.032v.092l-.567-.141-.227-.35.092-.168-.358-.523-.063-.383h-.145l.048.372.25.383-.028.15-.21-.031-.259-.441v-.513l-.27-.13v-.572l.501-.61-.032-.364.141-.1-.167-.156.01-.275-.2-.178h-.555l-.09.097-.665-.005-.243-.205.19-.135h.484v-.09l-.226-.034.145-.113.32-.048.473-.324h.82l.448.135.151.086.135.01.2-.194.647-.005.145.08.274.06.022.108.437.016-.059-.14-.388-.011.091-.086-.03-.102h-.353l.383-.286h.367l.172.237.287.016.172-.167.13.065-.237.232-.314.005c.017 0 .028.226.028.226l.4-.01.042-.108.275-.016.033-.162-.163-.027.054-.146.124-.037.432.02-.238.217.038.167.25.038-.018-.302.237-.124.421-.05.61.27v.233l.194.048-.098.184h-.274l-.08.21-.63-.148.494-.263-.188-.161-.427.054-.037.039-.002-.001-.006.01-.123.127-.202.017.015.1.072.03-.003.034-.166.023-.01.096-.159.008-.029-.19-.283.086-.579.338.066.239.162.106.323.044v.368l.15-.024.137-.287.344-.11v-.441l.191-.144.463.109-.032.292h.124l.34-.167.015.382.248.152-.01.226-.238.08.017.076.285.13-.004.156-.084.007v-.004l-.36-.111-.017-.116.106-.072v-.105l-.114-.03-.028.098-.199.03-.02-.006v.01l-.069.01-.057-.112-.063-.03h-.143l-.064.054v.117l.121.04.12.017-.026.012-.11.12-.049-.06-.105-.028-.287.27.038.032-.425.234-.399.416-.028.185-.399.263-.198.199.02.399-.274-.128.002-.233h-.765l-.396.2-.173.318-.069.252.112.244.312.038.497-.332.043.165-.15.285.377.065.037.583.518.088.33-.38.398.08.141.197.383-.023.01-.113.21.102.24.372.408.005.151.265.022.323.453.173.571.006zm-3.1-4.386l-.148.02-.02.049-.097.008-.033.142h.207l.092-.094zm.05-.258h-.218v.213l.12-.022.098-.063zm.125.04l.079.066.078-.065-.098-.062zm-.072.218l.056.08h.207v-.125l-.247-.072h-.017zm-.163-.311l.134-.032-.134-.123zm-.602-.041l.146.04h.388v-.133h-.057v-.077h-.255l-.187.077zm-.024.417l.113.06.274-.383h-.213l-.15.16zm-.345-.995l.106.214.165-.052.053-.207-.154-.036zm-.599-.931h.32l.066-.09v-.1h-.232l-.012.049h-.141zm0 .25l.061.074.32-.02s.012-.142 0-.142-.154.024-.154.024z"/><path id="bz3ybj" d="M1472 589.075c0 14.635-11.864 26.5-26.5 26.5s-26.5-11.865-26.5-26.5c0-14.636 11.864-26.5 26.5-26.5s26.5 11.864 26.5 26.5z"/><path id="bz3ybk" d="M1430.128 589.298h32.17"/></defs><g><g opacity=".1" transform="translate(-1335 -506)"><g opacity=".1"><use fill="#232323" xlink:href="#bz3ya"/></g></g><g opacity=".1" transform="translate(-1335 -506)"><g opacity=".1"><use fill="#232323" xlink:href="#bz3yb"/></g></g><g transform="translate(-1335 -506)"><use fill="#e3e4e5" xlink:href="#bz3yc"/></g><g transform="translate(-1335 -506)"><use fill="#fff" xlink:href="#bz3yd"/></g><g transform="translate(-1335 -506)"><use fill="#eeefef" xlink:href="#bz3ye"/></g><g transform="translate(-1335 -506)"><use fill="#ced0d1" xlink:href="#bz3yf"/></g><g transform="translate(-1335 -506)"><use fill="#fff" xlink:href="#bz3yg"/></g><g transform="translate(-1335 -506)"><use fill="#b3d6ff" xlink:href="#bz3yh"/></g><g transform="translate(-1335 -506)"><use fill="#eeefef" xlink:href="#bz3yi"/></g><g transform="translate(-1335 -506)"><use fill="#b3d6ff" xlink:href="#bz3yj"/></g><g transform="translate(-1335 -506)"><use fill="#e3e4e5" xlink:href="#bz3yk"/></g><g transform="translate(-1335 -506)"><use fill="#ced0d1" xlink:href="#bz3yl"/></g><g transform="translate(-1335 -506)"><use fill="#ced0d1" xlink:href="#bz3ym"/></g><g transform="translate(-1335 -506)"><use fill="#ced0d1" xlink:href="#bz3yn"/></g><g transform="translate(-1335 -506)"><use fill="#ced0d1" xlink:href="#bz3yo"/></g><g transform="translate(-1335 -506)"><use fill="#ced0d1" xlink:href="#bz3yp"/></g><g transform="translate(-1335 -506)"><use fill="#ced0d1" xlink:href="#bz3yq"/></g><g transform="translate(-1335 -506)"><use fill="#ced0d1" xlink:href="#bz3yr"/></g><g transform="translate(-1335 -506)"><use fill="#ced0d1" xlink:href="#bz3ys"/></g><g transform="translate(-1335 -506)"><use fill="#ced0d1" xlink:href="#bz3yt"/></g><g transform="translate(-1335 -506)"><use fill="#ced0d1" xlink:href="#bz3yu"/></g><g transform="translate(-1335 -506)"><use fill="#08b4b9" xlink:href="#bz3yv"/></g><g transform="translate(-1335 -506)"><use fill="#ced0d1" xlink:href="#bz3yw"/></g><g transform="translate(-1335 -506)"><use fill="#ced0d1" xlink:href="#bz3yx"/></g><g transform="translate(-1335 -506)"><use fill="#ced0d1" xlink:href="#bz3yy"/></g><g transform="translate(-1335 -506)"><use fill="#ced0d1" xlink:href="#bz3yz"/></g><g transform="translate(-1335 -506)"><use fill="#ced0d1" xlink:href="#bz3yA"/></g><g transform="translate(-1335 -506)"><use fill="#ced0d1" xlink:href="#bz3yB"/></g><g transform="translate(-1335 -506)"><use fill="#ced0d1" xlink:href="#bz3yC"/></g><g transform="translate(-1335 -506)"><use fill="#ced0d1" xlink:href="#bz3yD"/></g><g transform="translate(-1335 -506)"><use fill="#ced0d1" xlink:href="#bz3yE"/></g><g transform="translate(-1335 -506)"><use fill="#ced0d1" xlink:href="#bz3yF"/></g><g transform="translate(-1335 -506)"><use fill="#ced0d1" xlink:href="#bz3yG"/></g><g transform="translate(-1335 -506)"><use fill="#ced0d1" xlink:href="#bz3yH"/></g><g transform="translate(-1335 -506)"><use fill="#08b4b9" xlink:href="#bz3yI"/></g><g transform="translate(-1335 -506)"><use fill="#ced0d1" xlink:href="#bz3yJ"/></g><g transform="translate(-1335 -506)"><use fill="#ced0d1" xlink:href="#bz3yK"/></g><g transform="translate(-1335 -506)"><use fill="#ced0d1" xlink:href="#bz3yL"/></g><g transform="translate(-1335 -506)"><use fill="#ced0d1" xlink:href="#bz3yM"/></g><g transform="translate(-1335 -506)"><use fill="#08b4b9" xlink:href="#bz3yN"/></g><g transform="translate(-1335 -506)"><use fill="#ced0d1" xlink:href="#bz3yO"/></g><g transform="translate(-1335 -506)"><use fill="#ced0d1" xlink:href="#bz3yP"/></g><g transform="translate(-1335 -506)"><use fill="#ced0d1" xlink:href="#bz3yQ"/></g><g transform="translate(-1335 -506)"><use fill="#ced0d1" xlink:href="#bz3yR"/></g><g transform="translate(-1335 -506)"><use fill="#ced0d1" xlink:href="#bz3yS"/></g><g transform="translate(-1335 -506)"><use fill="#ced0d1" xlink:href="#bz3yT"/></g><g transform="translate(-1335 -506)"><use fill="#ced0d1" xlink:href="#bz3yU"/></g><g transform="translate(-1335 -506)"><use fill="#ced0d1" xlink:href="#bz3yV"/></g><g transform="translate(-1335 -506)"><use fill="#ced0d1" xlink:href="#bz3yW"/></g><g transform="translate(-1335 -506)"><use fill="#ced0d1" xlink:href="#bz3yX"/></g><g transform="translate(-1335 -506)"><use fill="#ced0d1" xlink:href="#bz3yY"/></g><g transform="translate(-1335 -506)"><use fill="#ced0d1" xlink:href="#bz3yZ"/></g><g transform="translate(-1335 -506)"><use fill="#ced0d1" xlink:href="#bz3yaa"/></g><g transform="translate(-1335 -506)"><use fill="#ced0d1" xlink:href="#bz3yab"/></g><g transform="translate(-1335 -506)"><use fill="#ced0d1" xlink:href="#bz3yac"/></g><g transform="translate(-1335 -506)"><use fill="#ced0d1" xlink:href="#bz3yad"/></g><g transform="translate(-1335 -506)"><use fill="#08b4b9" xlink:href="#bz3yae"/></g><g transform="translate(-1335 -506)"><use fill="#ced0d1" xlink:href="#bz3yaf"/></g><g transform="translate(-1335 -506)"><use fill="#08b4b9" xlink:href="#bz3yag"/></g><g transform="translate(-1335 -506)"><use fill="#ced0d1" xlink:href="#bz3yah"/></g><g transform="translate(-1335 -506)"><use fill="#ced0d1" xlink:href="#bz3yai"/></g><g transform="translate(-1335 -506)"><use fill="#ced0d1" xlink:href="#bz3yaj"/></g><g transform="translate(-1335 -506)"><use fill="#ced0d1" xlink:href="#bz3yak"/></g><g transform="translate(-1335 -506)"><use fill="#ced0d1" xlink:href="#bz3yal"/></g><g transform="translate(-1335 -506)"><use fill="#ced0d1" xlink:href="#bz3yam"/></g><g transform="translate(-1335 -506)"><use fill="#ced0d1" xlink:href="#bz3yan"/></g><g transform="translate(-1335 -506)"><use fill="#ced0d1" xlink:href="#bz3yao"/></g><g transform="translate(-1335 -506)"><use fill="#ced0d1" xlink:href="#bz3yap"/></g><g transform="translate(-1335 -506)"><use fill="#ced0d1" xlink:href="#bz3yaq"/></g><g transform="translate(-1335 -506)"><use fill="#ced0d1" xlink:href="#bz3yar"/></g><g transform="translate(-1335 -506)"><use fill="#ced0d1" xlink:href="#bz3yas"/></g><g transform="translate(-1335 -506)"><use fill="#08b4b9" xlink:href="#bz3yat"/></g><g transform="translate(-1335 -506)"><use fill="#ced0d1" xlink:href="#bz3yau"/></g><g transform="translate(-1335 -506)"><use fill="#ced0d1" xlink:href="#bz3yav"/></g><g transform="translate(-1335 -506)"><use fill="#ced0d1" xlink:href="#bz3yaw"/></g><g transform="translate(-1335 -506)"><use fill="#ced0d1" xlink:href="#bz3yax"/></g><g transform="translate(-1335 -506)"><use fill="#ced0d1" xlink:href="#bz3yay"/></g><g transform="translate(-1335 -506)"><use fill="#ced0d1" xlink:href="#bz3yaz"/></g><g transform="translate(-1335 -506)"><use fill="#ced0d1" xlink:href="#bz3yaA"/></g><g transform="translate(-1335 -506)"><use fill="#ced0d1" xlink:href="#bz3yaB"/></g><g transform="translate(-1335 -506)"><use fill="#08b4b9" xlink:href="#bz3yaC"/></g><g transform="translate(-1335 -506)"><use fill="#ced0d1" xlink:href="#bz3yaD"/></g><g transform="translate(-1335 -506)"><use fill="#ced0d1" xlink:href="#bz3yaE"/></g><g transform="translate(-1335 -506)"><use fill="#ced0d1" xlink:href="#bz3yaF"/></g><g transform="translate(-1335 -506)"><use fill="#ced0d1" xlink:href="#bz3yaG"/></g><g transform="translate(-1335 -506)"><use fill="#08b4b9" xlink:href="#bz3yaH"/></g><g transform="translate(-1335 -506)"><use fill="#ced0d1" xlink:href="#bz3yaI"/></g><g transform="translate(-1335 -506)"><use fill="#ced0d1" xlink:href="#bz3yaJ"/></g><g transform="translate(-1335 -506)"><use fill="#ced0d1" xlink:href="#bz3yaK"/></g><g transform="translate(-1335 -506)"><use fill="#ced0d1" xlink:href="#bz3yaL"/></g><g transform="translate(-1335 -506)"><use fill="#151414" xlink:href="#bz3yaM"/></g><g opacity=".1" transform="translate(-1335 -506)"><g opacity=".1"><use fill="#fff" xlink:href="#bz3yaN"/></g></g><g transform="translate(-1335 -506)"><use fill="#232323" xlink:href="#bz3yaO"/></g><g opacity=".15" transform="translate(-1335 -506)"><g opacity=".15"><use fill="#231f20" xlink:href="#bz3yaP"/></g><g opacity=".15"><use fill="#231f20" xlink:href="#bz3yaQ"/></g><g opacity=".15"><use fill="#231f20" xlink:href="#bz3yaR"/></g><g opacity=".15"><use fill="#231f20" xlink:href="#bz3yaS"/></g><g opacity=".15"><use fill="#231f20" xlink:href="#bz3yaT"/></g><g opacity=".15"><use fill="#231f20" xlink:href="#bz3yaU"/></g><g opacity=".15"><use fill="#231f20" xlink:href="#bz3yaV"/></g><g opacity=".15"><use fill="#231f20" xlink:href="#bz3yaW"/></g><g opacity=".15"><use fill="#231f20" xlink:href="#bz3yaX"/></g><g opacity=".15"><use fill="#231f20" xlink:href="#bz3yaY"/></g><g opacity=".15"><use fill="#231f20" xlink:href="#bz3yaZ"/></g><g opacity=".15"><use fill="#231f20" xlink:href="#bz3yba"/></g><g opacity=".15"><use fill="#231f20" xlink:href="#bz3ybb"/></g><g opacity=".15"><use fill="#231f20" xlink:href="#bz3ybc"/></g><g opacity=".15"><use fill="#231f20" xlink:href="#bz3ybd"/></g><g opacity=".15"><use fill="#231f20" xlink:href="#bz3ybe"/></g><g opacity=".15"><use fill="#231f20" xlink:href="#bz3ybf"/></g><g opacity=".15"><use fill="#231f20" xlink:href="#bz3ybg"/></g><g opacity=".15"><use fill="#231f20" xlink:href="#bz3ybh"/></g><g opacity=".15"><use fill="#231f20" xlink:href="#bz3ybi"/></g></g><g transform="translate(-1335 -506)"><use fill="red" xlink:href="#bz3ybj"/></g><g transform="translate(-1335 -506)"><use fill="#fff" xlink:href="#bz3ybk"/><use fill="#fff" fill-opacity="0" stroke="#fff" stroke-linecap="round" stroke-miterlimit="50" stroke-width="5" xlink:href="#bz3ybk"/></g></g></svg>