<svg xmlns="http://www.w3.org/2000/svg" xmlns:xlink="http://www.w3.org/1999/xlink" width="118.67" height="117.33" viewBox="0 0 178 176"><defs><path id="k1taa" d="M1391.23 6373.939a1.746 1.746 0 0 1-1.744-1.744c0-.962.782-1.744 1.744-1.744s1.744.782 1.744 1.744-.782 1.744-1.744 1.744z"/><path id="k1tab" d="M1391.23 6370.951a1.244 1.244 0 1 1 0 2.488 1.244 1.244 0 0 1 0-2.488zm0-1a2.247 2.247 0 0 0-2.244 2.244 2.247 2.247 0 0 0 2.244 2.244 2.247 2.247 0 0 0 2.244-2.244 2.247 2.247 0 0 0-2.244-2.244z"/><path id="k1tac" d="M1427.749 6344.014a1.746 1.746 0 0 1-1.744-1.744c0-.962.782-1.744 1.744-1.744.961 0 1.743.782 1.743 1.744s-.782 1.744-1.743 1.744z"/><path id="k1tad" d="M1427.749 6341.026a1.243 1.243 0 1 1 0 2.486 1.243 1.243 0 0 1 0-2.486zm0-1a2.247 2.247 0 0 0-2.244 2.244 2.247 2.247 0 0 0 2.244 2.244 2.246 2.246 0 0 0 2.243-2.244 2.246 2.246 0 0 0-2.243-2.244z"/><path id="k1tae" d="M1435.952 6354.638a1.746 1.746 0 0 1-1.744-1.744c0-.96.782-1.743 1.744-1.743s1.744.782 1.744 1.743c0 .962-.782 1.744-1.744 1.744z"/><path id="k1taf" d="M1435.952 6351.65a1.244 1.244 0 1 1 0 2.489 1.244 1.244 0 0 1 0-2.488zm0-1a2.246 2.246 0 0 0-2.244 2.245 2.246 2.246 0 0 0 2.244 2.243 2.246 2.246 0 0 0 2.244-2.243 2.246 2.246 0 0 0-2.244-2.244z"/><path id="k1tag" d="M1504.783 6358.37a1.746 1.746 0 0 1-1.744-1.744c0-.962.782-1.744 1.744-1.744s1.744.782 1.744 1.744-.782 1.744-1.744 1.744z"/><path id="k1tah" d="M1504.783 6355.382a1.244 1.244 0 1 1 0 2.488 1.244 1.244 0 0 1 0-2.488zm0-1a2.247 2.247 0 0 0-2.244 2.244 2.247 2.247 0 0 0 2.244 2.244 2.247 2.247 0 0 0 2.244-2.244 2.247 2.247 0 0 0-2.244-2.244z"/><path id="k1tai" d="M1520.808 6367.388a1.746 1.746 0 0 1-1.744-1.744c0-.96.782-1.743 1.744-1.743.96 0 1.743.782 1.743 1.743 0 .962-.782 1.744-1.743 1.744z"/><path id="k1taj" d="M1520.808 6364.4a1.243 1.243 0 1 1 0 2.487 1.243 1.243 0 0 1 0-2.486zm0-1a2.246 2.246 0 0 0-2.244 2.245 2.246 2.246 0 0 0 2.244 2.243 2.245 2.245 0 0 0 2.243-2.243 2.245 2.245 0 0 0-2.243-2.244z"/><path id="k1tak" d="M1540.256 6400.265a1.745 1.745 0 0 1-1.743-1.744c0-.962.782-1.744 1.743-1.744.962 0 1.744.782 1.744 1.744s-.782 1.744-1.744 1.744z"/><path id="k1tal" d="M1540.256 6397.277a1.244 1.244 0 1 1 0 2.488 1.244 1.244 0 0 1 0-2.488zm0-1a2.247 2.247 0 0 0-2.243 2.244 2.247 2.247 0 0 0 2.243 2.244 2.247 2.247 0 0 0 2.244-2.244 2.247 2.247 0 0 0-2.244-2.244z"/><path id="k1tam" d="M1373.244 6396.93a1.745 1.745 0 0 1-1.743-1.744c0-.96.782-1.743 1.743-1.743.962 0 1.744.782 1.744 1.743 0 .962-.782 1.744-1.744 1.744z"/><path id="k1tan" d="M1373.244 6393.943a1.244 1.244 0 1 1 0 2.488 1.244 1.244 0 0 1 0-2.488zm0-1a2.246 2.246 0 0 0-2.243 2.244 2.246 2.246 0 0 0 2.243 2.243 2.246 2.246 0 0 0 2.244-2.243 2.246 2.246 0 0 0-2.244-2.244z"/><path id="k1tao" d="M1470.845 6355.882a1.746 1.746 0 0 1-1.744-1.744c0-.961.782-1.743 1.744-1.743s1.744.782 1.744 1.743c0 .962-.782 1.744-1.744 1.744z"/><path id="k1tap" d="M1470.845 6352.895a1.244 1.244 0 1 1 0 2.488 1.244 1.244 0 0 1 0-2.488zm0-1a2.245 2.245 0 0 0-2.243 2.243 2.245 2.245 0 0 0 2.243 2.244 2.246 2.246 0 0 0 2.244-2.243 2.246 2.246 0 0 0-2.244-2.245z"/><path id="k1taq" d="M1371.788 6515.575l12.465-9.708h-14.888a3.593 3.593 0 0 1-3.454-2.486 3.591 3.591 0 0 1 1.263-4.065l4.773-3.598 3.651 1.84 28.814-22.442v-8.207h-.37a2.18 2.18 0 0 1-2.17-2.035l-.262-3.986a26.402 26.402 0 0 1-5.57-2.311l-3.006 2.638a2.18 2.18 0 0 1-2.974-.098l-6.924-6.924a2.18 2.18 0 0 1-.098-2.974l2.638-3.005a26.453 26.453 0 0 1-2.312-5.572l-3.986-.26a2.18 2.18 0 0 1-2.034-2.171v-9.794c0-1.142.893-2.096 2.034-2.171l3.987-.26a26.32 26.32 0 0 1 1.105-3.082 13.287 13.287 0 0 1-4.165-9.637v-5.533c0-7.322 5.957-13.28 13.281-13.28h5.532c4.963 0 9.57 2.842 11.826 7.265h2.891c1.143 0 2.097.894 2.172 2.034l.26 3.987a26.45 26.45 0 0 1 5.57 2.31l3.006-2.636a2.177 2.177 0 0 1 2.974.097l5.99 5.99v-18.047c-.659.098-1.318.149-1.969.149h-5.533c-7.323 0-13.28-5.957-13.28-13.28v-5.533c0-7.322 5.957-13.28 13.28-13.28h5.533c7.323 0 13.28 5.958 13.28 13.28v5.533c0 .612-.045 1.226-.137 1.86h6.184l8.66-8.66a2.955 2.955 0 0 1 4.037-.132l4.524 3.969a38.516 38.516 0 0 1 8.408-3.488l.391-6a2.96 2.96 0 0 1 2.948-2.761h14.338a2.96 2.96 0 0 1 2.95 2.76l.39 6a38.544 38.544 0 0 1 8.41 3.489l4.522-3.97a2.95 2.95 0 0 1 4.037.133l10.14 10.139a2.962 2.962 0 0 1 .131 4.037l-3.969 4.523a38.552 38.552 0 0 1 3.487 8.409l6 .39a2.962 2.962 0 0 1 2.762 2.949v14.339a2.962 2.962 0 0 1-2.762 2.948l-6 .39a38.524 38.524 0 0 1-3.487 8.409l3.97 4.524a2.933 2.933 0 0 1 .114 3.75c.456 1.369.687 2.775.687 4.183v5.533c0 7.322-5.957 13.28-13.279 13.28h-5.533c-.769 0-1.554-.072-2.342-.215v10.005l31.668 24.665v.245a3.22 3.22 0 0 1-3.218 3.217h-11.66l15.834 12.332zm15.543-12.105l.291-.227h-.74zm8.303-74.923a14.556 14.556 0 0 0-1.56 5.24c-.53 5.35 1.795 10.503 6.103 13.624a9.908 9.908 0 0 1 4.235-6.071v-13.902a13.093 13.093 0 0 1-5.294 1.109zm109.065.19c2.606-3.31 4.19-7.203 4.6-11.34.628-6.341-1.363-12.411-5.606-17.096a22.158 22.158 0 0 0-18.648-7.158 21.565 21.565 0 0 0-7.493 2.173v21.854h8.388v-3.89c0-5.272 4.29-9.561 9.561-9.561h3.923c5.271 0 9.56 4.289 9.56 9.56v3.923a9.504 9.504 0 0 1-4.285 7.963z"/><path id="k1tar" d="M1431.838 6366.01h-5.533c-7.058 0-12.78 5.722-12.78 12.78v5.533c0 7.058 5.722 12.78 12.78 12.78h5.533c.845 0 1.67-.087 2.468-.244v19.849l-6.842-6.844a1.68 1.68 0 0 0-2.292-.074l-3.272 2.87a25.896 25.896 0 0 0-6.109-2.534l-.284-4.34a1.675 1.675 0 0 0-1.672-1.567h-3.202c-2.06-4.293-6.435-7.265-11.515-7.265h-5.532c-7.059 0-12.78 5.722-12.78 12.78v5.533c0 3.782 1.653 7.17 4.264 9.51a25.811 25.811 0 0 0-1.319 3.685l-4.34.283a1.677 1.677 0 0 0-1.568 1.672v9.794c0 .883.686 1.614 1.567 1.672l4.341.283a25.918 25.918 0 0 0 2.534 6.11l-2.87 3.272a1.677 1.677 0 0 0 .074 2.29l6.925 6.926a1.671 1.671 0 0 0 2.29.075l3.272-2.872a25.921 25.921 0 0 0 6.11 2.535l.284 4.34a1.676 1.676 0 0 0 1.672 1.567h.87v8.95l-29.256 22.788-3.656-1.842-4.526 3.41c-2.409 1.815-1.126 5.652 1.891 5.652h16.344l-12.465 9.708h162.623l-15.834-12.332h13.117c1.5 0 2.717-1.217 2.717-2.717l-31.668-24.666v-10.862c.915.208 1.864.328 2.842.328h5.533c7.057 0 12.78-5.722 12.78-12.78v-5.533c0-1.508-.275-2.947-.755-4.291a2.45 2.45 0 0 0 .076-3.312l-4.204-4.791a37.971 37.971 0 0 0 3.711-8.947l6.355-.415a2.453 2.453 0 0 0 2.294-2.448v-14.34a2.454 2.454 0 0 0-2.294-2.448l-6.355-.415a37.981 37.981 0 0 0-3.71-8.946l4.203-4.791a2.455 2.455 0 0 0-.109-3.354l-10.14-10.14a2.448 2.448 0 0 0-3.353-.108l-4.79 4.203a38.023 38.023 0 0 0-8.947-3.711l-.415-6.355a2.454 2.454 0 0 0-2.449-2.294h-14.34a2.454 2.454 0 0 0-2.448 2.294l-.415 6.355a38.023 38.023 0 0 0-8.946 3.71l-4.79-4.202a2.452 2.452 0 0 0-3.354.109l-8.807 8.807h-6.98c.142-.766.226-1.553.226-2.36v-5.533c0-7.058-5.722-12.78-12.78-12.78zm45.213 51.66v-22.662a22.145 22.145 0 0 1 10.251-2.477c13.248-.001 23.833 11.392 22.495 24.915-.478 4.818-2.524 9.206-5.598 12.667v-5.221c2.57-1.6 4.285-4.44 4.285-7.69v-3.922a9.061 9.061 0 0 0-9.06-9.061h-3.922a9.06 9.06 0 0 0-9.06 9.06v3.923c0 .158.015.312.022.468zm-76.526 30.587c-4.634-3.018-7.55-8.453-6.949-14.52a15.13 15.13 0 0 1 1.756-5.69h3.786c2.088 0 4.054-.511 5.794-1.4v14.967a9.43 9.43 0 0 0-4.387 6.643zm-13.137 55.802l-2.61-1.316h4.3zm44.45-139.05c7.598 0 13.78 6.183 13.78 13.78v5.534c0 .445-.025.899-.07 1.36h5.41l8.513-8.514a3.45 3.45 0 0 1 4.72-.154l4.26 3.737a39.032 39.032 0 0 1 7.866-3.264l.37-5.65a3.462 3.462 0 0 1 3.445-3.228h14.34a3.464 3.464 0 0 1 3.447 3.229l.368 5.649a39.064 39.064 0 0 1 7.867 3.264l4.26-3.737a3.45 3.45 0 0 1 4.72.154l10.14 10.139a3.462 3.462 0 0 1 .152 4.72l-3.737 4.26a38.974 38.974 0 0 1 3.264 7.866l5.65.37a3.46 3.46 0 0 1 3.228 3.446v14.339a3.461 3.461 0 0 1-3.229 3.446l-5.649.369a39.006 39.006 0 0 1-3.264 7.867l3.737 4.259a3.43 3.43 0 0 1 .293 4.167c.421 1.342.634 2.718.634 4.096v5.533c0 7.599-6.18 13.78-13.779 13.78h-5.533c-.606 0-1.222-.043-1.842-.13v9.176l31.282 24.364.386.3v.49a3.722 3.722 0 0 1-3.717 3.717h-10.206l13.537 10.543 2.297 1.789h-168.445l2.297-1.79 10.167-7.918h-13.432a4.087 4.087 0 0 1-3.929-2.828 4.087 4.087 0 0 1 1.437-4.623l4.525-3.41.497-.374.555.28 3.091 1.557 28.371-22.097v-7.467a2.681 2.681 0 0 1-2.54-2.498l-.239-3.637a27.052 27.052 0 0 1-5.027-2.086l-2.743 2.406a2.672 2.672 0 0 1-3.656-.12l-6.926-6.924a2.683 2.683 0 0 1-.119-3.657l2.406-2.743a27 27 0 0 1-2.085-5.028l-3.638-.237a2.683 2.683 0 0 1-2.502-2.67v-9.794a2.683 2.683 0 0 1 2.502-2.67l3.64-.238c.248-.82.546-1.65.892-2.484a13.787 13.787 0 0 1-4.072-9.758v-5.533c0-7.598 6.182-13.78 13.781-13.78h5.532c5.048 0 9.74 2.832 12.128 7.265h2.59a2.681 2.681 0 0 1 2.67 2.502l.237 3.638a26.961 26.961 0 0 1 5.028 2.085l2.742-2.406a2.68 2.68 0 0 1 1.765-.665 2.667 2.667 0 0 1 1.893.784l5.135 5.137v-16.271c-.492.053-.982.08-1.468.08h-5.533c-7.598 0-13.78-6.182-13.78-13.78v-5.533c0-7.598 6.182-13.78 13.78-13.78zm46.213 51.66h7.39v-3.39c0-5.546 4.513-10.06 10.061-10.06h3.921c3.247 0 6.14 1.546 7.98 3.939a21.592 21.592 0 0 0-4.082-6.523 21.653 21.653 0 0 0-16.017-7.104h-.002c-.73 0-1.474.037-2.208.11a20.998 20.998 0 0 0-7.043 1.987zm27.148 10.542a21.488 21.488 0 0 0 1.99-3.614 10.141 10.141 0 0 1-1.99 1.833zm-109.256 1.836a13.99 13.99 0 0 0-1.372 4.79c-.488 4.927 1.527 9.677 5.316 12.725a10.409 10.409 0 0 1 4.025-5.488v-12.893a13.587 13.587 0 0 1-4.794.866z"/><path id="k1tas" d="M1524.951 6471.927a1.745 1.745 0 0 1-1.743-1.744c0-.962.782-1.744 1.743-1.744.962 0 1.744.782 1.744 1.744s-.782 1.744-1.744 1.744z"/><path id="k1tat" d="M1524.951 6468.94a1.244 1.244 0 1 1 0 2.488 1.244 1.244 0 0 1 0-2.488zm0-1a2.247 2.247 0 0 0-2.243 2.244 2.247 2.247 0 0 0 2.243 2.243 2.246 2.246 0 0 0 2.244-2.243 2.246 2.246 0 0 0-2.244-2.245z"/><path id="k1tau" d="M1393.864 6467.715a1.308 1.308 0 0 1-1.307-1.306 1.308 1.308 0 0 1 2.614 0c0 .72-.586 1.306-1.307 1.306z"/><path id="k1tav" d="M1393.864 6465.602a.807.807 0 1 1 0 1.615.807.807 0 0 1 0-1.615zm0-1c-.996 0-1.806.811-1.806 1.807 0 .996.81 1.806 1.806 1.806s1.807-.81 1.807-1.806a1.81 1.81 0 0 0-1.807-1.807z"/><path id="k1taw" d="M1403.918 6390.776c-.72 0-1.306-.586-1.306-1.306a1.308 1.308 0 0 1 2.613 0c0 .72-.586 1.306-1.307 1.306z"/><path id="k1tax" d="M1403.918 6388.664a.807.807 0 1 1 0 1.614.807.807 0 0 1 0-1.614zm0-1c-.996 0-1.806.81-1.806 1.806s.81 1.806 1.806 1.806 1.807-.81 1.807-1.806-.811-1.806-1.807-1.806z"/><path id="k1tay" d="M1511.725 6474.292a1.308 1.308 0 0 1-1.307-1.307 1.308 1.308 0 0 1 2.613 0c0 .72-.586 1.307-1.306 1.307z"/><path id="k1taz" d="M1511.725 6472.18a.806.806 0 1 1 0 1.612.806.806 0 0 1 0-1.613zm0-1c-.996 0-1.807.81-1.807 1.805a1.81 1.81 0 0 0 1.807 1.807c.996 0 1.806-.81 1.806-1.807 0-.996-.81-1.806-1.806-1.806z"/><path id="k1taA" d="M1424.509 6404.72a1.746 1.746 0 0 1-1.744-1.745c0-.962.782-1.744 1.744-1.744.96 0 1.743.782 1.743 1.744s-.782 1.744-1.743 1.744z"/><path id="k1taB" d="M1424.509 6401.731a1.243 1.243 0 1 1 0 2.487 1.243 1.243 0 0 1 0-2.487zm0-1a2.247 2.247 0 0 0-2.244 2.244 2.247 2.247 0 0 0 2.244 2.244 2.246 2.246 0 0 0 2.243-2.244 2.246 2.246 0 0 0-2.243-2.244z"/><path id="k1taC" d="M1380.806 6471.462a1.746 1.746 0 0 1-1.744-1.744c0-.96.782-1.743 1.744-1.743s1.744.782 1.744 1.743c0 .962-.782 1.744-1.744 1.744z"/><path id="k1taD" d="M1380.806 6468.475a1.244 1.244 0 1 1 0 2.488 1.244 1.244 0 0 1 0-2.488zm0-1a2.245 2.245 0 0 0-2.243 2.244 2.245 2.245 0 0 0 2.243 2.243 2.246 2.246 0 0 0 2.244-2.243 2.246 2.246 0 0 0-2.244-2.244z"/><path id="k1taE" d="M1395.108 6391.214a1.746 1.746 0 0 1-1.744-1.744c0-.961.782-1.743 1.744-1.743.961 0 1.743.782 1.743 1.743 0 .962-.782 1.744-1.743 1.744z"/><path id="k1taF" d="M1395.108 6388.227a1.243 1.243 0 1 1 0 2.486 1.243 1.243 0 0 1 0-2.486zm0-1a2.246 2.246 0 0 0-2.244 2.244 2.246 2.246 0 0 0 2.244 2.243 2.245 2.245 0 0 0 2.243-2.243 2.245 2.245 0 0 0-2.243-2.244z"/><path id="k1taG" d="M1427.749 6489.783v-146.27"/><path id="k1taH" d="M1391.23 6451.693v-78.254"/><path id="k1taI" d="M1435.952 6470.238v-116.1"/><path id="k1taJ" d="M1470.845 6470.238v-114.856"/><path id="k1taK" d="M1504.783 6492.505v-134.401"/><path id="k1taL" d="M1392.475 6372.195a1.244 1.244 0 1 1-2.489 0 1.244 1.244 0 0 1 2.489 0z"/><path id="k1taM" d="M1428.993 6342.27a1.245 1.245 0 1 1-2.49-.001 1.245 1.245 0 0 1 2.49.001z"/><path id="k1taN" d="M1437.196 6352.895a1.245 1.245 0 1 1-2.49-.002 1.245 1.245 0 0 1 2.49.002z"/><path id="k1taO" d="M1506.027 6356.626a1.244 1.244 0 1 1-2.488 0 1.244 1.244 0 0 1 2.488 0z"/><path id="k1taP" d="M1520.808 6417.67v-50.59"/><path id="k1taQ" d="M1522.052 6365.645a1.245 1.245 0 1 1-2.49-.002 1.245 1.245 0 0 1 2.49.002z"/><path id="k1taR" d="M1540.256 6470.19v-70.233"/><path id="k1taS" d="M1541.5 6398.521a1.244 1.244 0 1 1-2.488 0 1.244 1.244 0 0 1 2.488 0z"/><path id="k1taT" d="M1373.244 6466.855v-70.233"/><path id="k1taU" d="M1374.488 6395.186a1.244 1.244 0 1 1-2.488 0 1.244 1.244 0 0 1 2.488 0z"/><path id="k1taV" d="M1472.089 6354.138a1.244 1.244 0 1 1-2.488 0 1.244 1.244 0 0 1 2.488 0z"/><path id="k1taW" d="M1532.831 6422.308v-14.339a2.453 2.453 0 0 0-2.294-2.448l-6.355-.415a37.964 37.964 0 0 0-3.71-8.947l4.202-4.79a2.451 2.451 0 0 0-.109-3.354l-10.139-10.139a2.452 2.452 0 0 0-3.353-.11l-4.79 4.204a37.981 37.981 0 0 0-8.947-3.71l-.415-6.356a2.454 2.454 0 0 0-2.449-2.294h-14.34a2.454 2.454 0 0 0-2.448 2.294l-.415 6.355a37.981 37.981 0 0 0-8.946 3.711l-4.79-4.204a2.454 2.454 0 0 0-3.355.11l-10.139 10.14a2.454 2.454 0 0 0-.11 3.352l4.204 4.791a38.048 38.048 0 0 0-3.71 8.947l-6.356.415a2.453 2.453 0 0 0-2.293 2.448v14.34a2.453 2.453 0 0 0 2.293 2.448l6.355.415a38.023 38.023 0 0 0 3.711 8.946l-4.204 4.791a2.456 2.456 0 0 0 .11 3.354l10.14 10.14a2.454 2.454 0 0 0 3.353.108l4.791-4.203a38.023 38.023 0 0 0 8.946 3.711l.415 6.355a2.454 2.454 0 0 0 2.448 2.294h14.34a2.454 2.454 0 0 0 2.45-2.294l.414-6.355a38.023 38.023 0 0 0 8.946-3.71l4.791 4.202a2.452 2.452 0 0 0 3.353-.109l10.14-10.139a2.454 2.454 0 0 0 .11-3.354l-4.205-4.79a37.94 37.94 0 0 0 3.711-8.947l6.355-.415a2.453 2.453 0 0 0 2.294-2.449zm-43.222 15.325c-14.299 1.417-26.217-10.502-24.8-24.8 1.047-10.582 9.606-19.14 20.187-20.188 14.3-1.416 26.217 10.502 24.8 24.801-1.047 10.581-9.606 19.14-20.187 20.187z"/><path id="k1taX" d="M1440.034 6440.21v-9.792c0-.884-.686-1.615-1.567-1.673l-4.341-.283a25.876 25.876 0 0 0-2.534-6.11l2.87-3.273a1.675 1.675 0 0 0-.073-2.29l-6.925-6.925a1.677 1.677 0 0 0-2.291-.074l-3.271 2.87a25.963 25.963 0 0 0-6.111-2.534l-.283-4.34a1.676 1.676 0 0 0-1.673-1.567h-9.793c-.882 0-1.614.686-1.672 1.567l-.284 4.34a25.914 25.914 0 0 0-6.11 2.535l-3.272-2.871a1.675 1.675 0 0 0-2.29.074l-6.924 6.925a1.676 1.676 0 0 0-.076 2.29l2.872 3.273a25.921 25.921 0 0 0-2.535 6.11l-4.34.283a1.677 1.677 0 0 0-1.567 1.673v9.793c0 .883.686 1.614 1.567 1.672l4.34.283a25.946 25.946 0 0 0 2.535 6.11l-2.872 3.273a1.675 1.675 0 0 0 .076 2.29l6.924 6.925a1.676 1.676 0 0 0 2.29.075l3.273-2.871a25.953 25.953 0 0 0 6.109 2.534l.284 4.34c.058.88.79 1.567 1.672 1.567h9.793c.884 0 1.616-.686 1.673-1.567l.283-4.34a26.003 26.003 0 0 0 6.11-2.534l3.272 2.87a1.678 1.678 0 0 0 2.29-.074l6.926-6.925a1.675 1.675 0 0 0 .074-2.29l-2.871-3.272a25.901 25.901 0 0 0 2.534-6.111l4.34-.283a1.677 1.677 0 0 0 1.568-1.672zm-29.52 10.467c-9.766.967-17.905-7.173-16.937-16.94.715-7.225 6.56-13.07 13.787-13.786 9.765-.967 17.905 7.173 16.938 16.938-.716 7.227-6.56 13.072-13.787 13.788z"/><path id="k1taY" d="M1535.867 6515.075h-162.623l31.668-24.665h99.287z"/><path id="k1taZ" d="M1404.91 6475.36v-57.69h99.29v57.69z"/><path id="k1taaa" d="M1407.84 6473.66v-54.29h93.43v54.29z"/><path id="k1taab" d="M1434.56 6431.178h-20.955a.781.781 0 0 1-.78-.78.78.78 0 0 1 .78-.778h20.955a.78.78 0 0 1 .779.779c0 .428-.35.779-.78.779z"/><path id="k1taac" d="M1459.212 6431.178h-20.956a.781.781 0 0 1-.78-.78.78.78 0 0 1 .78-.778h20.956a.78.78 0 0 1 .778.779c0 .428-.35.779-.778.779z"/><path id="k1taad" d="M1469.127 6431.178h-5.749a.781.781 0 0 1-.778-.78.78.78 0 0 1 .778-.778h5.749a.78.78 0 0 1 .779.779c0 .428-.35.779-.779.779z"/><path id="k1taae" d="M1441.288 6445.923h-27.684a.782.782 0 0 1-.779-.78c0-.428.351-.778.78-.778h27.683a.78.78 0 0 1 .778.779c0 .428-.35.779-.778.779z"/><path id="k1taaf" d="M1462.033 6445.923h-16.509a.782.782 0 0 1-.779-.78c0-.428.351-.778.78-.778h16.508a.78.78 0 0 1 .78.779c0 .428-.35.779-.78.779z"/><path id="k1taag" d="M1423.73 6436.093h-10.126a.781.781 0 0 1-.779-.78.78.78 0 0 1 .78-.778h10.124a.78.78 0 0 1 .78.779c0 .428-.35.779-.78.779z"/><path id="k1taah" d="M1444.476 6436.093h-17.903a.782.782 0 0 1-.78-.78c0-.428.352-.778.78-.778h17.903a.78.78 0 0 1 .779.779c0 .428-.35.779-.78.779z"/><path id="k1taai" d="M1432.063 6426.263h-18.459a.781.781 0 0 1-.779-.779c0-.429.35-.78.78-.78h18.458c.43 0 .78.351.78.78 0 .428-.35.78-.78.78z"/><path id="k1taaj" d="M1478.965 6426.263h-43.02a.782.782 0 0 1-.778-.779c0-.429.35-.78.779-.78h43.019c.428 0 .778.351.778.78 0 .428-.35.78-.778.78z"/><path id="k1taak" d="M1469.127 6441.008h-9.181a.782.782 0 0 1-.778-.78c0-.428.351-.778.778-.778h9.181a.78.78 0 0 1 .779.779c0 .428-.35.779-.779.779z"/><path id="k1taal" d="M1456.623 6441.008h-43.019a.782.782 0 0 1-.779-.78c0-.428.351-.778.779-.778h43.019a.78.78 0 0 1 .778.779c0 .428-.35.779-.778.779z"/><path id="k1taam" d="M1434.56 6455.753h-20.955a.781.781 0 0 1-.78-.78.78.78 0 0 1 .78-.778h20.955a.78.78 0 0 1 .779.779c0 .428-.35.779-.78.779z"/><path id="k1taan" d="M1459.212 6455.753h-20.956a.781.781 0 0 1-.78-.78.78.78 0 0 1 .78-.778h20.956a.78.78 0 0 1 .778.779c0 .428-.35.779-.778.779z"/><path id="k1taao" d="M1469.127 6455.753h-5.749a.781.781 0 0 1-.778-.78.78.78 0 0 1 .778-.778h5.749a.78.78 0 0 1 .779.779c0 .428-.35.779-.779.779z"/><path id="k1taap" d="M1441.288 6470.498h-27.684a.782.782 0 0 1-.779-.779c0-.429.351-.78.78-.78h27.683c.428 0 .778.351.778.78 0 .428-.35.779-.778.779z"/><path id="k1taaq" d="M1462.033 6470.498h-16.509a.782.782 0 0 1-.779-.779c0-.429.351-.78.78-.78h16.508c.43 0 .78.351.78.78 0 .428-.35.779-.78.779z"/><path id="k1taar" d="M1423.73 6460.668h-10.126a.781.781 0 0 1-.779-.779.78.78 0 0 1 .78-.779h10.124a.78.78 0 0 1 .78.779c0 .428-.35.779-.78.779z"/><path id="k1taas" d="M1444.476 6460.668h-17.903a.782.782 0 0 1-.78-.779c0-.429.352-.779.78-.779h17.903a.78.78 0 0 1 .779.779c0 .428-.35.779-.78.779z"/><path id="k1taat" d="M1432.063 6450.838h-18.459a.781.781 0 0 1-.779-.78.78.78 0 0 1 .78-.778h18.458a.78.78 0 0 1 .78.779c0 .428-.35.779-.78.779z"/><path id="k1taau" d="M1474.627 6450.838h-38.681a.782.782 0 0 1-.779-.78c0-.428.351-.778.779-.778h38.681a.78.78 0 0 1 .779.779c0 .428-.35.779-.779.779z"/><path id="k1taav" d="M1469.127 6465.583h-9.181a.782.782 0 0 1-.778-.779c0-.429.351-.779.778-.779h9.181a.78.78 0 0 1 .779.779c0 .428-.35.779-.779.779z"/><path id="k1taaw" d="M1456.623 6465.583h-43.019a.782.782 0 0 1-.779-.779c0-.429.351-.779.779-.779h43.019a.78.78 0 0 1 .778.779c0 .428-.35.779-.778.779z"/><path id="k1taax" d="M1535.867 6500.025h-162.623l31.668-24.665h99.287z"/><path id="k1taay" d="M1397.76 6476.898l4.37-3.292"/><path id="k1taaz" d="M1382.05 6488.734l14.129-10.645"/><path id="k1taaA" d="M1389.986 6505.367h-20.62c-3.018 0-4.3-3.837-1.892-5.652l4.527-3.41"/><path id="k1taaB" d="M1477.052 6505.367h-72.14"/><path id="k1taaC" d="M1524.951 6505.367h-34.843"/><path id="k1taaD" d="M1523.706 6486.678l6.238 4.7"/><path id="k1taaE" d="M1510.534 6476.755l11.936 8.99"/><path id="k1taaF" d="M1415.046 6477.672h-5.405l1.97-1.548h5.169z"/><path id="k1taaG" d="M1411.958 6480.55h-5.983l2.298-1.806h5.702z"/><path id="k1taaH" d="M1421.076 6480.55h-5.983l1.867-1.806h5.7z"/><path id="k1taaI" d="M1430.194 6480.55h-5.984l1.436-1.806h5.7z"/><path id="k1taaJ" d="M1439.312 6480.55h-5.983l1.004-1.806h5.7z"/><path id="k1taaK" d="M1448.43 6480.55h-5.983l.573-1.806h5.7z"/><path id="k1taaL" d="M1457.548 6480.55h-5.983l.14-1.806h5.7z"/><path id="k1taaM" d="M1466.665 6480.55h-5.983l-.29-1.806h5.701z"/><path id="k1taaN" d="M1475.783 6480.55h-5.983l-.722-1.806h5.7z"/><path id="k1taaO" d="M1484.901 6480.55h-5.983l-1.154-1.806h5.7z"/><path id="k1taaP" d="M1494.02 6480.55h-5.984l-1.584-1.806h5.7z"/><path id="k1taaQ" d="M1503.137 6480.55h-5.983l-2.016-1.806h5.7z"/><path id="k1taaR" d="M1408.587 6483.567h-6.457l2.668-2.094h6.128z"/><path id="k1taaS" d="M1418.427 6483.567h-6.457l2.167-2.094h6.128z"/><path id="k1taaT" d="M1428.267 6483.567h-6.458l1.667-2.094h6.128z"/><path id="k1taaU" d="M1438.105 6483.567h-6.457l1.166-2.094h6.128z"/><path id="k1taaV" d="M1447.945 6483.567h-6.457l.664-2.094h6.13z"/><path id="k1taaW" d="M1457.784 6483.567h-6.457l.164-2.094h6.13z"/><path id="k1taaX" d="M1467.624 6483.567h-6.457l-.337-2.094h6.129z"/><path id="k1taaY" d="M1477.463 6483.567h-6.457l-.837-2.094h6.129z"/><path id="k1taaZ" d="M1487.303 6483.567h-6.457l-1.338-2.094h6.129z"/><path id="k1taba" d="M1497.142 6483.567h-6.457l-1.838-2.094h6.129z"/><path id="k1tabb" d="M1506.981 6483.567h-6.457l-2.339-2.094h6.13z"/><path id="k1tabc" d="M1404.429 6487.29h-7.041l3.157-2.478h6.653z"/><path id="k1tabd" d="M1415.158 6487.29h-7.04l2.563-2.478h6.653z"/><path id="k1tabe" d="M1479.368 6487.29h-60.52l1.97-2.478h57.18z"/><path id="k1tabf" d="M1490.266 6487.29h-7.042l-1.583-2.478h6.652z"/><path id="k1tabg" d="M1500.995 6487.29h-7.042l-2.176-2.478h6.653z"/><path id="k1tabh" d="M1511.725 6487.29h-7.042l-2.768-2.478h6.653z"/><path id="k1tabi" d="M1425.984 6477.672h-5.405l1.492-1.548h5.168z"/><path id="k1tabj" d="M1433.707 6477.672h-5.405l1.152-1.548h5.168z"/><path id="k1tabk" d="M1441.429 6477.672h-5.405l.813-1.548h5.168z"/><path id="k1tabl" d="M1449.15 6477.672h-5.405l.474-1.548h5.168z"/><path id="k1tabm" d="M1456.872 6477.672h-5.405l.135-1.548h5.168z"/><path id="k1tabn" d="M1464.595 6477.672h-5.406l-.203-1.548h5.168z"/><path id="k1tabo" d="M1472.573 6477.672h-5.405l-.554-1.548h5.168z"/><path id="k1tabp" d="M1484.8 6477.672h-5.405l-1.091-1.548h5.168z"/><path id="k1tabq" d="M1492.136 6477.672h-5.405l-1.413-1.548h5.168z"/><path id="k1tabr" d="M1499.472 6477.672h-5.405l-1.736-1.548h5.168z"/><path id="k1tabs" d="M1473.095 6496.681h-37.078l2.926-6.898h31.226z"/><path id="k1tabt" d="M1533.15 6502.743h-157.188a2.718 2.718 0 0 1-2.718-2.717h162.623c0 1.5-1.217 2.717-2.718 2.717z"/><path id="k1tabu" d="M1474.361 6459.11h-37.364a2.691 2.691 0 0 1-2.69-2.69v-67.047a2.69 2.69 0 0 1 2.69-2.69h37.364a2.69 2.69 0 0 1 2.69 2.69v67.047a2.69 2.69 0 0 1-2.69 2.69z"/><path id="k1tabv" d="M1435.95 6450.06v-60.59h39.45v60.59z"/><path id="k1tabw" d="M1458.087 6454.717a2.408 2.408 0 1 1-4.816 0 2.408 2.408 0 0 1 4.816 0z"/><path id="k1tabx" d="M1398.825 6426.4h-4.946c-6.312 0-11.427-5.115-11.427-11.426v-4.947c0-6.311 5.115-11.427 11.427-11.427h4.946c6.312 0 11.427 5.116 11.427 11.427v4.947c0 6.31-5.115 11.427-11.427 11.427z"/><path id="k1taby" d="M1399.118 6428.046h-5.532c-7.059 0-12.78-5.722-12.78-12.78v-5.532c0-7.059 5.721-12.78 12.78-12.78h5.532c7.06 0 12.78 5.721 12.78 12.78v5.532c0 7.058-5.72 12.78-12.78 12.78z"/><path id="k1tabz" d="M1386.388 6408.974h2.786c1.556 0 2.848.498 2.848 2.278 0 1.758-1.196 2.298-2.774 2.298h-1.207v2.923h-1.653zm1.653 3.178h1.102c.582 0 1.164-.202 1.164-.9 0-.774-.784-.88-1.419-.88h-.847z"/><path id="k1tabA" d="M1393.06 6408.974h1.654v2.796h3.209v-2.796h1.653v7.5h-1.653v-3.242h-3.21v3.241h-1.652z"/><path id="k1tabB" d="M1401.1 6408.974h2.787c1.556 0 2.849.498 2.849 2.278 0 1.758-1.197 2.298-2.775 2.298h-1.207v2.923h-1.653zm1.654 3.178h1.102c.582 0 1.164-.202 1.164-.9 0-.774-.784-.88-1.42-.88h-.846z"/><path id="k1tabC" d="M1512.281 6463.18h-4.947c-6.31 0-11.427-5.116-11.427-11.426v-4.948c0-6.31 5.116-11.426 11.427-11.426h4.947c6.311 0 11.427 5.116 11.427 11.426v4.948c0 6.31-5.116 11.426-11.427 11.426z"/><path id="k1tabD" d="M1512.574 6464.826h-5.533c-7.058 0-12.779-5.722-12.779-12.78v-5.532c0-7.06 5.721-12.78 12.78-12.78h5.532c7.058 0 12.78 5.72 12.78 12.78v5.532c0 7.058-5.722 12.78-12.78 12.78z"/><path id="k1tabE" d="M1505.187 6446.467c-.343-.41-.841-.642-1.483-.642-1.307 0-2.27 1.062-2.27 2.524 0 1.46.963 2.524 2.215 2.524.697 0 1.262-.31 1.615-.842l1.44 1.075c-.653.929-1.76 1.36-2.834 1.36-2.447 0-4.23-1.604-4.23-4.117s1.782-4.118 4.23-4.118c.875 0 1.98.299 2.645 1.15z"/><path id="k1tabF" d="M1507.501 6448.216h2.336v-2.336h1.394v2.336h2.336v1.395h-2.336v2.335h-1.394v-2.335h-2.336z"/><path id="k1tabG" d="M1514.874 6448.216h2.336v-2.336h1.394v2.336h2.336v1.395h-2.336v2.335h-1.394v-2.335h-2.336z"/><path id="k1tabH" d="M1499.217 6425.096h-3.508a8.102 8.102 0 0 1-8.101-8.102v-3.507a8.102 8.102 0 0 1 8.1-8.1h3.509a8.101 8.101 0 0 1 8.1 8.1v3.507a8.101 8.101 0 0 1-8.1 8.102z"/><path id="k1tabI" d="M1499.424 6426.263h-3.922a9.06 9.06 0 0 1-9.061-9.06v-3.923a9.06 9.06 0 0 1 9.06-9.06h3.923a9.061 9.061 0 0 1 9.06 9.06v3.922a9.061 9.061 0 0 1-9.06 9.061z"/><path id="k1tabJ" d="M1490.161 6413.034h.91v1.541h1.768v-1.54h.91v4.13h-.91v-1.786h-1.768v1.786h-.91z"/><path id="k1tabK" d="M1495.39 6413.84h-1.178v-.806h3.267v.805h-1.178v3.326h-.911z"/><path id="k1tabL" d="M1497.94 6413.034h1.377l.951 2.696h.012l.957-2.696h1.37v4.131h-.909v-3.168h-.012l-1.085 3.168h-.694l-1.045-3.168h-.012v3.168h-.91z"/><path id="k1tabM" d="M1503.485 6413.034h.91v3.291h1.687v.84h-2.597z"/><path id="k1tabN" d="M1431.546 6395.457h-4.947c-6.311 0-11.427-5.116-11.427-11.427v-4.947c0-6.311 5.116-11.427 11.427-11.427h4.947c6.31 0 11.426 5.116 11.426 11.427v4.947c0 6.311-5.115 11.427-11.426 11.427z"/><path id="k1tabO" d="M1431.838 6397.103h-5.532c-7.06 0-12.78-5.722-12.78-12.78v-5.533c0-7.058 5.72-12.78 12.78-12.78h5.532c7.059 0 12.78 5.722 12.78 12.78v5.533c0 7.058-5.721 12.78-12.78 12.78z"/><path id="k1tabP" d="M1422.61 6382.308c0 1.049-.273 2.042-1.81 2.042-.898 0-1.555-.416-1.739-1.321l1.146-.28a.581.581 0 0 0 .56.496c.584 0 .593-.648.593-1.073v-3.636h1.25z"/><path id="k1tabQ" d="M1425.55 6378.535h1.032l2.467 5.672h-1.41l-.489-1.203h-2.202l-.473 1.203h-1.377zm.48 1.65l-.689 1.762h1.385z"/><path id="k1tabR" d="M1428.562 6378.536h1.426l1.4 3.716h.018l1.425-3.716h1.337l-2.338 5.67h-1.001z"/><path id="k1tabS" d="M1436.131 6378.535h1.033l2.466 5.672h-1.41l-.489-1.203h-2.2l-.475 1.203h-1.377zm.48 1.65l-.689 1.762h1.385z"/><path id="k1tabT" d="M1413.726 6461.964h-3.655a8.444 8.444 0 0 1-8.443-8.443v-3.655a8.444 8.444 0 0 1 8.443-8.443h3.655a8.443 8.443 0 0 1 8.443 8.443v3.655a8.443 8.443 0 0 1-8.443 8.443z"/><path id="k1tabU" d="M1413.942 6463.18h-4.088c-5.215 0-9.443-4.228-9.443-9.442v-4.088a9.443 9.443 0 0 1 9.443-9.443h4.088c5.215 0 9.442 4.228 9.442 9.443v4.088a9.442 9.442 0 0 1-9.442 9.442z"/><path id="k1tabV" d="M1410.536 6452.529c0 1.473-.382 2.866-2.54 2.866-1.26 0-2.18-.584-2.439-1.854l1.607-.394a.818.818 0 0 0 .787.697c.82 0 .832-.91.832-1.506v-5.104h1.753z"/><path id="k1tabW" d="M1415.976 6449.179c-.281-.36-.843-.528-1.27-.528-.495 0-1.18.225-1.18.82 0 1.45 3.664.518 3.664 3.305 0 1.777-1.428 2.619-3.068 2.619-1.024 0-1.922-.303-2.676-1l1.248-1.371c.359.47.944.753 1.528.753.573 0 1.215-.27 1.215-.832 0-1.461-3.732-.675-3.732-3.328 0-1.697 1.472-2.585 3.035-2.585.899 0 1.764.236 2.439.832z"/><path id="k1tabX" d="M1526.195 6470.184a1.244 1.244 0 1 1-2.487 0 1.244 1.244 0 0 1 2.487 0z"/><path id="k1tabY" d="M1508.226 6389.47a1.245 1.245 0 1 1-2.49-.001 1.245 1.245 0 0 1 2.49.001z"/><path id="k1tabZ" d="M1517.907 6419.765a.806.806 0 1 1-1.613-.001.806.806 0 0 1 1.613 0z"/><path id="k1taca" d="M1394.67 6466.409a.806.806 0 1 1-1.612-.001.806.806 0 0 1 1.613 0z"/><path id="k1tacb" d="M1404.725 6389.47a.806.806 0 1 1-1.613 0 .806.806 0 0 1 1.613 0z"/><path id="k1tacc" d="M1512.53 6472.985a.806.806 0 1 1-1.612.002.806.806 0 0 1 1.612-.002z"/><path id="k1tacd" d="M1425.753 6402.976a1.245 1.245 0 1 1-2.49-.002 1.245 1.245 0 0 1 2.49.002z"/><path id="k1tace" d="M1382.05 6469.719a1.244 1.244 0 1 1-2.488 0 1.244 1.244 0 0 1 2.488 0z"/><path id="k1tacf" d="M1396.352 6389.47a1.244 1.244 0 1 1-2.488 0 1.244 1.244 0 0 1 2.488 0z"/></defs><g><g transform="translate(-1365 -6340)"><use fill="#fff" xlink:href="#k1taa"/></g><g transform="translate(-1365 -6340)"><use fill="#fff" xlink:href="#k1tab"/></g><g transform="translate(-1365 -6340)"><use fill="#fff" xlink:href="#k1tac"/></g><g transform="translate(-1365 -6340)"><use fill="#fff" xlink:href="#k1tad"/></g><g transform="translate(-1365 -6340)"><use fill="#fff" xlink:href="#k1tae"/></g><g transform="translate(-1365 -6340)"><use fill="#fff" xlink:href="#k1taf"/></g><g transform="translate(-1365 -6340)"><use fill="#fff" xlink:href="#k1tag"/></g><g transform="translate(-1365 -6340)"><use fill="#fff" xlink:href="#k1tah"/></g><g transform="translate(-1365 -6340)"><use fill="#fff" xlink:href="#k1tai"/></g><g transform="translate(-1365 -6340)"><use fill="#fff" xlink:href="#k1taj"/></g><g transform="translate(-1365 -6340)"><use fill="#fff" xlink:href="#k1tak"/></g><g transform="translate(-1365 -6340)"><use fill="#fff" xlink:href="#k1tal"/></g><g transform="translate(-1365 -6340)"><use fill="#fff" xlink:href="#k1tam"/></g><g transform="translate(-1365 -6340)"><use fill="#fff" xlink:href="#k1tan"/></g><g transform="translate(-1365 -6340)"><use fill="#fff" xlink:href="#k1tao"/></g><g transform="translate(-1365 -6340)"><use fill="#fff" xlink:href="#k1tap"/></g><g transform="translate(-1365 -6340)"><use fill="#fff" xlink:href="#k1taq"/></g><g transform="translate(-1365 -6340)"><use fill="#fff" xlink:href="#k1tar"/></g><g transform="translate(-1365 -6340)"><use fill="#fff" xlink:href="#k1tas"/></g><g transform="translate(-1365 -6340)"><use fill="#fff" xlink:href="#k1tat"/></g><g transform="translate(-1365 -6340)"><use fill="#fff" xlink:href="#k1tau"/></g><g transform="translate(-1365 -6340)"><use fill="#fff" xlink:href="#k1tav"/></g><g transform="translate(-1365 -6340)"><use fill="#fff" xlink:href="#k1taw"/></g><g transform="translate(-1365 -6340)"><use fill="#fff" xlink:href="#k1tax"/></g><g transform="translate(-1365 -6340)"><use fill="#fff" xlink:href="#k1tay"/></g><g transform="translate(-1365 -6340)"><use fill="#fff" xlink:href="#k1taz"/></g><g transform="translate(-1365 -6340)"><use fill="#fff" xlink:href="#k1taA"/></g><g transform="translate(-1365 -6340)"><use fill="#fff" xlink:href="#k1taB"/></g><g transform="translate(-1365 -6340)"><use fill="#fff" xlink:href="#k1taC"/></g><g transform="translate(-1365 -6340)"><use fill="#fff" xlink:href="#k1taD"/></g><g transform="translate(-1365 -6340)"><use fill="#fff" xlink:href="#k1taE"/></g><g transform="translate(-1365 -6340)"><use fill="#fff" xlink:href="#k1taF"/></g><g transform="translate(-1365 -6340)"><use fill="#fff" fill-opacity="0" stroke="#bbe5ff" stroke-linecap="round" stroke-miterlimit="50" xlink:href="#k1taG"/></g><g transform="translate(-1365 -6340)"><use fill="#fff" fill-opacity="0" stroke="#bbe5ff" stroke-linecap="round" stroke-miterlimit="50" xlink:href="#k1taH"/></g><g transform="translate(-1365 -6340)"><use fill="#fff" fill-opacity="0" stroke="#bbe5ff" stroke-linecap="round" stroke-miterlimit="50" xlink:href="#k1taI"/></g><g transform="translate(-1365 -6340)"><use fill="#fff" fill-opacity="0" stroke="#bbe5ff" stroke-linecap="round" stroke-miterlimit="50" xlink:href="#k1taJ"/></g><g transform="translate(-1365 -6340)"><use fill="#fff" fill-opacity="0" stroke="#bbe5ff" stroke-linecap="round" stroke-miterlimit="50" xlink:href="#k1taK"/></g><g transform="translate(-1365 -6340)"><use fill="#fff" fill-opacity="0" stroke="#bbe5ff" stroke-linecap="round" stroke-miterlimit="50" xlink:href="#k1taL"/></g><g transform="translate(-1365 -6340)"><use fill="#fff" fill-opacity="0" stroke="#bbe5ff" stroke-linecap="round" stroke-miterlimit="50" xlink:href="#k1taM"/></g><g transform="translate(-1365 -6340)"><use fill="#fff" fill-opacity="0" stroke="#bbe5ff" stroke-linecap="round" stroke-miterlimit="50" xlink:href="#k1taN"/></g><g transform="translate(-1365 -6340)"><use fill="#fff" fill-opacity="0" stroke="#bbe5ff" stroke-linecap="round" stroke-miterlimit="50" xlink:href="#k1taO"/></g><g transform="translate(-1365 -6340)"><use fill="#fff" fill-opacity="0" stroke="#bbe5ff" stroke-linecap="round" stroke-miterlimit="50" xlink:href="#k1taP"/></g><g transform="translate(-1365 -6340)"><use fill="#fff" fill-opacity="0" stroke="#bbe5ff" stroke-linecap="round" stroke-miterlimit="50" xlink:href="#k1taQ"/></g><g transform="translate(-1365 -6340)"><use fill="#fff" fill-opacity="0" stroke="#bbe5ff" stroke-linecap="round" stroke-miterlimit="50" xlink:href="#k1taR"/></g><g transform="translate(-1365 -6340)"><use fill="#fff" fill-opacity="0" stroke="#bbe5ff" stroke-linecap="round" stroke-miterlimit="50" xlink:href="#k1taS"/></g><g transform="translate(-1365 -6340)"><use fill="#fff" fill-opacity="0" stroke="#bbe5ff" stroke-linecap="round" stroke-miterlimit="50" xlink:href="#k1taT"/></g><g transform="translate(-1365 -6340)"><use fill="#fff" fill-opacity="0" stroke="#bbe5ff" stroke-linecap="round" stroke-miterlimit="50" xlink:href="#k1taU"/></g><g transform="translate(-1365 -6340)"><use fill="#fff" fill-opacity="0" stroke="#bbe5ff" stroke-linecap="round" stroke-miterlimit="50" xlink:href="#k1taV"/></g><g transform="translate(-1365 -6340)"><use fill="#fff" fill-opacity="0" stroke="#8ab7ce" stroke-miterlimit="50" xlink:href="#k1taW"/></g><g transform="translate(-1365 -6340)"><use fill="#fff" fill-opacity="0" stroke="#8ab7ce" stroke-miterlimit="50" xlink:href="#k1taX"/></g><g transform="translate(-1365 -6340)"><use fill="#d7e8f2" xlink:href="#k1taY"/></g><g transform="translate(-1365 -6340)"><use fill="#a3caef" xlink:href="#k1taZ"/></g><g transform="translate(-1365 -6340)"><use fill="#4e6d84" xlink:href="#k1taaa"/></g><g transform="translate(-1365 -6340)"><use fill="#66e29e" xlink:href="#k1taab"/></g><g transform="translate(-1365 -6340)"><use fill="#66e29e" xlink:href="#k1taac"/></g><g transform="translate(-1365 -6340)"><use fill="#80aeff" xlink:href="#k1taad"/></g><g transform="translate(-1365 -6340)"><use fill="#66e29e" xlink:href="#k1taae"/></g><g transform="translate(-1365 -6340)"><use fill="#80aeff" xlink:href="#k1taaf"/></g><g transform="translate(-1365 -6340)"><use fill="#80aeff" xlink:href="#k1taag"/></g><g transform="translate(-1365 -6340)"><use fill="#66e29e" xlink:href="#k1taah"/></g><g transform="translate(-1365 -6340)"><use fill="#66e29e" xlink:href="#k1taai"/></g><g transform="translate(-1365 -6340)"><use fill="#80aeff" xlink:href="#k1taaj"/></g><g transform="translate(-1365 -6340)"><use fill="#80aeff" xlink:href="#k1taak"/></g><g transform="translate(-1365 -6340)"><use fill="#66e29e" xlink:href="#k1taal"/></g><g transform="translate(-1365 -6340)"><use fill="#66e29e" xlink:href="#k1taam"/></g><g transform="translate(-1365 -6340)"><use fill="#66e29e" xlink:href="#k1taan"/></g><g transform="translate(-1365 -6340)"><use fill="#80aeff" xlink:href="#k1taao"/></g><g transform="translate(-1365 -6340)"><use fill="#66e29e" xlink:href="#k1taap"/></g><g transform="translate(-1365 -6340)"><use fill="#80aeff" xlink:href="#k1taaq"/></g><g transform="translate(-1365 -6340)"><use fill="#80aeff" xlink:href="#k1taar"/></g><g transform="translate(-1365 -6340)"><use fill="#66e29e" xlink:href="#k1taas"/></g><g transform="translate(-1365 -6340)"><use fill="#66e29e" xlink:href="#k1taat"/></g><g transform="translate(-1365 -6340)"><use fill="#80aeff" xlink:href="#k1taau"/></g><g transform="translate(-1365 -6340)"><use fill="#80aeff" xlink:href="#k1taav"/></g><g transform="translate(-1365 -6340)"><use fill="#66e29e" xlink:href="#k1taaw"/></g><g transform="translate(-1365 -6340)"><use fill="#b3d6ff" xlink:href="#k1taax"/></g><g transform="translate(-1365 -6340)"><use fill="#fff" fill-opacity="0" stroke="#8ab7ce" stroke-linecap="round" stroke-miterlimit="50" xlink:href="#k1taay"/></g><g transform="translate(-1365 -6340)"><use fill="#fff" fill-opacity="0" stroke="#8ab7ce" stroke-linecap="round" stroke-miterlimit="50" xlink:href="#k1taaz"/></g><g transform="translate(-1365 -6340)"><use fill="#fff" fill-opacity="0" stroke="#8ab7ce" stroke-linecap="round" stroke-miterlimit="50" xlink:href="#k1taaA"/></g><g transform="translate(-1365 -6340)"><use fill="#fff" fill-opacity="0" stroke="#8ab7ce" stroke-linecap="round" stroke-miterlimit="50" xlink:href="#k1taaB"/></g><g transform="translate(-1365 -6340)"><use fill="#fff" fill-opacity="0" stroke="#8ab7ce" stroke-linecap="round" stroke-miterlimit="50" xlink:href="#k1taaC"/></g><g transform="translate(-1365 -6340)"><use fill="#fff" fill-opacity="0" stroke="#8ab7ce" stroke-linecap="round" stroke-miterlimit="50" xlink:href="#k1taaD"/></g><g transform="translate(-1365 -6340)"><use fill="#fff" fill-opacity="0" stroke="#8ab7ce" stroke-linecap="round" stroke-miterlimit="50" xlink:href="#k1taaE"/></g><g transform="translate(-1365 -6340)"><use fill="#6e89a0" xlink:href="#k1taaF"/></g><g transform="translate(-1365 -6340)"><use fill="#6e89a0" xlink:href="#k1taaG"/></g><g transform="translate(-1365 -6340)"><use fill="#6e89a0" xlink:href="#k1taaH"/></g><g transform="translate(-1365 -6340)"><use fill="#6e89a0" xlink:href="#k1taaI"/></g><g transform="translate(-1365 -6340)"><use fill="#6e89a0" xlink:href="#k1taaJ"/></g><g transform="translate(-1365 -6340)"><use fill="#6e89a0" xlink:href="#k1taaK"/></g><g transform="translate(-1365 -6340)"><use fill="#6e89a0" xlink:href="#k1taaL"/></g><g transform="translate(-1365 -6340)"><use fill="#6e89a0" xlink:href="#k1taaM"/></g><g transform="translate(-1365 -6340)"><use fill="#6e89a0" xlink:href="#k1taaN"/></g><g transform="translate(-1365 -6340)"><use fill="#6e89a0" xlink:href="#k1taaO"/></g><g transform="translate(-1365 -6340)"><use fill="#6e89a0" xlink:href="#k1taaP"/></g><g transform="translate(-1365 -6340)"><use fill="#6e89a0" xlink:href="#k1taaQ"/></g><g transform="translate(-1365 -6340)"><use fill="#6e89a0" xlink:href="#k1taaR"/></g><g transform="translate(-1365 -6340)"><use fill="#6e89a0" xlink:href="#k1taaS"/></g><g transform="translate(-1365 -6340)"><use fill="#6e89a0" xlink:href="#k1taaT"/></g><g transform="translate(-1365 -6340)"><use fill="#6e89a0" xlink:href="#k1taaU"/></g><g transform="translate(-1365 -6340)"><use fill="#6e89a0" xlink:href="#k1taaV"/></g><g transform="translate(-1365 -6340)"><use fill="#6e89a0" xlink:href="#k1taaW"/></g><g transform="translate(-1365 -6340)"><use fill="#6e89a0" xlink:href="#k1taaX"/></g><g transform="translate(-1365 -6340)"><use fill="#6e89a0" xlink:href="#k1taaY"/></g><g transform="translate(-1365 -6340)"><use fill="#6e89a0" xlink:href="#k1taaZ"/></g><g transform="translate(-1365 -6340)"><use fill="#6e89a0" xlink:href="#k1taba"/></g><g transform="translate(-1365 -6340)"><use fill="#6e89a0" xlink:href="#k1tabb"/></g><g transform="translate(-1365 -6340)"><use fill="#6e89a0" xlink:href="#k1tabc"/></g><g transform="translate(-1365 -6340)"><use fill="#6e89a0" xlink:href="#k1tabd"/></g><g transform="translate(-1365 -6340)"><use fill="#6e89a0" xlink:href="#k1tabe"/></g><g transform="translate(-1365 -6340)"><use fill="#6e89a0" xlink:href="#k1tabf"/></g><g transform="translate(-1365 -6340)"><use fill="#6e89a0" xlink:href="#k1tabg"/></g><g transform="translate(-1365 -6340)"><use fill="#6e89a0" xlink:href="#k1tabh"/></g><g transform="translate(-1365 -6340)"><use fill="#6e89a0" xlink:href="#k1tabi"/></g><g transform="translate(-1365 -6340)"><use fill="#6e89a0" xlink:href="#k1tabj"/></g><g transform="translate(-1365 -6340)"><use fill="#6e89a0" xlink:href="#k1tabk"/></g><g transform="translate(-1365 -6340)"><use fill="#6e89a0" xlink:href="#k1tabl"/></g><g transform="translate(-1365 -6340)"><use fill="#6e89a0" xlink:href="#k1tabm"/></g><g transform="translate(-1365 -6340)"><use fill="#6e89a0" xlink:href="#k1tabn"/></g><g transform="translate(-1365 -6340)"><use fill="#6e89a0" xlink:href="#k1tabo"/></g><g transform="translate(-1365 -6340)"><use fill="#6e89a0" xlink:href="#k1tabp"/></g><g transform="translate(-1365 -6340)"><use fill="#6e89a0" xlink:href="#k1tabq"/></g><g transform="translate(-1365 -6340)"><use fill="#6e89a0" xlink:href="#k1tabr"/></g><g transform="translate(-1365 -6340)"><use fill="#85aed6" xlink:href="#k1tabs"/></g><g transform="translate(-1365 -6340)"><use fill="#96c1ea" xlink:href="#k1tabt"/></g><g opacity=".85" transform="translate(-1365 -6340)"><g opacity=".85"><use fill="#96a8ea" xlink:href="#k1tabu"/></g><g opacity=".85"><use fill="#c0e0fc" xlink:href="#k1tabv"/></g><g opacity=".85"><use fill="#c0e0fc" xlink:href="#k1tabw"/></g></g><g transform="translate(-1365 -6340)"><use fill="#958ed6" xlink:href="#k1tabx"/></g><g transform="translate(-1365 -6340)"><use fill="#fff" fill-opacity="0" stroke="#958ed6" stroke-miterlimit="50" xlink:href="#k1taby"/></g><g transform="translate(-1365 -6340)"><use fill="#e1f4ff" xlink:href="#k1tabz"/></g><g transform="translate(-1365 -6340)"><use fill="#e1f4ff" xlink:href="#k1tabA"/></g><g transform="translate(-1365 -6340)"><use fill="#e1f4ff" xlink:href="#k1tabB"/></g><g transform="translate(-1365 -6340)"><use fill="#679af4" xlink:href="#k1tabC"/></g><g transform="translate(-1365 -6340)"><use fill="#fff" fill-opacity="0" stroke="#80aeff" stroke-miterlimit="50" xlink:href="#k1tabD"/></g><g transform="translate(-1365 -6340)"><use fill="#e1f4ff" xlink:href="#k1tabE"/></g><g transform="translate(-1365 -6340)"><use fill="#e1f4ff" xlink:href="#k1tabF"/></g><g transform="translate(-1365 -6340)"><use fill="#e1f4ff" xlink:href="#k1tabG"/></g><g transform="translate(-1365 -6340)"><use fill="#f79b48" xlink:href="#k1tabH"/></g><g transform="translate(-1365 -6340)"><use fill="#fff" fill-opacity="0" stroke="#f79b48" stroke-miterlimit="50" xlink:href="#k1tabI"/></g><g transform="translate(-1365 -6340)"><use fill="#e1f4ff" xlink:href="#k1tabJ"/></g><g transform="translate(-1365 -6340)"><use fill="#e1f4ff" xlink:href="#k1tabK"/></g><g transform="translate(-1365 -6340)"><use fill="#e1f4ff" xlink:href="#k1tabL"/></g><g transform="translate(-1365 -6340)"><use fill="#e1f4ff" xlink:href="#k1tabM"/></g><g transform="translate(-1365 -6340)"><use fill="#f78c57" xlink:href="#k1tabN"/></g><g transform="translate(-1365 -6340)"><use fill="#fff" fill-opacity="0" stroke="#f78c57" stroke-miterlimit="50" xlink:href="#k1tabO"/></g><g transform="translate(-1365 -6340)"><use fill="#e1f4ff" xlink:href="#k1tabP"/></g><g transform="translate(-1365 -6340)"><use fill="#e1f4ff" xlink:href="#k1tabQ"/></g><g transform="translate(-1365 -6340)"><use fill="#e1f4ff" xlink:href="#k1tabR"/></g><g transform="translate(-1365 -6340)"><use fill="#e1f4ff" xlink:href="#k1tabS"/></g><g transform="translate(-1365 -6340)"><use fill="#f9bf3e" xlink:href="#k1tabT"/></g><g transform="translate(-1365 -6340)"><use fill="#fff" fill-opacity="0" stroke="#f9bf3e" stroke-miterlimit="50" xlink:href="#k1tabU"/></g><g transform="translate(-1365 -6340)"><use fill="#e1f4ff" xlink:href="#k1tabV"/></g><g transform="translate(-1365 -6340)"><use fill="#e1f4ff" xlink:href="#k1tabW"/></g><g transform="translate(-1365 -6340)"><use fill="#fff" fill-opacity="0" stroke="#96c1ea" stroke-miterlimit="50" stroke-width="1.33" xlink:href="#k1tabX"/></g><g transform="translate(-1365 -6340)"><use fill="#fff" fill-opacity="0" stroke="#96c1ea" stroke-miterlimit="50" stroke-width="1.33" xlink:href="#k1tabY"/></g><g transform="translate(-1365 -6340)"><use fill="#f78c57" xlink:href="#k1tabZ"/></g><g transform="translate(-1365 -6340)"><use fill="#f78c57" xlink:href="#k1taca"/></g><g transform="translate(-1365 -6340)"><use fill="#f78c57" xlink:href="#k1tacb"/></g><g transform="translate(-1365 -6340)"><use fill="#f78c57" xlink:href="#k1tacc"/></g><g transform="translate(-1365 -6340)"><use fill="#fff" fill-opacity="0" stroke="#96c1ea" stroke-miterlimit="50" stroke-width="1.33" xlink:href="#k1tacd"/></g><g transform="translate(-1365 -6340)"><use fill="#fff" fill-opacity="0" stroke="#96c1ea" stroke-miterlimit="50" stroke-width="1.33" xlink:href="#k1tace"/></g><g transform="translate(-1365 -6340)"><use fill="#fff" fill-opacity="0" stroke="#96c1ea" stroke-miterlimit="50" stroke-width="1.33" xlink:href="#k1tacf"/></g></g></svg>